G04 #@! TF.GenerationSoftware,KiCad,Pcbnew,5.1.5*
G04 #@! TF.CreationDate,2020-05-24T16:04:19+02:00*
G04 #@! TF.ProjectId,ATSAML22GA18A_DevBoard,41545341-4d4c-4323-9247-413138415f44,rev?*
G04 #@! TF.SameCoordinates,Original*
G04 #@! TF.FileFunction,Soldermask,Top*
G04 #@! TF.FilePolarity,Negative*
%FSLAX46Y46*%
G04 Gerber Fmt 4.6, Leading zero omitted, Abs format (unit mm)*
G04 Created by KiCad (PCBNEW 5.1.5) date 2020-05-24 16:04:19*
%MOMM*%
%LPD*%
G04 APERTURE LIST*
%ADD10C,0.100000*%
G04 APERTURE END LIST*
D10*
G36*
X150605426Y-96639313D02*
G01*
X150757812Y-96669624D01*
X150921784Y-96737544D01*
X151069354Y-96836147D01*
X151194853Y-96961646D01*
X151293456Y-97109216D01*
X151361376Y-97273188D01*
X151396000Y-97447259D01*
X151396000Y-97624741D01*
X151361376Y-97798812D01*
X151293456Y-97962784D01*
X151194853Y-98110354D01*
X151069354Y-98235853D01*
X150921784Y-98334456D01*
X150757812Y-98402376D01*
X150605426Y-98432687D01*
X150583742Y-98437000D01*
X150406258Y-98437000D01*
X150384574Y-98432687D01*
X150232188Y-98402376D01*
X150068216Y-98334456D01*
X149920646Y-98235853D01*
X149795147Y-98110354D01*
X149696544Y-97962784D01*
X149628624Y-97798812D01*
X149594000Y-97624741D01*
X149594000Y-97447259D01*
X149628624Y-97273188D01*
X149696544Y-97109216D01*
X149795147Y-96961646D01*
X149920646Y-96836147D01*
X150068216Y-96737544D01*
X150232188Y-96669624D01*
X150384574Y-96639313D01*
X150406258Y-96635000D01*
X150583742Y-96635000D01*
X150605426Y-96639313D01*
G37*
G36*
X174989426Y-96639313D02*
G01*
X175141812Y-96669624D01*
X175305784Y-96737544D01*
X175453354Y-96836147D01*
X175578853Y-96961646D01*
X175677456Y-97109216D01*
X175745376Y-97273188D01*
X175780000Y-97447259D01*
X175780000Y-97624741D01*
X175745376Y-97798812D01*
X175677456Y-97962784D01*
X175578853Y-98110354D01*
X175453354Y-98235853D01*
X175305784Y-98334456D01*
X175141812Y-98402376D01*
X174989426Y-98432687D01*
X174967742Y-98437000D01*
X174790258Y-98437000D01*
X174768574Y-98432687D01*
X174616188Y-98402376D01*
X174452216Y-98334456D01*
X174304646Y-98235853D01*
X174179147Y-98110354D01*
X174080544Y-97962784D01*
X174012624Y-97798812D01*
X173978000Y-97624741D01*
X173978000Y-97447259D01*
X174012624Y-97273188D01*
X174080544Y-97109216D01*
X174179147Y-96961646D01*
X174304646Y-96836147D01*
X174452216Y-96737544D01*
X174616188Y-96669624D01*
X174768574Y-96639313D01*
X174790258Y-96635000D01*
X174967742Y-96635000D01*
X174989426Y-96639313D01*
G37*
G36*
X172449426Y-96639313D02*
G01*
X172601812Y-96669624D01*
X172765784Y-96737544D01*
X172913354Y-96836147D01*
X173038853Y-96961646D01*
X173137456Y-97109216D01*
X173205376Y-97273188D01*
X173240000Y-97447259D01*
X173240000Y-97624741D01*
X173205376Y-97798812D01*
X173137456Y-97962784D01*
X173038853Y-98110354D01*
X172913354Y-98235853D01*
X172765784Y-98334456D01*
X172601812Y-98402376D01*
X172449426Y-98432687D01*
X172427742Y-98437000D01*
X172250258Y-98437000D01*
X172228574Y-98432687D01*
X172076188Y-98402376D01*
X171912216Y-98334456D01*
X171764646Y-98235853D01*
X171639147Y-98110354D01*
X171540544Y-97962784D01*
X171472624Y-97798812D01*
X171438000Y-97624741D01*
X171438000Y-97447259D01*
X171472624Y-97273188D01*
X171540544Y-97109216D01*
X171639147Y-96961646D01*
X171764646Y-96836147D01*
X171912216Y-96737544D01*
X172076188Y-96669624D01*
X172228574Y-96639313D01*
X172250258Y-96635000D01*
X172427742Y-96635000D01*
X172449426Y-96639313D01*
G37*
G36*
X169909426Y-96639313D02*
G01*
X170061812Y-96669624D01*
X170225784Y-96737544D01*
X170373354Y-96836147D01*
X170498853Y-96961646D01*
X170597456Y-97109216D01*
X170665376Y-97273188D01*
X170700000Y-97447259D01*
X170700000Y-97624741D01*
X170665376Y-97798812D01*
X170597456Y-97962784D01*
X170498853Y-98110354D01*
X170373354Y-98235853D01*
X170225784Y-98334456D01*
X170061812Y-98402376D01*
X169909426Y-98432687D01*
X169887742Y-98437000D01*
X169710258Y-98437000D01*
X169688574Y-98432687D01*
X169536188Y-98402376D01*
X169372216Y-98334456D01*
X169224646Y-98235853D01*
X169099147Y-98110354D01*
X169000544Y-97962784D01*
X168932624Y-97798812D01*
X168898000Y-97624741D01*
X168898000Y-97447259D01*
X168932624Y-97273188D01*
X169000544Y-97109216D01*
X169099147Y-96961646D01*
X169224646Y-96836147D01*
X169372216Y-96737544D01*
X169536188Y-96669624D01*
X169688574Y-96639313D01*
X169710258Y-96635000D01*
X169887742Y-96635000D01*
X169909426Y-96639313D01*
G37*
G36*
X167369426Y-96639313D02*
G01*
X167521812Y-96669624D01*
X167685784Y-96737544D01*
X167833354Y-96836147D01*
X167958853Y-96961646D01*
X168057456Y-97109216D01*
X168125376Y-97273188D01*
X168160000Y-97447259D01*
X168160000Y-97624741D01*
X168125376Y-97798812D01*
X168057456Y-97962784D01*
X167958853Y-98110354D01*
X167833354Y-98235853D01*
X167685784Y-98334456D01*
X167521812Y-98402376D01*
X167369426Y-98432687D01*
X167347742Y-98437000D01*
X167170258Y-98437000D01*
X167148574Y-98432687D01*
X166996188Y-98402376D01*
X166832216Y-98334456D01*
X166684646Y-98235853D01*
X166559147Y-98110354D01*
X166460544Y-97962784D01*
X166392624Y-97798812D01*
X166358000Y-97624741D01*
X166358000Y-97447259D01*
X166392624Y-97273188D01*
X166460544Y-97109216D01*
X166559147Y-96961646D01*
X166684646Y-96836147D01*
X166832216Y-96737544D01*
X166996188Y-96669624D01*
X167148574Y-96639313D01*
X167170258Y-96635000D01*
X167347742Y-96635000D01*
X167369426Y-96639313D01*
G37*
G36*
X164829426Y-96639313D02*
G01*
X164981812Y-96669624D01*
X165145784Y-96737544D01*
X165293354Y-96836147D01*
X165418853Y-96961646D01*
X165517456Y-97109216D01*
X165585376Y-97273188D01*
X165620000Y-97447259D01*
X165620000Y-97624741D01*
X165585376Y-97798812D01*
X165517456Y-97962784D01*
X165418853Y-98110354D01*
X165293354Y-98235853D01*
X165145784Y-98334456D01*
X164981812Y-98402376D01*
X164829426Y-98432687D01*
X164807742Y-98437000D01*
X164630258Y-98437000D01*
X164608574Y-98432687D01*
X164456188Y-98402376D01*
X164292216Y-98334456D01*
X164144646Y-98235853D01*
X164019147Y-98110354D01*
X163920544Y-97962784D01*
X163852624Y-97798812D01*
X163818000Y-97624741D01*
X163818000Y-97447259D01*
X163852624Y-97273188D01*
X163920544Y-97109216D01*
X164019147Y-96961646D01*
X164144646Y-96836147D01*
X164292216Y-96737544D01*
X164456188Y-96669624D01*
X164608574Y-96639313D01*
X164630258Y-96635000D01*
X164807742Y-96635000D01*
X164829426Y-96639313D01*
G37*
G36*
X159016000Y-98437000D02*
G01*
X157214000Y-98437000D01*
X157214000Y-96635000D01*
X159016000Y-96635000D01*
X159016000Y-98437000D01*
G37*
G36*
X155685426Y-96639313D02*
G01*
X155837812Y-96669624D01*
X156001784Y-96737544D01*
X156149354Y-96836147D01*
X156274853Y-96961646D01*
X156373456Y-97109216D01*
X156441376Y-97273188D01*
X156476000Y-97447259D01*
X156476000Y-97624741D01*
X156441376Y-97798812D01*
X156373456Y-97962784D01*
X156274853Y-98110354D01*
X156149354Y-98235853D01*
X156001784Y-98334456D01*
X155837812Y-98402376D01*
X155685426Y-98432687D01*
X155663742Y-98437000D01*
X155486258Y-98437000D01*
X155464574Y-98432687D01*
X155312188Y-98402376D01*
X155148216Y-98334456D01*
X155000646Y-98235853D01*
X154875147Y-98110354D01*
X154776544Y-97962784D01*
X154708624Y-97798812D01*
X154674000Y-97624741D01*
X154674000Y-97447259D01*
X154708624Y-97273188D01*
X154776544Y-97109216D01*
X154875147Y-96961646D01*
X155000646Y-96836147D01*
X155148216Y-96737544D01*
X155312188Y-96669624D01*
X155464574Y-96639313D01*
X155486258Y-96635000D01*
X155663742Y-96635000D01*
X155685426Y-96639313D01*
G37*
G36*
X153145426Y-96639313D02*
G01*
X153297812Y-96669624D01*
X153461784Y-96737544D01*
X153609354Y-96836147D01*
X153734853Y-96961646D01*
X153833456Y-97109216D01*
X153901376Y-97273188D01*
X153936000Y-97447259D01*
X153936000Y-97624741D01*
X153901376Y-97798812D01*
X153833456Y-97962784D01*
X153734853Y-98110354D01*
X153609354Y-98235853D01*
X153461784Y-98334456D01*
X153297812Y-98402376D01*
X153145426Y-98432687D01*
X153123742Y-98437000D01*
X152946258Y-98437000D01*
X152924574Y-98432687D01*
X152772188Y-98402376D01*
X152608216Y-98334456D01*
X152460646Y-98235853D01*
X152335147Y-98110354D01*
X152236544Y-97962784D01*
X152168624Y-97798812D01*
X152134000Y-97624741D01*
X152134000Y-97447259D01*
X152168624Y-97273188D01*
X152236544Y-97109216D01*
X152335147Y-96961646D01*
X152460646Y-96836147D01*
X152608216Y-96737544D01*
X152772188Y-96669624D01*
X152924574Y-96639313D01*
X152946258Y-96635000D01*
X153123742Y-96635000D01*
X153145426Y-96639313D01*
G37*
G36*
X179463000Y-98437000D02*
G01*
X177661000Y-98437000D01*
X177661000Y-96635000D01*
X179463000Y-96635000D01*
X179463000Y-98437000D01*
G37*
G36*
X163080000Y-98437000D02*
G01*
X161278000Y-98437000D01*
X161278000Y-96635000D01*
X163080000Y-96635000D01*
X163080000Y-98437000D01*
G37*
G36*
X178672426Y-94099313D02*
G01*
X178824812Y-94129624D01*
X178988784Y-94197544D01*
X179136354Y-94296147D01*
X179261853Y-94421646D01*
X179360456Y-94569216D01*
X179428376Y-94733188D01*
X179463000Y-94907259D01*
X179463000Y-95084741D01*
X179428376Y-95258812D01*
X179360456Y-95422784D01*
X179261853Y-95570354D01*
X179136354Y-95695853D01*
X178988784Y-95794456D01*
X178824812Y-95862376D01*
X178672426Y-95892687D01*
X178650742Y-95897000D01*
X178473258Y-95897000D01*
X178451574Y-95892687D01*
X178299188Y-95862376D01*
X178135216Y-95794456D01*
X177987646Y-95695853D01*
X177862147Y-95570354D01*
X177763544Y-95422784D01*
X177695624Y-95258812D01*
X177661000Y-95084741D01*
X177661000Y-94907259D01*
X177695624Y-94733188D01*
X177763544Y-94569216D01*
X177862147Y-94421646D01*
X177987646Y-94296147D01*
X178135216Y-94197544D01*
X178299188Y-94129624D01*
X178451574Y-94099313D01*
X178473258Y-94095000D01*
X178650742Y-94095000D01*
X178672426Y-94099313D01*
G37*
G36*
X161815383Y-93966810D02*
G01*
X161859987Y-93980341D01*
X161901090Y-94002310D01*
X161937120Y-94031880D01*
X161966690Y-94067910D01*
X161988659Y-94109013D01*
X162002190Y-94153617D01*
X162007000Y-94202454D01*
X162007000Y-94773546D01*
X162002190Y-94822383D01*
X161988659Y-94866987D01*
X161966690Y-94908090D01*
X161937120Y-94944120D01*
X161901090Y-94973690D01*
X161859987Y-94995659D01*
X161815383Y-95009190D01*
X161766546Y-95014000D01*
X161095454Y-95014000D01*
X161046617Y-95009190D01*
X161002013Y-94995659D01*
X160960910Y-94973690D01*
X160924880Y-94944120D01*
X160895310Y-94908090D01*
X160873341Y-94866987D01*
X160859810Y-94822383D01*
X160855000Y-94773546D01*
X160855000Y-94202454D01*
X160859810Y-94153617D01*
X160873341Y-94109013D01*
X160895310Y-94067910D01*
X160924880Y-94031880D01*
X160960910Y-94002310D01*
X161002013Y-93980341D01*
X161046617Y-93966810D01*
X161095454Y-93962000D01*
X161766546Y-93962000D01*
X161815383Y-93966810D01*
G37*
G36*
X163565383Y-93966810D02*
G01*
X163609987Y-93980341D01*
X163651090Y-94002310D01*
X163687120Y-94031880D01*
X163716690Y-94067910D01*
X163738659Y-94109013D01*
X163752190Y-94153617D01*
X163757000Y-94202454D01*
X163757000Y-94773546D01*
X163752190Y-94822383D01*
X163738659Y-94866987D01*
X163716690Y-94908090D01*
X163687120Y-94944120D01*
X163651090Y-94973690D01*
X163609987Y-94995659D01*
X163565383Y-95009190D01*
X163516546Y-95014000D01*
X162845454Y-95014000D01*
X162796617Y-95009190D01*
X162752013Y-94995659D01*
X162710910Y-94973690D01*
X162674880Y-94944120D01*
X162645310Y-94908090D01*
X162623341Y-94866987D01*
X162609810Y-94822383D01*
X162605000Y-94773546D01*
X162605000Y-94202454D01*
X162609810Y-94153617D01*
X162623341Y-94109013D01*
X162645310Y-94067910D01*
X162674880Y-94031880D01*
X162710910Y-94002310D01*
X162752013Y-93980341D01*
X162796617Y-93966810D01*
X162845454Y-93962000D01*
X163516546Y-93962000D01*
X163565383Y-93966810D01*
G37*
G36*
X148348000Y-94627000D02*
G01*
X146546000Y-94627000D01*
X146546000Y-92825000D01*
X148348000Y-92825000D01*
X148348000Y-94627000D01*
G37*
G36*
X178672426Y-91559313D02*
G01*
X178824812Y-91589624D01*
X178988784Y-91657544D01*
X179136354Y-91756147D01*
X179261853Y-91881646D01*
X179360456Y-92029216D01*
X179428376Y-92193188D01*
X179463000Y-92367259D01*
X179463000Y-92544741D01*
X179428376Y-92718812D01*
X179360456Y-92882784D01*
X179261853Y-93030354D01*
X179136354Y-93155853D01*
X178988784Y-93254456D01*
X178824812Y-93322376D01*
X178672426Y-93352687D01*
X178650742Y-93357000D01*
X178473258Y-93357000D01*
X178451574Y-93352687D01*
X178299188Y-93322376D01*
X178135216Y-93254456D01*
X177987646Y-93155853D01*
X177862147Y-93030354D01*
X177763544Y-92882784D01*
X177695624Y-92718812D01*
X177661000Y-92544741D01*
X177661000Y-92367259D01*
X177695624Y-92193188D01*
X177763544Y-92029216D01*
X177862147Y-91881646D01*
X177987646Y-91756147D01*
X178135216Y-91657544D01*
X178299188Y-91589624D01*
X178451574Y-91559313D01*
X178473258Y-91555000D01*
X178650742Y-91555000D01*
X178672426Y-91559313D01*
G37*
G36*
X164291383Y-92011810D02*
G01*
X164335987Y-92025341D01*
X164377090Y-92047310D01*
X164413120Y-92076880D01*
X164442690Y-92112910D01*
X164464659Y-92154013D01*
X164478190Y-92198617D01*
X164483000Y-92247454D01*
X164483000Y-92918546D01*
X164478190Y-92967383D01*
X164464659Y-93011987D01*
X164442690Y-93053090D01*
X164413120Y-93089120D01*
X164377090Y-93118690D01*
X164335987Y-93140659D01*
X164291383Y-93154190D01*
X164242546Y-93159000D01*
X163671454Y-93159000D01*
X163622617Y-93154190D01*
X163578013Y-93140659D01*
X163536910Y-93118690D01*
X163500880Y-93089120D01*
X163471310Y-93053090D01*
X163449341Y-93011987D01*
X163435810Y-92967383D01*
X163431000Y-92918546D01*
X163431000Y-92247454D01*
X163435810Y-92198617D01*
X163449341Y-92154013D01*
X163471310Y-92112910D01*
X163500880Y-92076880D01*
X163536910Y-92047310D01*
X163578013Y-92025341D01*
X163622617Y-92011810D01*
X163671454Y-92007000D01*
X164242546Y-92007000D01*
X164291383Y-92011810D01*
G37*
G36*
X166323383Y-91983810D02*
G01*
X166367987Y-91997341D01*
X166409090Y-92019310D01*
X166445120Y-92048880D01*
X166474690Y-92084910D01*
X166496659Y-92126013D01*
X166510190Y-92170617D01*
X166515000Y-92219454D01*
X166515000Y-92890546D01*
X166510190Y-92939383D01*
X166496659Y-92983987D01*
X166474690Y-93025090D01*
X166445120Y-93061120D01*
X166409090Y-93090690D01*
X166367987Y-93112659D01*
X166323383Y-93126190D01*
X166274546Y-93131000D01*
X165703454Y-93131000D01*
X165654617Y-93126190D01*
X165610013Y-93112659D01*
X165568910Y-93090690D01*
X165532880Y-93061120D01*
X165503310Y-93025090D01*
X165481341Y-92983987D01*
X165467810Y-92939383D01*
X165463000Y-92890546D01*
X165463000Y-92219454D01*
X165467810Y-92170617D01*
X165481341Y-92126013D01*
X165503310Y-92084910D01*
X165532880Y-92048880D01*
X165568910Y-92019310D01*
X165610013Y-91997341D01*
X165654617Y-91983810D01*
X165703454Y-91979000D01*
X166274546Y-91979000D01*
X166323383Y-91983810D01*
G37*
G36*
X147557426Y-90289313D02*
G01*
X147709812Y-90319624D01*
X147873784Y-90387544D01*
X148021354Y-90486147D01*
X148146853Y-90611646D01*
X148245456Y-90759216D01*
X148313376Y-90923188D01*
X148348000Y-91097259D01*
X148348000Y-91274741D01*
X148313376Y-91448812D01*
X148245456Y-91612784D01*
X148146853Y-91760354D01*
X148021354Y-91885853D01*
X147873784Y-91984456D01*
X147709812Y-92052376D01*
X147557426Y-92082687D01*
X147535742Y-92087000D01*
X147358258Y-92087000D01*
X147336574Y-92082687D01*
X147184188Y-92052376D01*
X147020216Y-91984456D01*
X146872646Y-91885853D01*
X146747147Y-91760354D01*
X146648544Y-91612784D01*
X146580624Y-91448812D01*
X146546000Y-91274741D01*
X146546000Y-91097259D01*
X146580624Y-90923188D01*
X146648544Y-90759216D01*
X146747147Y-90611646D01*
X146872646Y-90486147D01*
X147020216Y-90387544D01*
X147184188Y-90319624D01*
X147336574Y-90289313D01*
X147358258Y-90285000D01*
X147535742Y-90285000D01*
X147557426Y-90289313D01*
G37*
G36*
X164291383Y-90261810D02*
G01*
X164335987Y-90275341D01*
X164377090Y-90297310D01*
X164413120Y-90326880D01*
X164442690Y-90362910D01*
X164464659Y-90404013D01*
X164478190Y-90448617D01*
X164483000Y-90497454D01*
X164483000Y-91168546D01*
X164478190Y-91217383D01*
X164464659Y-91261987D01*
X164442690Y-91303090D01*
X164413120Y-91339120D01*
X164377090Y-91368690D01*
X164335987Y-91390659D01*
X164291383Y-91404190D01*
X164242546Y-91409000D01*
X163671454Y-91409000D01*
X163622617Y-91404190D01*
X163578013Y-91390659D01*
X163536910Y-91368690D01*
X163500880Y-91339120D01*
X163471310Y-91303090D01*
X163449341Y-91261987D01*
X163435810Y-91217383D01*
X163431000Y-91168546D01*
X163431000Y-90497454D01*
X163435810Y-90448617D01*
X163449341Y-90404013D01*
X163471310Y-90362910D01*
X163500880Y-90326880D01*
X163536910Y-90297310D01*
X163578013Y-90275341D01*
X163622617Y-90261810D01*
X163671454Y-90257000D01*
X164242546Y-90257000D01*
X164291383Y-90261810D01*
G37*
G36*
X166323383Y-90233810D02*
G01*
X166367987Y-90247341D01*
X166409090Y-90269310D01*
X166445120Y-90298880D01*
X166474690Y-90334910D01*
X166496659Y-90376013D01*
X166510190Y-90420617D01*
X166515000Y-90469454D01*
X166515000Y-91140546D01*
X166510190Y-91189383D01*
X166496659Y-91233987D01*
X166474690Y-91275090D01*
X166445120Y-91311120D01*
X166409090Y-91340690D01*
X166367987Y-91362659D01*
X166323383Y-91376190D01*
X166274546Y-91381000D01*
X165703454Y-91381000D01*
X165654617Y-91376190D01*
X165610013Y-91362659D01*
X165568910Y-91340690D01*
X165532880Y-91311120D01*
X165503310Y-91275090D01*
X165481341Y-91233987D01*
X165467810Y-91189383D01*
X165463000Y-91140546D01*
X165463000Y-90469454D01*
X165467810Y-90420617D01*
X165481341Y-90376013D01*
X165503310Y-90334910D01*
X165532880Y-90298880D01*
X165568910Y-90269310D01*
X165610013Y-90247341D01*
X165654617Y-90233810D01*
X165703454Y-90229000D01*
X166274546Y-90229000D01*
X166323383Y-90233810D01*
G37*
G36*
X158372383Y-89775810D02*
G01*
X158416987Y-89789341D01*
X158458090Y-89811310D01*
X158494120Y-89840880D01*
X158523690Y-89876910D01*
X158545659Y-89918013D01*
X158559190Y-89962617D01*
X158564000Y-90011454D01*
X158564000Y-90582546D01*
X158559190Y-90631383D01*
X158545659Y-90675987D01*
X158523690Y-90717090D01*
X158494120Y-90753120D01*
X158458090Y-90782690D01*
X158416987Y-90804659D01*
X158372383Y-90818190D01*
X158323546Y-90823000D01*
X157652454Y-90823000D01*
X157603617Y-90818190D01*
X157559013Y-90804659D01*
X157517910Y-90782690D01*
X157481880Y-90753120D01*
X157452310Y-90717090D01*
X157430341Y-90675987D01*
X157416810Y-90631383D01*
X157412000Y-90582546D01*
X157412000Y-90011454D01*
X157416810Y-89962617D01*
X157430341Y-89918013D01*
X157452310Y-89876910D01*
X157481880Y-89840880D01*
X157517910Y-89811310D01*
X157559013Y-89789341D01*
X157603617Y-89775810D01*
X157652454Y-89771000D01*
X158323546Y-89771000D01*
X158372383Y-89775810D01*
G37*
G36*
X160122383Y-89775810D02*
G01*
X160166987Y-89789341D01*
X160208090Y-89811310D01*
X160244120Y-89840880D01*
X160273690Y-89876910D01*
X160295659Y-89918013D01*
X160309190Y-89962617D01*
X160314000Y-90011454D01*
X160314000Y-90582546D01*
X160309190Y-90631383D01*
X160295659Y-90675987D01*
X160273690Y-90717090D01*
X160244120Y-90753120D01*
X160208090Y-90782690D01*
X160166987Y-90804659D01*
X160122383Y-90818190D01*
X160073546Y-90823000D01*
X159402454Y-90823000D01*
X159353617Y-90818190D01*
X159309013Y-90804659D01*
X159267910Y-90782690D01*
X159231880Y-90753120D01*
X159202310Y-90717090D01*
X159180341Y-90675987D01*
X159166810Y-90631383D01*
X159162000Y-90582546D01*
X159162000Y-90011454D01*
X159166810Y-89962617D01*
X159180341Y-89918013D01*
X159202310Y-89876910D01*
X159231880Y-89840880D01*
X159267910Y-89811310D01*
X159309013Y-89789341D01*
X159353617Y-89775810D01*
X159402454Y-89771000D01*
X160073546Y-89771000D01*
X160122383Y-89775810D01*
G37*
G36*
X178672426Y-89019313D02*
G01*
X178824812Y-89049624D01*
X178988784Y-89117544D01*
X179136354Y-89216147D01*
X179261853Y-89341646D01*
X179360456Y-89489216D01*
X179428376Y-89653188D01*
X179463000Y-89827259D01*
X179463000Y-90004741D01*
X179428376Y-90178812D01*
X179360456Y-90342784D01*
X179261853Y-90490354D01*
X179136354Y-90615853D01*
X178988784Y-90714456D01*
X178824812Y-90782376D01*
X178672426Y-90812687D01*
X178650742Y-90817000D01*
X178473258Y-90817000D01*
X178451574Y-90812687D01*
X178299188Y-90782376D01*
X178135216Y-90714456D01*
X177987646Y-90615853D01*
X177862147Y-90490354D01*
X177763544Y-90342784D01*
X177695624Y-90178812D01*
X177661000Y-90004741D01*
X177661000Y-89827259D01*
X177695624Y-89653188D01*
X177763544Y-89489216D01*
X177862147Y-89341646D01*
X177987646Y-89216147D01*
X178135216Y-89117544D01*
X178299188Y-89049624D01*
X178451574Y-89019313D01*
X178473258Y-89015000D01*
X178650742Y-89015000D01*
X178672426Y-89019313D01*
G37*
G36*
X162399000Y-90397000D02*
G01*
X161197000Y-90397000D01*
X161197000Y-89695000D01*
X162399000Y-89695000D01*
X162399000Y-90397000D01*
G37*
G36*
X147557426Y-87749313D02*
G01*
X147709812Y-87779624D01*
X147873784Y-87847544D01*
X148021354Y-87946147D01*
X148146853Y-88071646D01*
X148245456Y-88219216D01*
X148313376Y-88383188D01*
X148348000Y-88557259D01*
X148348000Y-88734741D01*
X148313376Y-88908812D01*
X148245456Y-89072784D01*
X148146853Y-89220354D01*
X148021354Y-89345853D01*
X147873784Y-89444456D01*
X147709812Y-89512376D01*
X147557426Y-89542687D01*
X147535742Y-89547000D01*
X147358258Y-89547000D01*
X147336574Y-89542687D01*
X147184188Y-89512376D01*
X147020216Y-89444456D01*
X146872646Y-89345853D01*
X146747147Y-89220354D01*
X146648544Y-89072784D01*
X146580624Y-88908812D01*
X146546000Y-88734741D01*
X146546000Y-88557259D01*
X146580624Y-88383188D01*
X146648544Y-88219216D01*
X146747147Y-88071646D01*
X146872646Y-87946147D01*
X147020216Y-87847544D01*
X147184188Y-87779624D01*
X147336574Y-87749313D01*
X147358258Y-87745000D01*
X147535742Y-87745000D01*
X147557426Y-87749313D01*
G37*
G36*
X164888240Y-88421447D02*
G01*
X164900019Y-88425020D01*
X164910865Y-88430818D01*
X164920376Y-88438624D01*
X164928182Y-88448135D01*
X164933980Y-88458981D01*
X164937553Y-88470760D01*
X164939000Y-88485453D01*
X164939000Y-89331547D01*
X164937553Y-89346240D01*
X164933980Y-89358019D01*
X164928182Y-89368865D01*
X164920376Y-89378376D01*
X164910865Y-89386182D01*
X164900019Y-89391980D01*
X164888240Y-89395553D01*
X164873547Y-89397000D01*
X164652453Y-89397000D01*
X164637760Y-89395553D01*
X164625981Y-89391980D01*
X164615135Y-89386182D01*
X164605624Y-89378376D01*
X164597818Y-89368865D01*
X164592020Y-89358019D01*
X164588447Y-89346240D01*
X164587000Y-89331547D01*
X164587000Y-88485453D01*
X164588447Y-88470760D01*
X164592489Y-88457438D01*
X164595010Y-88451351D01*
X164596923Y-88441738D01*
X164596923Y-88431936D01*
X164596424Y-88429424D01*
X164598932Y-88429923D01*
X164608734Y-88429923D01*
X164618347Y-88428012D01*
X164624439Y-88425488D01*
X164637760Y-88421447D01*
X164652453Y-88420000D01*
X164873547Y-88420000D01*
X164888240Y-88421447D01*
G37*
G36*
X165388240Y-88421447D02*
G01*
X165400019Y-88425020D01*
X165410865Y-88430818D01*
X165420376Y-88438624D01*
X165428182Y-88448135D01*
X165433980Y-88458981D01*
X165437553Y-88470760D01*
X165439000Y-88485453D01*
X165439000Y-89331547D01*
X165437553Y-89346240D01*
X165433980Y-89358019D01*
X165428182Y-89368865D01*
X165420376Y-89378376D01*
X165410865Y-89386182D01*
X165400019Y-89391980D01*
X165388240Y-89395553D01*
X165373547Y-89397000D01*
X165152453Y-89397000D01*
X165137760Y-89395553D01*
X165125981Y-89391980D01*
X165115135Y-89386182D01*
X165105624Y-89378376D01*
X165097818Y-89368865D01*
X165092020Y-89358019D01*
X165088447Y-89346240D01*
X165087000Y-89331547D01*
X165087000Y-88485453D01*
X165088447Y-88470760D01*
X165092020Y-88458981D01*
X165097818Y-88448135D01*
X165105624Y-88438624D01*
X165115135Y-88430818D01*
X165125981Y-88425020D01*
X165137760Y-88421447D01*
X165152453Y-88420000D01*
X165373547Y-88420000D01*
X165388240Y-88421447D01*
G37*
G36*
X165888240Y-88421447D02*
G01*
X165900019Y-88425020D01*
X165910865Y-88430818D01*
X165920376Y-88438624D01*
X165928182Y-88448135D01*
X165933980Y-88458981D01*
X165937553Y-88470760D01*
X165939000Y-88485453D01*
X165939000Y-89331547D01*
X165937553Y-89346240D01*
X165933980Y-89358019D01*
X165928182Y-89368865D01*
X165920376Y-89378376D01*
X165910865Y-89386182D01*
X165900019Y-89391980D01*
X165888240Y-89395553D01*
X165873547Y-89397000D01*
X165652453Y-89397000D01*
X165637760Y-89395553D01*
X165625981Y-89391980D01*
X165615135Y-89386182D01*
X165605624Y-89378376D01*
X165597818Y-89368865D01*
X165592020Y-89358019D01*
X165588447Y-89346240D01*
X165587000Y-89331547D01*
X165587000Y-88485453D01*
X165588447Y-88470760D01*
X165592020Y-88458981D01*
X165597818Y-88448135D01*
X165605624Y-88438624D01*
X165615135Y-88430818D01*
X165625981Y-88425020D01*
X165637760Y-88421447D01*
X165652453Y-88420000D01*
X165873547Y-88420000D01*
X165888240Y-88421447D01*
G37*
G36*
X166388240Y-88421447D02*
G01*
X166400019Y-88425020D01*
X166410865Y-88430818D01*
X166420376Y-88438624D01*
X166428182Y-88448135D01*
X166433980Y-88458981D01*
X166437553Y-88470760D01*
X166439000Y-88485453D01*
X166439000Y-89331547D01*
X166437553Y-89346240D01*
X166433980Y-89358019D01*
X166428182Y-89368865D01*
X166420376Y-89378376D01*
X166410865Y-89386182D01*
X166400019Y-89391980D01*
X166388240Y-89395553D01*
X166373547Y-89397000D01*
X166152453Y-89397000D01*
X166137760Y-89395553D01*
X166125981Y-89391980D01*
X166115135Y-89386182D01*
X166105624Y-89378376D01*
X166097818Y-89368865D01*
X166092020Y-89358019D01*
X166088447Y-89346240D01*
X166087000Y-89331547D01*
X166087000Y-88485453D01*
X166088447Y-88470760D01*
X166092020Y-88458981D01*
X166097818Y-88448135D01*
X166105624Y-88438624D01*
X166115135Y-88430818D01*
X166125981Y-88425020D01*
X166137760Y-88421447D01*
X166152453Y-88420000D01*
X166373547Y-88420000D01*
X166388240Y-88421447D01*
G37*
G36*
X166888240Y-88421447D02*
G01*
X166900019Y-88425020D01*
X166910865Y-88430818D01*
X166920376Y-88438624D01*
X166928182Y-88448135D01*
X166933980Y-88458981D01*
X166937553Y-88470760D01*
X166939000Y-88485453D01*
X166939000Y-89331547D01*
X166937553Y-89346240D01*
X166933980Y-89358019D01*
X166928182Y-89368865D01*
X166920376Y-89378376D01*
X166910865Y-89386182D01*
X166900019Y-89391980D01*
X166888240Y-89395553D01*
X166873547Y-89397000D01*
X166652453Y-89397000D01*
X166637760Y-89395553D01*
X166625981Y-89391980D01*
X166615135Y-89386182D01*
X166605624Y-89378376D01*
X166597818Y-89368865D01*
X166592020Y-89358019D01*
X166588447Y-89346240D01*
X166587000Y-89331547D01*
X166587000Y-88485453D01*
X166588447Y-88470760D01*
X166592020Y-88458981D01*
X166597818Y-88448135D01*
X166605624Y-88438624D01*
X166615135Y-88430818D01*
X166625981Y-88425020D01*
X166637760Y-88421447D01*
X166652453Y-88420000D01*
X166873547Y-88420000D01*
X166888240Y-88421447D01*
G37*
G36*
X167388240Y-88421447D02*
G01*
X167400019Y-88425020D01*
X167410865Y-88430818D01*
X167420376Y-88438624D01*
X167428182Y-88448135D01*
X167433980Y-88458981D01*
X167437553Y-88470760D01*
X167439000Y-88485453D01*
X167439000Y-89331547D01*
X167437553Y-89346240D01*
X167433980Y-89358019D01*
X167428182Y-89368865D01*
X167420376Y-89378376D01*
X167410865Y-89386182D01*
X167400019Y-89391980D01*
X167388240Y-89395553D01*
X167373547Y-89397000D01*
X167152453Y-89397000D01*
X167137760Y-89395553D01*
X167125981Y-89391980D01*
X167115135Y-89386182D01*
X167105624Y-89378376D01*
X167097818Y-89368865D01*
X167092020Y-89358019D01*
X167088447Y-89346240D01*
X167087000Y-89331547D01*
X167087000Y-88485453D01*
X167088447Y-88470760D01*
X167092020Y-88458981D01*
X167097818Y-88448135D01*
X167105624Y-88438624D01*
X167115135Y-88430818D01*
X167125981Y-88425020D01*
X167137760Y-88421447D01*
X167152453Y-88420000D01*
X167373547Y-88420000D01*
X167388240Y-88421447D01*
G37*
G36*
X168388240Y-88421447D02*
G01*
X168400019Y-88425020D01*
X168410865Y-88430818D01*
X168420376Y-88438624D01*
X168428182Y-88448135D01*
X168433980Y-88458981D01*
X168437553Y-88470760D01*
X168439000Y-88485453D01*
X168439000Y-89331547D01*
X168437553Y-89346240D01*
X168433980Y-89358019D01*
X168428182Y-89368865D01*
X168420376Y-89378376D01*
X168410865Y-89386182D01*
X168400019Y-89391980D01*
X168388240Y-89395553D01*
X168373547Y-89397000D01*
X168152453Y-89397000D01*
X168137760Y-89395553D01*
X168125981Y-89391980D01*
X168115135Y-89386182D01*
X168105624Y-89378376D01*
X168097818Y-89368865D01*
X168092020Y-89358019D01*
X168088447Y-89346240D01*
X168087000Y-89331547D01*
X168087000Y-88485453D01*
X168088447Y-88470760D01*
X168092020Y-88458981D01*
X168097818Y-88448135D01*
X168105624Y-88438624D01*
X168115135Y-88430818D01*
X168125981Y-88425020D01*
X168137760Y-88421447D01*
X168152453Y-88420000D01*
X168373547Y-88420000D01*
X168388240Y-88421447D01*
G37*
G36*
X168888240Y-88421447D02*
G01*
X168900019Y-88425020D01*
X168910865Y-88430818D01*
X168920376Y-88438624D01*
X168928182Y-88448135D01*
X168933980Y-88458981D01*
X168937553Y-88470760D01*
X168939000Y-88485453D01*
X168939000Y-89331547D01*
X168937553Y-89346240D01*
X168933980Y-89358019D01*
X168928182Y-89368865D01*
X168920376Y-89378376D01*
X168910865Y-89386182D01*
X168900019Y-89391980D01*
X168888240Y-89395553D01*
X168873547Y-89397000D01*
X168652453Y-89397000D01*
X168637760Y-89395553D01*
X168625981Y-89391980D01*
X168615135Y-89386182D01*
X168605624Y-89378376D01*
X168597818Y-89368865D01*
X168592020Y-89358019D01*
X168588447Y-89346240D01*
X168587000Y-89331547D01*
X168587000Y-88485453D01*
X168588447Y-88470760D01*
X168592020Y-88458981D01*
X168597818Y-88448135D01*
X168605624Y-88438624D01*
X168615135Y-88430818D01*
X168625981Y-88425020D01*
X168637760Y-88421447D01*
X168652453Y-88420000D01*
X168873547Y-88420000D01*
X168888240Y-88421447D01*
G37*
G36*
X169388240Y-88421447D02*
G01*
X169400019Y-88425020D01*
X169410865Y-88430818D01*
X169420376Y-88438624D01*
X169428182Y-88448135D01*
X169433980Y-88458981D01*
X169437553Y-88470760D01*
X169439000Y-88485453D01*
X169439000Y-89331547D01*
X169437553Y-89346240D01*
X169433980Y-89358019D01*
X169428182Y-89368865D01*
X169420376Y-89378376D01*
X169410865Y-89386182D01*
X169400019Y-89391980D01*
X169388240Y-89395553D01*
X169373547Y-89397000D01*
X169152453Y-89397000D01*
X169137760Y-89395553D01*
X169125981Y-89391980D01*
X169115135Y-89386182D01*
X169105624Y-89378376D01*
X169097818Y-89368865D01*
X169092020Y-89358019D01*
X169088447Y-89346240D01*
X169087000Y-89331547D01*
X169087000Y-88485453D01*
X169088447Y-88470760D01*
X169092020Y-88458981D01*
X169097818Y-88448135D01*
X169105624Y-88438624D01*
X169115135Y-88430818D01*
X169125981Y-88425020D01*
X169137760Y-88421447D01*
X169152453Y-88420000D01*
X169373547Y-88420000D01*
X169388240Y-88421447D01*
G37*
G36*
X167888240Y-88421447D02*
G01*
X167900019Y-88425020D01*
X167910865Y-88430818D01*
X167920376Y-88438624D01*
X167928182Y-88448135D01*
X167933980Y-88458981D01*
X167937553Y-88470760D01*
X167939000Y-88485453D01*
X167939000Y-89331547D01*
X167937553Y-89346240D01*
X167933980Y-89358019D01*
X167928182Y-89368865D01*
X167920376Y-89378376D01*
X167910865Y-89386182D01*
X167900019Y-89391980D01*
X167888240Y-89395553D01*
X167873547Y-89397000D01*
X167652453Y-89397000D01*
X167637760Y-89395553D01*
X167625981Y-89391980D01*
X167615135Y-89386182D01*
X167605624Y-89378376D01*
X167597818Y-89368865D01*
X167592020Y-89358019D01*
X167588447Y-89346240D01*
X167587000Y-89331547D01*
X167587000Y-88485453D01*
X167588447Y-88470760D01*
X167592020Y-88458981D01*
X167597818Y-88448135D01*
X167605624Y-88438624D01*
X167615135Y-88430818D01*
X167625981Y-88425020D01*
X167637760Y-88421447D01*
X167652453Y-88420000D01*
X167873547Y-88420000D01*
X167888240Y-88421447D01*
G37*
G36*
X169888240Y-88421447D02*
G01*
X169900019Y-88425020D01*
X169910865Y-88430818D01*
X169920376Y-88438624D01*
X169928182Y-88448135D01*
X169933980Y-88458981D01*
X169937553Y-88470760D01*
X169939000Y-88485453D01*
X169939000Y-89331547D01*
X169937553Y-89346240D01*
X169933980Y-89358019D01*
X169928182Y-89368865D01*
X169920376Y-89378376D01*
X169910865Y-89386182D01*
X169900019Y-89391980D01*
X169888240Y-89395553D01*
X169873547Y-89397000D01*
X169652453Y-89397000D01*
X169637760Y-89395553D01*
X169625981Y-89391980D01*
X169615135Y-89386182D01*
X169605624Y-89378376D01*
X169597818Y-89368865D01*
X169592020Y-89358019D01*
X169588447Y-89346240D01*
X169587000Y-89331547D01*
X169587000Y-88485453D01*
X169588447Y-88470760D01*
X169592020Y-88458981D01*
X169597818Y-88448135D01*
X169605624Y-88438624D01*
X169615135Y-88430818D01*
X169625981Y-88425020D01*
X169637760Y-88421447D01*
X169652453Y-88420000D01*
X169873547Y-88420000D01*
X169888240Y-88421447D01*
G37*
G36*
X170388240Y-88421447D02*
G01*
X170401562Y-88425489D01*
X170407649Y-88428010D01*
X170417262Y-88429923D01*
X170427064Y-88429923D01*
X170429576Y-88429424D01*
X170429077Y-88431932D01*
X170429077Y-88441734D01*
X170430988Y-88451347D01*
X170433512Y-88457439D01*
X170437553Y-88470760D01*
X170439000Y-88485453D01*
X170439000Y-89331547D01*
X170437553Y-89346240D01*
X170433980Y-89358019D01*
X170428182Y-89368865D01*
X170420376Y-89378376D01*
X170410865Y-89386182D01*
X170400019Y-89391980D01*
X170388240Y-89395553D01*
X170373547Y-89397000D01*
X170152453Y-89397000D01*
X170137760Y-89395553D01*
X170125981Y-89391980D01*
X170115135Y-89386182D01*
X170105624Y-89378376D01*
X170097818Y-89368865D01*
X170092020Y-89358019D01*
X170088447Y-89346240D01*
X170087000Y-89331547D01*
X170087000Y-88485453D01*
X170088447Y-88470760D01*
X170092020Y-88458981D01*
X170097818Y-88448135D01*
X170105624Y-88438624D01*
X170115135Y-88430818D01*
X170125981Y-88425020D01*
X170137760Y-88421447D01*
X170152453Y-88420000D01*
X170373547Y-88420000D01*
X170388240Y-88421447D01*
G37*
G36*
X162399000Y-88997000D02*
G01*
X161197000Y-88997000D01*
X161197000Y-88295000D01*
X162399000Y-88295000D01*
X162399000Y-88997000D01*
G37*
G36*
X160122383Y-87870810D02*
G01*
X160166987Y-87884341D01*
X160208090Y-87906310D01*
X160244120Y-87935880D01*
X160273690Y-87971910D01*
X160295659Y-88013013D01*
X160309190Y-88057617D01*
X160314000Y-88106454D01*
X160314000Y-88677546D01*
X160309190Y-88726383D01*
X160295659Y-88770987D01*
X160273690Y-88812090D01*
X160244120Y-88848120D01*
X160208090Y-88877690D01*
X160166987Y-88899659D01*
X160122383Y-88913190D01*
X160073546Y-88918000D01*
X159402454Y-88918000D01*
X159353617Y-88913190D01*
X159309013Y-88899659D01*
X159267910Y-88877690D01*
X159231880Y-88848120D01*
X159202310Y-88812090D01*
X159180341Y-88770987D01*
X159166810Y-88726383D01*
X159162000Y-88677546D01*
X159162000Y-88106454D01*
X159166810Y-88057617D01*
X159180341Y-88013013D01*
X159202310Y-87971910D01*
X159231880Y-87935880D01*
X159267910Y-87906310D01*
X159309013Y-87884341D01*
X159353617Y-87870810D01*
X159402454Y-87866000D01*
X160073546Y-87866000D01*
X160122383Y-87870810D01*
G37*
G36*
X158372383Y-87870810D02*
G01*
X158416987Y-87884341D01*
X158458090Y-87906310D01*
X158494120Y-87935880D01*
X158523690Y-87971910D01*
X158545659Y-88013013D01*
X158559190Y-88057617D01*
X158564000Y-88106454D01*
X158564000Y-88677546D01*
X158559190Y-88726383D01*
X158545659Y-88770987D01*
X158523690Y-88812090D01*
X158494120Y-88848120D01*
X158458090Y-88877690D01*
X158416987Y-88899659D01*
X158372383Y-88913190D01*
X158323546Y-88918000D01*
X157652454Y-88918000D01*
X157603617Y-88913190D01*
X157559013Y-88899659D01*
X157517910Y-88877690D01*
X157481880Y-88848120D01*
X157452310Y-88812090D01*
X157430341Y-88770987D01*
X157416810Y-88726383D01*
X157412000Y-88677546D01*
X157412000Y-88106454D01*
X157416810Y-88057617D01*
X157430341Y-88013013D01*
X157452310Y-87971910D01*
X157481880Y-87935880D01*
X157517910Y-87906310D01*
X157559013Y-87884341D01*
X157603617Y-87870810D01*
X157652454Y-87866000D01*
X158323546Y-87866000D01*
X158372383Y-87870810D01*
G37*
G36*
X164513240Y-88046447D02*
G01*
X164525019Y-88050020D01*
X164535865Y-88055818D01*
X164545376Y-88063624D01*
X164553182Y-88073135D01*
X164558980Y-88083981D01*
X164562553Y-88095760D01*
X164564000Y-88110453D01*
X164564000Y-88331547D01*
X164562553Y-88346240D01*
X164558511Y-88359562D01*
X164555990Y-88365649D01*
X164554077Y-88375262D01*
X164554077Y-88385064D01*
X164554576Y-88387576D01*
X164552068Y-88387077D01*
X164542266Y-88387077D01*
X164532653Y-88388988D01*
X164526561Y-88391512D01*
X164513240Y-88395553D01*
X164498547Y-88397000D01*
X163652453Y-88397000D01*
X163637760Y-88395553D01*
X163625981Y-88391980D01*
X163615135Y-88386182D01*
X163605624Y-88378376D01*
X163597818Y-88368865D01*
X163592020Y-88358019D01*
X163588447Y-88346240D01*
X163587000Y-88331547D01*
X163587000Y-88110453D01*
X163588447Y-88095760D01*
X163592020Y-88083981D01*
X163597818Y-88073135D01*
X163605624Y-88063624D01*
X163615135Y-88055818D01*
X163625981Y-88050020D01*
X163637760Y-88046447D01*
X163652453Y-88045000D01*
X164498547Y-88045000D01*
X164513240Y-88046447D01*
G37*
G36*
X171388240Y-88046447D02*
G01*
X171400019Y-88050020D01*
X171410865Y-88055818D01*
X171420376Y-88063624D01*
X171428182Y-88073135D01*
X171433980Y-88083981D01*
X171437553Y-88095760D01*
X171439000Y-88110453D01*
X171439000Y-88331547D01*
X171437553Y-88346240D01*
X171433980Y-88358019D01*
X171428182Y-88368865D01*
X171420376Y-88378376D01*
X171410865Y-88386182D01*
X171400019Y-88391980D01*
X171388240Y-88395553D01*
X171373547Y-88397000D01*
X170527453Y-88397000D01*
X170512760Y-88395553D01*
X170499438Y-88391511D01*
X170493351Y-88388990D01*
X170483738Y-88387077D01*
X170473936Y-88387077D01*
X170471424Y-88387576D01*
X170471923Y-88385068D01*
X170471923Y-88375266D01*
X170470012Y-88365653D01*
X170467488Y-88359561D01*
X170463447Y-88346240D01*
X170462000Y-88331547D01*
X170462000Y-88110453D01*
X170463447Y-88095760D01*
X170467020Y-88083981D01*
X170472818Y-88073135D01*
X170480624Y-88063624D01*
X170490135Y-88055818D01*
X170500981Y-88050020D01*
X170512760Y-88046447D01*
X170527453Y-88045000D01*
X171373547Y-88045000D01*
X171388240Y-88046447D01*
G37*
G36*
X178672426Y-86479313D02*
G01*
X178824812Y-86509624D01*
X178988784Y-86577544D01*
X179136354Y-86676147D01*
X179261853Y-86801646D01*
X179360456Y-86949216D01*
X179428376Y-87113188D01*
X179463000Y-87287259D01*
X179463000Y-87464741D01*
X179428376Y-87638812D01*
X179360456Y-87802784D01*
X179261853Y-87950354D01*
X179136354Y-88075853D01*
X178988784Y-88174456D01*
X178824812Y-88242376D01*
X178672426Y-88272687D01*
X178650742Y-88277000D01*
X178473258Y-88277000D01*
X178451574Y-88272687D01*
X178299188Y-88242376D01*
X178135216Y-88174456D01*
X177987646Y-88075853D01*
X177862147Y-87950354D01*
X177763544Y-87802784D01*
X177695624Y-87638812D01*
X177661000Y-87464741D01*
X177661000Y-87287259D01*
X177695624Y-87113188D01*
X177763544Y-86949216D01*
X177862147Y-86801646D01*
X177987646Y-86676147D01*
X178135216Y-86577544D01*
X178299188Y-86509624D01*
X178451574Y-86479313D01*
X178473258Y-86475000D01*
X178650742Y-86475000D01*
X178672426Y-86479313D01*
G37*
G36*
X169968112Y-82849315D02*
G01*
X170007883Y-82861379D01*
X170044536Y-82880972D01*
X170076663Y-82907337D01*
X170103028Y-82939464D01*
X170122621Y-82976117D01*
X170134685Y-83015888D01*
X170139000Y-83059702D01*
X170139000Y-87882298D01*
X170134685Y-87926112D01*
X170122621Y-87965883D01*
X170103028Y-88002536D01*
X170076663Y-88034663D01*
X170044536Y-88061028D01*
X170007883Y-88080621D01*
X169968112Y-88092685D01*
X169924298Y-88097000D01*
X165101702Y-88097000D01*
X165057888Y-88092685D01*
X165018117Y-88080621D01*
X164981464Y-88061028D01*
X164949337Y-88034663D01*
X164922972Y-88002536D01*
X164903379Y-87965883D01*
X164891315Y-87926112D01*
X164887000Y-87882298D01*
X164887000Y-83059702D01*
X164891315Y-83015888D01*
X164903379Y-82976117D01*
X164922972Y-82939464D01*
X164949337Y-82907337D01*
X164981464Y-82880972D01*
X165018117Y-82861379D01*
X165057888Y-82849315D01*
X165101702Y-82845000D01*
X169924298Y-82845000D01*
X169968112Y-82849315D01*
G37*
G36*
X164513240Y-87546447D02*
G01*
X164525019Y-87550020D01*
X164535865Y-87555818D01*
X164545376Y-87563624D01*
X164553182Y-87573135D01*
X164558980Y-87583981D01*
X164562553Y-87595760D01*
X164564000Y-87610453D01*
X164564000Y-87831547D01*
X164562553Y-87846240D01*
X164558980Y-87858019D01*
X164553182Y-87868865D01*
X164545376Y-87878376D01*
X164535865Y-87886182D01*
X164525019Y-87891980D01*
X164513240Y-87895553D01*
X164498547Y-87897000D01*
X163652453Y-87897000D01*
X163637760Y-87895553D01*
X163625981Y-87891980D01*
X163615135Y-87886182D01*
X163605624Y-87878376D01*
X163597818Y-87868865D01*
X163592020Y-87858019D01*
X163588447Y-87846240D01*
X163587000Y-87831547D01*
X163587000Y-87610453D01*
X163588447Y-87595760D01*
X163592020Y-87583981D01*
X163597818Y-87573135D01*
X163605624Y-87563624D01*
X163615135Y-87555818D01*
X163625981Y-87550020D01*
X163637760Y-87546447D01*
X163652453Y-87545000D01*
X164498547Y-87545000D01*
X164513240Y-87546447D01*
G37*
G36*
X171388240Y-87546447D02*
G01*
X171400019Y-87550020D01*
X171410865Y-87555818D01*
X171420376Y-87563624D01*
X171428182Y-87573135D01*
X171433980Y-87583981D01*
X171437553Y-87595760D01*
X171439000Y-87610453D01*
X171439000Y-87831547D01*
X171437553Y-87846240D01*
X171433980Y-87858019D01*
X171428182Y-87868865D01*
X171420376Y-87878376D01*
X171410865Y-87886182D01*
X171400019Y-87891980D01*
X171388240Y-87895553D01*
X171373547Y-87897000D01*
X170527453Y-87897000D01*
X170512760Y-87895553D01*
X170500981Y-87891980D01*
X170490135Y-87886182D01*
X170480624Y-87878376D01*
X170472818Y-87868865D01*
X170467020Y-87858019D01*
X170463447Y-87846240D01*
X170462000Y-87831547D01*
X170462000Y-87610453D01*
X170463447Y-87595760D01*
X170467020Y-87583981D01*
X170472818Y-87573135D01*
X170480624Y-87563624D01*
X170490135Y-87555818D01*
X170500981Y-87550020D01*
X170512760Y-87546447D01*
X170527453Y-87545000D01*
X171373547Y-87545000D01*
X171388240Y-87546447D01*
G37*
G36*
X164513240Y-87046447D02*
G01*
X164525019Y-87050020D01*
X164535865Y-87055818D01*
X164545376Y-87063624D01*
X164553182Y-87073135D01*
X164558980Y-87083981D01*
X164562553Y-87095760D01*
X164564000Y-87110453D01*
X164564000Y-87331547D01*
X164562553Y-87346240D01*
X164558980Y-87358019D01*
X164553182Y-87368865D01*
X164545376Y-87378376D01*
X164535865Y-87386182D01*
X164525019Y-87391980D01*
X164513240Y-87395553D01*
X164498547Y-87397000D01*
X163652453Y-87397000D01*
X163637760Y-87395553D01*
X163625981Y-87391980D01*
X163615135Y-87386182D01*
X163605624Y-87378376D01*
X163597818Y-87368865D01*
X163592020Y-87358019D01*
X163588447Y-87346240D01*
X163587000Y-87331547D01*
X163587000Y-87110453D01*
X163588447Y-87095760D01*
X163592020Y-87083981D01*
X163597818Y-87073135D01*
X163605624Y-87063624D01*
X163615135Y-87055818D01*
X163625981Y-87050020D01*
X163637760Y-87046447D01*
X163652453Y-87045000D01*
X164498547Y-87045000D01*
X164513240Y-87046447D01*
G37*
G36*
X171388240Y-87046447D02*
G01*
X171400019Y-87050020D01*
X171410865Y-87055818D01*
X171420376Y-87063624D01*
X171428182Y-87073135D01*
X171433980Y-87083981D01*
X171437553Y-87095760D01*
X171439000Y-87110453D01*
X171439000Y-87331547D01*
X171437553Y-87346240D01*
X171433980Y-87358019D01*
X171428182Y-87368865D01*
X171420376Y-87378376D01*
X171410865Y-87386182D01*
X171400019Y-87391980D01*
X171388240Y-87395553D01*
X171373547Y-87397000D01*
X170527453Y-87397000D01*
X170512760Y-87395553D01*
X170500981Y-87391980D01*
X170490135Y-87386182D01*
X170480624Y-87378376D01*
X170472818Y-87368865D01*
X170467020Y-87358019D01*
X170463447Y-87346240D01*
X170462000Y-87331547D01*
X170462000Y-87110453D01*
X170463447Y-87095760D01*
X170467020Y-87083981D01*
X170472818Y-87073135D01*
X170480624Y-87063624D01*
X170490135Y-87055818D01*
X170500981Y-87050020D01*
X170512760Y-87046447D01*
X170527453Y-87045000D01*
X171373547Y-87045000D01*
X171388240Y-87046447D01*
G37*
G36*
X147557426Y-85209313D02*
G01*
X147709812Y-85239624D01*
X147873784Y-85307544D01*
X148021354Y-85406147D01*
X148146853Y-85531646D01*
X148245456Y-85679216D01*
X148313376Y-85843188D01*
X148348000Y-86017259D01*
X148348000Y-86194741D01*
X148313376Y-86368812D01*
X148245456Y-86532784D01*
X148146853Y-86680354D01*
X148021354Y-86805853D01*
X147873784Y-86904456D01*
X147709812Y-86972376D01*
X147557426Y-87002687D01*
X147535742Y-87007000D01*
X147358258Y-87007000D01*
X147336574Y-87002687D01*
X147184188Y-86972376D01*
X147020216Y-86904456D01*
X146872646Y-86805853D01*
X146747147Y-86680354D01*
X146648544Y-86532784D01*
X146580624Y-86368812D01*
X146546000Y-86194741D01*
X146546000Y-86017259D01*
X146580624Y-85843188D01*
X146648544Y-85679216D01*
X146747147Y-85531646D01*
X146872646Y-85406147D01*
X147020216Y-85307544D01*
X147184188Y-85239624D01*
X147336574Y-85209313D01*
X147358258Y-85205000D01*
X147535742Y-85205000D01*
X147557426Y-85209313D01*
G37*
G36*
X171388240Y-86546447D02*
G01*
X171400019Y-86550020D01*
X171410865Y-86555818D01*
X171420376Y-86563624D01*
X171428182Y-86573135D01*
X171433980Y-86583981D01*
X171437553Y-86595760D01*
X171439000Y-86610453D01*
X171439000Y-86831547D01*
X171437553Y-86846240D01*
X171433980Y-86858019D01*
X171428182Y-86868865D01*
X171420376Y-86878376D01*
X171410865Y-86886182D01*
X171400019Y-86891980D01*
X171388240Y-86895553D01*
X171373547Y-86897000D01*
X170527453Y-86897000D01*
X170512760Y-86895553D01*
X170500981Y-86891980D01*
X170490135Y-86886182D01*
X170480624Y-86878376D01*
X170472818Y-86868865D01*
X170467020Y-86858019D01*
X170463447Y-86846240D01*
X170462000Y-86831547D01*
X170462000Y-86610453D01*
X170463447Y-86595760D01*
X170467020Y-86583981D01*
X170472818Y-86573135D01*
X170480624Y-86563624D01*
X170490135Y-86555818D01*
X170500981Y-86550020D01*
X170512760Y-86546447D01*
X170527453Y-86545000D01*
X171373547Y-86545000D01*
X171388240Y-86546447D01*
G37*
G36*
X164513240Y-86546447D02*
G01*
X164525019Y-86550020D01*
X164535865Y-86555818D01*
X164545376Y-86563624D01*
X164553182Y-86573135D01*
X164558980Y-86583981D01*
X164562553Y-86595760D01*
X164564000Y-86610453D01*
X164564000Y-86831547D01*
X164562553Y-86846240D01*
X164558980Y-86858019D01*
X164553182Y-86868865D01*
X164545376Y-86878376D01*
X164535865Y-86886182D01*
X164525019Y-86891980D01*
X164513240Y-86895553D01*
X164498547Y-86897000D01*
X163652453Y-86897000D01*
X163637760Y-86895553D01*
X163625981Y-86891980D01*
X163615135Y-86886182D01*
X163605624Y-86878376D01*
X163597818Y-86868865D01*
X163592020Y-86858019D01*
X163588447Y-86846240D01*
X163587000Y-86831547D01*
X163587000Y-86610453D01*
X163588447Y-86595760D01*
X163592020Y-86583981D01*
X163597818Y-86573135D01*
X163605624Y-86563624D01*
X163615135Y-86555818D01*
X163625981Y-86550020D01*
X163637760Y-86546447D01*
X163652453Y-86545000D01*
X164498547Y-86545000D01*
X164513240Y-86546447D01*
G37*
G36*
X171388240Y-86046447D02*
G01*
X171400019Y-86050020D01*
X171410865Y-86055818D01*
X171420376Y-86063624D01*
X171428182Y-86073135D01*
X171433980Y-86083981D01*
X171437553Y-86095760D01*
X171439000Y-86110453D01*
X171439000Y-86331547D01*
X171437553Y-86346240D01*
X171433980Y-86358019D01*
X171428182Y-86368865D01*
X171420376Y-86378376D01*
X171410865Y-86386182D01*
X171400019Y-86391980D01*
X171388240Y-86395553D01*
X171373547Y-86397000D01*
X170527453Y-86397000D01*
X170512760Y-86395553D01*
X170500981Y-86391980D01*
X170490135Y-86386182D01*
X170480624Y-86378376D01*
X170472818Y-86368865D01*
X170467020Y-86358019D01*
X170463447Y-86346240D01*
X170462000Y-86331547D01*
X170462000Y-86110453D01*
X170463447Y-86095760D01*
X170467020Y-86083981D01*
X170472818Y-86073135D01*
X170480624Y-86063624D01*
X170490135Y-86055818D01*
X170500981Y-86050020D01*
X170512760Y-86046447D01*
X170527453Y-86045000D01*
X171373547Y-86045000D01*
X171388240Y-86046447D01*
G37*
G36*
X164513240Y-86046447D02*
G01*
X164525019Y-86050020D01*
X164535865Y-86055818D01*
X164545376Y-86063624D01*
X164553182Y-86073135D01*
X164558980Y-86083981D01*
X164562553Y-86095760D01*
X164564000Y-86110453D01*
X164564000Y-86331547D01*
X164562553Y-86346240D01*
X164558980Y-86358019D01*
X164553182Y-86368865D01*
X164545376Y-86378376D01*
X164535865Y-86386182D01*
X164525019Y-86391980D01*
X164513240Y-86395553D01*
X164498547Y-86397000D01*
X163652453Y-86397000D01*
X163637760Y-86395553D01*
X163625981Y-86391980D01*
X163615135Y-86386182D01*
X163605624Y-86378376D01*
X163597818Y-86368865D01*
X163592020Y-86358019D01*
X163588447Y-86346240D01*
X163587000Y-86331547D01*
X163587000Y-86110453D01*
X163588447Y-86095760D01*
X163592020Y-86083981D01*
X163597818Y-86073135D01*
X163605624Y-86063624D01*
X163615135Y-86055818D01*
X163625981Y-86050020D01*
X163637760Y-86046447D01*
X163652453Y-86045000D01*
X164498547Y-86045000D01*
X164513240Y-86046447D01*
G37*
G36*
X171388240Y-85546447D02*
G01*
X171400019Y-85550020D01*
X171410865Y-85555818D01*
X171420376Y-85563624D01*
X171428182Y-85573135D01*
X171433980Y-85583981D01*
X171437553Y-85595760D01*
X171439000Y-85610453D01*
X171439000Y-85831547D01*
X171437553Y-85846240D01*
X171433980Y-85858019D01*
X171428182Y-85868865D01*
X171420376Y-85878376D01*
X171410865Y-85886182D01*
X171400019Y-85891980D01*
X171388240Y-85895553D01*
X171373547Y-85897000D01*
X170527453Y-85897000D01*
X170512760Y-85895553D01*
X170500981Y-85891980D01*
X170490135Y-85886182D01*
X170480624Y-85878376D01*
X170472818Y-85868865D01*
X170467020Y-85858019D01*
X170463447Y-85846240D01*
X170462000Y-85831547D01*
X170462000Y-85610453D01*
X170463447Y-85595760D01*
X170467020Y-85583981D01*
X170472818Y-85573135D01*
X170480624Y-85563624D01*
X170490135Y-85555818D01*
X170500981Y-85550020D01*
X170512760Y-85546447D01*
X170527453Y-85545000D01*
X171373547Y-85545000D01*
X171388240Y-85546447D01*
G37*
G36*
X164513240Y-85546447D02*
G01*
X164525019Y-85550020D01*
X164535865Y-85555818D01*
X164545376Y-85563624D01*
X164553182Y-85573135D01*
X164558980Y-85583981D01*
X164562553Y-85595760D01*
X164564000Y-85610453D01*
X164564000Y-85831547D01*
X164562553Y-85846240D01*
X164558980Y-85858019D01*
X164553182Y-85868865D01*
X164545376Y-85878376D01*
X164535865Y-85886182D01*
X164525019Y-85891980D01*
X164513240Y-85895553D01*
X164498547Y-85897000D01*
X163652453Y-85897000D01*
X163637760Y-85895553D01*
X163625981Y-85891980D01*
X163615135Y-85886182D01*
X163605624Y-85878376D01*
X163597818Y-85868865D01*
X163592020Y-85858019D01*
X163588447Y-85846240D01*
X163587000Y-85831547D01*
X163587000Y-85610453D01*
X163588447Y-85595760D01*
X163592020Y-85583981D01*
X163597818Y-85573135D01*
X163605624Y-85563624D01*
X163615135Y-85555818D01*
X163625981Y-85550020D01*
X163637760Y-85546447D01*
X163652453Y-85545000D01*
X164498547Y-85545000D01*
X164513240Y-85546447D01*
G37*
G36*
X178672426Y-83939313D02*
G01*
X178824812Y-83969624D01*
X178988784Y-84037544D01*
X179136354Y-84136147D01*
X179261853Y-84261646D01*
X179360456Y-84409216D01*
X179428376Y-84573188D01*
X179463000Y-84747259D01*
X179463000Y-84924741D01*
X179428376Y-85098812D01*
X179360456Y-85262784D01*
X179261853Y-85410354D01*
X179136354Y-85535853D01*
X178988784Y-85634456D01*
X178824812Y-85702376D01*
X178672426Y-85732687D01*
X178650742Y-85737000D01*
X178473258Y-85737000D01*
X178451574Y-85732687D01*
X178299188Y-85702376D01*
X178135216Y-85634456D01*
X177987646Y-85535853D01*
X177862147Y-85410354D01*
X177763544Y-85262784D01*
X177695624Y-85098812D01*
X177661000Y-84924741D01*
X177661000Y-84747259D01*
X177695624Y-84573188D01*
X177763544Y-84409216D01*
X177862147Y-84261646D01*
X177987646Y-84136147D01*
X178135216Y-84037544D01*
X178299188Y-83969624D01*
X178451574Y-83939313D01*
X178473258Y-83935000D01*
X178650742Y-83935000D01*
X178672426Y-83939313D01*
G37*
G36*
X155782383Y-84264810D02*
G01*
X155826987Y-84278341D01*
X155868090Y-84300310D01*
X155904120Y-84329880D01*
X155933690Y-84365910D01*
X155955659Y-84407013D01*
X155969190Y-84451617D01*
X155974000Y-84500454D01*
X155974000Y-85171546D01*
X155969190Y-85220383D01*
X155955659Y-85264987D01*
X155933690Y-85306090D01*
X155904120Y-85342120D01*
X155868090Y-85371690D01*
X155826987Y-85393659D01*
X155782383Y-85407190D01*
X155733546Y-85412000D01*
X155162454Y-85412000D01*
X155113617Y-85407190D01*
X155069013Y-85393659D01*
X155027910Y-85371690D01*
X154991880Y-85342120D01*
X154962310Y-85306090D01*
X154940341Y-85264987D01*
X154926810Y-85220383D01*
X154922000Y-85171546D01*
X154922000Y-84500454D01*
X154926810Y-84451617D01*
X154940341Y-84407013D01*
X154962310Y-84365910D01*
X154991880Y-84329880D01*
X155027910Y-84300310D01*
X155069013Y-84278341D01*
X155113617Y-84264810D01*
X155162454Y-84260000D01*
X155733546Y-84260000D01*
X155782383Y-84264810D01*
G37*
G36*
X171388240Y-85046447D02*
G01*
X171400019Y-85050020D01*
X171410865Y-85055818D01*
X171420376Y-85063624D01*
X171428182Y-85073135D01*
X171433980Y-85083981D01*
X171437553Y-85095760D01*
X171439000Y-85110453D01*
X171439000Y-85331547D01*
X171437553Y-85346240D01*
X171433980Y-85358019D01*
X171428182Y-85368865D01*
X171420376Y-85378376D01*
X171410865Y-85386182D01*
X171400019Y-85391980D01*
X171388240Y-85395553D01*
X171373547Y-85397000D01*
X170527453Y-85397000D01*
X170512760Y-85395553D01*
X170500981Y-85391980D01*
X170490135Y-85386182D01*
X170480624Y-85378376D01*
X170472818Y-85368865D01*
X170467020Y-85358019D01*
X170463447Y-85346240D01*
X170462000Y-85331547D01*
X170462000Y-85110453D01*
X170463447Y-85095760D01*
X170467020Y-85083981D01*
X170472818Y-85073135D01*
X170480624Y-85063624D01*
X170490135Y-85055818D01*
X170500981Y-85050020D01*
X170512760Y-85046447D01*
X170527453Y-85045000D01*
X171373547Y-85045000D01*
X171388240Y-85046447D01*
G37*
G36*
X164513240Y-85046447D02*
G01*
X164525019Y-85050020D01*
X164535865Y-85055818D01*
X164545376Y-85063624D01*
X164553182Y-85073135D01*
X164558980Y-85083981D01*
X164562553Y-85095760D01*
X164564000Y-85110453D01*
X164564000Y-85331547D01*
X164562553Y-85346240D01*
X164558980Y-85358019D01*
X164553182Y-85368865D01*
X164545376Y-85378376D01*
X164535865Y-85386182D01*
X164525019Y-85391980D01*
X164513240Y-85395553D01*
X164498547Y-85397000D01*
X163652453Y-85397000D01*
X163637760Y-85395553D01*
X163625981Y-85391980D01*
X163615135Y-85386182D01*
X163605624Y-85378376D01*
X163597818Y-85368865D01*
X163592020Y-85358019D01*
X163588447Y-85346240D01*
X163587000Y-85331547D01*
X163587000Y-85110453D01*
X163588447Y-85095760D01*
X163592020Y-85083981D01*
X163597818Y-85073135D01*
X163605624Y-85063624D01*
X163615135Y-85055818D01*
X163625981Y-85050020D01*
X163637760Y-85046447D01*
X163652453Y-85045000D01*
X164498547Y-85045000D01*
X164513240Y-85046447D01*
G37*
G36*
X152749477Y-84224950D02*
G01*
X152790559Y-84237412D01*
X152828424Y-84257652D01*
X152861612Y-84284888D01*
X152888848Y-84318076D01*
X152909088Y-84355941D01*
X152921550Y-84397023D01*
X152926000Y-84442204D01*
X152926000Y-84975796D01*
X152921550Y-85020977D01*
X152909088Y-85062059D01*
X152888848Y-85099924D01*
X152861612Y-85133112D01*
X152828424Y-85160348D01*
X152790559Y-85180588D01*
X152749477Y-85193050D01*
X152704296Y-85197500D01*
X152095704Y-85197500D01*
X152050523Y-85193050D01*
X152009441Y-85180588D01*
X151971576Y-85160348D01*
X151938388Y-85133112D01*
X151911152Y-85099924D01*
X151890912Y-85062059D01*
X151878450Y-85020977D01*
X151874000Y-84975796D01*
X151874000Y-84442204D01*
X151878450Y-84397023D01*
X151890912Y-84355941D01*
X151911152Y-84318076D01*
X151938388Y-84284888D01*
X151971576Y-84257652D01*
X152009441Y-84237412D01*
X152050523Y-84224950D01*
X152095704Y-84220500D01*
X152704296Y-84220500D01*
X152749477Y-84224950D01*
G37*
G36*
X171388240Y-84546447D02*
G01*
X171400019Y-84550020D01*
X171410865Y-84555818D01*
X171420376Y-84563624D01*
X171428182Y-84573135D01*
X171433980Y-84583981D01*
X171437553Y-84595760D01*
X171439000Y-84610453D01*
X171439000Y-84831547D01*
X171437553Y-84846240D01*
X171433980Y-84858019D01*
X171428182Y-84868865D01*
X171420376Y-84878376D01*
X171410865Y-84886182D01*
X171400019Y-84891980D01*
X171388240Y-84895553D01*
X171373547Y-84897000D01*
X170527453Y-84897000D01*
X170512760Y-84895553D01*
X170500981Y-84891980D01*
X170490135Y-84886182D01*
X170480624Y-84878376D01*
X170472818Y-84868865D01*
X170467020Y-84858019D01*
X170463447Y-84846240D01*
X170462000Y-84831547D01*
X170462000Y-84610453D01*
X170463447Y-84595760D01*
X170467020Y-84583981D01*
X170472818Y-84573135D01*
X170480624Y-84563624D01*
X170490135Y-84555818D01*
X170500981Y-84550020D01*
X170512760Y-84546447D01*
X170527453Y-84545000D01*
X171373547Y-84545000D01*
X171388240Y-84546447D01*
G37*
G36*
X164513240Y-84546447D02*
G01*
X164525019Y-84550020D01*
X164535865Y-84555818D01*
X164545376Y-84563624D01*
X164553182Y-84573135D01*
X164558980Y-84583981D01*
X164562553Y-84595760D01*
X164564000Y-84610453D01*
X164564000Y-84831547D01*
X164562553Y-84846240D01*
X164558980Y-84858019D01*
X164553182Y-84868865D01*
X164545376Y-84878376D01*
X164535865Y-84886182D01*
X164525019Y-84891980D01*
X164513240Y-84895553D01*
X164498547Y-84897000D01*
X163652453Y-84897000D01*
X163637760Y-84895553D01*
X163625981Y-84891980D01*
X163615135Y-84886182D01*
X163605624Y-84878376D01*
X163597818Y-84868865D01*
X163592020Y-84858019D01*
X163588447Y-84846240D01*
X163587000Y-84831547D01*
X163587000Y-84610453D01*
X163588447Y-84595760D01*
X163592020Y-84583981D01*
X163597818Y-84573135D01*
X163605624Y-84563624D01*
X163615135Y-84555818D01*
X163625981Y-84550020D01*
X163637760Y-84546447D01*
X163652453Y-84545000D01*
X164498547Y-84545000D01*
X164513240Y-84546447D01*
G37*
G36*
X147557426Y-82669313D02*
G01*
X147709812Y-82699624D01*
X147873784Y-82767544D01*
X148021354Y-82866147D01*
X148146853Y-82991646D01*
X148245456Y-83139216D01*
X148313376Y-83303188D01*
X148348000Y-83477259D01*
X148348000Y-83654741D01*
X148313376Y-83828812D01*
X148245456Y-83992784D01*
X148146853Y-84140354D01*
X148021354Y-84265853D01*
X147873784Y-84364456D01*
X147709812Y-84432376D01*
X147557426Y-84462687D01*
X147535742Y-84467000D01*
X147358258Y-84467000D01*
X147336574Y-84462687D01*
X147184188Y-84432376D01*
X147020216Y-84364456D01*
X146872646Y-84265853D01*
X146747147Y-84140354D01*
X146648544Y-83992784D01*
X146580624Y-83828812D01*
X146546000Y-83654741D01*
X146546000Y-83477259D01*
X146580624Y-83303188D01*
X146648544Y-83139216D01*
X146747147Y-82991646D01*
X146872646Y-82866147D01*
X147020216Y-82767544D01*
X147184188Y-82699624D01*
X147336574Y-82669313D01*
X147358258Y-82665000D01*
X147535742Y-82665000D01*
X147557426Y-82669313D01*
G37*
G36*
X164513240Y-84046447D02*
G01*
X164525019Y-84050020D01*
X164535865Y-84055818D01*
X164545376Y-84063624D01*
X164553182Y-84073135D01*
X164558980Y-84083981D01*
X164562553Y-84095760D01*
X164564000Y-84110453D01*
X164564000Y-84331547D01*
X164562553Y-84346240D01*
X164558980Y-84358019D01*
X164553182Y-84368865D01*
X164545376Y-84378376D01*
X164535865Y-84386182D01*
X164525019Y-84391980D01*
X164513240Y-84395553D01*
X164498547Y-84397000D01*
X163652453Y-84397000D01*
X163637760Y-84395553D01*
X163625981Y-84391980D01*
X163615135Y-84386182D01*
X163605624Y-84378376D01*
X163597818Y-84368865D01*
X163592020Y-84358019D01*
X163588447Y-84346240D01*
X163587000Y-84331547D01*
X163587000Y-84110453D01*
X163588447Y-84095760D01*
X163592020Y-84083981D01*
X163597818Y-84073135D01*
X163605624Y-84063624D01*
X163615135Y-84055818D01*
X163625981Y-84050020D01*
X163637760Y-84046447D01*
X163652453Y-84045000D01*
X164498547Y-84045000D01*
X164513240Y-84046447D01*
G37*
G36*
X171388240Y-84046447D02*
G01*
X171400019Y-84050020D01*
X171410865Y-84055818D01*
X171420376Y-84063624D01*
X171428182Y-84073135D01*
X171433980Y-84083981D01*
X171437553Y-84095760D01*
X171439000Y-84110453D01*
X171439000Y-84331547D01*
X171437553Y-84346240D01*
X171433980Y-84358019D01*
X171428182Y-84368865D01*
X171420376Y-84378376D01*
X171410865Y-84386182D01*
X171400019Y-84391980D01*
X171388240Y-84395553D01*
X171373547Y-84397000D01*
X170527453Y-84397000D01*
X170512760Y-84395553D01*
X170500981Y-84391980D01*
X170490135Y-84386182D01*
X170480624Y-84378376D01*
X170472818Y-84368865D01*
X170467020Y-84358019D01*
X170463447Y-84346240D01*
X170462000Y-84331547D01*
X170462000Y-84110453D01*
X170463447Y-84095760D01*
X170467020Y-84083981D01*
X170472818Y-84073135D01*
X170480624Y-84063624D01*
X170490135Y-84055818D01*
X170500981Y-84050020D01*
X170512760Y-84046447D01*
X170527453Y-84045000D01*
X171373547Y-84045000D01*
X171388240Y-84046447D01*
G37*
G36*
X164513240Y-83546447D02*
G01*
X164525019Y-83550020D01*
X164535865Y-83555818D01*
X164545376Y-83563624D01*
X164553182Y-83573135D01*
X164558980Y-83583981D01*
X164562553Y-83595760D01*
X164564000Y-83610453D01*
X164564000Y-83831547D01*
X164562553Y-83846240D01*
X164558980Y-83858019D01*
X164553182Y-83868865D01*
X164545376Y-83878376D01*
X164535865Y-83886182D01*
X164525019Y-83891980D01*
X164513240Y-83895553D01*
X164498547Y-83897000D01*
X163652453Y-83897000D01*
X163637760Y-83895553D01*
X163625981Y-83891980D01*
X163615135Y-83886182D01*
X163605624Y-83878376D01*
X163597818Y-83868865D01*
X163592020Y-83858019D01*
X163588447Y-83846240D01*
X163587000Y-83831547D01*
X163587000Y-83610453D01*
X163588447Y-83595760D01*
X163592020Y-83583981D01*
X163597818Y-83573135D01*
X163605624Y-83563624D01*
X163615135Y-83555818D01*
X163625981Y-83550020D01*
X163637760Y-83546447D01*
X163652453Y-83545000D01*
X164498547Y-83545000D01*
X164513240Y-83546447D01*
G37*
G36*
X171388240Y-83546447D02*
G01*
X171400019Y-83550020D01*
X171410865Y-83555818D01*
X171420376Y-83563624D01*
X171428182Y-83573135D01*
X171433980Y-83583981D01*
X171437553Y-83595760D01*
X171439000Y-83610453D01*
X171439000Y-83831547D01*
X171437553Y-83846240D01*
X171433980Y-83858019D01*
X171428182Y-83868865D01*
X171420376Y-83878376D01*
X171410865Y-83886182D01*
X171400019Y-83891980D01*
X171388240Y-83895553D01*
X171373547Y-83897000D01*
X170527453Y-83897000D01*
X170512760Y-83895553D01*
X170500981Y-83891980D01*
X170490135Y-83886182D01*
X170480624Y-83878376D01*
X170472818Y-83868865D01*
X170467020Y-83858019D01*
X170463447Y-83846240D01*
X170462000Y-83831547D01*
X170462000Y-83610453D01*
X170463447Y-83595760D01*
X170467020Y-83583981D01*
X170472818Y-83573135D01*
X170480624Y-83563624D01*
X170490135Y-83555818D01*
X170500981Y-83550020D01*
X170512760Y-83546447D01*
X170527453Y-83545000D01*
X171373547Y-83545000D01*
X171388240Y-83546447D01*
G37*
G36*
X155782383Y-82514810D02*
G01*
X155826987Y-82528341D01*
X155868090Y-82550310D01*
X155904120Y-82579880D01*
X155933690Y-82615910D01*
X155955659Y-82657013D01*
X155969190Y-82701617D01*
X155974000Y-82750454D01*
X155974000Y-83421546D01*
X155969190Y-83470383D01*
X155955659Y-83514987D01*
X155933690Y-83556090D01*
X155904120Y-83592120D01*
X155868090Y-83621690D01*
X155826987Y-83643659D01*
X155782383Y-83657190D01*
X155733546Y-83662000D01*
X155162454Y-83662000D01*
X155113617Y-83657190D01*
X155069013Y-83643659D01*
X155027910Y-83621690D01*
X154991880Y-83592120D01*
X154962310Y-83556090D01*
X154940341Y-83514987D01*
X154926810Y-83470383D01*
X154922000Y-83421546D01*
X154922000Y-82750454D01*
X154926810Y-82701617D01*
X154940341Y-82657013D01*
X154962310Y-82615910D01*
X154991880Y-82579880D01*
X155027910Y-82550310D01*
X155069013Y-82528341D01*
X155113617Y-82514810D01*
X155162454Y-82510000D01*
X155733546Y-82510000D01*
X155782383Y-82514810D01*
G37*
G36*
X152749477Y-82649950D02*
G01*
X152790559Y-82662412D01*
X152828424Y-82682652D01*
X152861612Y-82709888D01*
X152888848Y-82743076D01*
X152909088Y-82780941D01*
X152921550Y-82822023D01*
X152926000Y-82867204D01*
X152926000Y-83400796D01*
X152921550Y-83445977D01*
X152909088Y-83487059D01*
X152888848Y-83524924D01*
X152861612Y-83558112D01*
X152828424Y-83585348D01*
X152790559Y-83605588D01*
X152749477Y-83618050D01*
X152704296Y-83622500D01*
X152095704Y-83622500D01*
X152050523Y-83618050D01*
X152009441Y-83605588D01*
X151971576Y-83585348D01*
X151938388Y-83558112D01*
X151911152Y-83524924D01*
X151890912Y-83487059D01*
X151878450Y-83445977D01*
X151874000Y-83400796D01*
X151874000Y-82867204D01*
X151878450Y-82822023D01*
X151890912Y-82780941D01*
X151911152Y-82743076D01*
X151938388Y-82709888D01*
X151971576Y-82682652D01*
X152009441Y-82662412D01*
X152050523Y-82649950D01*
X152095704Y-82645500D01*
X152704296Y-82645500D01*
X152749477Y-82649950D01*
G37*
G36*
X171388240Y-83046447D02*
G01*
X171400019Y-83050020D01*
X171410865Y-83055818D01*
X171420376Y-83063624D01*
X171428182Y-83073135D01*
X171433980Y-83083981D01*
X171437553Y-83095760D01*
X171439000Y-83110453D01*
X171439000Y-83331547D01*
X171437553Y-83346240D01*
X171433980Y-83358019D01*
X171428182Y-83368865D01*
X171420376Y-83378376D01*
X171410865Y-83386182D01*
X171400019Y-83391980D01*
X171388240Y-83395553D01*
X171373547Y-83397000D01*
X170527453Y-83397000D01*
X170512760Y-83395553D01*
X170500981Y-83391980D01*
X170490135Y-83386182D01*
X170480624Y-83378376D01*
X170472818Y-83368865D01*
X170467020Y-83358019D01*
X170463447Y-83346240D01*
X170462000Y-83331547D01*
X170462000Y-83110453D01*
X170463447Y-83095760D01*
X170467020Y-83083981D01*
X170472818Y-83073135D01*
X170480624Y-83063624D01*
X170490135Y-83055818D01*
X170500981Y-83050020D01*
X170512760Y-83046447D01*
X170527453Y-83045000D01*
X171373547Y-83045000D01*
X171388240Y-83046447D01*
G37*
G36*
X164513240Y-83046447D02*
G01*
X164525019Y-83050020D01*
X164535865Y-83055818D01*
X164545376Y-83063624D01*
X164553182Y-83073135D01*
X164558980Y-83083981D01*
X164562553Y-83095760D01*
X164564000Y-83110453D01*
X164564000Y-83331547D01*
X164562553Y-83346240D01*
X164558980Y-83358019D01*
X164553182Y-83368865D01*
X164545376Y-83378376D01*
X164535865Y-83386182D01*
X164525019Y-83391980D01*
X164513240Y-83395553D01*
X164498547Y-83397000D01*
X163652453Y-83397000D01*
X163637760Y-83395553D01*
X163625981Y-83391980D01*
X163615135Y-83386182D01*
X163605624Y-83378376D01*
X163597818Y-83368865D01*
X163592020Y-83358019D01*
X163588447Y-83346240D01*
X163587000Y-83331547D01*
X163587000Y-83110453D01*
X163588447Y-83095760D01*
X163592020Y-83083981D01*
X163597818Y-83073135D01*
X163605624Y-83063624D01*
X163615135Y-83055818D01*
X163625981Y-83050020D01*
X163637760Y-83046447D01*
X163652453Y-83045000D01*
X164498547Y-83045000D01*
X164513240Y-83046447D01*
G37*
G36*
X178672426Y-81399313D02*
G01*
X178824812Y-81429624D01*
X178988784Y-81497544D01*
X179136354Y-81596147D01*
X179261853Y-81721646D01*
X179360456Y-81869216D01*
X179428376Y-82033188D01*
X179463000Y-82207259D01*
X179463000Y-82384741D01*
X179428376Y-82558812D01*
X179360456Y-82722784D01*
X179261853Y-82870354D01*
X179136354Y-82995853D01*
X178988784Y-83094456D01*
X178824812Y-83162376D01*
X178672426Y-83192687D01*
X178650742Y-83197000D01*
X178473258Y-83197000D01*
X178451574Y-83192687D01*
X178299188Y-83162376D01*
X178135216Y-83094456D01*
X177987646Y-82995853D01*
X177862147Y-82870354D01*
X177763544Y-82722784D01*
X177695624Y-82558812D01*
X177661000Y-82384741D01*
X177661000Y-82207259D01*
X177695624Y-82033188D01*
X177763544Y-81869216D01*
X177862147Y-81721646D01*
X177987646Y-81596147D01*
X178135216Y-81497544D01*
X178299188Y-81429624D01*
X178451574Y-81399313D01*
X178473258Y-81395000D01*
X178650742Y-81395000D01*
X178672426Y-81399313D01*
G37*
G36*
X159607477Y-82192950D02*
G01*
X159648559Y-82205412D01*
X159686424Y-82225652D01*
X159719612Y-82252888D01*
X159746848Y-82286076D01*
X159767088Y-82323941D01*
X159779550Y-82365023D01*
X159784000Y-82410204D01*
X159784000Y-82943796D01*
X159779550Y-82988977D01*
X159767088Y-83030059D01*
X159746848Y-83067924D01*
X159719612Y-83101112D01*
X159686424Y-83128348D01*
X159648559Y-83148588D01*
X159607477Y-83161050D01*
X159562296Y-83165500D01*
X158953704Y-83165500D01*
X158908523Y-83161050D01*
X158867441Y-83148588D01*
X158829576Y-83128348D01*
X158796388Y-83101112D01*
X158769152Y-83067924D01*
X158748912Y-83030059D01*
X158736450Y-82988977D01*
X158732000Y-82943796D01*
X158732000Y-82410204D01*
X158736450Y-82365023D01*
X158748912Y-82323941D01*
X158769152Y-82286076D01*
X158796388Y-82252888D01*
X158829576Y-82225652D01*
X158867441Y-82205412D01*
X158908523Y-82192950D01*
X158953704Y-82188500D01*
X159562296Y-82188500D01*
X159607477Y-82192950D01*
G37*
G36*
X171388240Y-82546447D02*
G01*
X171400019Y-82550020D01*
X171410865Y-82555818D01*
X171420376Y-82563624D01*
X171428182Y-82573135D01*
X171433980Y-82583981D01*
X171437553Y-82595760D01*
X171439000Y-82610453D01*
X171439000Y-82831547D01*
X171437553Y-82846240D01*
X171433980Y-82858019D01*
X171428182Y-82868865D01*
X171420376Y-82878376D01*
X171410865Y-82886182D01*
X171400019Y-82891980D01*
X171388240Y-82895553D01*
X171373547Y-82897000D01*
X170527453Y-82897000D01*
X170512760Y-82895553D01*
X170500981Y-82891980D01*
X170490135Y-82886182D01*
X170480624Y-82878376D01*
X170472818Y-82868865D01*
X170467020Y-82858019D01*
X170463447Y-82846240D01*
X170462000Y-82831547D01*
X170462000Y-82610453D01*
X170463447Y-82595760D01*
X170467489Y-82582438D01*
X170470010Y-82576351D01*
X170471923Y-82566738D01*
X170471923Y-82556936D01*
X170471424Y-82554424D01*
X170473932Y-82554923D01*
X170483734Y-82554923D01*
X170493347Y-82553012D01*
X170499439Y-82550488D01*
X170512760Y-82546447D01*
X170527453Y-82545000D01*
X171373547Y-82545000D01*
X171388240Y-82546447D01*
G37*
G36*
X164513240Y-82546447D02*
G01*
X164526562Y-82550489D01*
X164532649Y-82553010D01*
X164542262Y-82554923D01*
X164552064Y-82554923D01*
X164554576Y-82554424D01*
X164554077Y-82556932D01*
X164554077Y-82566734D01*
X164555988Y-82576347D01*
X164558512Y-82582439D01*
X164562553Y-82595760D01*
X164564000Y-82610453D01*
X164564000Y-82831547D01*
X164562553Y-82846240D01*
X164558980Y-82858019D01*
X164553182Y-82868865D01*
X164545376Y-82878376D01*
X164535865Y-82886182D01*
X164525019Y-82891980D01*
X164513240Y-82895553D01*
X164498547Y-82897000D01*
X163652453Y-82897000D01*
X163637760Y-82895553D01*
X163625981Y-82891980D01*
X163615135Y-82886182D01*
X163605624Y-82878376D01*
X163597818Y-82868865D01*
X163592020Y-82858019D01*
X163588447Y-82846240D01*
X163587000Y-82831547D01*
X163587000Y-82610453D01*
X163588447Y-82595760D01*
X163592020Y-82583981D01*
X163597818Y-82573135D01*
X163605624Y-82563624D01*
X163615135Y-82555818D01*
X163625981Y-82550020D01*
X163637760Y-82546447D01*
X163652453Y-82545000D01*
X164498547Y-82545000D01*
X164513240Y-82546447D01*
G37*
G36*
X169388240Y-81546447D02*
G01*
X169400019Y-81550020D01*
X169410865Y-81555818D01*
X169420376Y-81563624D01*
X169428182Y-81573135D01*
X169433980Y-81583981D01*
X169437553Y-81595760D01*
X169439000Y-81610453D01*
X169439000Y-82456547D01*
X169437553Y-82471240D01*
X169433980Y-82483019D01*
X169428182Y-82493865D01*
X169420376Y-82503376D01*
X169410865Y-82511182D01*
X169400019Y-82516980D01*
X169388240Y-82520553D01*
X169373547Y-82522000D01*
X169152453Y-82522000D01*
X169137760Y-82520553D01*
X169125981Y-82516980D01*
X169115135Y-82511182D01*
X169105624Y-82503376D01*
X169097818Y-82493865D01*
X169092020Y-82483019D01*
X169088447Y-82471240D01*
X169087000Y-82456547D01*
X169087000Y-81610453D01*
X169088447Y-81595760D01*
X169092020Y-81583981D01*
X169097818Y-81573135D01*
X169105624Y-81563624D01*
X169115135Y-81555818D01*
X169125981Y-81550020D01*
X169137760Y-81546447D01*
X169152453Y-81545000D01*
X169373547Y-81545000D01*
X169388240Y-81546447D01*
G37*
G36*
X168888240Y-81546447D02*
G01*
X168900019Y-81550020D01*
X168910865Y-81555818D01*
X168920376Y-81563624D01*
X168928182Y-81573135D01*
X168933980Y-81583981D01*
X168937553Y-81595760D01*
X168939000Y-81610453D01*
X168939000Y-82456547D01*
X168937553Y-82471240D01*
X168933980Y-82483019D01*
X168928182Y-82493865D01*
X168920376Y-82503376D01*
X168910865Y-82511182D01*
X168900019Y-82516980D01*
X168888240Y-82520553D01*
X168873547Y-82522000D01*
X168652453Y-82522000D01*
X168637760Y-82520553D01*
X168625981Y-82516980D01*
X168615135Y-82511182D01*
X168605624Y-82503376D01*
X168597818Y-82493865D01*
X168592020Y-82483019D01*
X168588447Y-82471240D01*
X168587000Y-82456547D01*
X168587000Y-81610453D01*
X168588447Y-81595760D01*
X168592020Y-81583981D01*
X168597818Y-81573135D01*
X168605624Y-81563624D01*
X168615135Y-81555818D01*
X168625981Y-81550020D01*
X168637760Y-81546447D01*
X168652453Y-81545000D01*
X168873547Y-81545000D01*
X168888240Y-81546447D01*
G37*
G36*
X169888240Y-81546447D02*
G01*
X169900019Y-81550020D01*
X169910865Y-81555818D01*
X169920376Y-81563624D01*
X169928182Y-81573135D01*
X169933980Y-81583981D01*
X169937553Y-81595760D01*
X169939000Y-81610453D01*
X169939000Y-82456547D01*
X169937553Y-82471240D01*
X169933980Y-82483019D01*
X169928182Y-82493865D01*
X169920376Y-82503376D01*
X169910865Y-82511182D01*
X169900019Y-82516980D01*
X169888240Y-82520553D01*
X169873547Y-82522000D01*
X169652453Y-82522000D01*
X169637760Y-82520553D01*
X169625981Y-82516980D01*
X169615135Y-82511182D01*
X169605624Y-82503376D01*
X169597818Y-82493865D01*
X169592020Y-82483019D01*
X169588447Y-82471240D01*
X169587000Y-82456547D01*
X169587000Y-81610453D01*
X169588447Y-81595760D01*
X169592020Y-81583981D01*
X169597818Y-81573135D01*
X169605624Y-81563624D01*
X169615135Y-81555818D01*
X169625981Y-81550020D01*
X169637760Y-81546447D01*
X169652453Y-81545000D01*
X169873547Y-81545000D01*
X169888240Y-81546447D01*
G37*
G36*
X164888240Y-81546447D02*
G01*
X164900019Y-81550020D01*
X164910865Y-81555818D01*
X164920376Y-81563624D01*
X164928182Y-81573135D01*
X164933980Y-81583981D01*
X164937553Y-81595760D01*
X164939000Y-81610453D01*
X164939000Y-82456547D01*
X164937553Y-82471240D01*
X164933980Y-82483019D01*
X164928182Y-82493865D01*
X164920376Y-82503376D01*
X164910865Y-82511182D01*
X164900019Y-82516980D01*
X164888240Y-82520553D01*
X164873547Y-82522000D01*
X164652453Y-82522000D01*
X164637760Y-82520553D01*
X164624438Y-82516511D01*
X164618351Y-82513990D01*
X164608738Y-82512077D01*
X164598936Y-82512077D01*
X164596424Y-82512576D01*
X164596923Y-82510068D01*
X164596923Y-82500266D01*
X164595012Y-82490653D01*
X164592488Y-82484561D01*
X164588447Y-82471240D01*
X164587000Y-82456547D01*
X164587000Y-81610453D01*
X164588447Y-81595760D01*
X164592020Y-81583981D01*
X164597818Y-81573135D01*
X164605624Y-81563624D01*
X164615135Y-81555818D01*
X164625981Y-81550020D01*
X164637760Y-81546447D01*
X164652453Y-81545000D01*
X164873547Y-81545000D01*
X164888240Y-81546447D01*
G37*
G36*
X165388240Y-81546447D02*
G01*
X165400019Y-81550020D01*
X165410865Y-81555818D01*
X165420376Y-81563624D01*
X165428182Y-81573135D01*
X165433980Y-81583981D01*
X165437553Y-81595760D01*
X165439000Y-81610453D01*
X165439000Y-82456547D01*
X165437553Y-82471240D01*
X165433980Y-82483019D01*
X165428182Y-82493865D01*
X165420376Y-82503376D01*
X165410865Y-82511182D01*
X165400019Y-82516980D01*
X165388240Y-82520553D01*
X165373547Y-82522000D01*
X165152453Y-82522000D01*
X165137760Y-82520553D01*
X165125981Y-82516980D01*
X165115135Y-82511182D01*
X165105624Y-82503376D01*
X165097818Y-82493865D01*
X165092020Y-82483019D01*
X165088447Y-82471240D01*
X165087000Y-82456547D01*
X165087000Y-81610453D01*
X165088447Y-81595760D01*
X165092020Y-81583981D01*
X165097818Y-81573135D01*
X165105624Y-81563624D01*
X165115135Y-81555818D01*
X165125981Y-81550020D01*
X165137760Y-81546447D01*
X165152453Y-81545000D01*
X165373547Y-81545000D01*
X165388240Y-81546447D01*
G37*
G36*
X165888240Y-81546447D02*
G01*
X165900019Y-81550020D01*
X165910865Y-81555818D01*
X165920376Y-81563624D01*
X165928182Y-81573135D01*
X165933980Y-81583981D01*
X165937553Y-81595760D01*
X165939000Y-81610453D01*
X165939000Y-82456547D01*
X165937553Y-82471240D01*
X165933980Y-82483019D01*
X165928182Y-82493865D01*
X165920376Y-82503376D01*
X165910865Y-82511182D01*
X165900019Y-82516980D01*
X165888240Y-82520553D01*
X165873547Y-82522000D01*
X165652453Y-82522000D01*
X165637760Y-82520553D01*
X165625981Y-82516980D01*
X165615135Y-82511182D01*
X165605624Y-82503376D01*
X165597818Y-82493865D01*
X165592020Y-82483019D01*
X165588447Y-82471240D01*
X165587000Y-82456547D01*
X165587000Y-81610453D01*
X165588447Y-81595760D01*
X165592020Y-81583981D01*
X165597818Y-81573135D01*
X165605624Y-81563624D01*
X165615135Y-81555818D01*
X165625981Y-81550020D01*
X165637760Y-81546447D01*
X165652453Y-81545000D01*
X165873547Y-81545000D01*
X165888240Y-81546447D01*
G37*
G36*
X166888240Y-81546447D02*
G01*
X166900019Y-81550020D01*
X166910865Y-81555818D01*
X166920376Y-81563624D01*
X166928182Y-81573135D01*
X166933980Y-81583981D01*
X166937553Y-81595760D01*
X166939000Y-81610453D01*
X166939000Y-82456547D01*
X166937553Y-82471240D01*
X166933980Y-82483019D01*
X166928182Y-82493865D01*
X166920376Y-82503376D01*
X166910865Y-82511182D01*
X166900019Y-82516980D01*
X166888240Y-82520553D01*
X166873547Y-82522000D01*
X166652453Y-82522000D01*
X166637760Y-82520553D01*
X166625981Y-82516980D01*
X166615135Y-82511182D01*
X166605624Y-82503376D01*
X166597818Y-82493865D01*
X166592020Y-82483019D01*
X166588447Y-82471240D01*
X166587000Y-82456547D01*
X166587000Y-81610453D01*
X166588447Y-81595760D01*
X166592020Y-81583981D01*
X166597818Y-81573135D01*
X166605624Y-81563624D01*
X166615135Y-81555818D01*
X166625981Y-81550020D01*
X166637760Y-81546447D01*
X166652453Y-81545000D01*
X166873547Y-81545000D01*
X166888240Y-81546447D01*
G37*
G36*
X167388240Y-81546447D02*
G01*
X167400019Y-81550020D01*
X167410865Y-81555818D01*
X167420376Y-81563624D01*
X167428182Y-81573135D01*
X167433980Y-81583981D01*
X167437553Y-81595760D01*
X167439000Y-81610453D01*
X167439000Y-82456547D01*
X167437553Y-82471240D01*
X167433980Y-82483019D01*
X167428182Y-82493865D01*
X167420376Y-82503376D01*
X167410865Y-82511182D01*
X167400019Y-82516980D01*
X167388240Y-82520553D01*
X167373547Y-82522000D01*
X167152453Y-82522000D01*
X167137760Y-82520553D01*
X167125981Y-82516980D01*
X167115135Y-82511182D01*
X167105624Y-82503376D01*
X167097818Y-82493865D01*
X167092020Y-82483019D01*
X167088447Y-82471240D01*
X167087000Y-82456547D01*
X167087000Y-81610453D01*
X167088447Y-81595760D01*
X167092020Y-81583981D01*
X167097818Y-81573135D01*
X167105624Y-81563624D01*
X167115135Y-81555818D01*
X167125981Y-81550020D01*
X167137760Y-81546447D01*
X167152453Y-81545000D01*
X167373547Y-81545000D01*
X167388240Y-81546447D01*
G37*
G36*
X167888240Y-81546447D02*
G01*
X167900019Y-81550020D01*
X167910865Y-81555818D01*
X167920376Y-81563624D01*
X167928182Y-81573135D01*
X167933980Y-81583981D01*
X167937553Y-81595760D01*
X167939000Y-81610453D01*
X167939000Y-82456547D01*
X167937553Y-82471240D01*
X167933980Y-82483019D01*
X167928182Y-82493865D01*
X167920376Y-82503376D01*
X167910865Y-82511182D01*
X167900019Y-82516980D01*
X167888240Y-82520553D01*
X167873547Y-82522000D01*
X167652453Y-82522000D01*
X167637760Y-82520553D01*
X167625981Y-82516980D01*
X167615135Y-82511182D01*
X167605624Y-82503376D01*
X167597818Y-82493865D01*
X167592020Y-82483019D01*
X167588447Y-82471240D01*
X167587000Y-82456547D01*
X167587000Y-81610453D01*
X167588447Y-81595760D01*
X167592020Y-81583981D01*
X167597818Y-81573135D01*
X167605624Y-81563624D01*
X167615135Y-81555818D01*
X167625981Y-81550020D01*
X167637760Y-81546447D01*
X167652453Y-81545000D01*
X167873547Y-81545000D01*
X167888240Y-81546447D01*
G37*
G36*
X170388240Y-81546447D02*
G01*
X170400019Y-81550020D01*
X170410865Y-81555818D01*
X170420376Y-81563624D01*
X170428182Y-81573135D01*
X170433980Y-81583981D01*
X170437553Y-81595760D01*
X170439000Y-81610453D01*
X170439000Y-82456547D01*
X170437553Y-82471240D01*
X170433511Y-82484562D01*
X170430990Y-82490649D01*
X170429077Y-82500262D01*
X170429077Y-82510064D01*
X170429576Y-82512576D01*
X170427068Y-82512077D01*
X170417266Y-82512077D01*
X170407653Y-82513988D01*
X170401561Y-82516512D01*
X170388240Y-82520553D01*
X170373547Y-82522000D01*
X170152453Y-82522000D01*
X170137760Y-82520553D01*
X170125981Y-82516980D01*
X170115135Y-82511182D01*
X170105624Y-82503376D01*
X170097818Y-82493865D01*
X170092020Y-82483019D01*
X170088447Y-82471240D01*
X170087000Y-82456547D01*
X170087000Y-81610453D01*
X170088447Y-81595760D01*
X170092020Y-81583981D01*
X170097818Y-81573135D01*
X170105624Y-81563624D01*
X170115135Y-81555818D01*
X170125981Y-81550020D01*
X170137760Y-81546447D01*
X170152453Y-81545000D01*
X170373547Y-81545000D01*
X170388240Y-81546447D01*
G37*
G36*
X166388240Y-81546447D02*
G01*
X166400019Y-81550020D01*
X166410865Y-81555818D01*
X166420376Y-81563624D01*
X166428182Y-81573135D01*
X166433980Y-81583981D01*
X166437553Y-81595760D01*
X166439000Y-81610453D01*
X166439000Y-82456547D01*
X166437553Y-82471240D01*
X166433980Y-82483019D01*
X166428182Y-82493865D01*
X166420376Y-82503376D01*
X166410865Y-82511182D01*
X166400019Y-82516980D01*
X166388240Y-82520553D01*
X166373547Y-82522000D01*
X166152453Y-82522000D01*
X166137760Y-82520553D01*
X166125981Y-82516980D01*
X166115135Y-82511182D01*
X166105624Y-82503376D01*
X166097818Y-82493865D01*
X166092020Y-82483019D01*
X166088447Y-82471240D01*
X166087000Y-82456547D01*
X166087000Y-81610453D01*
X166088447Y-81595760D01*
X166092020Y-81583981D01*
X166097818Y-81573135D01*
X166105624Y-81563624D01*
X166115135Y-81555818D01*
X166125981Y-81550020D01*
X166137760Y-81546447D01*
X166152453Y-81545000D01*
X166373547Y-81545000D01*
X166388240Y-81546447D01*
G37*
G36*
X168388240Y-81546447D02*
G01*
X168400019Y-81550020D01*
X168410865Y-81555818D01*
X168420376Y-81563624D01*
X168428182Y-81573135D01*
X168433980Y-81583981D01*
X168437553Y-81595760D01*
X168439000Y-81610453D01*
X168439000Y-82456547D01*
X168437553Y-82471240D01*
X168433980Y-82483019D01*
X168428182Y-82493865D01*
X168420376Y-82503376D01*
X168410865Y-82511182D01*
X168400019Y-82516980D01*
X168388240Y-82520553D01*
X168373547Y-82522000D01*
X168152453Y-82522000D01*
X168137760Y-82520553D01*
X168125981Y-82516980D01*
X168115135Y-82511182D01*
X168105624Y-82503376D01*
X168097818Y-82493865D01*
X168092020Y-82483019D01*
X168088447Y-82471240D01*
X168087000Y-82456547D01*
X168087000Y-81610453D01*
X168088447Y-81595760D01*
X168092020Y-81583981D01*
X168097818Y-81573135D01*
X168105624Y-81563624D01*
X168115135Y-81555818D01*
X168125981Y-81550020D01*
X168137760Y-81546447D01*
X168152453Y-81545000D01*
X168373547Y-81545000D01*
X168388240Y-81546447D01*
G37*
G36*
X159607477Y-80617950D02*
G01*
X159648559Y-80630412D01*
X159686424Y-80650652D01*
X159719612Y-80677888D01*
X159746848Y-80711076D01*
X159767088Y-80748941D01*
X159779550Y-80790023D01*
X159784000Y-80835204D01*
X159784000Y-81368796D01*
X159779550Y-81413977D01*
X159767088Y-81455059D01*
X159746848Y-81492924D01*
X159719612Y-81526112D01*
X159686424Y-81553348D01*
X159648559Y-81573588D01*
X159607477Y-81586050D01*
X159562296Y-81590500D01*
X158953704Y-81590500D01*
X158908523Y-81586050D01*
X158867441Y-81573588D01*
X158829576Y-81553348D01*
X158796388Y-81526112D01*
X158769152Y-81492924D01*
X158748912Y-81455059D01*
X158736450Y-81413977D01*
X158732000Y-81368796D01*
X158732000Y-80835204D01*
X158736450Y-80790023D01*
X158748912Y-80748941D01*
X158769152Y-80711076D01*
X158796388Y-80677888D01*
X158829576Y-80650652D01*
X158867441Y-80630412D01*
X158908523Y-80617950D01*
X158953704Y-80613500D01*
X159562296Y-80613500D01*
X159607477Y-80617950D01*
G37*
G36*
X178672426Y-78859313D02*
G01*
X178824812Y-78889624D01*
X178988784Y-78957544D01*
X179136354Y-79056147D01*
X179261853Y-79181646D01*
X179360456Y-79329216D01*
X179428376Y-79493188D01*
X179463000Y-79667259D01*
X179463000Y-79844741D01*
X179428376Y-80018812D01*
X179360456Y-80182784D01*
X179261853Y-80330354D01*
X179136354Y-80455853D01*
X178988784Y-80554456D01*
X178824812Y-80622376D01*
X178682655Y-80650652D01*
X178650742Y-80657000D01*
X178473258Y-80657000D01*
X178441345Y-80650652D01*
X178299188Y-80622376D01*
X178135216Y-80554456D01*
X177987646Y-80455853D01*
X177862147Y-80330354D01*
X177763544Y-80182784D01*
X177695624Y-80018812D01*
X177661000Y-79844741D01*
X177661000Y-79667259D01*
X177695624Y-79493188D01*
X177763544Y-79329216D01*
X177862147Y-79181646D01*
X177987646Y-79056147D01*
X178135216Y-78957544D01*
X178299188Y-78889624D01*
X178451574Y-78859313D01*
X178473258Y-78855000D01*
X178650742Y-78855000D01*
X178672426Y-78859313D01*
G37*
G36*
X156363000Y-80386000D02*
G01*
X155041000Y-80386000D01*
X155041000Y-79634000D01*
X156363000Y-79634000D01*
X156363000Y-80386000D01*
G37*
G36*
X153743000Y-80386000D02*
G01*
X152421000Y-80386000D01*
X152421000Y-79634000D01*
X153743000Y-79634000D01*
X153743000Y-80386000D01*
G37*
G36*
X148348000Y-80022000D02*
G01*
X146546000Y-80022000D01*
X146546000Y-78220000D01*
X148348000Y-78220000D01*
X148348000Y-80022000D01*
G37*
G36*
X153743000Y-79436000D02*
G01*
X152421000Y-79436000D01*
X152421000Y-78684000D01*
X153743000Y-78684000D01*
X153743000Y-79436000D01*
G37*
G36*
X156363000Y-78486000D02*
G01*
X155041000Y-78486000D01*
X155041000Y-77734000D01*
X156363000Y-77734000D01*
X156363000Y-78486000D01*
G37*
G36*
X153743000Y-78486000D02*
G01*
X152421000Y-78486000D01*
X152421000Y-77734000D01*
X153743000Y-77734000D01*
X153743000Y-78486000D01*
G37*
G36*
X178666769Y-76318188D02*
G01*
X178824812Y-76349624D01*
X178988784Y-76417544D01*
X179136354Y-76516147D01*
X179261853Y-76641646D01*
X179360456Y-76789216D01*
X179428376Y-76953188D01*
X179463000Y-77127259D01*
X179463000Y-77304741D01*
X179428376Y-77478812D01*
X179360456Y-77642784D01*
X179261853Y-77790354D01*
X179136354Y-77915853D01*
X178988784Y-78014456D01*
X178824812Y-78082376D01*
X178672426Y-78112687D01*
X178650742Y-78117000D01*
X178473258Y-78117000D01*
X178451574Y-78112687D01*
X178299188Y-78082376D01*
X178135216Y-78014456D01*
X177987646Y-77915853D01*
X177862147Y-77790354D01*
X177763544Y-77642784D01*
X177695624Y-77478812D01*
X177661000Y-77304741D01*
X177661000Y-77127259D01*
X177695624Y-76953188D01*
X177763544Y-76789216D01*
X177862147Y-76641646D01*
X177987646Y-76516147D01*
X178135216Y-76417544D01*
X178299188Y-76349624D01*
X178457231Y-76318188D01*
X178473258Y-76315000D01*
X178650742Y-76315000D01*
X178666769Y-76318188D01*
G37*
G36*
X147557426Y-75684313D02*
G01*
X147709812Y-75714624D01*
X147873784Y-75782544D01*
X148021354Y-75881147D01*
X148146853Y-76006646D01*
X148245456Y-76154216D01*
X148313376Y-76318188D01*
X148348000Y-76492259D01*
X148348000Y-76669741D01*
X148313376Y-76843812D01*
X148245456Y-77007784D01*
X148146853Y-77155354D01*
X148021354Y-77280853D01*
X147873784Y-77379456D01*
X147709812Y-77447376D01*
X147557426Y-77477687D01*
X147535742Y-77482000D01*
X147358258Y-77482000D01*
X147336574Y-77477687D01*
X147184188Y-77447376D01*
X147020216Y-77379456D01*
X146872646Y-77280853D01*
X146747147Y-77155354D01*
X146648544Y-77007784D01*
X146580624Y-76843812D01*
X146546000Y-76669741D01*
X146546000Y-76492259D01*
X146580624Y-76318188D01*
X146648544Y-76154216D01*
X146747147Y-76006646D01*
X146872646Y-75881147D01*
X147020216Y-75782544D01*
X147184188Y-75714624D01*
X147336574Y-75684313D01*
X147358258Y-75680000D01*
X147535742Y-75680000D01*
X147557426Y-75684313D01*
G37*
G36*
X178666769Y-73778188D02*
G01*
X178824812Y-73809624D01*
X178988784Y-73877544D01*
X179136354Y-73976147D01*
X179261853Y-74101646D01*
X179360456Y-74249216D01*
X179428376Y-74413188D01*
X179463000Y-74587259D01*
X179463000Y-74764741D01*
X179428376Y-74938812D01*
X179360456Y-75102784D01*
X179261853Y-75250354D01*
X179136354Y-75375853D01*
X178988784Y-75474456D01*
X178824812Y-75542376D01*
X178672426Y-75572687D01*
X178650742Y-75577000D01*
X178473258Y-75577000D01*
X178451574Y-75572687D01*
X178299188Y-75542376D01*
X178135216Y-75474456D01*
X177987646Y-75375853D01*
X177862147Y-75250354D01*
X177763544Y-75102784D01*
X177695624Y-74938812D01*
X177661000Y-74764741D01*
X177661000Y-74587259D01*
X177695624Y-74413188D01*
X177763544Y-74249216D01*
X177862147Y-74101646D01*
X177987646Y-73976147D01*
X178135216Y-73877544D01*
X178299188Y-73809624D01*
X178457231Y-73778188D01*
X178473258Y-73775000D01*
X178650742Y-73775000D01*
X178666769Y-73778188D01*
G37*
G36*
X147557426Y-73144313D02*
G01*
X147709812Y-73174624D01*
X147873784Y-73242544D01*
X148021354Y-73341147D01*
X148146853Y-73466646D01*
X148245456Y-73614216D01*
X148313376Y-73778188D01*
X148348000Y-73952259D01*
X148348000Y-74129741D01*
X148313376Y-74303812D01*
X148245456Y-74467784D01*
X148146853Y-74615354D01*
X148021354Y-74740853D01*
X147873784Y-74839456D01*
X147709812Y-74907376D01*
X147557426Y-74937687D01*
X147535742Y-74942000D01*
X147358258Y-74942000D01*
X147336574Y-74937687D01*
X147184188Y-74907376D01*
X147020216Y-74839456D01*
X146872646Y-74740853D01*
X146747147Y-74615354D01*
X146648544Y-74467784D01*
X146580624Y-74303812D01*
X146546000Y-74129741D01*
X146546000Y-73952259D01*
X146580624Y-73778188D01*
X146648544Y-73614216D01*
X146747147Y-73466646D01*
X146872646Y-73341147D01*
X147020216Y-73242544D01*
X147184188Y-73174624D01*
X147336574Y-73144313D01*
X147358258Y-73140000D01*
X147535742Y-73140000D01*
X147557426Y-73144313D01*
G37*
G36*
X147557426Y-70604313D02*
G01*
X147709812Y-70634624D01*
X147873784Y-70702544D01*
X148021354Y-70801147D01*
X148146853Y-70926646D01*
X148245456Y-71074216D01*
X148313376Y-71238188D01*
X148348000Y-71412259D01*
X148348000Y-71589741D01*
X148313376Y-71763812D01*
X148245456Y-71927784D01*
X148146853Y-72075354D01*
X148021354Y-72200853D01*
X147873784Y-72299456D01*
X147709812Y-72367376D01*
X147557426Y-72397687D01*
X147535742Y-72402000D01*
X147358258Y-72402000D01*
X147336574Y-72397687D01*
X147184188Y-72367376D01*
X147020216Y-72299456D01*
X146872646Y-72200853D01*
X146747147Y-72075354D01*
X146648544Y-71927784D01*
X146580624Y-71763812D01*
X146546000Y-71589741D01*
X146546000Y-71412259D01*
X146580624Y-71238188D01*
X146648544Y-71074216D01*
X146747147Y-70926646D01*
X146872646Y-70801147D01*
X147020216Y-70702544D01*
X147184188Y-70634624D01*
X147336574Y-70604313D01*
X147358258Y-70600000D01*
X147535742Y-70600000D01*
X147557426Y-70604313D01*
G37*
G36*
X157082426Y-69588313D02*
G01*
X157234812Y-69618624D01*
X157398784Y-69686544D01*
X157546354Y-69785147D01*
X157671853Y-69910646D01*
X157770456Y-70058216D01*
X157838376Y-70222188D01*
X157873000Y-70396259D01*
X157873000Y-70573741D01*
X157838376Y-70747812D01*
X157770456Y-70911784D01*
X157671853Y-71059354D01*
X157546354Y-71184853D01*
X157398784Y-71283456D01*
X157234812Y-71351376D01*
X157082426Y-71381687D01*
X157060742Y-71386000D01*
X156883258Y-71386000D01*
X156861574Y-71381687D01*
X156709188Y-71351376D01*
X156545216Y-71283456D01*
X156397646Y-71184853D01*
X156272147Y-71059354D01*
X156173544Y-70911784D01*
X156105624Y-70747812D01*
X156071000Y-70573741D01*
X156071000Y-70396259D01*
X156105624Y-70222188D01*
X156173544Y-70058216D01*
X156272147Y-69910646D01*
X156397646Y-69785147D01*
X156545216Y-69686544D01*
X156709188Y-69618624D01*
X156861574Y-69588313D01*
X156883258Y-69584000D01*
X157060742Y-69584000D01*
X157082426Y-69588313D01*
G37*
G36*
X162162426Y-69588313D02*
G01*
X162314812Y-69618624D01*
X162478784Y-69686544D01*
X162626354Y-69785147D01*
X162751853Y-69910646D01*
X162850456Y-70058216D01*
X162918376Y-70222188D01*
X162953000Y-70396259D01*
X162953000Y-70573741D01*
X162918376Y-70747812D01*
X162850456Y-70911784D01*
X162751853Y-71059354D01*
X162626354Y-71184853D01*
X162478784Y-71283456D01*
X162314812Y-71351376D01*
X162162426Y-71381687D01*
X162140742Y-71386000D01*
X161963258Y-71386000D01*
X161941574Y-71381687D01*
X161789188Y-71351376D01*
X161625216Y-71283456D01*
X161477646Y-71184853D01*
X161352147Y-71059354D01*
X161253544Y-70911784D01*
X161185624Y-70747812D01*
X161151000Y-70573741D01*
X161151000Y-70396259D01*
X161185624Y-70222188D01*
X161253544Y-70058216D01*
X161352147Y-69910646D01*
X161477646Y-69785147D01*
X161625216Y-69686544D01*
X161789188Y-69618624D01*
X161941574Y-69588313D01*
X161963258Y-69584000D01*
X162140742Y-69584000D01*
X162162426Y-69588313D01*
G37*
G36*
X152002426Y-69588313D02*
G01*
X152154812Y-69618624D01*
X152318784Y-69686544D01*
X152466354Y-69785147D01*
X152591853Y-69910646D01*
X152690456Y-70058216D01*
X152758376Y-70222188D01*
X152793000Y-70396259D01*
X152793000Y-70573741D01*
X152758376Y-70747812D01*
X152690456Y-70911784D01*
X152591853Y-71059354D01*
X152466354Y-71184853D01*
X152318784Y-71283456D01*
X152154812Y-71351376D01*
X152002426Y-71381687D01*
X151980742Y-71386000D01*
X151803258Y-71386000D01*
X151781574Y-71381687D01*
X151629188Y-71351376D01*
X151465216Y-71283456D01*
X151317646Y-71184853D01*
X151192147Y-71059354D01*
X151093544Y-70911784D01*
X151025624Y-70747812D01*
X150991000Y-70573741D01*
X150991000Y-70396259D01*
X151025624Y-70222188D01*
X151093544Y-70058216D01*
X151192147Y-69910646D01*
X151317646Y-69785147D01*
X151465216Y-69686544D01*
X151629188Y-69618624D01*
X151781574Y-69588313D01*
X151803258Y-69584000D01*
X151980742Y-69584000D01*
X152002426Y-69588313D01*
G37*
G36*
X159622426Y-69588313D02*
G01*
X159774812Y-69618624D01*
X159938784Y-69686544D01*
X160086354Y-69785147D01*
X160211853Y-69910646D01*
X160310456Y-70058216D01*
X160378376Y-70222188D01*
X160413000Y-70396259D01*
X160413000Y-70573741D01*
X160378376Y-70747812D01*
X160310456Y-70911784D01*
X160211853Y-71059354D01*
X160086354Y-71184853D01*
X159938784Y-71283456D01*
X159774812Y-71351376D01*
X159622426Y-71381687D01*
X159600742Y-71386000D01*
X159423258Y-71386000D01*
X159401574Y-71381687D01*
X159249188Y-71351376D01*
X159085216Y-71283456D01*
X158937646Y-71184853D01*
X158812147Y-71059354D01*
X158713544Y-70911784D01*
X158645624Y-70747812D01*
X158611000Y-70573741D01*
X158611000Y-70396259D01*
X158645624Y-70222188D01*
X158713544Y-70058216D01*
X158812147Y-69910646D01*
X158937646Y-69785147D01*
X159085216Y-69686544D01*
X159249188Y-69618624D01*
X159401574Y-69588313D01*
X159423258Y-69584000D01*
X159600742Y-69584000D01*
X159622426Y-69588313D01*
G37*
G36*
X154542426Y-69588313D02*
G01*
X154694812Y-69618624D01*
X154858784Y-69686544D01*
X155006354Y-69785147D01*
X155131853Y-69910646D01*
X155230456Y-70058216D01*
X155298376Y-70222188D01*
X155333000Y-70396259D01*
X155333000Y-70573741D01*
X155298376Y-70747812D01*
X155230456Y-70911784D01*
X155131853Y-71059354D01*
X155006354Y-71184853D01*
X154858784Y-71283456D01*
X154694812Y-71351376D01*
X154542426Y-71381687D01*
X154520742Y-71386000D01*
X154343258Y-71386000D01*
X154321574Y-71381687D01*
X154169188Y-71351376D01*
X154005216Y-71283456D01*
X153857646Y-71184853D01*
X153732147Y-71059354D01*
X153633544Y-70911784D01*
X153565624Y-70747812D01*
X153531000Y-70573741D01*
X153531000Y-70396259D01*
X153565624Y-70222188D01*
X153633544Y-70058216D01*
X153732147Y-69910646D01*
X153857646Y-69785147D01*
X154005216Y-69686544D01*
X154169188Y-69618624D01*
X154321574Y-69588313D01*
X154343258Y-69584000D01*
X154520742Y-69584000D01*
X154542426Y-69588313D01*
G37*
G36*
X165493000Y-71386000D02*
G01*
X163691000Y-71386000D01*
X163691000Y-69584000D01*
X165493000Y-69584000D01*
X165493000Y-71386000D01*
G37*
G36*
X168639426Y-69461313D02*
G01*
X168791812Y-69491624D01*
X168955784Y-69559544D01*
X169103354Y-69658147D01*
X169228853Y-69783646D01*
X169327456Y-69931216D01*
X169395376Y-70095188D01*
X169430000Y-70269259D01*
X169430000Y-70446741D01*
X169395376Y-70620812D01*
X169327456Y-70784784D01*
X169228853Y-70932354D01*
X169103354Y-71057853D01*
X168955784Y-71156456D01*
X168791812Y-71224376D01*
X168639426Y-71254687D01*
X168617742Y-71259000D01*
X168440258Y-71259000D01*
X168418574Y-71254687D01*
X168266188Y-71224376D01*
X168102216Y-71156456D01*
X167954646Y-71057853D01*
X167829147Y-70932354D01*
X167730544Y-70784784D01*
X167662624Y-70620812D01*
X167628000Y-70446741D01*
X167628000Y-70269259D01*
X167662624Y-70095188D01*
X167730544Y-69931216D01*
X167829147Y-69783646D01*
X167954646Y-69658147D01*
X168102216Y-69559544D01*
X168266188Y-69491624D01*
X168418574Y-69461313D01*
X168440258Y-69457000D01*
X168617742Y-69457000D01*
X168639426Y-69461313D01*
G37*
G36*
X178799426Y-69461313D02*
G01*
X178951812Y-69491624D01*
X179115784Y-69559544D01*
X179263354Y-69658147D01*
X179388853Y-69783646D01*
X179487456Y-69931216D01*
X179555376Y-70095188D01*
X179590000Y-70269259D01*
X179590000Y-70446741D01*
X179555376Y-70620812D01*
X179487456Y-70784784D01*
X179388853Y-70932354D01*
X179263354Y-71057853D01*
X179115784Y-71156456D01*
X178951812Y-71224376D01*
X178799426Y-71254687D01*
X178777742Y-71259000D01*
X178600258Y-71259000D01*
X178578574Y-71254687D01*
X178426188Y-71224376D01*
X178262216Y-71156456D01*
X178114646Y-71057853D01*
X177989147Y-70932354D01*
X177890544Y-70784784D01*
X177822624Y-70620812D01*
X177788000Y-70446741D01*
X177788000Y-70269259D01*
X177822624Y-70095188D01*
X177890544Y-69931216D01*
X177989147Y-69783646D01*
X178114646Y-69658147D01*
X178262216Y-69559544D01*
X178426188Y-69491624D01*
X178578574Y-69461313D01*
X178600258Y-69457000D01*
X178777742Y-69457000D01*
X178799426Y-69461313D01*
G37*
G36*
X171179426Y-69461313D02*
G01*
X171331812Y-69491624D01*
X171495784Y-69559544D01*
X171643354Y-69658147D01*
X171768853Y-69783646D01*
X171867456Y-69931216D01*
X171935376Y-70095188D01*
X171970000Y-70269259D01*
X171970000Y-70446741D01*
X171935376Y-70620812D01*
X171867456Y-70784784D01*
X171768853Y-70932354D01*
X171643354Y-71057853D01*
X171495784Y-71156456D01*
X171331812Y-71224376D01*
X171179426Y-71254687D01*
X171157742Y-71259000D01*
X170980258Y-71259000D01*
X170958574Y-71254687D01*
X170806188Y-71224376D01*
X170642216Y-71156456D01*
X170494646Y-71057853D01*
X170369147Y-70932354D01*
X170270544Y-70784784D01*
X170202624Y-70620812D01*
X170168000Y-70446741D01*
X170168000Y-70269259D01*
X170202624Y-70095188D01*
X170270544Y-69931216D01*
X170369147Y-69783646D01*
X170494646Y-69658147D01*
X170642216Y-69559544D01*
X170806188Y-69491624D01*
X170958574Y-69461313D01*
X170980258Y-69457000D01*
X171157742Y-69457000D01*
X171179426Y-69461313D01*
G37*
G36*
X173719426Y-69461313D02*
G01*
X173871812Y-69491624D01*
X174035784Y-69559544D01*
X174183354Y-69658147D01*
X174308853Y-69783646D01*
X174407456Y-69931216D01*
X174475376Y-70095188D01*
X174510000Y-70269259D01*
X174510000Y-70446741D01*
X174475376Y-70620812D01*
X174407456Y-70784784D01*
X174308853Y-70932354D01*
X174183354Y-71057853D01*
X174035784Y-71156456D01*
X173871812Y-71224376D01*
X173719426Y-71254687D01*
X173697742Y-71259000D01*
X173520258Y-71259000D01*
X173498574Y-71254687D01*
X173346188Y-71224376D01*
X173182216Y-71156456D01*
X173034646Y-71057853D01*
X172909147Y-70932354D01*
X172810544Y-70784784D01*
X172742624Y-70620812D01*
X172708000Y-70446741D01*
X172708000Y-70269259D01*
X172742624Y-70095188D01*
X172810544Y-69931216D01*
X172909147Y-69783646D01*
X173034646Y-69658147D01*
X173182216Y-69559544D01*
X173346188Y-69491624D01*
X173498574Y-69461313D01*
X173520258Y-69457000D01*
X173697742Y-69457000D01*
X173719426Y-69461313D01*
G37*
G36*
X176259426Y-69461313D02*
G01*
X176411812Y-69491624D01*
X176575784Y-69559544D01*
X176723354Y-69658147D01*
X176848853Y-69783646D01*
X176947456Y-69931216D01*
X177015376Y-70095188D01*
X177050000Y-70269259D01*
X177050000Y-70446741D01*
X177015376Y-70620812D01*
X176947456Y-70784784D01*
X176848853Y-70932354D01*
X176723354Y-71057853D01*
X176575784Y-71156456D01*
X176411812Y-71224376D01*
X176259426Y-71254687D01*
X176237742Y-71259000D01*
X176060258Y-71259000D01*
X176038574Y-71254687D01*
X175886188Y-71224376D01*
X175722216Y-71156456D01*
X175574646Y-71057853D01*
X175449147Y-70932354D01*
X175350544Y-70784784D01*
X175282624Y-70620812D01*
X175248000Y-70446741D01*
X175248000Y-70269259D01*
X175282624Y-70095188D01*
X175350544Y-69931216D01*
X175449147Y-69783646D01*
X175574646Y-69658147D01*
X175722216Y-69559544D01*
X175886188Y-69491624D01*
X176038574Y-69461313D01*
X176060258Y-69457000D01*
X176237742Y-69457000D01*
X176259426Y-69461313D01*
G37*
G36*
X182130000Y-71259000D02*
G01*
X180328000Y-71259000D01*
X180328000Y-69457000D01*
X182130000Y-69457000D01*
X182130000Y-71259000D01*
G37*
G36*
X147557426Y-68064313D02*
G01*
X147709812Y-68094624D01*
X147873784Y-68162544D01*
X148021354Y-68261147D01*
X148146853Y-68386646D01*
X148245456Y-68534216D01*
X148313376Y-68698188D01*
X148348000Y-68872259D01*
X148348000Y-69049741D01*
X148313376Y-69223812D01*
X148245456Y-69387784D01*
X148146853Y-69535354D01*
X148021354Y-69660853D01*
X147873784Y-69759456D01*
X147709812Y-69827376D01*
X147557426Y-69857687D01*
X147535742Y-69862000D01*
X147358258Y-69862000D01*
X147336574Y-69857687D01*
X147184188Y-69827376D01*
X147020216Y-69759456D01*
X146872646Y-69660853D01*
X146747147Y-69535354D01*
X146648544Y-69387784D01*
X146580624Y-69223812D01*
X146546000Y-69049741D01*
X146546000Y-68872259D01*
X146580624Y-68698188D01*
X146648544Y-68534216D01*
X146747147Y-68386646D01*
X146872646Y-68261147D01*
X147020216Y-68162544D01*
X147184188Y-68094624D01*
X147336574Y-68064313D01*
X147358258Y-68060000D01*
X147535742Y-68060000D01*
X147557426Y-68064313D01*
G37*
G36*
X157321477Y-67384950D02*
G01*
X157362559Y-67397412D01*
X157400424Y-67417652D01*
X157433612Y-67444888D01*
X157460848Y-67478076D01*
X157481088Y-67515941D01*
X157493550Y-67557023D01*
X157498000Y-67602204D01*
X157498000Y-68135796D01*
X157493550Y-68180977D01*
X157481088Y-68222059D01*
X157460848Y-68259924D01*
X157433612Y-68293112D01*
X157400424Y-68320348D01*
X157362559Y-68340588D01*
X157321477Y-68353050D01*
X157276296Y-68357500D01*
X156667704Y-68357500D01*
X156622523Y-68353050D01*
X156581441Y-68340588D01*
X156543576Y-68320348D01*
X156510388Y-68293112D01*
X156483152Y-68259924D01*
X156462912Y-68222059D01*
X156450450Y-68180977D01*
X156446000Y-68135796D01*
X156446000Y-67602204D01*
X156450450Y-67557023D01*
X156462912Y-67515941D01*
X156483152Y-67478076D01*
X156510388Y-67444888D01*
X156543576Y-67417652D01*
X156581441Y-67397412D01*
X156622523Y-67384950D01*
X156667704Y-67380500D01*
X157276296Y-67380500D01*
X157321477Y-67384950D01*
G37*
G36*
X159861477Y-67384950D02*
G01*
X159902559Y-67397412D01*
X159940424Y-67417652D01*
X159973612Y-67444888D01*
X160000848Y-67478076D01*
X160021088Y-67515941D01*
X160033550Y-67557023D01*
X160038000Y-67602204D01*
X160038000Y-68135796D01*
X160033550Y-68180977D01*
X160021088Y-68222059D01*
X160000848Y-68259924D01*
X159973612Y-68293112D01*
X159940424Y-68320348D01*
X159902559Y-68340588D01*
X159861477Y-68353050D01*
X159816296Y-68357500D01*
X159207704Y-68357500D01*
X159162523Y-68353050D01*
X159121441Y-68340588D01*
X159083576Y-68320348D01*
X159050388Y-68293112D01*
X159023152Y-68259924D01*
X159002912Y-68222059D01*
X158990450Y-68180977D01*
X158986000Y-68135796D01*
X158986000Y-67602204D01*
X158990450Y-67557023D01*
X159002912Y-67515941D01*
X159023152Y-67478076D01*
X159050388Y-67444888D01*
X159083576Y-67417652D01*
X159121441Y-67397412D01*
X159162523Y-67384950D01*
X159207704Y-67380500D01*
X159816296Y-67380500D01*
X159861477Y-67384950D01*
G37*
G36*
X154781477Y-67359450D02*
G01*
X154822559Y-67371912D01*
X154860424Y-67392152D01*
X154893612Y-67419388D01*
X154920848Y-67452576D01*
X154941088Y-67490441D01*
X154953550Y-67531523D01*
X154958000Y-67576704D01*
X154958000Y-68110296D01*
X154953550Y-68155477D01*
X154941088Y-68196559D01*
X154920848Y-68234424D01*
X154893612Y-68267612D01*
X154860424Y-68294848D01*
X154822559Y-68315088D01*
X154781477Y-68327550D01*
X154736296Y-68332000D01*
X154127704Y-68332000D01*
X154082523Y-68327550D01*
X154041441Y-68315088D01*
X154003576Y-68294848D01*
X153970388Y-68267612D01*
X153943152Y-68234424D01*
X153922912Y-68196559D01*
X153910450Y-68155477D01*
X153906000Y-68110296D01*
X153906000Y-67576704D01*
X153910450Y-67531523D01*
X153922912Y-67490441D01*
X153943152Y-67452576D01*
X153970388Y-67419388D01*
X154003576Y-67392152D01*
X154041441Y-67371912D01*
X154082523Y-67359450D01*
X154127704Y-67355000D01*
X154736296Y-67355000D01*
X154781477Y-67359450D01*
G37*
G36*
X147557426Y-65524313D02*
G01*
X147709812Y-65554624D01*
X147873784Y-65622544D01*
X148021354Y-65721147D01*
X148146853Y-65846646D01*
X148245456Y-65994216D01*
X148313376Y-66158188D01*
X148343687Y-66310574D01*
X148348000Y-66332258D01*
X148348000Y-66509742D01*
X148344890Y-66525375D01*
X148313376Y-66683812D01*
X148245456Y-66847784D01*
X148146853Y-66995354D01*
X148021354Y-67120853D01*
X147873784Y-67219456D01*
X147709812Y-67287376D01*
X147557426Y-67317687D01*
X147535742Y-67322000D01*
X147358258Y-67322000D01*
X147336574Y-67317687D01*
X147184188Y-67287376D01*
X147020216Y-67219456D01*
X146872646Y-67120853D01*
X146747147Y-66995354D01*
X146648544Y-66847784D01*
X146580624Y-66683812D01*
X146549110Y-66525375D01*
X146546000Y-66509742D01*
X146546000Y-66332258D01*
X146550313Y-66310574D01*
X146580624Y-66158188D01*
X146648544Y-65994216D01*
X146747147Y-65846646D01*
X146872646Y-65721147D01*
X147020216Y-65622544D01*
X147184188Y-65554624D01*
X147336574Y-65524313D01*
X147358258Y-65520000D01*
X147535742Y-65520000D01*
X147557426Y-65524313D01*
G37*
G36*
X157321477Y-65809950D02*
G01*
X157362559Y-65822412D01*
X157400424Y-65842652D01*
X157433612Y-65869888D01*
X157460848Y-65903076D01*
X157481088Y-65940941D01*
X157493550Y-65982023D01*
X157498000Y-66027204D01*
X157498000Y-66560796D01*
X157493550Y-66605977D01*
X157481088Y-66647059D01*
X157460848Y-66684924D01*
X157433612Y-66718112D01*
X157400424Y-66745348D01*
X157362559Y-66765588D01*
X157321477Y-66778050D01*
X157276296Y-66782500D01*
X156667704Y-66782500D01*
X156622523Y-66778050D01*
X156581441Y-66765588D01*
X156543576Y-66745348D01*
X156510388Y-66718112D01*
X156483152Y-66684924D01*
X156462912Y-66647059D01*
X156450450Y-66605977D01*
X156446000Y-66560796D01*
X156446000Y-66027204D01*
X156450450Y-65982023D01*
X156462912Y-65940941D01*
X156483152Y-65903076D01*
X156510388Y-65869888D01*
X156543576Y-65842652D01*
X156581441Y-65822412D01*
X156622523Y-65809950D01*
X156667704Y-65805500D01*
X157276296Y-65805500D01*
X157321477Y-65809950D01*
G37*
G36*
X159861477Y-65809950D02*
G01*
X159902559Y-65822412D01*
X159940424Y-65842652D01*
X159973612Y-65869888D01*
X160000848Y-65903076D01*
X160021088Y-65940941D01*
X160033550Y-65982023D01*
X160038000Y-66027204D01*
X160038000Y-66560796D01*
X160033550Y-66605977D01*
X160021088Y-66647059D01*
X160000848Y-66684924D01*
X159973612Y-66718112D01*
X159940424Y-66745348D01*
X159902559Y-66765588D01*
X159861477Y-66778050D01*
X159816296Y-66782500D01*
X159207704Y-66782500D01*
X159162523Y-66778050D01*
X159121441Y-66765588D01*
X159083576Y-66745348D01*
X159050388Y-66718112D01*
X159023152Y-66684924D01*
X159002912Y-66647059D01*
X158990450Y-66605977D01*
X158986000Y-66560796D01*
X158986000Y-66027204D01*
X158990450Y-65982023D01*
X159002912Y-65940941D01*
X159023152Y-65903076D01*
X159050388Y-65869888D01*
X159083576Y-65842652D01*
X159121441Y-65822412D01*
X159162523Y-65809950D01*
X159207704Y-65805500D01*
X159816296Y-65805500D01*
X159861477Y-65809950D01*
G37*
G36*
X154781477Y-65784450D02*
G01*
X154822559Y-65796912D01*
X154860424Y-65817152D01*
X154893612Y-65844388D01*
X154920848Y-65877576D01*
X154941088Y-65915441D01*
X154953550Y-65956523D01*
X154958000Y-66001704D01*
X154958000Y-66535296D01*
X154953550Y-66580477D01*
X154941088Y-66621559D01*
X154920848Y-66659424D01*
X154893612Y-66692612D01*
X154860424Y-66719848D01*
X154822559Y-66740088D01*
X154781477Y-66752550D01*
X154736296Y-66757000D01*
X154127704Y-66757000D01*
X154082523Y-66752550D01*
X154041441Y-66740088D01*
X154003576Y-66719848D01*
X153970388Y-66692612D01*
X153943152Y-66659424D01*
X153922912Y-66621559D01*
X153910450Y-66580477D01*
X153906000Y-66535296D01*
X153906000Y-66001704D01*
X153910450Y-65956523D01*
X153922912Y-65915441D01*
X153943152Y-65877576D01*
X153970388Y-65844388D01*
X154003576Y-65817152D01*
X154041441Y-65796912D01*
X154082523Y-65784450D01*
X154127704Y-65780000D01*
X154736296Y-65780000D01*
X154781477Y-65784450D01*
G37*
G36*
X163588000Y-66560000D02*
G01*
X161786000Y-66560000D01*
X161786000Y-64758000D01*
X163588000Y-64758000D01*
X163588000Y-66560000D01*
G37*
G36*
X167877426Y-64762313D02*
G01*
X168029812Y-64792624D01*
X168193784Y-64860544D01*
X168341354Y-64959147D01*
X168466853Y-65084646D01*
X168565456Y-65232216D01*
X168633376Y-65396188D01*
X168668000Y-65570259D01*
X168668000Y-65747741D01*
X168633376Y-65921812D01*
X168565456Y-66085784D01*
X168466853Y-66233354D01*
X168341354Y-66358853D01*
X168193784Y-66457456D01*
X168029812Y-66525376D01*
X167877426Y-66555687D01*
X167855742Y-66560000D01*
X167678258Y-66560000D01*
X167656574Y-66555687D01*
X167504188Y-66525376D01*
X167340216Y-66457456D01*
X167192646Y-66358853D01*
X167067147Y-66233354D01*
X166968544Y-66085784D01*
X166900624Y-65921812D01*
X166866000Y-65747741D01*
X166866000Y-65570259D01*
X166900624Y-65396188D01*
X166968544Y-65232216D01*
X167067147Y-65084646D01*
X167192646Y-64959147D01*
X167340216Y-64860544D01*
X167504188Y-64792624D01*
X167656574Y-64762313D01*
X167678258Y-64758000D01*
X167855742Y-64758000D01*
X167877426Y-64762313D01*
G37*
G36*
X165337426Y-64762313D02*
G01*
X165489812Y-64792624D01*
X165653784Y-64860544D01*
X165801354Y-64959147D01*
X165926853Y-65084646D01*
X166025456Y-65232216D01*
X166093376Y-65396188D01*
X166128000Y-65570259D01*
X166128000Y-65747741D01*
X166093376Y-65921812D01*
X166025456Y-66085784D01*
X165926853Y-66233354D01*
X165801354Y-66358853D01*
X165653784Y-66457456D01*
X165489812Y-66525376D01*
X165337426Y-66555687D01*
X165315742Y-66560000D01*
X165138258Y-66560000D01*
X165116574Y-66555687D01*
X164964188Y-66525376D01*
X164800216Y-66457456D01*
X164652646Y-66358853D01*
X164527147Y-66233354D01*
X164428544Y-66085784D01*
X164360624Y-65921812D01*
X164326000Y-65747741D01*
X164326000Y-65570259D01*
X164360624Y-65396188D01*
X164428544Y-65232216D01*
X164527147Y-65084646D01*
X164652646Y-64959147D01*
X164800216Y-64860544D01*
X164964188Y-64792624D01*
X165116574Y-64762313D01*
X165138258Y-64758000D01*
X165315742Y-64758000D01*
X165337426Y-64762313D01*
G37*
G36*
X170417426Y-64762313D02*
G01*
X170569812Y-64792624D01*
X170733784Y-64860544D01*
X170881354Y-64959147D01*
X171006853Y-65084646D01*
X171105456Y-65232216D01*
X171173376Y-65396188D01*
X171208000Y-65570259D01*
X171208000Y-65747741D01*
X171173376Y-65921812D01*
X171105456Y-66085784D01*
X171006853Y-66233354D01*
X170881354Y-66358853D01*
X170733784Y-66457456D01*
X170569812Y-66525376D01*
X170417426Y-66555687D01*
X170395742Y-66560000D01*
X170218258Y-66560000D01*
X170196574Y-66555687D01*
X170044188Y-66525376D01*
X169880216Y-66457456D01*
X169732646Y-66358853D01*
X169607147Y-66233354D01*
X169508544Y-66085784D01*
X169440624Y-65921812D01*
X169406000Y-65747741D01*
X169406000Y-65570259D01*
X169440624Y-65396188D01*
X169508544Y-65232216D01*
X169607147Y-65084646D01*
X169732646Y-64959147D01*
X169880216Y-64860544D01*
X170044188Y-64792624D01*
X170196574Y-64762313D01*
X170218258Y-64758000D01*
X170395742Y-64758000D01*
X170417426Y-64762313D01*
G37*
G36*
X184167000Y-66451000D02*
G01*
X177665000Y-66451000D01*
X177665000Y-60549000D01*
X184167000Y-60549000D01*
X184167000Y-66451000D01*
G37*
G36*
X175767000Y-66431000D02*
G01*
X173465000Y-66431000D01*
X173465000Y-65129000D01*
X175767000Y-65129000D01*
X175767000Y-66431000D01*
G37*
G36*
X158401477Y-64121450D02*
G01*
X158442559Y-64133912D01*
X158480424Y-64154152D01*
X158513612Y-64181388D01*
X158540848Y-64214576D01*
X158561088Y-64252441D01*
X158573550Y-64293523D01*
X158578000Y-64338704D01*
X158578000Y-64947296D01*
X158573550Y-64992477D01*
X158561088Y-65033559D01*
X158540848Y-65071424D01*
X158513612Y-65104612D01*
X158480424Y-65131848D01*
X158442559Y-65152088D01*
X158401477Y-65164550D01*
X158356296Y-65169000D01*
X157822704Y-65169000D01*
X157777523Y-65164550D01*
X157736441Y-65152088D01*
X157698576Y-65131848D01*
X157665388Y-65104612D01*
X157638152Y-65071424D01*
X157617912Y-65033559D01*
X157605450Y-64992477D01*
X157601000Y-64947296D01*
X157601000Y-64338704D01*
X157605450Y-64293523D01*
X157617912Y-64252441D01*
X157638152Y-64214576D01*
X157665388Y-64181388D01*
X157698576Y-64154152D01*
X157736441Y-64133912D01*
X157777523Y-64121450D01*
X157822704Y-64117000D01*
X158356296Y-64117000D01*
X158401477Y-64121450D01*
G37*
G36*
X159976477Y-64121450D02*
G01*
X160017559Y-64133912D01*
X160055424Y-64154152D01*
X160088612Y-64181388D01*
X160115848Y-64214576D01*
X160136088Y-64252441D01*
X160148550Y-64293523D01*
X160153000Y-64338704D01*
X160153000Y-64947296D01*
X160148550Y-64992477D01*
X160136088Y-65033559D01*
X160115848Y-65071424D01*
X160088612Y-65104612D01*
X160055424Y-65131848D01*
X160017559Y-65152088D01*
X159976477Y-65164550D01*
X159931296Y-65169000D01*
X159397704Y-65169000D01*
X159352523Y-65164550D01*
X159311441Y-65152088D01*
X159273576Y-65131848D01*
X159240388Y-65104612D01*
X159213152Y-65071424D01*
X159192912Y-65033559D01*
X159180450Y-64992477D01*
X159176000Y-64947296D01*
X159176000Y-64338704D01*
X159180450Y-64293523D01*
X159192912Y-64252441D01*
X159213152Y-64214576D01*
X159240388Y-64181388D01*
X159273576Y-64154152D01*
X159311441Y-64133912D01*
X159352523Y-64121450D01*
X159397704Y-64117000D01*
X159931296Y-64117000D01*
X159976477Y-64121450D01*
G37*
G36*
X164799383Y-61658810D02*
G01*
X164843987Y-61672341D01*
X164885090Y-61694310D01*
X164921120Y-61723880D01*
X164950690Y-61759910D01*
X164972659Y-61801013D01*
X164986190Y-61845617D01*
X164991000Y-61894454D01*
X164991000Y-62565546D01*
X164986190Y-62614383D01*
X164972659Y-62658987D01*
X164950690Y-62700090D01*
X164921120Y-62736120D01*
X164885090Y-62765690D01*
X164843987Y-62787659D01*
X164799383Y-62801190D01*
X164750546Y-62806000D01*
X164179454Y-62806000D01*
X164130617Y-62801190D01*
X164086013Y-62787659D01*
X164044910Y-62765690D01*
X164008880Y-62736120D01*
X163979310Y-62700090D01*
X163957341Y-62658987D01*
X163943810Y-62614383D01*
X163939000Y-62565546D01*
X163939000Y-61894454D01*
X163943810Y-61845617D01*
X163957341Y-61801013D01*
X163979310Y-61759910D01*
X164008880Y-61723880D01*
X164044910Y-61694310D01*
X164086013Y-61672341D01*
X164130617Y-61658810D01*
X164179454Y-61654000D01*
X164750546Y-61654000D01*
X164799383Y-61658810D01*
G37*
G36*
X170417426Y-60444313D02*
G01*
X170569812Y-60474624D01*
X170733784Y-60542544D01*
X170881354Y-60641147D01*
X171006853Y-60766646D01*
X171105456Y-60914216D01*
X171173376Y-61078188D01*
X171208000Y-61252259D01*
X171208000Y-61429741D01*
X171173376Y-61603812D01*
X171105456Y-61767784D01*
X171006853Y-61915354D01*
X170881354Y-62040853D01*
X170733784Y-62139456D01*
X170569812Y-62207376D01*
X170417426Y-62237687D01*
X170395742Y-62242000D01*
X170218258Y-62242000D01*
X170196574Y-62237687D01*
X170044188Y-62207376D01*
X169880216Y-62139456D01*
X169732646Y-62040853D01*
X169607147Y-61915354D01*
X169508544Y-61767784D01*
X169440624Y-61603812D01*
X169406000Y-61429741D01*
X169406000Y-61252259D01*
X169440624Y-61078188D01*
X169508544Y-60914216D01*
X169607147Y-60766646D01*
X169732646Y-60641147D01*
X169880216Y-60542544D01*
X170044188Y-60474624D01*
X170196574Y-60444313D01*
X170218258Y-60440000D01*
X170395742Y-60440000D01*
X170417426Y-60444313D01*
G37*
G36*
X158479426Y-60444313D02*
G01*
X158631812Y-60474624D01*
X158795784Y-60542544D01*
X158943354Y-60641147D01*
X159068853Y-60766646D01*
X159167456Y-60914216D01*
X159235376Y-61078188D01*
X159270000Y-61252259D01*
X159270000Y-61429741D01*
X159235376Y-61603812D01*
X159167456Y-61767784D01*
X159068853Y-61915354D01*
X158943354Y-62040853D01*
X158795784Y-62139456D01*
X158631812Y-62207376D01*
X158479426Y-62237687D01*
X158457742Y-62242000D01*
X158280258Y-62242000D01*
X158258574Y-62237687D01*
X158106188Y-62207376D01*
X157942216Y-62139456D01*
X157794646Y-62040853D01*
X157669147Y-61915354D01*
X157570544Y-61767784D01*
X157502624Y-61603812D01*
X157468000Y-61429741D01*
X157468000Y-61252259D01*
X157502624Y-61078188D01*
X157570544Y-60914216D01*
X157669147Y-60766646D01*
X157794646Y-60641147D01*
X157942216Y-60542544D01*
X158106188Y-60474624D01*
X158258574Y-60444313D01*
X158280258Y-60440000D01*
X158457742Y-60440000D01*
X158479426Y-60444313D01*
G37*
G36*
X155939426Y-60444313D02*
G01*
X156091812Y-60474624D01*
X156255784Y-60542544D01*
X156403354Y-60641147D01*
X156528853Y-60766646D01*
X156627456Y-60914216D01*
X156695376Y-61078188D01*
X156730000Y-61252259D01*
X156730000Y-61429741D01*
X156695376Y-61603812D01*
X156627456Y-61767784D01*
X156528853Y-61915354D01*
X156403354Y-62040853D01*
X156255784Y-62139456D01*
X156091812Y-62207376D01*
X155939426Y-62237687D01*
X155917742Y-62242000D01*
X155740258Y-62242000D01*
X155718574Y-62237687D01*
X155566188Y-62207376D01*
X155402216Y-62139456D01*
X155254646Y-62040853D01*
X155129147Y-61915354D01*
X155030544Y-61767784D01*
X154962624Y-61603812D01*
X154928000Y-61429741D01*
X154928000Y-61252259D01*
X154962624Y-61078188D01*
X155030544Y-60914216D01*
X155129147Y-60766646D01*
X155254646Y-60641147D01*
X155402216Y-60542544D01*
X155566188Y-60474624D01*
X155718574Y-60444313D01*
X155740258Y-60440000D01*
X155917742Y-60440000D01*
X155939426Y-60444313D01*
G37*
G36*
X153399426Y-60444313D02*
G01*
X153551812Y-60474624D01*
X153715784Y-60542544D01*
X153863354Y-60641147D01*
X153988853Y-60766646D01*
X154087456Y-60914216D01*
X154155376Y-61078188D01*
X154190000Y-61252259D01*
X154190000Y-61429741D01*
X154155376Y-61603812D01*
X154087456Y-61767784D01*
X153988853Y-61915354D01*
X153863354Y-62040853D01*
X153715784Y-62139456D01*
X153551812Y-62207376D01*
X153399426Y-62237687D01*
X153377742Y-62242000D01*
X153200258Y-62242000D01*
X153178574Y-62237687D01*
X153026188Y-62207376D01*
X152862216Y-62139456D01*
X152714646Y-62040853D01*
X152589147Y-61915354D01*
X152490544Y-61767784D01*
X152422624Y-61603812D01*
X152388000Y-61429741D01*
X152388000Y-61252259D01*
X152422624Y-61078188D01*
X152490544Y-60914216D01*
X152589147Y-60766646D01*
X152714646Y-60641147D01*
X152862216Y-60542544D01*
X153026188Y-60474624D01*
X153178574Y-60444313D01*
X153200258Y-60440000D01*
X153377742Y-60440000D01*
X153399426Y-60444313D01*
G37*
G36*
X150859426Y-60444313D02*
G01*
X151011812Y-60474624D01*
X151175784Y-60542544D01*
X151323354Y-60641147D01*
X151448853Y-60766646D01*
X151547456Y-60914216D01*
X151615376Y-61078188D01*
X151650000Y-61252259D01*
X151650000Y-61429741D01*
X151615376Y-61603812D01*
X151547456Y-61767784D01*
X151448853Y-61915354D01*
X151323354Y-62040853D01*
X151175784Y-62139456D01*
X151011812Y-62207376D01*
X150859426Y-62237687D01*
X150837742Y-62242000D01*
X150660258Y-62242000D01*
X150638574Y-62237687D01*
X150486188Y-62207376D01*
X150322216Y-62139456D01*
X150174646Y-62040853D01*
X150049147Y-61915354D01*
X149950544Y-61767784D01*
X149882624Y-61603812D01*
X149848000Y-61429741D01*
X149848000Y-61252259D01*
X149882624Y-61078188D01*
X149950544Y-60914216D01*
X150049147Y-60766646D01*
X150174646Y-60641147D01*
X150322216Y-60542544D01*
X150486188Y-60474624D01*
X150638574Y-60444313D01*
X150660258Y-60440000D01*
X150837742Y-60440000D01*
X150859426Y-60444313D01*
G37*
G36*
X148319426Y-60444313D02*
G01*
X148471812Y-60474624D01*
X148635784Y-60542544D01*
X148783354Y-60641147D01*
X148908853Y-60766646D01*
X149007456Y-60914216D01*
X149075376Y-61078188D01*
X149110000Y-61252259D01*
X149110000Y-61429741D01*
X149075376Y-61603812D01*
X149007456Y-61767784D01*
X148908853Y-61915354D01*
X148783354Y-62040853D01*
X148635784Y-62139456D01*
X148471812Y-62207376D01*
X148319426Y-62237687D01*
X148297742Y-62242000D01*
X148120258Y-62242000D01*
X148098574Y-62237687D01*
X147946188Y-62207376D01*
X147782216Y-62139456D01*
X147634646Y-62040853D01*
X147509147Y-61915354D01*
X147410544Y-61767784D01*
X147342624Y-61603812D01*
X147308000Y-61429741D01*
X147308000Y-61252259D01*
X147342624Y-61078188D01*
X147410544Y-60914216D01*
X147509147Y-60766646D01*
X147634646Y-60641147D01*
X147782216Y-60542544D01*
X147946188Y-60474624D01*
X148098574Y-60444313D01*
X148120258Y-60440000D01*
X148297742Y-60440000D01*
X148319426Y-60444313D01*
G37*
G36*
X145779426Y-60444313D02*
G01*
X145931812Y-60474624D01*
X146095784Y-60542544D01*
X146243354Y-60641147D01*
X146368853Y-60766646D01*
X146467456Y-60914216D01*
X146535376Y-61078188D01*
X146570000Y-61252259D01*
X146570000Y-61429741D01*
X146535376Y-61603812D01*
X146467456Y-61767784D01*
X146368853Y-61915354D01*
X146243354Y-62040853D01*
X146095784Y-62139456D01*
X145931812Y-62207376D01*
X145779426Y-62237687D01*
X145757742Y-62242000D01*
X145580258Y-62242000D01*
X145558574Y-62237687D01*
X145406188Y-62207376D01*
X145242216Y-62139456D01*
X145094646Y-62040853D01*
X144969147Y-61915354D01*
X144870544Y-61767784D01*
X144802624Y-61603812D01*
X144768000Y-61429741D01*
X144768000Y-61252259D01*
X144802624Y-61078188D01*
X144870544Y-60914216D01*
X144969147Y-60766646D01*
X145094646Y-60641147D01*
X145242216Y-60542544D01*
X145406188Y-60474624D01*
X145558574Y-60444313D01*
X145580258Y-60440000D01*
X145757742Y-60440000D01*
X145779426Y-60444313D01*
G37*
G36*
X168668000Y-62242000D02*
G01*
X166866000Y-62242000D01*
X166866000Y-60440000D01*
X168668000Y-60440000D01*
X168668000Y-62242000D01*
G37*
G36*
X161810000Y-62242000D02*
G01*
X160008000Y-62242000D01*
X160008000Y-60440000D01*
X161810000Y-60440000D01*
X161810000Y-62242000D01*
G37*
G36*
X175767000Y-61871000D02*
G01*
X173465000Y-61871000D01*
X173465000Y-60569000D01*
X175767000Y-60569000D01*
X175767000Y-61871000D01*
G37*
G36*
X164799383Y-59908810D02*
G01*
X164843987Y-59922341D01*
X164885090Y-59944310D01*
X164921120Y-59973880D01*
X164950690Y-60009910D01*
X164972659Y-60051013D01*
X164986190Y-60095617D01*
X164991000Y-60144454D01*
X164991000Y-60815546D01*
X164986190Y-60864383D01*
X164972659Y-60908987D01*
X164950690Y-60950090D01*
X164921120Y-60986120D01*
X164885090Y-61015690D01*
X164843987Y-61037659D01*
X164799383Y-61051190D01*
X164750546Y-61056000D01*
X164179454Y-61056000D01*
X164130617Y-61051190D01*
X164086013Y-61037659D01*
X164044910Y-61015690D01*
X164008880Y-60986120D01*
X163979310Y-60950090D01*
X163957341Y-60908987D01*
X163943810Y-60864383D01*
X163939000Y-60815546D01*
X163939000Y-60144454D01*
X163943810Y-60095617D01*
X163957341Y-60051013D01*
X163979310Y-60009910D01*
X164008880Y-59973880D01*
X164044910Y-59944310D01*
X164086013Y-59922341D01*
X164130617Y-59908810D01*
X164179454Y-59904000D01*
X164750546Y-59904000D01*
X164799383Y-59908810D01*
G37*
M02*
