G04 #@! TF.GenerationSoftware,KiCad,Pcbnew,5.1.5*
G04 #@! TF.CreationDate,2020-05-24T16:04:19+02:00*
G04 #@! TF.ProjectId,ATSAML22GA18A_DevBoard,41545341-4d4c-4323-9247-413138415f44,rev?*
G04 #@! TF.SameCoordinates,Original*
G04 #@! TF.FileFunction,Legend,Top*
G04 #@! TF.FilePolarity,Positive*
%FSLAX46Y46*%
G04 Gerber Fmt 4.6, Leading zero omitted, Abs format (unit mm)*
G04 Created by KiCad (PCBNEW 5.1.5) date 2020-05-24 16:04:19*
%MOMM*%
%LPD*%
G04 APERTURE LIST*
%ADD10C,0.120000*%
%ADD11C,0.150000*%
G04 APERTURE END LIST*
D10*
X155958000Y-83789733D02*
X155958000Y-84132267D01*
X154938000Y-83789733D02*
X154938000Y-84132267D01*
X159034267Y-89787000D02*
X158691733Y-89787000D01*
X159034267Y-90807000D02*
X158691733Y-90807000D01*
X159034267Y-88902000D02*
X158691733Y-88902000D01*
X159034267Y-87882000D02*
X158691733Y-87882000D01*
X163447000Y-91536733D02*
X163447000Y-91879267D01*
X164467000Y-91536733D02*
X164467000Y-91879267D01*
X166499000Y-91508733D02*
X166499000Y-91851267D01*
X165479000Y-91508733D02*
X165479000Y-91851267D01*
X163955000Y-61183733D02*
X163955000Y-61526267D01*
X164975000Y-61183733D02*
X164975000Y-61526267D01*
X162477267Y-94998000D02*
X162134733Y-94998000D01*
X162477267Y-93978000D02*
X162134733Y-93978000D01*
X151890000Y-84084279D02*
X151890000Y-83758721D01*
X152910000Y-84084279D02*
X152910000Y-83758721D01*
X159768000Y-81726721D02*
X159768000Y-82052279D01*
X158748000Y-81726721D02*
X158748000Y-82052279D01*
X159039779Y-64133000D02*
X158714221Y-64133000D01*
X159039779Y-65153000D02*
X158714221Y-65153000D01*
X159002000Y-67244279D02*
X159002000Y-66918721D01*
X160022000Y-67244279D02*
X160022000Y-66918721D01*
X157482000Y-67244279D02*
X157482000Y-66918721D01*
X156462000Y-67244279D02*
X156462000Y-66918721D01*
X153922000Y-67218779D02*
X153922000Y-66893221D01*
X154942000Y-67218779D02*
X154942000Y-66893221D01*
X163903000Y-82336000D02*
X163903000Y-81861000D01*
X163903000Y-81861000D02*
X164378000Y-81861000D01*
X171123000Y-88606000D02*
X171123000Y-89081000D01*
X171123000Y-89081000D02*
X170648000Y-89081000D01*
X171123000Y-82336000D02*
X171123000Y-81861000D01*
X171123000Y-81861000D02*
X170648000Y-81861000D01*
X163903000Y-88606000D02*
X163903000Y-89081000D01*
X153512000Y-80620000D02*
X155272000Y-80620000D01*
X155272000Y-77550000D02*
X152842000Y-77550000D01*
X177846000Y-60050000D02*
X176346000Y-60050000D01*
X176346000Y-60050000D02*
X176346000Y-60320000D01*
X176346000Y-60320000D02*
X173516000Y-60320000D01*
X177846000Y-66950000D02*
X176346000Y-66950000D01*
X176346000Y-66950000D02*
X176346000Y-66680000D01*
X176346000Y-66680000D02*
X175246000Y-66680000D01*
X160998000Y-88146000D02*
X160998000Y-90546000D01*
X160998000Y-90546000D02*
X162598000Y-90546000D01*
X162598000Y-90546000D02*
X162598000Y-88146000D01*
D11*
X157235142Y-84127666D02*
X157282761Y-84175285D01*
X157330380Y-84318142D01*
X157330380Y-84413380D01*
X157282761Y-84556238D01*
X157187523Y-84651476D01*
X157092285Y-84699095D01*
X156901809Y-84746714D01*
X156758952Y-84746714D01*
X156568476Y-84699095D01*
X156473238Y-84651476D01*
X156378000Y-84556238D01*
X156330380Y-84413380D01*
X156330380Y-84318142D01*
X156378000Y-84175285D01*
X156425619Y-84127666D01*
X157330380Y-83175285D02*
X157330380Y-83746714D01*
X157330380Y-83461000D02*
X156330380Y-83461000D01*
X156473238Y-83556238D01*
X156568476Y-83651476D01*
X156616095Y-83746714D01*
X158696333Y-92084142D02*
X158648714Y-92131761D01*
X158505857Y-92179380D01*
X158410619Y-92179380D01*
X158267761Y-92131761D01*
X158172523Y-92036523D01*
X158124904Y-91941285D01*
X158077285Y-91750809D01*
X158077285Y-91607952D01*
X158124904Y-91417476D01*
X158172523Y-91322238D01*
X158267761Y-91227000D01*
X158410619Y-91179380D01*
X158505857Y-91179380D01*
X158648714Y-91227000D01*
X158696333Y-91274619D01*
X159077285Y-91274619D02*
X159124904Y-91227000D01*
X159220142Y-91179380D01*
X159458238Y-91179380D01*
X159553476Y-91227000D01*
X159601095Y-91274619D01*
X159648714Y-91369857D01*
X159648714Y-91465095D01*
X159601095Y-91607952D01*
X159029666Y-92179380D01*
X159648714Y-92179380D01*
X158710333Y-87225142D02*
X158662714Y-87272761D01*
X158519857Y-87320380D01*
X158424619Y-87320380D01*
X158281761Y-87272761D01*
X158186523Y-87177523D01*
X158138904Y-87082285D01*
X158091285Y-86891809D01*
X158091285Y-86748952D01*
X158138904Y-86558476D01*
X158186523Y-86463238D01*
X158281761Y-86368000D01*
X158424619Y-86320380D01*
X158519857Y-86320380D01*
X158662714Y-86368000D01*
X158710333Y-86415619D01*
X159043666Y-86320380D02*
X159662714Y-86320380D01*
X159329380Y-86701333D01*
X159472238Y-86701333D01*
X159567476Y-86748952D01*
X159615095Y-86796571D01*
X159662714Y-86891809D01*
X159662714Y-87129904D01*
X159615095Y-87225142D01*
X159567476Y-87272761D01*
X159472238Y-87320380D01*
X159186523Y-87320380D01*
X159091285Y-87272761D01*
X159043666Y-87225142D01*
X162917142Y-91987666D02*
X162964761Y-92035285D01*
X163012380Y-92178142D01*
X163012380Y-92273380D01*
X162964761Y-92416238D01*
X162869523Y-92511476D01*
X162774285Y-92559095D01*
X162583809Y-92606714D01*
X162440952Y-92606714D01*
X162250476Y-92559095D01*
X162155238Y-92511476D01*
X162060000Y-92416238D01*
X162012380Y-92273380D01*
X162012380Y-92178142D01*
X162060000Y-92035285D01*
X162107619Y-91987666D01*
X162345714Y-91130523D02*
X163012380Y-91130523D01*
X161964761Y-91368619D02*
X162679047Y-91606714D01*
X162679047Y-90987666D01*
X167776142Y-91846666D02*
X167823761Y-91894285D01*
X167871380Y-92037142D01*
X167871380Y-92132380D01*
X167823761Y-92275238D01*
X167728523Y-92370476D01*
X167633285Y-92418095D01*
X167442809Y-92465714D01*
X167299952Y-92465714D01*
X167109476Y-92418095D01*
X167014238Y-92370476D01*
X166919000Y-92275238D01*
X166871380Y-92132380D01*
X166871380Y-92037142D01*
X166919000Y-91894285D01*
X166966619Y-91846666D01*
X166871380Y-90941904D02*
X166871380Y-91418095D01*
X167347571Y-91465714D01*
X167299952Y-91418095D01*
X167252333Y-91322857D01*
X167252333Y-91084761D01*
X167299952Y-90989523D01*
X167347571Y-90941904D01*
X167442809Y-90894285D01*
X167680904Y-90894285D01*
X167776142Y-90941904D01*
X167823761Y-90989523D01*
X167871380Y-91084761D01*
X167871380Y-91322857D01*
X167823761Y-91418095D01*
X167776142Y-91465714D01*
X164298333Y-64111142D02*
X164250714Y-64158761D01*
X164107857Y-64206380D01*
X164012619Y-64206380D01*
X163869761Y-64158761D01*
X163774523Y-64063523D01*
X163726904Y-63968285D01*
X163679285Y-63777809D01*
X163679285Y-63634952D01*
X163726904Y-63444476D01*
X163774523Y-63349238D01*
X163869761Y-63254000D01*
X164012619Y-63206380D01*
X164107857Y-63206380D01*
X164250714Y-63254000D01*
X164298333Y-63301619D01*
X165155476Y-63206380D02*
X164965000Y-63206380D01*
X164869761Y-63254000D01*
X164822142Y-63301619D01*
X164726904Y-63444476D01*
X164679285Y-63634952D01*
X164679285Y-64015904D01*
X164726904Y-64111142D01*
X164774523Y-64158761D01*
X164869761Y-64206380D01*
X165060238Y-64206380D01*
X165155476Y-64158761D01*
X165203095Y-64111142D01*
X165250714Y-64015904D01*
X165250714Y-63777809D01*
X165203095Y-63682571D01*
X165155476Y-63634952D01*
X165060238Y-63587333D01*
X164869761Y-63587333D01*
X164774523Y-63634952D01*
X164726904Y-63682571D01*
X164679285Y-63777809D01*
X159472333Y-94845142D02*
X159424714Y-94892761D01*
X159281857Y-94940380D01*
X159186619Y-94940380D01*
X159043761Y-94892761D01*
X158948523Y-94797523D01*
X158900904Y-94702285D01*
X158853285Y-94511809D01*
X158853285Y-94368952D01*
X158900904Y-94178476D01*
X158948523Y-94083238D01*
X159043761Y-93988000D01*
X159186619Y-93940380D01*
X159281857Y-93940380D01*
X159424714Y-93988000D01*
X159472333Y-94035619D01*
X159805666Y-93940380D02*
X160472333Y-93940380D01*
X160043761Y-94940380D01*
X151422380Y-84088166D02*
X151422380Y-84564357D01*
X150422380Y-84564357D01*
X151422380Y-83231023D02*
X151422380Y-83802452D01*
X151422380Y-83516738D02*
X150422380Y-83516738D01*
X150565238Y-83611976D01*
X150660476Y-83707214D01*
X150708095Y-83802452D01*
X161140380Y-82056166D02*
X160664190Y-82389500D01*
X161140380Y-82627595D02*
X160140380Y-82627595D01*
X160140380Y-82246642D01*
X160188000Y-82151404D01*
X160235619Y-82103785D01*
X160330857Y-82056166D01*
X160473714Y-82056166D01*
X160568952Y-82103785D01*
X160616571Y-82151404D01*
X160664190Y-82246642D01*
X160664190Y-82627595D01*
X161140380Y-81103785D02*
X161140380Y-81675214D01*
X161140380Y-81389500D02*
X160140380Y-81389500D01*
X160283238Y-81484738D01*
X160378476Y-81579976D01*
X160426095Y-81675214D01*
X155313142Y-65095380D02*
X154979809Y-64619190D01*
X154741714Y-65095380D02*
X154741714Y-64095380D01*
X155122666Y-64095380D01*
X155217904Y-64143000D01*
X155265523Y-64190619D01*
X155313142Y-64285857D01*
X155313142Y-64428714D01*
X155265523Y-64523952D01*
X155217904Y-64571571D01*
X155122666Y-64619190D01*
X154741714Y-64619190D01*
X156265523Y-65095380D02*
X155694095Y-65095380D01*
X155979809Y-65095380D02*
X155979809Y-64095380D01*
X155884571Y-64238238D01*
X155789333Y-64333476D01*
X155694095Y-64381095D01*
X156884571Y-64095380D02*
X156979809Y-64095380D01*
X157075047Y-64143000D01*
X157122666Y-64190619D01*
X157170285Y-64285857D01*
X157217904Y-64476333D01*
X157217904Y-64714428D01*
X157170285Y-64904904D01*
X157122666Y-65000142D01*
X157075047Y-65047761D01*
X156979809Y-65095380D01*
X156884571Y-65095380D01*
X156789333Y-65047761D01*
X156741714Y-65000142D01*
X156694095Y-64904904D01*
X156646476Y-64714428D01*
X156646476Y-64476333D01*
X156694095Y-64285857D01*
X156741714Y-64190619D01*
X156789333Y-64143000D01*
X156884571Y-64095380D01*
X161028142Y-68524380D02*
X160694809Y-68048190D01*
X160456714Y-68524380D02*
X160456714Y-67524380D01*
X160837666Y-67524380D01*
X160932904Y-67572000D01*
X160980523Y-67619619D01*
X161028142Y-67714857D01*
X161028142Y-67857714D01*
X160980523Y-67952952D01*
X160932904Y-68000571D01*
X160837666Y-68048190D01*
X160456714Y-68048190D01*
X161980523Y-68524380D02*
X161409095Y-68524380D01*
X161694809Y-68524380D02*
X161694809Y-67524380D01*
X161599571Y-67667238D01*
X161504333Y-67762476D01*
X161409095Y-67810095D01*
X162932904Y-68524380D02*
X162361476Y-68524380D01*
X162647190Y-68524380D02*
X162647190Y-67524380D01*
X162551952Y-67667238D01*
X162456714Y-67762476D01*
X162361476Y-67810095D01*
X156154380Y-67698857D02*
X155678190Y-68032190D01*
X156154380Y-68270285D02*
X155154380Y-68270285D01*
X155154380Y-67889333D01*
X155202000Y-67794095D01*
X155249619Y-67746476D01*
X155344857Y-67698857D01*
X155487714Y-67698857D01*
X155582952Y-67746476D01*
X155630571Y-67794095D01*
X155678190Y-67889333D01*
X155678190Y-68270285D01*
X156154380Y-66746476D02*
X156154380Y-67317904D01*
X156154380Y-67032190D02*
X155154380Y-67032190D01*
X155297238Y-67127428D01*
X155392476Y-67222666D01*
X155440095Y-67317904D01*
X155249619Y-66365523D02*
X155202000Y-66317904D01*
X155154380Y-66222666D01*
X155154380Y-65984571D01*
X155202000Y-65889333D01*
X155249619Y-65841714D01*
X155344857Y-65794095D01*
X155440095Y-65794095D01*
X155582952Y-65841714D01*
X156154380Y-66413142D01*
X156154380Y-65794095D01*
X153614380Y-67698857D02*
X153138190Y-68032190D01*
X153614380Y-68270285D02*
X152614380Y-68270285D01*
X152614380Y-67889333D01*
X152662000Y-67794095D01*
X152709619Y-67746476D01*
X152804857Y-67698857D01*
X152947714Y-67698857D01*
X153042952Y-67746476D01*
X153090571Y-67794095D01*
X153138190Y-67889333D01*
X153138190Y-68270285D01*
X153614380Y-66746476D02*
X153614380Y-67317904D01*
X153614380Y-67032190D02*
X152614380Y-67032190D01*
X152757238Y-67127428D01*
X152852476Y-67222666D01*
X152900095Y-67317904D01*
X152614380Y-66413142D02*
X152614380Y-65794095D01*
X152995333Y-66127428D01*
X152995333Y-65984571D01*
X153042952Y-65889333D01*
X153090571Y-65841714D01*
X153185809Y-65794095D01*
X153423904Y-65794095D01*
X153519142Y-65841714D01*
X153566761Y-65889333D01*
X153614380Y-65984571D01*
X153614380Y-66270285D01*
X153566761Y-66365523D01*
X153519142Y-66413142D01*
X166751095Y-79970380D02*
X166751095Y-80779904D01*
X166798714Y-80875142D01*
X166846333Y-80922761D01*
X166941571Y-80970380D01*
X167132047Y-80970380D01*
X167227285Y-80922761D01*
X167274904Y-80875142D01*
X167322523Y-80779904D01*
X167322523Y-79970380D01*
X168322523Y-80970380D02*
X167751095Y-80970380D01*
X168036809Y-80970380D02*
X168036809Y-79970380D01*
X167941571Y-80113238D01*
X167846333Y-80208476D01*
X167751095Y-80256095D01*
X153630095Y-76062380D02*
X153630095Y-76871904D01*
X153677714Y-76967142D01*
X153725333Y-77014761D01*
X153820571Y-77062380D01*
X154011047Y-77062380D01*
X154106285Y-77014761D01*
X154153904Y-76967142D01*
X154201523Y-76871904D01*
X154201523Y-76062380D01*
X154630095Y-76157619D02*
X154677714Y-76110000D01*
X154772952Y-76062380D01*
X155011047Y-76062380D01*
X155106285Y-76110000D01*
X155153904Y-76157619D01*
X155201523Y-76252857D01*
X155201523Y-76348095D01*
X155153904Y-76490952D01*
X154582476Y-77062380D01*
X155201523Y-77062380D01*
X178308095Y-67270380D02*
X178308095Y-68079904D01*
X178355714Y-68175142D01*
X178403333Y-68222761D01*
X178498571Y-68270380D01*
X178689047Y-68270380D01*
X178784285Y-68222761D01*
X178831904Y-68175142D01*
X178879523Y-68079904D01*
X178879523Y-67270380D01*
X179260476Y-67270380D02*
X179879523Y-67270380D01*
X179546190Y-67651333D01*
X179689047Y-67651333D01*
X179784285Y-67698952D01*
X179831904Y-67746571D01*
X179879523Y-67841809D01*
X179879523Y-68079904D01*
X179831904Y-68175142D01*
X179784285Y-68222761D01*
X179689047Y-68270380D01*
X179403333Y-68270380D01*
X179308095Y-68222761D01*
X179260476Y-68175142D01*
X161321809Y-87352190D02*
X161321809Y-87828380D01*
X160988476Y-86828380D02*
X161321809Y-87352190D01*
X161655142Y-86828380D01*
X162512285Y-87828380D02*
X161940857Y-87828380D01*
X162226571Y-87828380D02*
X162226571Y-86828380D01*
X162131333Y-86971238D01*
X162036095Y-87066476D01*
X161940857Y-87114095D01*
M02*
