G04 #@! TF.GenerationSoftware,KiCad,Pcbnew,5.1.5*
G04 #@! TF.CreationDate,2020-05-24T16:04:19+02:00*
G04 #@! TF.ProjectId,ATSAML22GA18A_DevBoard,41545341-4d4c-4323-9247-413138415f44,rev?*
G04 #@! TF.SameCoordinates,Original*
G04 #@! TF.FileFunction,Soldermask,Bot*
G04 #@! TF.FilePolarity,Negative*
%FSLAX46Y46*%
G04 Gerber Fmt 4.6, Leading zero omitted, Abs format (unit mm)*
G04 Created by KiCad (PCBNEW 5.1.5) date 2020-05-24 16:04:19*
%MOMM*%
%LPD*%
G04 APERTURE LIST*
%ADD10C,0.100000*%
G04 APERTURE END LIST*
D10*
G36*
X179463000Y-98437000D02*
G01*
X177661000Y-98437000D01*
X177661000Y-96635000D01*
X179463000Y-96635000D01*
X179463000Y-98437000D01*
G37*
G36*
X174989426Y-96639313D02*
G01*
X175141812Y-96669624D01*
X175305784Y-96737544D01*
X175453354Y-96836147D01*
X175578853Y-96961646D01*
X175677456Y-97109216D01*
X175745376Y-97273188D01*
X175780000Y-97447259D01*
X175780000Y-97624741D01*
X175745376Y-97798812D01*
X175677456Y-97962784D01*
X175578853Y-98110354D01*
X175453354Y-98235853D01*
X175305784Y-98334456D01*
X175141812Y-98402376D01*
X174989426Y-98432687D01*
X174967742Y-98437000D01*
X174790258Y-98437000D01*
X174768574Y-98432687D01*
X174616188Y-98402376D01*
X174452216Y-98334456D01*
X174304646Y-98235853D01*
X174179147Y-98110354D01*
X174080544Y-97962784D01*
X174012624Y-97798812D01*
X173978000Y-97624741D01*
X173978000Y-97447259D01*
X174012624Y-97273188D01*
X174080544Y-97109216D01*
X174179147Y-96961646D01*
X174304646Y-96836147D01*
X174452216Y-96737544D01*
X174616188Y-96669624D01*
X174768574Y-96639313D01*
X174790258Y-96635000D01*
X174967742Y-96635000D01*
X174989426Y-96639313D01*
G37*
G36*
X172449426Y-96639313D02*
G01*
X172601812Y-96669624D01*
X172765784Y-96737544D01*
X172913354Y-96836147D01*
X173038853Y-96961646D01*
X173137456Y-97109216D01*
X173205376Y-97273188D01*
X173240000Y-97447259D01*
X173240000Y-97624741D01*
X173205376Y-97798812D01*
X173137456Y-97962784D01*
X173038853Y-98110354D01*
X172913354Y-98235853D01*
X172765784Y-98334456D01*
X172601812Y-98402376D01*
X172449426Y-98432687D01*
X172427742Y-98437000D01*
X172250258Y-98437000D01*
X172228574Y-98432687D01*
X172076188Y-98402376D01*
X171912216Y-98334456D01*
X171764646Y-98235853D01*
X171639147Y-98110354D01*
X171540544Y-97962784D01*
X171472624Y-97798812D01*
X171438000Y-97624741D01*
X171438000Y-97447259D01*
X171472624Y-97273188D01*
X171540544Y-97109216D01*
X171639147Y-96961646D01*
X171764646Y-96836147D01*
X171912216Y-96737544D01*
X172076188Y-96669624D01*
X172228574Y-96639313D01*
X172250258Y-96635000D01*
X172427742Y-96635000D01*
X172449426Y-96639313D01*
G37*
G36*
X169909426Y-96639313D02*
G01*
X170061812Y-96669624D01*
X170225784Y-96737544D01*
X170373354Y-96836147D01*
X170498853Y-96961646D01*
X170597456Y-97109216D01*
X170665376Y-97273188D01*
X170700000Y-97447259D01*
X170700000Y-97624741D01*
X170665376Y-97798812D01*
X170597456Y-97962784D01*
X170498853Y-98110354D01*
X170373354Y-98235853D01*
X170225784Y-98334456D01*
X170061812Y-98402376D01*
X169909426Y-98432687D01*
X169887742Y-98437000D01*
X169710258Y-98437000D01*
X169688574Y-98432687D01*
X169536188Y-98402376D01*
X169372216Y-98334456D01*
X169224646Y-98235853D01*
X169099147Y-98110354D01*
X169000544Y-97962784D01*
X168932624Y-97798812D01*
X168898000Y-97624741D01*
X168898000Y-97447259D01*
X168932624Y-97273188D01*
X169000544Y-97109216D01*
X169099147Y-96961646D01*
X169224646Y-96836147D01*
X169372216Y-96737544D01*
X169536188Y-96669624D01*
X169688574Y-96639313D01*
X169710258Y-96635000D01*
X169887742Y-96635000D01*
X169909426Y-96639313D01*
G37*
G36*
X167369426Y-96639313D02*
G01*
X167521812Y-96669624D01*
X167685784Y-96737544D01*
X167833354Y-96836147D01*
X167958853Y-96961646D01*
X168057456Y-97109216D01*
X168125376Y-97273188D01*
X168160000Y-97447259D01*
X168160000Y-97624741D01*
X168125376Y-97798812D01*
X168057456Y-97962784D01*
X167958853Y-98110354D01*
X167833354Y-98235853D01*
X167685784Y-98334456D01*
X167521812Y-98402376D01*
X167369426Y-98432687D01*
X167347742Y-98437000D01*
X167170258Y-98437000D01*
X167148574Y-98432687D01*
X166996188Y-98402376D01*
X166832216Y-98334456D01*
X166684646Y-98235853D01*
X166559147Y-98110354D01*
X166460544Y-97962784D01*
X166392624Y-97798812D01*
X166358000Y-97624741D01*
X166358000Y-97447259D01*
X166392624Y-97273188D01*
X166460544Y-97109216D01*
X166559147Y-96961646D01*
X166684646Y-96836147D01*
X166832216Y-96737544D01*
X166996188Y-96669624D01*
X167148574Y-96639313D01*
X167170258Y-96635000D01*
X167347742Y-96635000D01*
X167369426Y-96639313D01*
G37*
G36*
X164829426Y-96639313D02*
G01*
X164981812Y-96669624D01*
X165145784Y-96737544D01*
X165293354Y-96836147D01*
X165418853Y-96961646D01*
X165517456Y-97109216D01*
X165585376Y-97273188D01*
X165620000Y-97447259D01*
X165620000Y-97624741D01*
X165585376Y-97798812D01*
X165517456Y-97962784D01*
X165418853Y-98110354D01*
X165293354Y-98235853D01*
X165145784Y-98334456D01*
X164981812Y-98402376D01*
X164829426Y-98432687D01*
X164807742Y-98437000D01*
X164630258Y-98437000D01*
X164608574Y-98432687D01*
X164456188Y-98402376D01*
X164292216Y-98334456D01*
X164144646Y-98235853D01*
X164019147Y-98110354D01*
X163920544Y-97962784D01*
X163852624Y-97798812D01*
X163818000Y-97624741D01*
X163818000Y-97447259D01*
X163852624Y-97273188D01*
X163920544Y-97109216D01*
X164019147Y-96961646D01*
X164144646Y-96836147D01*
X164292216Y-96737544D01*
X164456188Y-96669624D01*
X164608574Y-96639313D01*
X164630258Y-96635000D01*
X164807742Y-96635000D01*
X164829426Y-96639313D01*
G37*
G36*
X159016000Y-98437000D02*
G01*
X157214000Y-98437000D01*
X157214000Y-96635000D01*
X159016000Y-96635000D01*
X159016000Y-98437000D01*
G37*
G36*
X163080000Y-98437000D02*
G01*
X161278000Y-98437000D01*
X161278000Y-96635000D01*
X163080000Y-96635000D01*
X163080000Y-98437000D01*
G37*
G36*
X150605426Y-96639313D02*
G01*
X150757812Y-96669624D01*
X150921784Y-96737544D01*
X151069354Y-96836147D01*
X151194853Y-96961646D01*
X151293456Y-97109216D01*
X151361376Y-97273188D01*
X151396000Y-97447259D01*
X151396000Y-97624741D01*
X151361376Y-97798812D01*
X151293456Y-97962784D01*
X151194853Y-98110354D01*
X151069354Y-98235853D01*
X150921784Y-98334456D01*
X150757812Y-98402376D01*
X150605426Y-98432687D01*
X150583742Y-98437000D01*
X150406258Y-98437000D01*
X150384574Y-98432687D01*
X150232188Y-98402376D01*
X150068216Y-98334456D01*
X149920646Y-98235853D01*
X149795147Y-98110354D01*
X149696544Y-97962784D01*
X149628624Y-97798812D01*
X149594000Y-97624741D01*
X149594000Y-97447259D01*
X149628624Y-97273188D01*
X149696544Y-97109216D01*
X149795147Y-96961646D01*
X149920646Y-96836147D01*
X150068216Y-96737544D01*
X150232188Y-96669624D01*
X150384574Y-96639313D01*
X150406258Y-96635000D01*
X150583742Y-96635000D01*
X150605426Y-96639313D01*
G37*
G36*
X155685426Y-96639313D02*
G01*
X155837812Y-96669624D01*
X156001784Y-96737544D01*
X156149354Y-96836147D01*
X156274853Y-96961646D01*
X156373456Y-97109216D01*
X156441376Y-97273188D01*
X156476000Y-97447259D01*
X156476000Y-97624741D01*
X156441376Y-97798812D01*
X156373456Y-97962784D01*
X156274853Y-98110354D01*
X156149354Y-98235853D01*
X156001784Y-98334456D01*
X155837812Y-98402376D01*
X155685426Y-98432687D01*
X155663742Y-98437000D01*
X155486258Y-98437000D01*
X155464574Y-98432687D01*
X155312188Y-98402376D01*
X155148216Y-98334456D01*
X155000646Y-98235853D01*
X154875147Y-98110354D01*
X154776544Y-97962784D01*
X154708624Y-97798812D01*
X154674000Y-97624741D01*
X154674000Y-97447259D01*
X154708624Y-97273188D01*
X154776544Y-97109216D01*
X154875147Y-96961646D01*
X155000646Y-96836147D01*
X155148216Y-96737544D01*
X155312188Y-96669624D01*
X155464574Y-96639313D01*
X155486258Y-96635000D01*
X155663742Y-96635000D01*
X155685426Y-96639313D01*
G37*
G36*
X153145426Y-96639313D02*
G01*
X153297812Y-96669624D01*
X153461784Y-96737544D01*
X153609354Y-96836147D01*
X153734853Y-96961646D01*
X153833456Y-97109216D01*
X153901376Y-97273188D01*
X153936000Y-97447259D01*
X153936000Y-97624741D01*
X153901376Y-97798812D01*
X153833456Y-97962784D01*
X153734853Y-98110354D01*
X153609354Y-98235853D01*
X153461784Y-98334456D01*
X153297812Y-98402376D01*
X153145426Y-98432687D01*
X153123742Y-98437000D01*
X152946258Y-98437000D01*
X152924574Y-98432687D01*
X152772188Y-98402376D01*
X152608216Y-98334456D01*
X152460646Y-98235853D01*
X152335147Y-98110354D01*
X152236544Y-97962784D01*
X152168624Y-97798812D01*
X152134000Y-97624741D01*
X152134000Y-97447259D01*
X152168624Y-97273188D01*
X152236544Y-97109216D01*
X152335147Y-96961646D01*
X152460646Y-96836147D01*
X152608216Y-96737544D01*
X152772188Y-96669624D01*
X152924574Y-96639313D01*
X152946258Y-96635000D01*
X153123742Y-96635000D01*
X153145426Y-96639313D01*
G37*
G36*
X181794977Y-96887450D02*
G01*
X181836059Y-96899912D01*
X181873924Y-96920152D01*
X181907112Y-96947388D01*
X181934348Y-96980576D01*
X181954588Y-97018441D01*
X181967050Y-97059523D01*
X181971500Y-97104704D01*
X181971500Y-97713296D01*
X181967050Y-97758477D01*
X181954588Y-97799559D01*
X181934348Y-97837424D01*
X181907112Y-97870612D01*
X181873924Y-97897848D01*
X181836059Y-97918088D01*
X181794977Y-97930550D01*
X181749796Y-97935000D01*
X181216204Y-97935000D01*
X181171023Y-97930550D01*
X181129941Y-97918088D01*
X181092076Y-97897848D01*
X181058888Y-97870612D01*
X181031652Y-97837424D01*
X181011412Y-97799559D01*
X180998950Y-97758477D01*
X180994500Y-97713296D01*
X180994500Y-97104704D01*
X180998950Y-97059523D01*
X181011412Y-97018441D01*
X181031652Y-96980576D01*
X181058888Y-96947388D01*
X181092076Y-96920152D01*
X181129941Y-96899912D01*
X181171023Y-96887450D01*
X181216204Y-96883000D01*
X181749796Y-96883000D01*
X181794977Y-96887450D01*
G37*
G36*
X183369977Y-96887450D02*
G01*
X183411059Y-96899912D01*
X183448924Y-96920152D01*
X183482112Y-96947388D01*
X183509348Y-96980576D01*
X183529588Y-97018441D01*
X183542050Y-97059523D01*
X183546500Y-97104704D01*
X183546500Y-97713296D01*
X183542050Y-97758477D01*
X183529588Y-97799559D01*
X183509348Y-97837424D01*
X183482112Y-97870612D01*
X183448924Y-97897848D01*
X183411059Y-97918088D01*
X183369977Y-97930550D01*
X183324796Y-97935000D01*
X182791204Y-97935000D01*
X182746023Y-97930550D01*
X182704941Y-97918088D01*
X182667076Y-97897848D01*
X182633888Y-97870612D01*
X182606652Y-97837424D01*
X182586412Y-97799559D01*
X182573950Y-97758477D01*
X182569500Y-97713296D01*
X182569500Y-97104704D01*
X182573950Y-97059523D01*
X182586412Y-97018441D01*
X182606652Y-96980576D01*
X182633888Y-96947388D01*
X182667076Y-96920152D01*
X182704941Y-96899912D01*
X182746023Y-96887450D01*
X182791204Y-96883000D01*
X183324796Y-96883000D01*
X183369977Y-96887450D01*
G37*
G36*
X185134477Y-96035950D02*
G01*
X185175559Y-96048412D01*
X185213424Y-96068652D01*
X185246612Y-96095888D01*
X185273848Y-96129076D01*
X185294088Y-96166941D01*
X185306550Y-96208023D01*
X185311000Y-96253204D01*
X185311000Y-96786796D01*
X185306550Y-96831977D01*
X185294088Y-96873059D01*
X185273848Y-96910924D01*
X185246612Y-96944112D01*
X185213424Y-96971348D01*
X185175559Y-96991588D01*
X185134477Y-97004050D01*
X185089296Y-97008500D01*
X184480704Y-97008500D01*
X184435523Y-97004050D01*
X184394441Y-96991588D01*
X184356576Y-96971348D01*
X184323388Y-96944112D01*
X184296152Y-96910924D01*
X184275912Y-96873059D01*
X184263450Y-96831977D01*
X184259000Y-96786796D01*
X184259000Y-96253204D01*
X184263450Y-96208023D01*
X184275912Y-96166941D01*
X184296152Y-96129076D01*
X184323388Y-96095888D01*
X184356576Y-96068652D01*
X184394441Y-96048412D01*
X184435523Y-96035950D01*
X184480704Y-96031500D01*
X185089296Y-96031500D01*
X185134477Y-96035950D01*
G37*
G36*
X178672426Y-94099313D02*
G01*
X178824812Y-94129624D01*
X178988784Y-94197544D01*
X179136354Y-94296147D01*
X179261853Y-94421646D01*
X179360456Y-94569216D01*
X179428376Y-94733188D01*
X179463000Y-94907259D01*
X179463000Y-95084741D01*
X179428376Y-95258812D01*
X179360456Y-95422784D01*
X179261853Y-95570354D01*
X179136354Y-95695853D01*
X178988784Y-95794456D01*
X178824812Y-95862376D01*
X178672426Y-95892687D01*
X178650742Y-95897000D01*
X178473258Y-95897000D01*
X178451574Y-95892687D01*
X178299188Y-95862376D01*
X178135216Y-95794456D01*
X177987646Y-95695853D01*
X177862147Y-95570354D01*
X177763544Y-95422784D01*
X177695624Y-95258812D01*
X177661000Y-95084741D01*
X177661000Y-94907259D01*
X177695624Y-94733188D01*
X177763544Y-94569216D01*
X177862147Y-94421646D01*
X177987646Y-94296147D01*
X178135216Y-94197544D01*
X178299188Y-94129624D01*
X178451574Y-94099313D01*
X178473258Y-94095000D01*
X178650742Y-94095000D01*
X178672426Y-94099313D01*
G37*
G36*
X183344477Y-94474450D02*
G01*
X183385559Y-94486912D01*
X183423424Y-94507152D01*
X183456612Y-94534388D01*
X183483848Y-94567576D01*
X183504088Y-94605441D01*
X183516550Y-94646523D01*
X183521000Y-94691704D01*
X183521000Y-95300296D01*
X183516550Y-95345477D01*
X183504088Y-95386559D01*
X183483848Y-95424424D01*
X183456612Y-95457612D01*
X183423424Y-95484848D01*
X183385559Y-95505088D01*
X183344477Y-95517550D01*
X183299296Y-95522000D01*
X182765704Y-95522000D01*
X182720523Y-95517550D01*
X182679441Y-95505088D01*
X182641576Y-95484848D01*
X182608388Y-95457612D01*
X182581152Y-95424424D01*
X182560912Y-95386559D01*
X182548450Y-95345477D01*
X182544000Y-95300296D01*
X182544000Y-94691704D01*
X182548450Y-94646523D01*
X182560912Y-94605441D01*
X182581152Y-94567576D01*
X182608388Y-94534388D01*
X182641576Y-94507152D01*
X182679441Y-94486912D01*
X182720523Y-94474450D01*
X182765704Y-94470000D01*
X183299296Y-94470000D01*
X183344477Y-94474450D01*
G37*
G36*
X181769477Y-94474450D02*
G01*
X181810559Y-94486912D01*
X181848424Y-94507152D01*
X181881612Y-94534388D01*
X181908848Y-94567576D01*
X181929088Y-94605441D01*
X181941550Y-94646523D01*
X181946000Y-94691704D01*
X181946000Y-95300296D01*
X181941550Y-95345477D01*
X181929088Y-95386559D01*
X181908848Y-95424424D01*
X181881612Y-95457612D01*
X181848424Y-95484848D01*
X181810559Y-95505088D01*
X181769477Y-95517550D01*
X181724296Y-95522000D01*
X181190704Y-95522000D01*
X181145523Y-95517550D01*
X181104441Y-95505088D01*
X181066576Y-95484848D01*
X181033388Y-95457612D01*
X181006152Y-95424424D01*
X180985912Y-95386559D01*
X180973450Y-95345477D01*
X180969000Y-95300296D01*
X180969000Y-94691704D01*
X180973450Y-94646523D01*
X180985912Y-94605441D01*
X181006152Y-94567576D01*
X181033388Y-94534388D01*
X181066576Y-94507152D01*
X181104441Y-94486912D01*
X181145523Y-94474450D01*
X181190704Y-94470000D01*
X181724296Y-94470000D01*
X181769477Y-94474450D01*
G37*
G36*
X185134477Y-94460950D02*
G01*
X185175559Y-94473412D01*
X185213424Y-94493652D01*
X185246612Y-94520888D01*
X185273848Y-94554076D01*
X185294088Y-94591941D01*
X185306550Y-94633023D01*
X185311000Y-94678204D01*
X185311000Y-95211796D01*
X185306550Y-95256977D01*
X185294088Y-95298059D01*
X185273848Y-95335924D01*
X185246612Y-95369112D01*
X185213424Y-95396348D01*
X185175559Y-95416588D01*
X185134477Y-95429050D01*
X185089296Y-95433500D01*
X184480704Y-95433500D01*
X184435523Y-95429050D01*
X184394441Y-95416588D01*
X184356576Y-95396348D01*
X184323388Y-95369112D01*
X184296152Y-95335924D01*
X184275912Y-95298059D01*
X184263450Y-95256977D01*
X184259000Y-95211796D01*
X184259000Y-94678204D01*
X184263450Y-94633023D01*
X184275912Y-94591941D01*
X184296152Y-94554076D01*
X184323388Y-94520888D01*
X184356576Y-94493652D01*
X184394441Y-94473412D01*
X184435523Y-94460950D01*
X184480704Y-94456500D01*
X185089296Y-94456500D01*
X185134477Y-94460950D01*
G37*
G36*
X148348000Y-94627000D02*
G01*
X146546000Y-94627000D01*
X146546000Y-92825000D01*
X148348000Y-92825000D01*
X148348000Y-94627000D01*
G37*
G36*
X178672426Y-91559313D02*
G01*
X178824812Y-91589624D01*
X178988784Y-91657544D01*
X179136354Y-91756147D01*
X179261853Y-91881646D01*
X179360456Y-92029216D01*
X179428376Y-92193188D01*
X179463000Y-92367259D01*
X179463000Y-92544741D01*
X179428376Y-92718812D01*
X179360456Y-92882784D01*
X179261853Y-93030354D01*
X179136354Y-93155853D01*
X178988784Y-93254456D01*
X178824812Y-93322376D01*
X178672426Y-93352687D01*
X178650742Y-93357000D01*
X178473258Y-93357000D01*
X178451574Y-93352687D01*
X178299188Y-93322376D01*
X178135216Y-93254456D01*
X177987646Y-93155853D01*
X177862147Y-93030354D01*
X177763544Y-92882784D01*
X177695624Y-92718812D01*
X177661000Y-92544741D01*
X177661000Y-92367259D01*
X177695624Y-92193188D01*
X177763544Y-92029216D01*
X177862147Y-91881646D01*
X177987646Y-91756147D01*
X178135216Y-91657544D01*
X178299188Y-91589624D01*
X178451574Y-91559313D01*
X178473258Y-91555000D01*
X178650742Y-91555000D01*
X178672426Y-91559313D01*
G37*
G36*
X181794977Y-91934450D02*
G01*
X181836059Y-91946912D01*
X181873924Y-91967152D01*
X181907112Y-91994388D01*
X181934348Y-92027576D01*
X181954588Y-92065441D01*
X181967050Y-92106523D01*
X181971500Y-92151704D01*
X181971500Y-92760296D01*
X181967050Y-92805477D01*
X181954588Y-92846559D01*
X181934348Y-92884424D01*
X181907112Y-92917612D01*
X181873924Y-92944848D01*
X181836059Y-92965088D01*
X181794977Y-92977550D01*
X181749796Y-92982000D01*
X181216204Y-92982000D01*
X181171023Y-92977550D01*
X181129941Y-92965088D01*
X181092076Y-92944848D01*
X181058888Y-92917612D01*
X181031652Y-92884424D01*
X181011412Y-92846559D01*
X180998950Y-92805477D01*
X180994500Y-92760296D01*
X180994500Y-92151704D01*
X180998950Y-92106523D01*
X181011412Y-92065441D01*
X181031652Y-92027576D01*
X181058888Y-91994388D01*
X181092076Y-91967152D01*
X181129941Y-91946912D01*
X181171023Y-91934450D01*
X181216204Y-91930000D01*
X181749796Y-91930000D01*
X181794977Y-91934450D01*
G37*
G36*
X183369977Y-91934450D02*
G01*
X183411059Y-91946912D01*
X183448924Y-91967152D01*
X183482112Y-91994388D01*
X183509348Y-92027576D01*
X183529588Y-92065441D01*
X183542050Y-92106523D01*
X183546500Y-92151704D01*
X183546500Y-92760296D01*
X183542050Y-92805477D01*
X183529588Y-92846559D01*
X183509348Y-92884424D01*
X183482112Y-92917612D01*
X183448924Y-92944848D01*
X183411059Y-92965088D01*
X183369977Y-92977550D01*
X183324796Y-92982000D01*
X182791204Y-92982000D01*
X182746023Y-92977550D01*
X182704941Y-92965088D01*
X182667076Y-92944848D01*
X182633888Y-92917612D01*
X182606652Y-92884424D01*
X182586412Y-92846559D01*
X182573950Y-92805477D01*
X182569500Y-92760296D01*
X182569500Y-92151704D01*
X182573950Y-92106523D01*
X182586412Y-92065441D01*
X182606652Y-92027576D01*
X182633888Y-91994388D01*
X182667076Y-91967152D01*
X182704941Y-91946912D01*
X182746023Y-91934450D01*
X182791204Y-91930000D01*
X183324796Y-91930000D01*
X183369977Y-91934450D01*
G37*
G36*
X147556414Y-90289112D02*
G01*
X147709812Y-90319624D01*
X147873784Y-90387544D01*
X148021354Y-90486147D01*
X148146853Y-90611646D01*
X148245456Y-90759216D01*
X148313376Y-90923188D01*
X148348000Y-91097259D01*
X148348000Y-91274741D01*
X148313376Y-91448812D01*
X148245456Y-91612784D01*
X148146853Y-91760354D01*
X148021354Y-91885853D01*
X147873784Y-91984456D01*
X147709812Y-92052376D01*
X147557426Y-92082687D01*
X147535742Y-92087000D01*
X147358258Y-92087000D01*
X147336574Y-92082687D01*
X147184188Y-92052376D01*
X147020216Y-91984456D01*
X146872646Y-91885853D01*
X146747147Y-91760354D01*
X146648544Y-91612784D01*
X146580624Y-91448812D01*
X146546000Y-91274741D01*
X146546000Y-91097259D01*
X146580624Y-90923188D01*
X146648544Y-90759216D01*
X146747147Y-90611646D01*
X146872646Y-90486147D01*
X147020216Y-90387544D01*
X147184188Y-90319624D01*
X147337586Y-90289112D01*
X147358258Y-90285000D01*
X147535742Y-90285000D01*
X147556414Y-90289112D01*
G37*
G36*
X185007477Y-90955950D02*
G01*
X185048559Y-90968412D01*
X185086424Y-90988652D01*
X185119612Y-91015888D01*
X185146848Y-91049076D01*
X185167088Y-91086941D01*
X185179550Y-91128023D01*
X185184000Y-91173204D01*
X185184000Y-91706796D01*
X185179550Y-91751977D01*
X185167088Y-91793059D01*
X185146848Y-91830924D01*
X185119612Y-91864112D01*
X185086424Y-91891348D01*
X185048559Y-91911588D01*
X185007477Y-91924050D01*
X184962296Y-91928500D01*
X184353704Y-91928500D01*
X184308523Y-91924050D01*
X184267441Y-91911588D01*
X184229576Y-91891348D01*
X184196388Y-91864112D01*
X184169152Y-91830924D01*
X184148912Y-91793059D01*
X184136450Y-91751977D01*
X184132000Y-91706796D01*
X184132000Y-91173204D01*
X184136450Y-91128023D01*
X184148912Y-91086941D01*
X184169152Y-91049076D01*
X184196388Y-91015888D01*
X184229576Y-90988652D01*
X184267441Y-90968412D01*
X184308523Y-90955950D01*
X184353704Y-90951500D01*
X184962296Y-90951500D01*
X185007477Y-90955950D01*
G37*
G36*
X178672426Y-89019313D02*
G01*
X178824812Y-89049624D01*
X178988784Y-89117544D01*
X179136354Y-89216147D01*
X179261853Y-89341646D01*
X179360456Y-89489216D01*
X179428376Y-89653188D01*
X179463000Y-89827259D01*
X179463000Y-90004741D01*
X179428376Y-90178812D01*
X179360456Y-90342784D01*
X179261853Y-90490354D01*
X179136354Y-90615853D01*
X178988784Y-90714456D01*
X178824812Y-90782376D01*
X178672426Y-90812687D01*
X178650742Y-90817000D01*
X178473258Y-90817000D01*
X178451574Y-90812687D01*
X178299188Y-90782376D01*
X178135216Y-90714456D01*
X177987646Y-90615853D01*
X177862147Y-90490354D01*
X177763544Y-90342784D01*
X177695624Y-90178812D01*
X177661000Y-90004741D01*
X177661000Y-89827259D01*
X177695624Y-89653188D01*
X177763544Y-89489216D01*
X177862147Y-89341646D01*
X177987646Y-89216147D01*
X178135216Y-89117544D01*
X178299188Y-89049624D01*
X178451574Y-89019313D01*
X178473258Y-89015000D01*
X178650742Y-89015000D01*
X178672426Y-89019313D01*
G37*
G36*
X183369977Y-89394450D02*
G01*
X183411059Y-89406912D01*
X183448924Y-89427152D01*
X183482112Y-89454388D01*
X183509348Y-89487576D01*
X183529588Y-89525441D01*
X183542050Y-89566523D01*
X183546500Y-89611704D01*
X183546500Y-90220296D01*
X183542050Y-90265477D01*
X183529588Y-90306559D01*
X183509348Y-90344424D01*
X183482112Y-90377612D01*
X183448924Y-90404848D01*
X183411059Y-90425088D01*
X183369977Y-90437550D01*
X183324796Y-90442000D01*
X182791204Y-90442000D01*
X182746023Y-90437550D01*
X182704941Y-90425088D01*
X182667076Y-90404848D01*
X182633888Y-90377612D01*
X182606652Y-90344424D01*
X182586412Y-90306559D01*
X182573950Y-90265477D01*
X182569500Y-90220296D01*
X182569500Y-89611704D01*
X182573950Y-89566523D01*
X182586412Y-89525441D01*
X182606652Y-89487576D01*
X182633888Y-89454388D01*
X182667076Y-89427152D01*
X182704941Y-89406912D01*
X182746023Y-89394450D01*
X182791204Y-89390000D01*
X183324796Y-89390000D01*
X183369977Y-89394450D01*
G37*
G36*
X181794977Y-89394450D02*
G01*
X181836059Y-89406912D01*
X181873924Y-89427152D01*
X181907112Y-89454388D01*
X181934348Y-89487576D01*
X181954588Y-89525441D01*
X181967050Y-89566523D01*
X181971500Y-89611704D01*
X181971500Y-90220296D01*
X181967050Y-90265477D01*
X181954588Y-90306559D01*
X181934348Y-90344424D01*
X181907112Y-90377612D01*
X181873924Y-90404848D01*
X181836059Y-90425088D01*
X181794977Y-90437550D01*
X181749796Y-90442000D01*
X181216204Y-90442000D01*
X181171023Y-90437550D01*
X181129941Y-90425088D01*
X181092076Y-90404848D01*
X181058888Y-90377612D01*
X181031652Y-90344424D01*
X181011412Y-90306559D01*
X180998950Y-90265477D01*
X180994500Y-90220296D01*
X180994500Y-89611704D01*
X180998950Y-89566523D01*
X181011412Y-89525441D01*
X181031652Y-89487576D01*
X181058888Y-89454388D01*
X181092076Y-89427152D01*
X181129941Y-89406912D01*
X181171023Y-89394450D01*
X181216204Y-89390000D01*
X181749796Y-89390000D01*
X181794977Y-89394450D01*
G37*
G36*
X185007477Y-89380950D02*
G01*
X185048559Y-89393412D01*
X185086424Y-89413652D01*
X185119612Y-89440888D01*
X185146848Y-89474076D01*
X185167088Y-89511941D01*
X185179550Y-89553023D01*
X185184000Y-89598204D01*
X185184000Y-90131796D01*
X185179550Y-90176977D01*
X185167088Y-90218059D01*
X185146848Y-90255924D01*
X185119612Y-90289112D01*
X185086424Y-90316348D01*
X185048559Y-90336588D01*
X185007477Y-90349050D01*
X184962296Y-90353500D01*
X184353704Y-90353500D01*
X184308523Y-90349050D01*
X184267441Y-90336588D01*
X184229576Y-90316348D01*
X184196388Y-90289112D01*
X184169152Y-90255924D01*
X184148912Y-90218059D01*
X184136450Y-90176977D01*
X184132000Y-90131796D01*
X184132000Y-89598204D01*
X184136450Y-89553023D01*
X184148912Y-89511941D01*
X184169152Y-89474076D01*
X184196388Y-89440888D01*
X184229576Y-89413652D01*
X184267441Y-89393412D01*
X184308523Y-89380950D01*
X184353704Y-89376500D01*
X184962296Y-89376500D01*
X185007477Y-89380950D01*
G37*
G36*
X147557426Y-87749313D02*
G01*
X147709812Y-87779624D01*
X147873784Y-87847544D01*
X148021354Y-87946147D01*
X148146853Y-88071646D01*
X148245456Y-88219216D01*
X148313376Y-88383188D01*
X148348000Y-88557259D01*
X148348000Y-88734741D01*
X148313376Y-88908812D01*
X148245456Y-89072784D01*
X148146853Y-89220354D01*
X148021354Y-89345853D01*
X147873784Y-89444456D01*
X147709812Y-89512376D01*
X147557426Y-89542687D01*
X147535742Y-89547000D01*
X147358258Y-89547000D01*
X147336574Y-89542687D01*
X147184188Y-89512376D01*
X147020216Y-89444456D01*
X146872646Y-89345853D01*
X146747147Y-89220354D01*
X146648544Y-89072784D01*
X146580624Y-88908812D01*
X146546000Y-88734741D01*
X146546000Y-88557259D01*
X146580624Y-88383188D01*
X146648544Y-88219216D01*
X146747147Y-88071646D01*
X146872646Y-87946147D01*
X147020216Y-87847544D01*
X147184188Y-87779624D01*
X147336574Y-87749313D01*
X147358258Y-87745000D01*
X147535742Y-87745000D01*
X147557426Y-87749313D01*
G37*
G36*
X178672426Y-86479313D02*
G01*
X178824812Y-86509624D01*
X178988784Y-86577544D01*
X179136354Y-86676147D01*
X179261853Y-86801646D01*
X179360456Y-86949216D01*
X179428376Y-87113188D01*
X179463000Y-87287259D01*
X179463000Y-87464741D01*
X179428376Y-87638812D01*
X179360456Y-87802784D01*
X179261853Y-87950354D01*
X179136354Y-88075853D01*
X178988784Y-88174456D01*
X178824812Y-88242376D01*
X178672426Y-88272687D01*
X178650742Y-88277000D01*
X178473258Y-88277000D01*
X178451574Y-88272687D01*
X178299188Y-88242376D01*
X178135216Y-88174456D01*
X177987646Y-88075853D01*
X177862147Y-87950354D01*
X177763544Y-87802784D01*
X177695624Y-87638812D01*
X177661000Y-87464741D01*
X177661000Y-87287259D01*
X177695624Y-87113188D01*
X177763544Y-86949216D01*
X177862147Y-86801646D01*
X177987646Y-86676147D01*
X178135216Y-86577544D01*
X178299188Y-86509624D01*
X178451574Y-86479313D01*
X178473258Y-86475000D01*
X178650742Y-86475000D01*
X178672426Y-86479313D01*
G37*
G36*
X185007477Y-87171450D02*
G01*
X185048559Y-87183912D01*
X185086424Y-87204152D01*
X185119612Y-87231388D01*
X185146848Y-87264576D01*
X185167088Y-87302441D01*
X185179550Y-87343523D01*
X185184000Y-87388704D01*
X185184000Y-87922296D01*
X185179550Y-87967477D01*
X185167088Y-88008559D01*
X185146848Y-88046424D01*
X185119612Y-88079612D01*
X185086424Y-88106848D01*
X185048559Y-88127088D01*
X185007477Y-88139550D01*
X184962296Y-88144000D01*
X184353704Y-88144000D01*
X184308523Y-88139550D01*
X184267441Y-88127088D01*
X184229576Y-88106848D01*
X184196388Y-88079612D01*
X184169152Y-88046424D01*
X184148912Y-88008559D01*
X184136450Y-87967477D01*
X184132000Y-87922296D01*
X184132000Y-87388704D01*
X184136450Y-87343523D01*
X184148912Y-87302441D01*
X184169152Y-87264576D01*
X184196388Y-87231388D01*
X184229576Y-87204152D01*
X184267441Y-87183912D01*
X184308523Y-87171450D01*
X184353704Y-87167000D01*
X184962296Y-87167000D01*
X185007477Y-87171450D01*
G37*
G36*
X183318977Y-86854450D02*
G01*
X183360059Y-86866912D01*
X183397924Y-86887152D01*
X183431112Y-86914388D01*
X183458348Y-86947576D01*
X183478588Y-86985441D01*
X183491050Y-87026523D01*
X183495500Y-87071704D01*
X183495500Y-87680296D01*
X183491050Y-87725477D01*
X183478588Y-87766559D01*
X183458348Y-87804424D01*
X183431112Y-87837612D01*
X183397924Y-87864848D01*
X183360059Y-87885088D01*
X183318977Y-87897550D01*
X183273796Y-87902000D01*
X182740204Y-87902000D01*
X182695023Y-87897550D01*
X182653941Y-87885088D01*
X182616076Y-87864848D01*
X182582888Y-87837612D01*
X182555652Y-87804424D01*
X182535412Y-87766559D01*
X182522950Y-87725477D01*
X182518500Y-87680296D01*
X182518500Y-87071704D01*
X182522950Y-87026523D01*
X182535412Y-86985441D01*
X182555652Y-86947576D01*
X182582888Y-86914388D01*
X182616076Y-86887152D01*
X182653941Y-86866912D01*
X182695023Y-86854450D01*
X182740204Y-86850000D01*
X183273796Y-86850000D01*
X183318977Y-86854450D01*
G37*
G36*
X181743977Y-86854450D02*
G01*
X181785059Y-86866912D01*
X181822924Y-86887152D01*
X181856112Y-86914388D01*
X181883348Y-86947576D01*
X181903588Y-86985441D01*
X181916050Y-87026523D01*
X181920500Y-87071704D01*
X181920500Y-87680296D01*
X181916050Y-87725477D01*
X181903588Y-87766559D01*
X181883348Y-87804424D01*
X181856112Y-87837612D01*
X181822924Y-87864848D01*
X181785059Y-87885088D01*
X181743977Y-87897550D01*
X181698796Y-87902000D01*
X181165204Y-87902000D01*
X181120023Y-87897550D01*
X181078941Y-87885088D01*
X181041076Y-87864848D01*
X181007888Y-87837612D01*
X180980652Y-87804424D01*
X180960412Y-87766559D01*
X180947950Y-87725477D01*
X180943500Y-87680296D01*
X180943500Y-87071704D01*
X180947950Y-87026523D01*
X180960412Y-86985441D01*
X180980652Y-86947576D01*
X181007888Y-86914388D01*
X181041076Y-86887152D01*
X181078941Y-86866912D01*
X181120023Y-86854450D01*
X181165204Y-86850000D01*
X181698796Y-86850000D01*
X181743977Y-86854450D01*
G37*
G36*
X147557426Y-85209313D02*
G01*
X147709812Y-85239624D01*
X147873784Y-85307544D01*
X148021354Y-85406147D01*
X148146853Y-85531646D01*
X148245456Y-85679216D01*
X148313376Y-85843188D01*
X148348000Y-86017259D01*
X148348000Y-86194741D01*
X148313376Y-86368812D01*
X148245456Y-86532784D01*
X148146853Y-86680354D01*
X148021354Y-86805853D01*
X147873784Y-86904456D01*
X147709812Y-86972376D01*
X147557426Y-87002687D01*
X147535742Y-87007000D01*
X147358258Y-87007000D01*
X147336574Y-87002687D01*
X147184188Y-86972376D01*
X147020216Y-86904456D01*
X146872646Y-86805853D01*
X146747147Y-86680354D01*
X146648544Y-86532784D01*
X146580624Y-86368812D01*
X146546000Y-86194741D01*
X146546000Y-86017259D01*
X146580624Y-85843188D01*
X146648544Y-85679216D01*
X146747147Y-85531646D01*
X146872646Y-85406147D01*
X147020216Y-85307544D01*
X147184188Y-85239624D01*
X147336574Y-85209313D01*
X147358258Y-85205000D01*
X147535742Y-85205000D01*
X147557426Y-85209313D01*
G37*
G36*
X185007477Y-85596450D02*
G01*
X185048559Y-85608912D01*
X185086424Y-85629152D01*
X185119612Y-85656388D01*
X185146848Y-85689576D01*
X185167088Y-85727441D01*
X185179550Y-85768523D01*
X185184000Y-85813704D01*
X185184000Y-86347296D01*
X185179550Y-86392477D01*
X185167088Y-86433559D01*
X185146848Y-86471424D01*
X185119612Y-86504612D01*
X185086424Y-86531848D01*
X185048559Y-86552088D01*
X185007477Y-86564550D01*
X184962296Y-86569000D01*
X184353704Y-86569000D01*
X184308523Y-86564550D01*
X184267441Y-86552088D01*
X184229576Y-86531848D01*
X184196388Y-86504612D01*
X184169152Y-86471424D01*
X184148912Y-86433559D01*
X184136450Y-86392477D01*
X184132000Y-86347296D01*
X184132000Y-85813704D01*
X184136450Y-85768523D01*
X184148912Y-85727441D01*
X184169152Y-85689576D01*
X184196388Y-85656388D01*
X184229576Y-85629152D01*
X184267441Y-85608912D01*
X184308523Y-85596450D01*
X184353704Y-85592000D01*
X184962296Y-85592000D01*
X185007477Y-85596450D01*
G37*
G36*
X178672426Y-83939313D02*
G01*
X178824812Y-83969624D01*
X178988784Y-84037544D01*
X179136354Y-84136147D01*
X179261853Y-84261646D01*
X179360456Y-84409216D01*
X179428376Y-84573188D01*
X179463000Y-84747259D01*
X179463000Y-84924741D01*
X179428376Y-85098812D01*
X179360456Y-85262784D01*
X179261853Y-85410354D01*
X179136354Y-85535853D01*
X178988784Y-85634456D01*
X178824812Y-85702376D01*
X178672426Y-85732687D01*
X178650742Y-85737000D01*
X178473258Y-85737000D01*
X178451574Y-85732687D01*
X178299188Y-85702376D01*
X178135216Y-85634456D01*
X177987646Y-85535853D01*
X177862147Y-85410354D01*
X177763544Y-85262784D01*
X177695624Y-85098812D01*
X177661000Y-84924741D01*
X177661000Y-84747259D01*
X177695624Y-84573188D01*
X177763544Y-84409216D01*
X177862147Y-84261646D01*
X177987646Y-84136147D01*
X178135216Y-84037544D01*
X178299188Y-83969624D01*
X178451574Y-83939313D01*
X178473258Y-83935000D01*
X178650742Y-83935000D01*
X178672426Y-83939313D01*
G37*
G36*
X181667977Y-84314450D02*
G01*
X181709059Y-84326912D01*
X181746924Y-84347152D01*
X181780112Y-84374388D01*
X181807348Y-84407576D01*
X181827588Y-84445441D01*
X181840050Y-84486523D01*
X181844500Y-84531704D01*
X181844500Y-85140296D01*
X181840050Y-85185477D01*
X181827588Y-85226559D01*
X181807348Y-85264424D01*
X181780112Y-85297612D01*
X181746924Y-85324848D01*
X181709059Y-85345088D01*
X181667977Y-85357550D01*
X181622796Y-85362000D01*
X181089204Y-85362000D01*
X181044023Y-85357550D01*
X181002941Y-85345088D01*
X180965076Y-85324848D01*
X180931888Y-85297612D01*
X180904652Y-85264424D01*
X180884412Y-85226559D01*
X180871950Y-85185477D01*
X180867500Y-85140296D01*
X180867500Y-84531704D01*
X180871950Y-84486523D01*
X180884412Y-84445441D01*
X180904652Y-84407576D01*
X180931888Y-84374388D01*
X180965076Y-84347152D01*
X181002941Y-84326912D01*
X181044023Y-84314450D01*
X181089204Y-84310000D01*
X181622796Y-84310000D01*
X181667977Y-84314450D01*
G37*
G36*
X183242977Y-84314450D02*
G01*
X183284059Y-84326912D01*
X183321924Y-84347152D01*
X183355112Y-84374388D01*
X183382348Y-84407576D01*
X183402588Y-84445441D01*
X183415050Y-84486523D01*
X183419500Y-84531704D01*
X183419500Y-85140296D01*
X183415050Y-85185477D01*
X183402588Y-85226559D01*
X183382348Y-85264424D01*
X183355112Y-85297612D01*
X183321924Y-85324848D01*
X183284059Y-85345088D01*
X183242977Y-85357550D01*
X183197796Y-85362000D01*
X182664204Y-85362000D01*
X182619023Y-85357550D01*
X182577941Y-85345088D01*
X182540076Y-85324848D01*
X182506888Y-85297612D01*
X182479652Y-85264424D01*
X182459412Y-85226559D01*
X182446950Y-85185477D01*
X182442500Y-85140296D01*
X182442500Y-84531704D01*
X182446950Y-84486523D01*
X182459412Y-84445441D01*
X182479652Y-84407576D01*
X182506888Y-84374388D01*
X182540076Y-84347152D01*
X182577941Y-84326912D01*
X182619023Y-84314450D01*
X182664204Y-84310000D01*
X183197796Y-84310000D01*
X183242977Y-84314450D01*
G37*
G36*
X185007477Y-83589950D02*
G01*
X185048559Y-83602412D01*
X185086424Y-83622652D01*
X185119612Y-83649888D01*
X185146848Y-83683076D01*
X185167088Y-83720941D01*
X185179550Y-83762023D01*
X185184000Y-83807204D01*
X185184000Y-84340796D01*
X185179550Y-84385977D01*
X185167088Y-84427059D01*
X185146848Y-84464924D01*
X185119612Y-84498112D01*
X185086424Y-84525348D01*
X185048559Y-84545588D01*
X185007477Y-84558050D01*
X184962296Y-84562500D01*
X184353704Y-84562500D01*
X184308523Y-84558050D01*
X184267441Y-84545588D01*
X184229576Y-84525348D01*
X184196388Y-84498112D01*
X184169152Y-84464924D01*
X184148912Y-84427059D01*
X184136450Y-84385977D01*
X184132000Y-84340796D01*
X184132000Y-83807204D01*
X184136450Y-83762023D01*
X184148912Y-83720941D01*
X184169152Y-83683076D01*
X184196388Y-83649888D01*
X184229576Y-83622652D01*
X184267441Y-83602412D01*
X184308523Y-83589950D01*
X184353704Y-83585500D01*
X184962296Y-83585500D01*
X185007477Y-83589950D01*
G37*
G36*
X147557426Y-82669313D02*
G01*
X147709812Y-82699624D01*
X147873784Y-82767544D01*
X148021354Y-82866147D01*
X148146853Y-82991646D01*
X148245456Y-83139216D01*
X148313376Y-83303188D01*
X148348000Y-83477259D01*
X148348000Y-83654741D01*
X148313376Y-83828812D01*
X148245456Y-83992784D01*
X148146853Y-84140354D01*
X148021354Y-84265853D01*
X147873784Y-84364456D01*
X147709812Y-84432376D01*
X147557426Y-84462687D01*
X147535742Y-84467000D01*
X147358258Y-84467000D01*
X147336574Y-84462687D01*
X147184188Y-84432376D01*
X147020216Y-84364456D01*
X146872646Y-84265853D01*
X146747147Y-84140354D01*
X146648544Y-83992784D01*
X146580624Y-83828812D01*
X146546000Y-83654741D01*
X146546000Y-83477259D01*
X146580624Y-83303188D01*
X146648544Y-83139216D01*
X146747147Y-82991646D01*
X146872646Y-82866147D01*
X147020216Y-82767544D01*
X147184188Y-82699624D01*
X147336574Y-82669313D01*
X147358258Y-82665000D01*
X147535742Y-82665000D01*
X147557426Y-82669313D01*
G37*
G36*
X178672426Y-81399313D02*
G01*
X178824812Y-81429624D01*
X178988784Y-81497544D01*
X179136354Y-81596147D01*
X179261853Y-81721646D01*
X179360456Y-81869216D01*
X179428376Y-82033188D01*
X179463000Y-82207259D01*
X179463000Y-82384741D01*
X179428376Y-82558812D01*
X179360456Y-82722784D01*
X179261853Y-82870354D01*
X179136354Y-82995853D01*
X178988784Y-83094456D01*
X178824812Y-83162376D01*
X178672426Y-83192687D01*
X178650742Y-83197000D01*
X178473258Y-83197000D01*
X178451574Y-83192687D01*
X178299188Y-83162376D01*
X178135216Y-83094456D01*
X177987646Y-82995853D01*
X177862147Y-82870354D01*
X177763544Y-82722784D01*
X177695624Y-82558812D01*
X177661000Y-82384741D01*
X177661000Y-82207259D01*
X177695624Y-82033188D01*
X177763544Y-81869216D01*
X177862147Y-81721646D01*
X177987646Y-81596147D01*
X178135216Y-81497544D01*
X178299188Y-81429624D01*
X178451574Y-81399313D01*
X178473258Y-81395000D01*
X178650742Y-81395000D01*
X178672426Y-81399313D01*
G37*
G36*
X185007477Y-82014950D02*
G01*
X185048559Y-82027412D01*
X185086424Y-82047652D01*
X185119612Y-82074888D01*
X185146848Y-82108076D01*
X185167088Y-82145941D01*
X185179550Y-82187023D01*
X185184000Y-82232204D01*
X185184000Y-82765796D01*
X185179550Y-82810977D01*
X185167088Y-82852059D01*
X185146848Y-82889924D01*
X185119612Y-82923112D01*
X185086424Y-82950348D01*
X185048559Y-82970588D01*
X185007477Y-82983050D01*
X184962296Y-82987500D01*
X184353704Y-82987500D01*
X184308523Y-82983050D01*
X184267441Y-82970588D01*
X184229576Y-82950348D01*
X184196388Y-82923112D01*
X184169152Y-82889924D01*
X184148912Y-82852059D01*
X184136450Y-82810977D01*
X184132000Y-82765796D01*
X184132000Y-82232204D01*
X184136450Y-82187023D01*
X184148912Y-82145941D01*
X184169152Y-82108076D01*
X184196388Y-82074888D01*
X184229576Y-82047652D01*
X184267441Y-82027412D01*
X184308523Y-82014950D01*
X184353704Y-82010500D01*
X184962296Y-82010500D01*
X185007477Y-82014950D01*
G37*
G36*
X181667977Y-81774450D02*
G01*
X181709059Y-81786912D01*
X181746924Y-81807152D01*
X181780112Y-81834388D01*
X181807348Y-81867576D01*
X181827588Y-81905441D01*
X181840050Y-81946523D01*
X181844500Y-81991704D01*
X181844500Y-82600296D01*
X181840050Y-82645477D01*
X181827588Y-82686559D01*
X181807348Y-82724424D01*
X181780112Y-82757612D01*
X181746924Y-82784848D01*
X181709059Y-82805088D01*
X181667977Y-82817550D01*
X181622796Y-82822000D01*
X181089204Y-82822000D01*
X181044023Y-82817550D01*
X181002941Y-82805088D01*
X180965076Y-82784848D01*
X180931888Y-82757612D01*
X180904652Y-82724424D01*
X180884412Y-82686559D01*
X180871950Y-82645477D01*
X180867500Y-82600296D01*
X180867500Y-81991704D01*
X180871950Y-81946523D01*
X180884412Y-81905441D01*
X180904652Y-81867576D01*
X180931888Y-81834388D01*
X180965076Y-81807152D01*
X181002941Y-81786912D01*
X181044023Y-81774450D01*
X181089204Y-81770000D01*
X181622796Y-81770000D01*
X181667977Y-81774450D01*
G37*
G36*
X183242977Y-81774450D02*
G01*
X183284059Y-81786912D01*
X183321924Y-81807152D01*
X183355112Y-81834388D01*
X183382348Y-81867576D01*
X183402588Y-81905441D01*
X183415050Y-81946523D01*
X183419500Y-81991704D01*
X183419500Y-82600296D01*
X183415050Y-82645477D01*
X183402588Y-82686559D01*
X183382348Y-82724424D01*
X183355112Y-82757612D01*
X183321924Y-82784848D01*
X183284059Y-82805088D01*
X183242977Y-82817550D01*
X183197796Y-82822000D01*
X182664204Y-82822000D01*
X182619023Y-82817550D01*
X182577941Y-82805088D01*
X182540076Y-82784848D01*
X182506888Y-82757612D01*
X182479652Y-82724424D01*
X182459412Y-82686559D01*
X182446950Y-82645477D01*
X182442500Y-82600296D01*
X182442500Y-81991704D01*
X182446950Y-81946523D01*
X182459412Y-81905441D01*
X182479652Y-81867576D01*
X182506888Y-81834388D01*
X182540076Y-81807152D01*
X182577941Y-81786912D01*
X182619023Y-81774450D01*
X182664204Y-81770000D01*
X183197796Y-81770000D01*
X183242977Y-81774450D01*
G37*
G36*
X185007477Y-79957950D02*
G01*
X185048559Y-79970412D01*
X185086424Y-79990652D01*
X185119612Y-80017888D01*
X185146848Y-80051076D01*
X185167088Y-80088941D01*
X185179550Y-80130023D01*
X185184000Y-80175204D01*
X185184000Y-80708796D01*
X185179550Y-80753977D01*
X185167088Y-80795059D01*
X185146848Y-80832924D01*
X185119612Y-80866112D01*
X185086424Y-80893348D01*
X185048559Y-80913588D01*
X185007477Y-80926050D01*
X184962296Y-80930500D01*
X184353704Y-80930500D01*
X184308523Y-80926050D01*
X184267441Y-80913588D01*
X184229576Y-80893348D01*
X184196388Y-80866112D01*
X184169152Y-80832924D01*
X184148912Y-80795059D01*
X184136450Y-80753977D01*
X184132000Y-80708796D01*
X184132000Y-80175204D01*
X184136450Y-80130023D01*
X184148912Y-80088941D01*
X184169152Y-80051076D01*
X184196388Y-80017888D01*
X184229576Y-79990652D01*
X184267441Y-79970412D01*
X184308523Y-79957950D01*
X184353704Y-79953500D01*
X184962296Y-79953500D01*
X185007477Y-79957950D01*
G37*
G36*
X178672426Y-78859313D02*
G01*
X178824812Y-78889624D01*
X178988784Y-78957544D01*
X179136354Y-79056147D01*
X179261853Y-79181646D01*
X179360456Y-79329216D01*
X179428376Y-79493188D01*
X179463000Y-79667259D01*
X179463000Y-79844741D01*
X179428376Y-80018812D01*
X179360456Y-80182784D01*
X179261853Y-80330354D01*
X179136354Y-80455853D01*
X178988784Y-80554456D01*
X178824812Y-80622376D01*
X178672426Y-80652687D01*
X178650742Y-80657000D01*
X178473258Y-80657000D01*
X178451574Y-80652687D01*
X178299188Y-80622376D01*
X178135216Y-80554456D01*
X177987646Y-80455853D01*
X177862147Y-80330354D01*
X177763544Y-80182784D01*
X177695624Y-80018812D01*
X177661000Y-79844741D01*
X177661000Y-79667259D01*
X177695624Y-79493188D01*
X177763544Y-79329216D01*
X177862147Y-79181646D01*
X177987646Y-79056147D01*
X178135216Y-78957544D01*
X178299188Y-78889624D01*
X178451574Y-78859313D01*
X178473258Y-78855000D01*
X178650742Y-78855000D01*
X178672426Y-78859313D01*
G37*
G36*
X183242977Y-79234450D02*
G01*
X183284059Y-79246912D01*
X183321924Y-79267152D01*
X183355112Y-79294388D01*
X183382348Y-79327576D01*
X183402588Y-79365441D01*
X183415050Y-79406523D01*
X183419500Y-79451704D01*
X183419500Y-80060296D01*
X183415050Y-80105477D01*
X183402588Y-80146559D01*
X183382348Y-80184424D01*
X183355112Y-80217612D01*
X183321924Y-80244848D01*
X183284059Y-80265088D01*
X183242977Y-80277550D01*
X183197796Y-80282000D01*
X182664204Y-80282000D01*
X182619023Y-80277550D01*
X182577941Y-80265088D01*
X182540076Y-80244848D01*
X182506888Y-80217612D01*
X182479652Y-80184424D01*
X182459412Y-80146559D01*
X182446950Y-80105477D01*
X182442500Y-80060296D01*
X182442500Y-79451704D01*
X182446950Y-79406523D01*
X182459412Y-79365441D01*
X182479652Y-79327576D01*
X182506888Y-79294388D01*
X182540076Y-79267152D01*
X182577941Y-79246912D01*
X182619023Y-79234450D01*
X182664204Y-79230000D01*
X183197796Y-79230000D01*
X183242977Y-79234450D01*
G37*
G36*
X181667977Y-79234450D02*
G01*
X181709059Y-79246912D01*
X181746924Y-79267152D01*
X181780112Y-79294388D01*
X181807348Y-79327576D01*
X181827588Y-79365441D01*
X181840050Y-79406523D01*
X181844500Y-79451704D01*
X181844500Y-80060296D01*
X181840050Y-80105477D01*
X181827588Y-80146559D01*
X181807348Y-80184424D01*
X181780112Y-80217612D01*
X181746924Y-80244848D01*
X181709059Y-80265088D01*
X181667977Y-80277550D01*
X181622796Y-80282000D01*
X181089204Y-80282000D01*
X181044023Y-80277550D01*
X181002941Y-80265088D01*
X180965076Y-80244848D01*
X180931888Y-80217612D01*
X180904652Y-80184424D01*
X180884412Y-80146559D01*
X180871950Y-80105477D01*
X180867500Y-80060296D01*
X180867500Y-79451704D01*
X180871950Y-79406523D01*
X180884412Y-79365441D01*
X180904652Y-79327576D01*
X180931888Y-79294388D01*
X180965076Y-79267152D01*
X181002941Y-79246912D01*
X181044023Y-79234450D01*
X181089204Y-79230000D01*
X181622796Y-79230000D01*
X181667977Y-79234450D01*
G37*
G36*
X148348000Y-80022000D02*
G01*
X146546000Y-80022000D01*
X146546000Y-78220000D01*
X148348000Y-78220000D01*
X148348000Y-80022000D01*
G37*
G36*
X185007477Y-78382950D02*
G01*
X185048559Y-78395412D01*
X185086424Y-78415652D01*
X185119612Y-78442888D01*
X185146848Y-78476076D01*
X185167088Y-78513941D01*
X185179550Y-78555023D01*
X185184000Y-78600204D01*
X185184000Y-79133796D01*
X185179550Y-79178977D01*
X185167088Y-79220059D01*
X185146848Y-79257924D01*
X185119612Y-79291112D01*
X185086424Y-79318348D01*
X185048559Y-79338588D01*
X185007477Y-79351050D01*
X184962296Y-79355500D01*
X184353704Y-79355500D01*
X184308523Y-79351050D01*
X184267441Y-79338588D01*
X184229576Y-79318348D01*
X184196388Y-79291112D01*
X184169152Y-79257924D01*
X184148912Y-79220059D01*
X184136450Y-79178977D01*
X184132000Y-79133796D01*
X184132000Y-78600204D01*
X184136450Y-78555023D01*
X184148912Y-78513941D01*
X184169152Y-78476076D01*
X184196388Y-78442888D01*
X184229576Y-78415652D01*
X184267441Y-78395412D01*
X184308523Y-78382950D01*
X184353704Y-78378500D01*
X184962296Y-78378500D01*
X185007477Y-78382950D01*
G37*
G36*
X178666769Y-76318188D02*
G01*
X178824812Y-76349624D01*
X178988784Y-76417544D01*
X179136354Y-76516147D01*
X179261853Y-76641646D01*
X179360456Y-76789216D01*
X179428376Y-76953188D01*
X179463000Y-77127259D01*
X179463000Y-77304741D01*
X179428376Y-77478812D01*
X179360456Y-77642784D01*
X179261853Y-77790354D01*
X179136354Y-77915853D01*
X178988784Y-78014456D01*
X178824812Y-78082376D01*
X178672426Y-78112687D01*
X178650742Y-78117000D01*
X178473258Y-78117000D01*
X178451574Y-78112687D01*
X178299188Y-78082376D01*
X178135216Y-78014456D01*
X177987646Y-77915853D01*
X177862147Y-77790354D01*
X177763544Y-77642784D01*
X177695624Y-77478812D01*
X177661000Y-77304741D01*
X177661000Y-77127259D01*
X177695624Y-76953188D01*
X177763544Y-76789216D01*
X177862147Y-76641646D01*
X177987646Y-76516147D01*
X178135216Y-76417544D01*
X178299188Y-76349624D01*
X178457231Y-76318188D01*
X178473258Y-76315000D01*
X178650742Y-76315000D01*
X178666769Y-76318188D01*
G37*
G36*
X183318977Y-76694450D02*
G01*
X183360059Y-76706912D01*
X183397924Y-76727152D01*
X183431112Y-76754388D01*
X183458348Y-76787576D01*
X183478588Y-76825441D01*
X183491050Y-76866523D01*
X183495500Y-76911704D01*
X183495500Y-77520296D01*
X183491050Y-77565477D01*
X183478588Y-77606559D01*
X183458348Y-77644424D01*
X183431112Y-77677612D01*
X183397924Y-77704848D01*
X183360059Y-77725088D01*
X183318977Y-77737550D01*
X183273796Y-77742000D01*
X182740204Y-77742000D01*
X182695023Y-77737550D01*
X182653941Y-77725088D01*
X182616076Y-77704848D01*
X182582888Y-77677612D01*
X182555652Y-77644424D01*
X182535412Y-77606559D01*
X182522950Y-77565477D01*
X182518500Y-77520296D01*
X182518500Y-76911704D01*
X182522950Y-76866523D01*
X182535412Y-76825441D01*
X182555652Y-76787576D01*
X182582888Y-76754388D01*
X182616076Y-76727152D01*
X182653941Y-76706912D01*
X182695023Y-76694450D01*
X182740204Y-76690000D01*
X183273796Y-76690000D01*
X183318977Y-76694450D01*
G37*
G36*
X181743977Y-76694450D02*
G01*
X181785059Y-76706912D01*
X181822924Y-76727152D01*
X181856112Y-76754388D01*
X181883348Y-76787576D01*
X181903588Y-76825441D01*
X181916050Y-76866523D01*
X181920500Y-76911704D01*
X181920500Y-77520296D01*
X181916050Y-77565477D01*
X181903588Y-77606559D01*
X181883348Y-77644424D01*
X181856112Y-77677612D01*
X181822924Y-77704848D01*
X181785059Y-77725088D01*
X181743977Y-77737550D01*
X181698796Y-77742000D01*
X181165204Y-77742000D01*
X181120023Y-77737550D01*
X181078941Y-77725088D01*
X181041076Y-77704848D01*
X181007888Y-77677612D01*
X180980652Y-77644424D01*
X180960412Y-77606559D01*
X180947950Y-77565477D01*
X180943500Y-77520296D01*
X180943500Y-76911704D01*
X180947950Y-76866523D01*
X180960412Y-76825441D01*
X180980652Y-76787576D01*
X181007888Y-76754388D01*
X181041076Y-76727152D01*
X181078941Y-76706912D01*
X181120023Y-76694450D01*
X181165204Y-76690000D01*
X181698796Y-76690000D01*
X181743977Y-76694450D01*
G37*
G36*
X147557426Y-75684313D02*
G01*
X147709812Y-75714624D01*
X147873784Y-75782544D01*
X148021354Y-75881147D01*
X148146853Y-76006646D01*
X148245456Y-76154216D01*
X148313376Y-76318188D01*
X148348000Y-76492259D01*
X148348000Y-76669741D01*
X148313376Y-76843812D01*
X148245456Y-77007784D01*
X148146853Y-77155354D01*
X148021354Y-77280853D01*
X147873784Y-77379456D01*
X147709812Y-77447376D01*
X147557426Y-77477687D01*
X147535742Y-77482000D01*
X147358258Y-77482000D01*
X147336574Y-77477687D01*
X147184188Y-77447376D01*
X147020216Y-77379456D01*
X146872646Y-77280853D01*
X146747147Y-77155354D01*
X146648544Y-77007784D01*
X146580624Y-76843812D01*
X146546000Y-76669741D01*
X146546000Y-76492259D01*
X146580624Y-76318188D01*
X146648544Y-76154216D01*
X146747147Y-76006646D01*
X146872646Y-75881147D01*
X147020216Y-75782544D01*
X147184188Y-75714624D01*
X147336574Y-75684313D01*
X147358258Y-75680000D01*
X147535742Y-75680000D01*
X147557426Y-75684313D01*
G37*
G36*
X185007477Y-75893950D02*
G01*
X185048559Y-75906412D01*
X185086424Y-75926652D01*
X185119612Y-75953888D01*
X185146848Y-75987076D01*
X185167088Y-76024941D01*
X185179550Y-76066023D01*
X185184000Y-76111204D01*
X185184000Y-76644796D01*
X185179550Y-76689977D01*
X185167088Y-76731059D01*
X185146848Y-76768924D01*
X185119612Y-76802112D01*
X185086424Y-76829348D01*
X185048559Y-76849588D01*
X185007477Y-76862050D01*
X184962296Y-76866500D01*
X184353704Y-76866500D01*
X184308523Y-76862050D01*
X184267441Y-76849588D01*
X184229576Y-76829348D01*
X184196388Y-76802112D01*
X184169152Y-76768924D01*
X184148912Y-76731059D01*
X184136450Y-76689977D01*
X184132000Y-76644796D01*
X184132000Y-76111204D01*
X184136450Y-76066023D01*
X184148912Y-76024941D01*
X184169152Y-75987076D01*
X184196388Y-75953888D01*
X184229576Y-75926652D01*
X184267441Y-75906412D01*
X184308523Y-75893950D01*
X184353704Y-75889500D01*
X184962296Y-75889500D01*
X185007477Y-75893950D01*
G37*
G36*
X178666769Y-73778188D02*
G01*
X178824812Y-73809624D01*
X178988784Y-73877544D01*
X179136354Y-73976147D01*
X179261853Y-74101646D01*
X179360456Y-74249216D01*
X179428376Y-74413188D01*
X179463000Y-74587259D01*
X179463000Y-74764741D01*
X179428376Y-74938812D01*
X179360456Y-75102784D01*
X179261853Y-75250354D01*
X179136354Y-75375853D01*
X178988784Y-75474456D01*
X178824812Y-75542376D01*
X178672426Y-75572687D01*
X178650742Y-75577000D01*
X178473258Y-75577000D01*
X178451574Y-75572687D01*
X178299188Y-75542376D01*
X178135216Y-75474456D01*
X177987646Y-75375853D01*
X177862147Y-75250354D01*
X177763544Y-75102784D01*
X177695624Y-74938812D01*
X177661000Y-74764741D01*
X177661000Y-74587259D01*
X177695624Y-74413188D01*
X177763544Y-74249216D01*
X177862147Y-74101646D01*
X177987646Y-73976147D01*
X178135216Y-73877544D01*
X178299188Y-73809624D01*
X178457231Y-73778188D01*
X178473258Y-73775000D01*
X178650742Y-73775000D01*
X178666769Y-73778188D01*
G37*
G36*
X181667977Y-74281450D02*
G01*
X181709059Y-74293912D01*
X181746924Y-74314152D01*
X181780112Y-74341388D01*
X181807348Y-74374576D01*
X181827588Y-74412441D01*
X181840050Y-74453523D01*
X181844500Y-74498704D01*
X181844500Y-75107296D01*
X181840050Y-75152477D01*
X181827588Y-75193559D01*
X181807348Y-75231424D01*
X181780112Y-75264612D01*
X181746924Y-75291848D01*
X181709059Y-75312088D01*
X181667977Y-75324550D01*
X181622796Y-75329000D01*
X181089204Y-75329000D01*
X181044023Y-75324550D01*
X181002941Y-75312088D01*
X180965076Y-75291848D01*
X180931888Y-75264612D01*
X180904652Y-75231424D01*
X180884412Y-75193559D01*
X180871950Y-75152477D01*
X180867500Y-75107296D01*
X180867500Y-74498704D01*
X180871950Y-74453523D01*
X180884412Y-74412441D01*
X180904652Y-74374576D01*
X180931888Y-74341388D01*
X180965076Y-74314152D01*
X181002941Y-74293912D01*
X181044023Y-74281450D01*
X181089204Y-74277000D01*
X181622796Y-74277000D01*
X181667977Y-74281450D01*
G37*
G36*
X183242977Y-74281450D02*
G01*
X183284059Y-74293912D01*
X183321924Y-74314152D01*
X183355112Y-74341388D01*
X183382348Y-74374576D01*
X183402588Y-74412441D01*
X183415050Y-74453523D01*
X183419500Y-74498704D01*
X183419500Y-75107296D01*
X183415050Y-75152477D01*
X183402588Y-75193559D01*
X183382348Y-75231424D01*
X183355112Y-75264612D01*
X183321924Y-75291848D01*
X183284059Y-75312088D01*
X183242977Y-75324550D01*
X183197796Y-75329000D01*
X182664204Y-75329000D01*
X182619023Y-75324550D01*
X182577941Y-75312088D01*
X182540076Y-75291848D01*
X182506888Y-75264612D01*
X182479652Y-75231424D01*
X182459412Y-75193559D01*
X182446950Y-75152477D01*
X182442500Y-75107296D01*
X182442500Y-74498704D01*
X182446950Y-74453523D01*
X182459412Y-74412441D01*
X182479652Y-74374576D01*
X182506888Y-74341388D01*
X182540076Y-74314152D01*
X182577941Y-74293912D01*
X182619023Y-74281450D01*
X182664204Y-74277000D01*
X183197796Y-74277000D01*
X183242977Y-74281450D01*
G37*
G36*
X185007477Y-74318950D02*
G01*
X185048559Y-74331412D01*
X185086424Y-74351652D01*
X185119612Y-74378888D01*
X185146848Y-74412076D01*
X185167088Y-74449941D01*
X185179550Y-74491023D01*
X185184000Y-74536204D01*
X185184000Y-75069796D01*
X185179550Y-75114977D01*
X185167088Y-75156059D01*
X185146848Y-75193924D01*
X185119612Y-75227112D01*
X185086424Y-75254348D01*
X185048559Y-75274588D01*
X185007477Y-75287050D01*
X184962296Y-75291500D01*
X184353704Y-75291500D01*
X184308523Y-75287050D01*
X184267441Y-75274588D01*
X184229576Y-75254348D01*
X184196388Y-75227112D01*
X184169152Y-75193924D01*
X184148912Y-75156059D01*
X184136450Y-75114977D01*
X184132000Y-75069796D01*
X184132000Y-74536204D01*
X184136450Y-74491023D01*
X184148912Y-74449941D01*
X184169152Y-74412076D01*
X184196388Y-74378888D01*
X184229576Y-74351652D01*
X184267441Y-74331412D01*
X184308523Y-74318950D01*
X184353704Y-74314500D01*
X184962296Y-74314500D01*
X185007477Y-74318950D01*
G37*
G36*
X147557426Y-73144313D02*
G01*
X147709812Y-73174624D01*
X147873784Y-73242544D01*
X148021354Y-73341147D01*
X148146853Y-73466646D01*
X148245456Y-73614216D01*
X148313376Y-73778188D01*
X148348000Y-73952259D01*
X148348000Y-74129741D01*
X148313376Y-74303812D01*
X148245456Y-74467784D01*
X148146853Y-74615354D01*
X148021354Y-74740853D01*
X147873784Y-74839456D01*
X147709812Y-74907376D01*
X147557426Y-74937687D01*
X147535742Y-74942000D01*
X147358258Y-74942000D01*
X147336574Y-74937687D01*
X147184188Y-74907376D01*
X147020216Y-74839456D01*
X146872646Y-74740853D01*
X146747147Y-74615354D01*
X146648544Y-74467784D01*
X146580624Y-74303812D01*
X146546000Y-74129741D01*
X146546000Y-73952259D01*
X146580624Y-73778188D01*
X146648544Y-73614216D01*
X146747147Y-73466646D01*
X146872646Y-73341147D01*
X147020216Y-73242544D01*
X147184188Y-73174624D01*
X147336574Y-73144313D01*
X147358258Y-73140000D01*
X147535742Y-73140000D01*
X147557426Y-73144313D01*
G37*
G36*
X147557426Y-70604313D02*
G01*
X147709812Y-70634624D01*
X147873784Y-70702544D01*
X148021354Y-70801147D01*
X148146853Y-70926646D01*
X148245456Y-71074216D01*
X148313376Y-71238188D01*
X148348000Y-71412259D01*
X148348000Y-71589741D01*
X148313376Y-71763812D01*
X148245456Y-71927784D01*
X148146853Y-72075354D01*
X148021354Y-72200853D01*
X147873784Y-72299456D01*
X147709812Y-72367376D01*
X147557426Y-72397687D01*
X147535742Y-72402000D01*
X147358258Y-72402000D01*
X147336574Y-72397687D01*
X147184188Y-72367376D01*
X147020216Y-72299456D01*
X146872646Y-72200853D01*
X146747147Y-72075354D01*
X146648544Y-71927784D01*
X146580624Y-71763812D01*
X146546000Y-71589741D01*
X146546000Y-71412259D01*
X146580624Y-71238188D01*
X146648544Y-71074216D01*
X146747147Y-70926646D01*
X146872646Y-70801147D01*
X147020216Y-70702544D01*
X147184188Y-70634624D01*
X147336574Y-70604313D01*
X147358258Y-70600000D01*
X147535742Y-70600000D01*
X147557426Y-70604313D01*
G37*
G36*
X152002426Y-69588313D02*
G01*
X152154812Y-69618624D01*
X152318784Y-69686544D01*
X152466354Y-69785147D01*
X152591853Y-69910646D01*
X152690456Y-70058216D01*
X152758376Y-70222188D01*
X152793000Y-70396259D01*
X152793000Y-70573741D01*
X152758376Y-70747812D01*
X152690456Y-70911784D01*
X152591853Y-71059354D01*
X152466354Y-71184853D01*
X152318784Y-71283456D01*
X152154812Y-71351376D01*
X152002426Y-71381687D01*
X151980742Y-71386000D01*
X151803258Y-71386000D01*
X151781574Y-71381687D01*
X151629188Y-71351376D01*
X151465216Y-71283456D01*
X151317646Y-71184853D01*
X151192147Y-71059354D01*
X151093544Y-70911784D01*
X151025624Y-70747812D01*
X150991000Y-70573741D01*
X150991000Y-70396259D01*
X151025624Y-70222188D01*
X151093544Y-70058216D01*
X151192147Y-69910646D01*
X151317646Y-69785147D01*
X151465216Y-69686544D01*
X151629188Y-69618624D01*
X151781574Y-69588313D01*
X151803258Y-69584000D01*
X151980742Y-69584000D01*
X152002426Y-69588313D01*
G37*
G36*
X154542426Y-69588313D02*
G01*
X154694812Y-69618624D01*
X154858784Y-69686544D01*
X155006354Y-69785147D01*
X155131853Y-69910646D01*
X155230456Y-70058216D01*
X155298376Y-70222188D01*
X155333000Y-70396259D01*
X155333000Y-70573741D01*
X155298376Y-70747812D01*
X155230456Y-70911784D01*
X155131853Y-71059354D01*
X155006354Y-71184853D01*
X154858784Y-71283456D01*
X154694812Y-71351376D01*
X154542426Y-71381687D01*
X154520742Y-71386000D01*
X154343258Y-71386000D01*
X154321574Y-71381687D01*
X154169188Y-71351376D01*
X154005216Y-71283456D01*
X153857646Y-71184853D01*
X153732147Y-71059354D01*
X153633544Y-70911784D01*
X153565624Y-70747812D01*
X153531000Y-70573741D01*
X153531000Y-70396259D01*
X153565624Y-70222188D01*
X153633544Y-70058216D01*
X153732147Y-69910646D01*
X153857646Y-69785147D01*
X154005216Y-69686544D01*
X154169188Y-69618624D01*
X154321574Y-69588313D01*
X154343258Y-69584000D01*
X154520742Y-69584000D01*
X154542426Y-69588313D01*
G37*
G36*
X165493000Y-71386000D02*
G01*
X163691000Y-71386000D01*
X163691000Y-69584000D01*
X165493000Y-69584000D01*
X165493000Y-71386000D01*
G37*
G36*
X159622426Y-69588313D02*
G01*
X159774812Y-69618624D01*
X159938784Y-69686544D01*
X160086354Y-69785147D01*
X160211853Y-69910646D01*
X160310456Y-70058216D01*
X160378376Y-70222188D01*
X160413000Y-70396259D01*
X160413000Y-70573741D01*
X160378376Y-70747812D01*
X160310456Y-70911784D01*
X160211853Y-71059354D01*
X160086354Y-71184853D01*
X159938784Y-71283456D01*
X159774812Y-71351376D01*
X159622426Y-71381687D01*
X159600742Y-71386000D01*
X159423258Y-71386000D01*
X159401574Y-71381687D01*
X159249188Y-71351376D01*
X159085216Y-71283456D01*
X158937646Y-71184853D01*
X158812147Y-71059354D01*
X158713544Y-70911784D01*
X158645624Y-70747812D01*
X158611000Y-70573741D01*
X158611000Y-70396259D01*
X158645624Y-70222188D01*
X158713544Y-70058216D01*
X158812147Y-69910646D01*
X158937646Y-69785147D01*
X159085216Y-69686544D01*
X159249188Y-69618624D01*
X159401574Y-69588313D01*
X159423258Y-69584000D01*
X159600742Y-69584000D01*
X159622426Y-69588313D01*
G37*
G36*
X157082426Y-69588313D02*
G01*
X157234812Y-69618624D01*
X157398784Y-69686544D01*
X157546354Y-69785147D01*
X157671853Y-69910646D01*
X157770456Y-70058216D01*
X157838376Y-70222188D01*
X157873000Y-70396259D01*
X157873000Y-70573741D01*
X157838376Y-70747812D01*
X157770456Y-70911784D01*
X157671853Y-71059354D01*
X157546354Y-71184853D01*
X157398784Y-71283456D01*
X157234812Y-71351376D01*
X157082426Y-71381687D01*
X157060742Y-71386000D01*
X156883258Y-71386000D01*
X156861574Y-71381687D01*
X156709188Y-71351376D01*
X156545216Y-71283456D01*
X156397646Y-71184853D01*
X156272147Y-71059354D01*
X156173544Y-70911784D01*
X156105624Y-70747812D01*
X156071000Y-70573741D01*
X156071000Y-70396259D01*
X156105624Y-70222188D01*
X156173544Y-70058216D01*
X156272147Y-69910646D01*
X156397646Y-69785147D01*
X156545216Y-69686544D01*
X156709188Y-69618624D01*
X156861574Y-69588313D01*
X156883258Y-69584000D01*
X157060742Y-69584000D01*
X157082426Y-69588313D01*
G37*
G36*
X162162426Y-69588313D02*
G01*
X162314812Y-69618624D01*
X162478784Y-69686544D01*
X162626354Y-69785147D01*
X162751853Y-69910646D01*
X162850456Y-70058216D01*
X162918376Y-70222188D01*
X162953000Y-70396259D01*
X162953000Y-70573741D01*
X162918376Y-70747812D01*
X162850456Y-70911784D01*
X162751853Y-71059354D01*
X162626354Y-71184853D01*
X162478784Y-71283456D01*
X162314812Y-71351376D01*
X162162426Y-71381687D01*
X162140742Y-71386000D01*
X161963258Y-71386000D01*
X161941574Y-71381687D01*
X161789188Y-71351376D01*
X161625216Y-71283456D01*
X161477646Y-71184853D01*
X161352147Y-71059354D01*
X161253544Y-70911784D01*
X161185624Y-70747812D01*
X161151000Y-70573741D01*
X161151000Y-70396259D01*
X161185624Y-70222188D01*
X161253544Y-70058216D01*
X161352147Y-69910646D01*
X161477646Y-69785147D01*
X161625216Y-69686544D01*
X161789188Y-69618624D01*
X161941574Y-69588313D01*
X161963258Y-69584000D01*
X162140742Y-69584000D01*
X162162426Y-69588313D01*
G37*
G36*
X178799426Y-69461313D02*
G01*
X178951812Y-69491624D01*
X179115784Y-69559544D01*
X179263354Y-69658147D01*
X179388853Y-69783646D01*
X179487456Y-69931216D01*
X179555376Y-70095188D01*
X179590000Y-70269259D01*
X179590000Y-70446741D01*
X179555376Y-70620812D01*
X179487456Y-70784784D01*
X179388853Y-70932354D01*
X179263354Y-71057853D01*
X179115784Y-71156456D01*
X178951812Y-71224376D01*
X178799426Y-71254687D01*
X178777742Y-71259000D01*
X178600258Y-71259000D01*
X178578574Y-71254687D01*
X178426188Y-71224376D01*
X178262216Y-71156456D01*
X178114646Y-71057853D01*
X177989147Y-70932354D01*
X177890544Y-70784784D01*
X177822624Y-70620812D01*
X177788000Y-70446741D01*
X177788000Y-70269259D01*
X177822624Y-70095188D01*
X177890544Y-69931216D01*
X177989147Y-69783646D01*
X178114646Y-69658147D01*
X178262216Y-69559544D01*
X178426188Y-69491624D01*
X178578574Y-69461313D01*
X178600258Y-69457000D01*
X178777742Y-69457000D01*
X178799426Y-69461313D01*
G37*
G36*
X176259426Y-69461313D02*
G01*
X176411812Y-69491624D01*
X176575784Y-69559544D01*
X176723354Y-69658147D01*
X176848853Y-69783646D01*
X176947456Y-69931216D01*
X177015376Y-70095188D01*
X177050000Y-70269259D01*
X177050000Y-70446741D01*
X177015376Y-70620812D01*
X176947456Y-70784784D01*
X176848853Y-70932354D01*
X176723354Y-71057853D01*
X176575784Y-71156456D01*
X176411812Y-71224376D01*
X176259426Y-71254687D01*
X176237742Y-71259000D01*
X176060258Y-71259000D01*
X176038574Y-71254687D01*
X175886188Y-71224376D01*
X175722216Y-71156456D01*
X175574646Y-71057853D01*
X175449147Y-70932354D01*
X175350544Y-70784784D01*
X175282624Y-70620812D01*
X175248000Y-70446741D01*
X175248000Y-70269259D01*
X175282624Y-70095188D01*
X175350544Y-69931216D01*
X175449147Y-69783646D01*
X175574646Y-69658147D01*
X175722216Y-69559544D01*
X175886188Y-69491624D01*
X176038574Y-69461313D01*
X176060258Y-69457000D01*
X176237742Y-69457000D01*
X176259426Y-69461313D01*
G37*
G36*
X173719426Y-69461313D02*
G01*
X173871812Y-69491624D01*
X174035784Y-69559544D01*
X174183354Y-69658147D01*
X174308853Y-69783646D01*
X174407456Y-69931216D01*
X174475376Y-70095188D01*
X174510000Y-70269259D01*
X174510000Y-70446741D01*
X174475376Y-70620812D01*
X174407456Y-70784784D01*
X174308853Y-70932354D01*
X174183354Y-71057853D01*
X174035784Y-71156456D01*
X173871812Y-71224376D01*
X173719426Y-71254687D01*
X173697742Y-71259000D01*
X173520258Y-71259000D01*
X173498574Y-71254687D01*
X173346188Y-71224376D01*
X173182216Y-71156456D01*
X173034646Y-71057853D01*
X172909147Y-70932354D01*
X172810544Y-70784784D01*
X172742624Y-70620812D01*
X172708000Y-70446741D01*
X172708000Y-70269259D01*
X172742624Y-70095188D01*
X172810544Y-69931216D01*
X172909147Y-69783646D01*
X173034646Y-69658147D01*
X173182216Y-69559544D01*
X173346188Y-69491624D01*
X173498574Y-69461313D01*
X173520258Y-69457000D01*
X173697742Y-69457000D01*
X173719426Y-69461313D01*
G37*
G36*
X171179426Y-69461313D02*
G01*
X171331812Y-69491624D01*
X171495784Y-69559544D01*
X171643354Y-69658147D01*
X171768853Y-69783646D01*
X171867456Y-69931216D01*
X171935376Y-70095188D01*
X171970000Y-70269259D01*
X171970000Y-70446741D01*
X171935376Y-70620812D01*
X171867456Y-70784784D01*
X171768853Y-70932354D01*
X171643354Y-71057853D01*
X171495784Y-71156456D01*
X171331812Y-71224376D01*
X171179426Y-71254687D01*
X171157742Y-71259000D01*
X170980258Y-71259000D01*
X170958574Y-71254687D01*
X170806188Y-71224376D01*
X170642216Y-71156456D01*
X170494646Y-71057853D01*
X170369147Y-70932354D01*
X170270544Y-70784784D01*
X170202624Y-70620812D01*
X170168000Y-70446741D01*
X170168000Y-70269259D01*
X170202624Y-70095188D01*
X170270544Y-69931216D01*
X170369147Y-69783646D01*
X170494646Y-69658147D01*
X170642216Y-69559544D01*
X170806188Y-69491624D01*
X170958574Y-69461313D01*
X170980258Y-69457000D01*
X171157742Y-69457000D01*
X171179426Y-69461313D01*
G37*
G36*
X168639426Y-69461313D02*
G01*
X168791812Y-69491624D01*
X168955784Y-69559544D01*
X169103354Y-69658147D01*
X169228853Y-69783646D01*
X169327456Y-69931216D01*
X169395376Y-70095188D01*
X169430000Y-70269259D01*
X169430000Y-70446741D01*
X169395376Y-70620812D01*
X169327456Y-70784784D01*
X169228853Y-70932354D01*
X169103354Y-71057853D01*
X168955784Y-71156456D01*
X168791812Y-71224376D01*
X168639426Y-71254687D01*
X168617742Y-71259000D01*
X168440258Y-71259000D01*
X168418574Y-71254687D01*
X168266188Y-71224376D01*
X168102216Y-71156456D01*
X167954646Y-71057853D01*
X167829147Y-70932354D01*
X167730544Y-70784784D01*
X167662624Y-70620812D01*
X167628000Y-70446741D01*
X167628000Y-70269259D01*
X167662624Y-70095188D01*
X167730544Y-69931216D01*
X167829147Y-69783646D01*
X167954646Y-69658147D01*
X168102216Y-69559544D01*
X168266188Y-69491624D01*
X168418574Y-69461313D01*
X168440258Y-69457000D01*
X168617742Y-69457000D01*
X168639426Y-69461313D01*
G37*
G36*
X182130000Y-71259000D02*
G01*
X180328000Y-71259000D01*
X180328000Y-69457000D01*
X182130000Y-69457000D01*
X182130000Y-71259000D01*
G37*
G36*
X147557426Y-68064313D02*
G01*
X147709812Y-68094624D01*
X147873784Y-68162544D01*
X148021354Y-68261147D01*
X148146853Y-68386646D01*
X148245456Y-68534216D01*
X148313376Y-68698188D01*
X148348000Y-68872259D01*
X148348000Y-69049741D01*
X148313376Y-69223812D01*
X148245456Y-69387784D01*
X148146853Y-69535354D01*
X148021354Y-69660853D01*
X147873784Y-69759456D01*
X147709812Y-69827376D01*
X147557426Y-69857687D01*
X147535742Y-69862000D01*
X147358258Y-69862000D01*
X147336574Y-69857687D01*
X147184188Y-69827376D01*
X147020216Y-69759456D01*
X146872646Y-69660853D01*
X146747147Y-69535354D01*
X146648544Y-69387784D01*
X146580624Y-69223812D01*
X146546000Y-69049741D01*
X146546000Y-68872259D01*
X146580624Y-68698188D01*
X146648544Y-68534216D01*
X146747147Y-68386646D01*
X146872646Y-68261147D01*
X147020216Y-68162544D01*
X147184188Y-68094624D01*
X147336574Y-68064313D01*
X147358258Y-68060000D01*
X147535742Y-68060000D01*
X147557426Y-68064313D01*
G37*
G36*
X147557426Y-65524313D02*
G01*
X147709812Y-65554624D01*
X147873784Y-65622544D01*
X148021354Y-65721147D01*
X148146853Y-65846646D01*
X148245456Y-65994216D01*
X148313376Y-66158188D01*
X148348000Y-66332259D01*
X148348000Y-66509741D01*
X148313376Y-66683812D01*
X148245456Y-66847784D01*
X148146853Y-66995354D01*
X148021354Y-67120853D01*
X147873784Y-67219456D01*
X147709812Y-67287376D01*
X147557426Y-67317687D01*
X147535742Y-67322000D01*
X147358258Y-67322000D01*
X147336574Y-67317687D01*
X147184188Y-67287376D01*
X147020216Y-67219456D01*
X146872646Y-67120853D01*
X146747147Y-66995354D01*
X146648544Y-66847784D01*
X146580624Y-66683812D01*
X146546000Y-66509741D01*
X146546000Y-66332259D01*
X146580624Y-66158188D01*
X146648544Y-65994216D01*
X146747147Y-65846646D01*
X146872646Y-65721147D01*
X147020216Y-65622544D01*
X147184188Y-65554624D01*
X147336574Y-65524313D01*
X147358258Y-65520000D01*
X147535742Y-65520000D01*
X147557426Y-65524313D01*
G37*
G36*
X163588000Y-66560000D02*
G01*
X161786000Y-66560000D01*
X161786000Y-64758000D01*
X163588000Y-64758000D01*
X163588000Y-66560000D01*
G37*
G36*
X170417426Y-64762313D02*
G01*
X170569812Y-64792624D01*
X170733784Y-64860544D01*
X170881354Y-64959147D01*
X171006853Y-65084646D01*
X171105456Y-65232216D01*
X171173376Y-65396188D01*
X171208000Y-65570259D01*
X171208000Y-65747741D01*
X171173376Y-65921812D01*
X171105456Y-66085784D01*
X171006853Y-66233354D01*
X170881354Y-66358853D01*
X170733784Y-66457456D01*
X170569812Y-66525376D01*
X170417426Y-66555687D01*
X170395742Y-66560000D01*
X170218258Y-66560000D01*
X170196574Y-66555687D01*
X170044188Y-66525376D01*
X169880216Y-66457456D01*
X169732646Y-66358853D01*
X169607147Y-66233354D01*
X169508544Y-66085784D01*
X169440624Y-65921812D01*
X169406000Y-65747741D01*
X169406000Y-65570259D01*
X169440624Y-65396188D01*
X169508544Y-65232216D01*
X169607147Y-65084646D01*
X169732646Y-64959147D01*
X169880216Y-64860544D01*
X170044188Y-64792624D01*
X170196574Y-64762313D01*
X170218258Y-64758000D01*
X170395742Y-64758000D01*
X170417426Y-64762313D01*
G37*
G36*
X167877426Y-64762313D02*
G01*
X168029812Y-64792624D01*
X168193784Y-64860544D01*
X168341354Y-64959147D01*
X168466853Y-65084646D01*
X168565456Y-65232216D01*
X168633376Y-65396188D01*
X168668000Y-65570259D01*
X168668000Y-65747741D01*
X168633376Y-65921812D01*
X168565456Y-66085784D01*
X168466853Y-66233354D01*
X168341354Y-66358853D01*
X168193784Y-66457456D01*
X168029812Y-66525376D01*
X167877426Y-66555687D01*
X167855742Y-66560000D01*
X167678258Y-66560000D01*
X167656574Y-66555687D01*
X167504188Y-66525376D01*
X167340216Y-66457456D01*
X167192646Y-66358853D01*
X167067147Y-66233354D01*
X166968544Y-66085784D01*
X166900624Y-65921812D01*
X166866000Y-65747741D01*
X166866000Y-65570259D01*
X166900624Y-65396188D01*
X166968544Y-65232216D01*
X167067147Y-65084646D01*
X167192646Y-64959147D01*
X167340216Y-64860544D01*
X167504188Y-64792624D01*
X167656574Y-64762313D01*
X167678258Y-64758000D01*
X167855742Y-64758000D01*
X167877426Y-64762313D01*
G37*
G36*
X165337426Y-64762313D02*
G01*
X165489812Y-64792624D01*
X165653784Y-64860544D01*
X165801354Y-64959147D01*
X165926853Y-65084646D01*
X166025456Y-65232216D01*
X166093376Y-65396188D01*
X166128000Y-65570259D01*
X166128000Y-65747741D01*
X166093376Y-65921812D01*
X166025456Y-66085784D01*
X165926853Y-66233354D01*
X165801354Y-66358853D01*
X165653784Y-66457456D01*
X165489812Y-66525376D01*
X165337426Y-66555687D01*
X165315742Y-66560000D01*
X165138258Y-66560000D01*
X165116574Y-66555687D01*
X164964188Y-66525376D01*
X164800216Y-66457456D01*
X164652646Y-66358853D01*
X164527147Y-66233354D01*
X164428544Y-66085784D01*
X164360624Y-65921812D01*
X164326000Y-65747741D01*
X164326000Y-65570259D01*
X164360624Y-65396188D01*
X164428544Y-65232216D01*
X164527147Y-65084646D01*
X164652646Y-64959147D01*
X164800216Y-64860544D01*
X164964188Y-64792624D01*
X165116574Y-64762313D01*
X165138258Y-64758000D01*
X165315742Y-64758000D01*
X165337426Y-64762313D01*
G37*
G36*
X158479426Y-60444313D02*
G01*
X158631812Y-60474624D01*
X158795784Y-60542544D01*
X158943354Y-60641147D01*
X159068853Y-60766646D01*
X159167456Y-60914216D01*
X159235376Y-61078188D01*
X159270000Y-61252259D01*
X159270000Y-61429741D01*
X159235376Y-61603812D01*
X159167456Y-61767784D01*
X159068853Y-61915354D01*
X158943354Y-62040853D01*
X158795784Y-62139456D01*
X158631812Y-62207376D01*
X158479426Y-62237687D01*
X158457742Y-62242000D01*
X158280258Y-62242000D01*
X158258574Y-62237687D01*
X158106188Y-62207376D01*
X157942216Y-62139456D01*
X157794646Y-62040853D01*
X157669147Y-61915354D01*
X157570544Y-61767784D01*
X157502624Y-61603812D01*
X157468000Y-61429741D01*
X157468000Y-61252259D01*
X157502624Y-61078188D01*
X157570544Y-60914216D01*
X157669147Y-60766646D01*
X157794646Y-60641147D01*
X157942216Y-60542544D01*
X158106188Y-60474624D01*
X158258574Y-60444313D01*
X158280258Y-60440000D01*
X158457742Y-60440000D01*
X158479426Y-60444313D01*
G37*
G36*
X145779426Y-60444313D02*
G01*
X145931812Y-60474624D01*
X146095784Y-60542544D01*
X146243354Y-60641147D01*
X146368853Y-60766646D01*
X146467456Y-60914216D01*
X146535376Y-61078188D01*
X146570000Y-61252259D01*
X146570000Y-61429741D01*
X146535376Y-61603812D01*
X146467456Y-61767784D01*
X146368853Y-61915354D01*
X146243354Y-62040853D01*
X146095784Y-62139456D01*
X145931812Y-62207376D01*
X145779426Y-62237687D01*
X145757742Y-62242000D01*
X145580258Y-62242000D01*
X145558574Y-62237687D01*
X145406188Y-62207376D01*
X145242216Y-62139456D01*
X145094646Y-62040853D01*
X144969147Y-61915354D01*
X144870544Y-61767784D01*
X144802624Y-61603812D01*
X144768000Y-61429741D01*
X144768000Y-61252259D01*
X144802624Y-61078188D01*
X144870544Y-60914216D01*
X144969147Y-60766646D01*
X145094646Y-60641147D01*
X145242216Y-60542544D01*
X145406188Y-60474624D01*
X145558574Y-60444313D01*
X145580258Y-60440000D01*
X145757742Y-60440000D01*
X145779426Y-60444313D01*
G37*
G36*
X148319426Y-60444313D02*
G01*
X148471812Y-60474624D01*
X148635784Y-60542544D01*
X148783354Y-60641147D01*
X148908853Y-60766646D01*
X149007456Y-60914216D01*
X149075376Y-61078188D01*
X149110000Y-61252259D01*
X149110000Y-61429741D01*
X149075376Y-61603812D01*
X149007456Y-61767784D01*
X148908853Y-61915354D01*
X148783354Y-62040853D01*
X148635784Y-62139456D01*
X148471812Y-62207376D01*
X148319426Y-62237687D01*
X148297742Y-62242000D01*
X148120258Y-62242000D01*
X148098574Y-62237687D01*
X147946188Y-62207376D01*
X147782216Y-62139456D01*
X147634646Y-62040853D01*
X147509147Y-61915354D01*
X147410544Y-61767784D01*
X147342624Y-61603812D01*
X147308000Y-61429741D01*
X147308000Y-61252259D01*
X147342624Y-61078188D01*
X147410544Y-60914216D01*
X147509147Y-60766646D01*
X147634646Y-60641147D01*
X147782216Y-60542544D01*
X147946188Y-60474624D01*
X148098574Y-60444313D01*
X148120258Y-60440000D01*
X148297742Y-60440000D01*
X148319426Y-60444313D01*
G37*
G36*
X150859426Y-60444313D02*
G01*
X151011812Y-60474624D01*
X151175784Y-60542544D01*
X151323354Y-60641147D01*
X151448853Y-60766646D01*
X151547456Y-60914216D01*
X151615376Y-61078188D01*
X151650000Y-61252259D01*
X151650000Y-61429741D01*
X151615376Y-61603812D01*
X151547456Y-61767784D01*
X151448853Y-61915354D01*
X151323354Y-62040853D01*
X151175784Y-62139456D01*
X151011812Y-62207376D01*
X150859426Y-62237687D01*
X150837742Y-62242000D01*
X150660258Y-62242000D01*
X150638574Y-62237687D01*
X150486188Y-62207376D01*
X150322216Y-62139456D01*
X150174646Y-62040853D01*
X150049147Y-61915354D01*
X149950544Y-61767784D01*
X149882624Y-61603812D01*
X149848000Y-61429741D01*
X149848000Y-61252259D01*
X149882624Y-61078188D01*
X149950544Y-60914216D01*
X150049147Y-60766646D01*
X150174646Y-60641147D01*
X150322216Y-60542544D01*
X150486188Y-60474624D01*
X150638574Y-60444313D01*
X150660258Y-60440000D01*
X150837742Y-60440000D01*
X150859426Y-60444313D01*
G37*
G36*
X153399426Y-60444313D02*
G01*
X153551812Y-60474624D01*
X153715784Y-60542544D01*
X153863354Y-60641147D01*
X153988853Y-60766646D01*
X154087456Y-60914216D01*
X154155376Y-61078188D01*
X154190000Y-61252259D01*
X154190000Y-61429741D01*
X154155376Y-61603812D01*
X154087456Y-61767784D01*
X153988853Y-61915354D01*
X153863354Y-62040853D01*
X153715784Y-62139456D01*
X153551812Y-62207376D01*
X153399426Y-62237687D01*
X153377742Y-62242000D01*
X153200258Y-62242000D01*
X153178574Y-62237687D01*
X153026188Y-62207376D01*
X152862216Y-62139456D01*
X152714646Y-62040853D01*
X152589147Y-61915354D01*
X152490544Y-61767784D01*
X152422624Y-61603812D01*
X152388000Y-61429741D01*
X152388000Y-61252259D01*
X152422624Y-61078188D01*
X152490544Y-60914216D01*
X152589147Y-60766646D01*
X152714646Y-60641147D01*
X152862216Y-60542544D01*
X153026188Y-60474624D01*
X153178574Y-60444313D01*
X153200258Y-60440000D01*
X153377742Y-60440000D01*
X153399426Y-60444313D01*
G37*
G36*
X155939426Y-60444313D02*
G01*
X156091812Y-60474624D01*
X156255784Y-60542544D01*
X156403354Y-60641147D01*
X156528853Y-60766646D01*
X156627456Y-60914216D01*
X156695376Y-61078188D01*
X156730000Y-61252259D01*
X156730000Y-61429741D01*
X156695376Y-61603812D01*
X156627456Y-61767784D01*
X156528853Y-61915354D01*
X156403354Y-62040853D01*
X156255784Y-62139456D01*
X156091812Y-62207376D01*
X155939426Y-62237687D01*
X155917742Y-62242000D01*
X155740258Y-62242000D01*
X155718574Y-62237687D01*
X155566188Y-62207376D01*
X155402216Y-62139456D01*
X155254646Y-62040853D01*
X155129147Y-61915354D01*
X155030544Y-61767784D01*
X154962624Y-61603812D01*
X154928000Y-61429741D01*
X154928000Y-61252259D01*
X154962624Y-61078188D01*
X155030544Y-60914216D01*
X155129147Y-60766646D01*
X155254646Y-60641147D01*
X155402216Y-60542544D01*
X155566188Y-60474624D01*
X155718574Y-60444313D01*
X155740258Y-60440000D01*
X155917742Y-60440000D01*
X155939426Y-60444313D01*
G37*
G36*
X170417426Y-60444313D02*
G01*
X170569812Y-60474624D01*
X170733784Y-60542544D01*
X170881354Y-60641147D01*
X171006853Y-60766646D01*
X171105456Y-60914216D01*
X171173376Y-61078188D01*
X171208000Y-61252259D01*
X171208000Y-61429741D01*
X171173376Y-61603812D01*
X171105456Y-61767784D01*
X171006853Y-61915354D01*
X170881354Y-62040853D01*
X170733784Y-62139456D01*
X170569812Y-62207376D01*
X170417426Y-62237687D01*
X170395742Y-62242000D01*
X170218258Y-62242000D01*
X170196574Y-62237687D01*
X170044188Y-62207376D01*
X169880216Y-62139456D01*
X169732646Y-62040853D01*
X169607147Y-61915354D01*
X169508544Y-61767784D01*
X169440624Y-61603812D01*
X169406000Y-61429741D01*
X169406000Y-61252259D01*
X169440624Y-61078188D01*
X169508544Y-60914216D01*
X169607147Y-60766646D01*
X169732646Y-60641147D01*
X169880216Y-60542544D01*
X170044188Y-60474624D01*
X170196574Y-60444313D01*
X170218258Y-60440000D01*
X170395742Y-60440000D01*
X170417426Y-60444313D01*
G37*
G36*
X168668000Y-62242000D02*
G01*
X166866000Y-62242000D01*
X166866000Y-60440000D01*
X168668000Y-60440000D01*
X168668000Y-62242000D01*
G37*
G36*
X161810000Y-62242000D02*
G01*
X160008000Y-62242000D01*
X160008000Y-60440000D01*
X161810000Y-60440000D01*
X161810000Y-62242000D01*
G37*
M02*
