G04 #@! TF.GenerationSoftware,KiCad,Pcbnew,5.1.5*
G04 #@! TF.CreationDate,2020-05-24T16:04:19+02:00*
G04 #@! TF.ProjectId,ATSAML22GA18A_DevBoard,41545341-4d4c-4323-9247-413138415f44,rev?*
G04 #@! TF.SameCoordinates,Original*
G04 #@! TF.FileFunction,Paste,Bot*
G04 #@! TF.FilePolarity,Positive*
%FSLAX46Y46*%
G04 Gerber Fmt 4.6, Leading zero omitted, Abs format (unit mm)*
G04 Created by KiCad (PCBNEW 5.1.5) date 2020-05-24 16:04:19*
%MOMM*%
%LPD*%
G04 APERTURE LIST*
%ADD10C,0.100000*%
G04 APERTURE END LIST*
D10*
G36*
X181697691Y-94522053D02*
G01*
X181718926Y-94525203D01*
X181739750Y-94530419D01*
X181759962Y-94537651D01*
X181779368Y-94546830D01*
X181797781Y-94557866D01*
X181815024Y-94570654D01*
X181830930Y-94585070D01*
X181845346Y-94600976D01*
X181858134Y-94618219D01*
X181869170Y-94636632D01*
X181878349Y-94656038D01*
X181885581Y-94676250D01*
X181890797Y-94697074D01*
X181893947Y-94718309D01*
X181895000Y-94739750D01*
X181895000Y-95252250D01*
X181893947Y-95273691D01*
X181890797Y-95294926D01*
X181885581Y-95315750D01*
X181878349Y-95335962D01*
X181869170Y-95355368D01*
X181858134Y-95373781D01*
X181845346Y-95391024D01*
X181830930Y-95406930D01*
X181815024Y-95421346D01*
X181797781Y-95434134D01*
X181779368Y-95445170D01*
X181759962Y-95454349D01*
X181739750Y-95461581D01*
X181718926Y-95466797D01*
X181697691Y-95469947D01*
X181676250Y-95471000D01*
X181238750Y-95471000D01*
X181217309Y-95469947D01*
X181196074Y-95466797D01*
X181175250Y-95461581D01*
X181155038Y-95454349D01*
X181135632Y-95445170D01*
X181117219Y-95434134D01*
X181099976Y-95421346D01*
X181084070Y-95406930D01*
X181069654Y-95391024D01*
X181056866Y-95373781D01*
X181045830Y-95355368D01*
X181036651Y-95335962D01*
X181029419Y-95315750D01*
X181024203Y-95294926D01*
X181021053Y-95273691D01*
X181020000Y-95252250D01*
X181020000Y-94739750D01*
X181021053Y-94718309D01*
X181024203Y-94697074D01*
X181029419Y-94676250D01*
X181036651Y-94656038D01*
X181045830Y-94636632D01*
X181056866Y-94618219D01*
X181069654Y-94600976D01*
X181084070Y-94585070D01*
X181099976Y-94570654D01*
X181117219Y-94557866D01*
X181135632Y-94546830D01*
X181155038Y-94537651D01*
X181175250Y-94530419D01*
X181196074Y-94525203D01*
X181217309Y-94522053D01*
X181238750Y-94521000D01*
X181676250Y-94521000D01*
X181697691Y-94522053D01*
G37*
G36*
X183272691Y-94522053D02*
G01*
X183293926Y-94525203D01*
X183314750Y-94530419D01*
X183334962Y-94537651D01*
X183354368Y-94546830D01*
X183372781Y-94557866D01*
X183390024Y-94570654D01*
X183405930Y-94585070D01*
X183420346Y-94600976D01*
X183433134Y-94618219D01*
X183444170Y-94636632D01*
X183453349Y-94656038D01*
X183460581Y-94676250D01*
X183465797Y-94697074D01*
X183468947Y-94718309D01*
X183470000Y-94739750D01*
X183470000Y-95252250D01*
X183468947Y-95273691D01*
X183465797Y-95294926D01*
X183460581Y-95315750D01*
X183453349Y-95335962D01*
X183444170Y-95355368D01*
X183433134Y-95373781D01*
X183420346Y-95391024D01*
X183405930Y-95406930D01*
X183390024Y-95421346D01*
X183372781Y-95434134D01*
X183354368Y-95445170D01*
X183334962Y-95454349D01*
X183314750Y-95461581D01*
X183293926Y-95466797D01*
X183272691Y-95469947D01*
X183251250Y-95471000D01*
X182813750Y-95471000D01*
X182792309Y-95469947D01*
X182771074Y-95466797D01*
X182750250Y-95461581D01*
X182730038Y-95454349D01*
X182710632Y-95445170D01*
X182692219Y-95434134D01*
X182674976Y-95421346D01*
X182659070Y-95406930D01*
X182644654Y-95391024D01*
X182631866Y-95373781D01*
X182620830Y-95355368D01*
X182611651Y-95335962D01*
X182604419Y-95315750D01*
X182599203Y-95294926D01*
X182596053Y-95273691D01*
X182595000Y-95252250D01*
X182595000Y-94739750D01*
X182596053Y-94718309D01*
X182599203Y-94697074D01*
X182604419Y-94676250D01*
X182611651Y-94656038D01*
X182620830Y-94636632D01*
X182631866Y-94618219D01*
X182644654Y-94600976D01*
X182659070Y-94585070D01*
X182674976Y-94570654D01*
X182692219Y-94557866D01*
X182710632Y-94546830D01*
X182730038Y-94537651D01*
X182750250Y-94530419D01*
X182771074Y-94525203D01*
X182792309Y-94522053D01*
X182813750Y-94521000D01*
X183251250Y-94521000D01*
X183272691Y-94522053D01*
G37*
G36*
X181723191Y-91982053D02*
G01*
X181744426Y-91985203D01*
X181765250Y-91990419D01*
X181785462Y-91997651D01*
X181804868Y-92006830D01*
X181823281Y-92017866D01*
X181840524Y-92030654D01*
X181856430Y-92045070D01*
X181870846Y-92060976D01*
X181883634Y-92078219D01*
X181894670Y-92096632D01*
X181903849Y-92116038D01*
X181911081Y-92136250D01*
X181916297Y-92157074D01*
X181919447Y-92178309D01*
X181920500Y-92199750D01*
X181920500Y-92712250D01*
X181919447Y-92733691D01*
X181916297Y-92754926D01*
X181911081Y-92775750D01*
X181903849Y-92795962D01*
X181894670Y-92815368D01*
X181883634Y-92833781D01*
X181870846Y-92851024D01*
X181856430Y-92866930D01*
X181840524Y-92881346D01*
X181823281Y-92894134D01*
X181804868Y-92905170D01*
X181785462Y-92914349D01*
X181765250Y-92921581D01*
X181744426Y-92926797D01*
X181723191Y-92929947D01*
X181701750Y-92931000D01*
X181264250Y-92931000D01*
X181242809Y-92929947D01*
X181221574Y-92926797D01*
X181200750Y-92921581D01*
X181180538Y-92914349D01*
X181161132Y-92905170D01*
X181142719Y-92894134D01*
X181125476Y-92881346D01*
X181109570Y-92866930D01*
X181095154Y-92851024D01*
X181082366Y-92833781D01*
X181071330Y-92815368D01*
X181062151Y-92795962D01*
X181054919Y-92775750D01*
X181049703Y-92754926D01*
X181046553Y-92733691D01*
X181045500Y-92712250D01*
X181045500Y-92199750D01*
X181046553Y-92178309D01*
X181049703Y-92157074D01*
X181054919Y-92136250D01*
X181062151Y-92116038D01*
X181071330Y-92096632D01*
X181082366Y-92078219D01*
X181095154Y-92060976D01*
X181109570Y-92045070D01*
X181125476Y-92030654D01*
X181142719Y-92017866D01*
X181161132Y-92006830D01*
X181180538Y-91997651D01*
X181200750Y-91990419D01*
X181221574Y-91985203D01*
X181242809Y-91982053D01*
X181264250Y-91981000D01*
X181701750Y-91981000D01*
X181723191Y-91982053D01*
G37*
G36*
X183298191Y-91982053D02*
G01*
X183319426Y-91985203D01*
X183340250Y-91990419D01*
X183360462Y-91997651D01*
X183379868Y-92006830D01*
X183398281Y-92017866D01*
X183415524Y-92030654D01*
X183431430Y-92045070D01*
X183445846Y-92060976D01*
X183458634Y-92078219D01*
X183469670Y-92096632D01*
X183478849Y-92116038D01*
X183486081Y-92136250D01*
X183491297Y-92157074D01*
X183494447Y-92178309D01*
X183495500Y-92199750D01*
X183495500Y-92712250D01*
X183494447Y-92733691D01*
X183491297Y-92754926D01*
X183486081Y-92775750D01*
X183478849Y-92795962D01*
X183469670Y-92815368D01*
X183458634Y-92833781D01*
X183445846Y-92851024D01*
X183431430Y-92866930D01*
X183415524Y-92881346D01*
X183398281Y-92894134D01*
X183379868Y-92905170D01*
X183360462Y-92914349D01*
X183340250Y-92921581D01*
X183319426Y-92926797D01*
X183298191Y-92929947D01*
X183276750Y-92931000D01*
X182839250Y-92931000D01*
X182817809Y-92929947D01*
X182796574Y-92926797D01*
X182775750Y-92921581D01*
X182755538Y-92914349D01*
X182736132Y-92905170D01*
X182717719Y-92894134D01*
X182700476Y-92881346D01*
X182684570Y-92866930D01*
X182670154Y-92851024D01*
X182657366Y-92833781D01*
X182646330Y-92815368D01*
X182637151Y-92795962D01*
X182629919Y-92775750D01*
X182624703Y-92754926D01*
X182621553Y-92733691D01*
X182620500Y-92712250D01*
X182620500Y-92199750D01*
X182621553Y-92178309D01*
X182624703Y-92157074D01*
X182629919Y-92136250D01*
X182637151Y-92116038D01*
X182646330Y-92096632D01*
X182657366Y-92078219D01*
X182670154Y-92060976D01*
X182684570Y-92045070D01*
X182700476Y-92030654D01*
X182717719Y-92017866D01*
X182736132Y-92006830D01*
X182755538Y-91997651D01*
X182775750Y-91990419D01*
X182796574Y-91985203D01*
X182817809Y-91982053D01*
X182839250Y-91981000D01*
X183276750Y-91981000D01*
X183298191Y-91982053D01*
G37*
G36*
X181723191Y-89442053D02*
G01*
X181744426Y-89445203D01*
X181765250Y-89450419D01*
X181785462Y-89457651D01*
X181804868Y-89466830D01*
X181823281Y-89477866D01*
X181840524Y-89490654D01*
X181856430Y-89505070D01*
X181870846Y-89520976D01*
X181883634Y-89538219D01*
X181894670Y-89556632D01*
X181903849Y-89576038D01*
X181911081Y-89596250D01*
X181916297Y-89617074D01*
X181919447Y-89638309D01*
X181920500Y-89659750D01*
X181920500Y-90172250D01*
X181919447Y-90193691D01*
X181916297Y-90214926D01*
X181911081Y-90235750D01*
X181903849Y-90255962D01*
X181894670Y-90275368D01*
X181883634Y-90293781D01*
X181870846Y-90311024D01*
X181856430Y-90326930D01*
X181840524Y-90341346D01*
X181823281Y-90354134D01*
X181804868Y-90365170D01*
X181785462Y-90374349D01*
X181765250Y-90381581D01*
X181744426Y-90386797D01*
X181723191Y-90389947D01*
X181701750Y-90391000D01*
X181264250Y-90391000D01*
X181242809Y-90389947D01*
X181221574Y-90386797D01*
X181200750Y-90381581D01*
X181180538Y-90374349D01*
X181161132Y-90365170D01*
X181142719Y-90354134D01*
X181125476Y-90341346D01*
X181109570Y-90326930D01*
X181095154Y-90311024D01*
X181082366Y-90293781D01*
X181071330Y-90275368D01*
X181062151Y-90255962D01*
X181054919Y-90235750D01*
X181049703Y-90214926D01*
X181046553Y-90193691D01*
X181045500Y-90172250D01*
X181045500Y-89659750D01*
X181046553Y-89638309D01*
X181049703Y-89617074D01*
X181054919Y-89596250D01*
X181062151Y-89576038D01*
X181071330Y-89556632D01*
X181082366Y-89538219D01*
X181095154Y-89520976D01*
X181109570Y-89505070D01*
X181125476Y-89490654D01*
X181142719Y-89477866D01*
X181161132Y-89466830D01*
X181180538Y-89457651D01*
X181200750Y-89450419D01*
X181221574Y-89445203D01*
X181242809Y-89442053D01*
X181264250Y-89441000D01*
X181701750Y-89441000D01*
X181723191Y-89442053D01*
G37*
G36*
X183298191Y-89442053D02*
G01*
X183319426Y-89445203D01*
X183340250Y-89450419D01*
X183360462Y-89457651D01*
X183379868Y-89466830D01*
X183398281Y-89477866D01*
X183415524Y-89490654D01*
X183431430Y-89505070D01*
X183445846Y-89520976D01*
X183458634Y-89538219D01*
X183469670Y-89556632D01*
X183478849Y-89576038D01*
X183486081Y-89596250D01*
X183491297Y-89617074D01*
X183494447Y-89638309D01*
X183495500Y-89659750D01*
X183495500Y-90172250D01*
X183494447Y-90193691D01*
X183491297Y-90214926D01*
X183486081Y-90235750D01*
X183478849Y-90255962D01*
X183469670Y-90275368D01*
X183458634Y-90293781D01*
X183445846Y-90311024D01*
X183431430Y-90326930D01*
X183415524Y-90341346D01*
X183398281Y-90354134D01*
X183379868Y-90365170D01*
X183360462Y-90374349D01*
X183340250Y-90381581D01*
X183319426Y-90386797D01*
X183298191Y-90389947D01*
X183276750Y-90391000D01*
X182839250Y-90391000D01*
X182817809Y-90389947D01*
X182796574Y-90386797D01*
X182775750Y-90381581D01*
X182755538Y-90374349D01*
X182736132Y-90365170D01*
X182717719Y-90354134D01*
X182700476Y-90341346D01*
X182684570Y-90326930D01*
X182670154Y-90311024D01*
X182657366Y-90293781D01*
X182646330Y-90275368D01*
X182637151Y-90255962D01*
X182629919Y-90235750D01*
X182624703Y-90214926D01*
X182621553Y-90193691D01*
X182620500Y-90172250D01*
X182620500Y-89659750D01*
X182621553Y-89638309D01*
X182624703Y-89617074D01*
X182629919Y-89596250D01*
X182637151Y-89576038D01*
X182646330Y-89556632D01*
X182657366Y-89538219D01*
X182670154Y-89520976D01*
X182684570Y-89505070D01*
X182700476Y-89490654D01*
X182717719Y-89477866D01*
X182736132Y-89466830D01*
X182755538Y-89457651D01*
X182775750Y-89450419D01*
X182796574Y-89445203D01*
X182817809Y-89442053D01*
X182839250Y-89441000D01*
X183276750Y-89441000D01*
X183298191Y-89442053D01*
G37*
G36*
X181672191Y-86902053D02*
G01*
X181693426Y-86905203D01*
X181714250Y-86910419D01*
X181734462Y-86917651D01*
X181753868Y-86926830D01*
X181772281Y-86937866D01*
X181789524Y-86950654D01*
X181805430Y-86965070D01*
X181819846Y-86980976D01*
X181832634Y-86998219D01*
X181843670Y-87016632D01*
X181852849Y-87036038D01*
X181860081Y-87056250D01*
X181865297Y-87077074D01*
X181868447Y-87098309D01*
X181869500Y-87119750D01*
X181869500Y-87632250D01*
X181868447Y-87653691D01*
X181865297Y-87674926D01*
X181860081Y-87695750D01*
X181852849Y-87715962D01*
X181843670Y-87735368D01*
X181832634Y-87753781D01*
X181819846Y-87771024D01*
X181805430Y-87786930D01*
X181789524Y-87801346D01*
X181772281Y-87814134D01*
X181753868Y-87825170D01*
X181734462Y-87834349D01*
X181714250Y-87841581D01*
X181693426Y-87846797D01*
X181672191Y-87849947D01*
X181650750Y-87851000D01*
X181213250Y-87851000D01*
X181191809Y-87849947D01*
X181170574Y-87846797D01*
X181149750Y-87841581D01*
X181129538Y-87834349D01*
X181110132Y-87825170D01*
X181091719Y-87814134D01*
X181074476Y-87801346D01*
X181058570Y-87786930D01*
X181044154Y-87771024D01*
X181031366Y-87753781D01*
X181020330Y-87735368D01*
X181011151Y-87715962D01*
X181003919Y-87695750D01*
X180998703Y-87674926D01*
X180995553Y-87653691D01*
X180994500Y-87632250D01*
X180994500Y-87119750D01*
X180995553Y-87098309D01*
X180998703Y-87077074D01*
X181003919Y-87056250D01*
X181011151Y-87036038D01*
X181020330Y-87016632D01*
X181031366Y-86998219D01*
X181044154Y-86980976D01*
X181058570Y-86965070D01*
X181074476Y-86950654D01*
X181091719Y-86937866D01*
X181110132Y-86926830D01*
X181129538Y-86917651D01*
X181149750Y-86910419D01*
X181170574Y-86905203D01*
X181191809Y-86902053D01*
X181213250Y-86901000D01*
X181650750Y-86901000D01*
X181672191Y-86902053D01*
G37*
G36*
X183247191Y-86902053D02*
G01*
X183268426Y-86905203D01*
X183289250Y-86910419D01*
X183309462Y-86917651D01*
X183328868Y-86926830D01*
X183347281Y-86937866D01*
X183364524Y-86950654D01*
X183380430Y-86965070D01*
X183394846Y-86980976D01*
X183407634Y-86998219D01*
X183418670Y-87016632D01*
X183427849Y-87036038D01*
X183435081Y-87056250D01*
X183440297Y-87077074D01*
X183443447Y-87098309D01*
X183444500Y-87119750D01*
X183444500Y-87632250D01*
X183443447Y-87653691D01*
X183440297Y-87674926D01*
X183435081Y-87695750D01*
X183427849Y-87715962D01*
X183418670Y-87735368D01*
X183407634Y-87753781D01*
X183394846Y-87771024D01*
X183380430Y-87786930D01*
X183364524Y-87801346D01*
X183347281Y-87814134D01*
X183328868Y-87825170D01*
X183309462Y-87834349D01*
X183289250Y-87841581D01*
X183268426Y-87846797D01*
X183247191Y-87849947D01*
X183225750Y-87851000D01*
X182788250Y-87851000D01*
X182766809Y-87849947D01*
X182745574Y-87846797D01*
X182724750Y-87841581D01*
X182704538Y-87834349D01*
X182685132Y-87825170D01*
X182666719Y-87814134D01*
X182649476Y-87801346D01*
X182633570Y-87786930D01*
X182619154Y-87771024D01*
X182606366Y-87753781D01*
X182595330Y-87735368D01*
X182586151Y-87715962D01*
X182578919Y-87695750D01*
X182573703Y-87674926D01*
X182570553Y-87653691D01*
X182569500Y-87632250D01*
X182569500Y-87119750D01*
X182570553Y-87098309D01*
X182573703Y-87077074D01*
X182578919Y-87056250D01*
X182586151Y-87036038D01*
X182595330Y-87016632D01*
X182606366Y-86998219D01*
X182619154Y-86980976D01*
X182633570Y-86965070D01*
X182649476Y-86950654D01*
X182666719Y-86937866D01*
X182685132Y-86926830D01*
X182704538Y-86917651D01*
X182724750Y-86910419D01*
X182745574Y-86905203D01*
X182766809Y-86902053D01*
X182788250Y-86901000D01*
X183225750Y-86901000D01*
X183247191Y-86902053D01*
G37*
G36*
X181596191Y-84362053D02*
G01*
X181617426Y-84365203D01*
X181638250Y-84370419D01*
X181658462Y-84377651D01*
X181677868Y-84386830D01*
X181696281Y-84397866D01*
X181713524Y-84410654D01*
X181729430Y-84425070D01*
X181743846Y-84440976D01*
X181756634Y-84458219D01*
X181767670Y-84476632D01*
X181776849Y-84496038D01*
X181784081Y-84516250D01*
X181789297Y-84537074D01*
X181792447Y-84558309D01*
X181793500Y-84579750D01*
X181793500Y-85092250D01*
X181792447Y-85113691D01*
X181789297Y-85134926D01*
X181784081Y-85155750D01*
X181776849Y-85175962D01*
X181767670Y-85195368D01*
X181756634Y-85213781D01*
X181743846Y-85231024D01*
X181729430Y-85246930D01*
X181713524Y-85261346D01*
X181696281Y-85274134D01*
X181677868Y-85285170D01*
X181658462Y-85294349D01*
X181638250Y-85301581D01*
X181617426Y-85306797D01*
X181596191Y-85309947D01*
X181574750Y-85311000D01*
X181137250Y-85311000D01*
X181115809Y-85309947D01*
X181094574Y-85306797D01*
X181073750Y-85301581D01*
X181053538Y-85294349D01*
X181034132Y-85285170D01*
X181015719Y-85274134D01*
X180998476Y-85261346D01*
X180982570Y-85246930D01*
X180968154Y-85231024D01*
X180955366Y-85213781D01*
X180944330Y-85195368D01*
X180935151Y-85175962D01*
X180927919Y-85155750D01*
X180922703Y-85134926D01*
X180919553Y-85113691D01*
X180918500Y-85092250D01*
X180918500Y-84579750D01*
X180919553Y-84558309D01*
X180922703Y-84537074D01*
X180927919Y-84516250D01*
X180935151Y-84496038D01*
X180944330Y-84476632D01*
X180955366Y-84458219D01*
X180968154Y-84440976D01*
X180982570Y-84425070D01*
X180998476Y-84410654D01*
X181015719Y-84397866D01*
X181034132Y-84386830D01*
X181053538Y-84377651D01*
X181073750Y-84370419D01*
X181094574Y-84365203D01*
X181115809Y-84362053D01*
X181137250Y-84361000D01*
X181574750Y-84361000D01*
X181596191Y-84362053D01*
G37*
G36*
X183171191Y-84362053D02*
G01*
X183192426Y-84365203D01*
X183213250Y-84370419D01*
X183233462Y-84377651D01*
X183252868Y-84386830D01*
X183271281Y-84397866D01*
X183288524Y-84410654D01*
X183304430Y-84425070D01*
X183318846Y-84440976D01*
X183331634Y-84458219D01*
X183342670Y-84476632D01*
X183351849Y-84496038D01*
X183359081Y-84516250D01*
X183364297Y-84537074D01*
X183367447Y-84558309D01*
X183368500Y-84579750D01*
X183368500Y-85092250D01*
X183367447Y-85113691D01*
X183364297Y-85134926D01*
X183359081Y-85155750D01*
X183351849Y-85175962D01*
X183342670Y-85195368D01*
X183331634Y-85213781D01*
X183318846Y-85231024D01*
X183304430Y-85246930D01*
X183288524Y-85261346D01*
X183271281Y-85274134D01*
X183252868Y-85285170D01*
X183233462Y-85294349D01*
X183213250Y-85301581D01*
X183192426Y-85306797D01*
X183171191Y-85309947D01*
X183149750Y-85311000D01*
X182712250Y-85311000D01*
X182690809Y-85309947D01*
X182669574Y-85306797D01*
X182648750Y-85301581D01*
X182628538Y-85294349D01*
X182609132Y-85285170D01*
X182590719Y-85274134D01*
X182573476Y-85261346D01*
X182557570Y-85246930D01*
X182543154Y-85231024D01*
X182530366Y-85213781D01*
X182519330Y-85195368D01*
X182510151Y-85175962D01*
X182502919Y-85155750D01*
X182497703Y-85134926D01*
X182494553Y-85113691D01*
X182493500Y-85092250D01*
X182493500Y-84579750D01*
X182494553Y-84558309D01*
X182497703Y-84537074D01*
X182502919Y-84516250D01*
X182510151Y-84496038D01*
X182519330Y-84476632D01*
X182530366Y-84458219D01*
X182543154Y-84440976D01*
X182557570Y-84425070D01*
X182573476Y-84410654D01*
X182590719Y-84397866D01*
X182609132Y-84386830D01*
X182628538Y-84377651D01*
X182648750Y-84370419D01*
X182669574Y-84365203D01*
X182690809Y-84362053D01*
X182712250Y-84361000D01*
X183149750Y-84361000D01*
X183171191Y-84362053D01*
G37*
G36*
X181596191Y-81822053D02*
G01*
X181617426Y-81825203D01*
X181638250Y-81830419D01*
X181658462Y-81837651D01*
X181677868Y-81846830D01*
X181696281Y-81857866D01*
X181713524Y-81870654D01*
X181729430Y-81885070D01*
X181743846Y-81900976D01*
X181756634Y-81918219D01*
X181767670Y-81936632D01*
X181776849Y-81956038D01*
X181784081Y-81976250D01*
X181789297Y-81997074D01*
X181792447Y-82018309D01*
X181793500Y-82039750D01*
X181793500Y-82552250D01*
X181792447Y-82573691D01*
X181789297Y-82594926D01*
X181784081Y-82615750D01*
X181776849Y-82635962D01*
X181767670Y-82655368D01*
X181756634Y-82673781D01*
X181743846Y-82691024D01*
X181729430Y-82706930D01*
X181713524Y-82721346D01*
X181696281Y-82734134D01*
X181677868Y-82745170D01*
X181658462Y-82754349D01*
X181638250Y-82761581D01*
X181617426Y-82766797D01*
X181596191Y-82769947D01*
X181574750Y-82771000D01*
X181137250Y-82771000D01*
X181115809Y-82769947D01*
X181094574Y-82766797D01*
X181073750Y-82761581D01*
X181053538Y-82754349D01*
X181034132Y-82745170D01*
X181015719Y-82734134D01*
X180998476Y-82721346D01*
X180982570Y-82706930D01*
X180968154Y-82691024D01*
X180955366Y-82673781D01*
X180944330Y-82655368D01*
X180935151Y-82635962D01*
X180927919Y-82615750D01*
X180922703Y-82594926D01*
X180919553Y-82573691D01*
X180918500Y-82552250D01*
X180918500Y-82039750D01*
X180919553Y-82018309D01*
X180922703Y-81997074D01*
X180927919Y-81976250D01*
X180935151Y-81956038D01*
X180944330Y-81936632D01*
X180955366Y-81918219D01*
X180968154Y-81900976D01*
X180982570Y-81885070D01*
X180998476Y-81870654D01*
X181015719Y-81857866D01*
X181034132Y-81846830D01*
X181053538Y-81837651D01*
X181073750Y-81830419D01*
X181094574Y-81825203D01*
X181115809Y-81822053D01*
X181137250Y-81821000D01*
X181574750Y-81821000D01*
X181596191Y-81822053D01*
G37*
G36*
X183171191Y-81822053D02*
G01*
X183192426Y-81825203D01*
X183213250Y-81830419D01*
X183233462Y-81837651D01*
X183252868Y-81846830D01*
X183271281Y-81857866D01*
X183288524Y-81870654D01*
X183304430Y-81885070D01*
X183318846Y-81900976D01*
X183331634Y-81918219D01*
X183342670Y-81936632D01*
X183351849Y-81956038D01*
X183359081Y-81976250D01*
X183364297Y-81997074D01*
X183367447Y-82018309D01*
X183368500Y-82039750D01*
X183368500Y-82552250D01*
X183367447Y-82573691D01*
X183364297Y-82594926D01*
X183359081Y-82615750D01*
X183351849Y-82635962D01*
X183342670Y-82655368D01*
X183331634Y-82673781D01*
X183318846Y-82691024D01*
X183304430Y-82706930D01*
X183288524Y-82721346D01*
X183271281Y-82734134D01*
X183252868Y-82745170D01*
X183233462Y-82754349D01*
X183213250Y-82761581D01*
X183192426Y-82766797D01*
X183171191Y-82769947D01*
X183149750Y-82771000D01*
X182712250Y-82771000D01*
X182690809Y-82769947D01*
X182669574Y-82766797D01*
X182648750Y-82761581D01*
X182628538Y-82754349D01*
X182609132Y-82745170D01*
X182590719Y-82734134D01*
X182573476Y-82721346D01*
X182557570Y-82706930D01*
X182543154Y-82691024D01*
X182530366Y-82673781D01*
X182519330Y-82655368D01*
X182510151Y-82635962D01*
X182502919Y-82615750D01*
X182497703Y-82594926D01*
X182494553Y-82573691D01*
X182493500Y-82552250D01*
X182493500Y-82039750D01*
X182494553Y-82018309D01*
X182497703Y-81997074D01*
X182502919Y-81976250D01*
X182510151Y-81956038D01*
X182519330Y-81936632D01*
X182530366Y-81918219D01*
X182543154Y-81900976D01*
X182557570Y-81885070D01*
X182573476Y-81870654D01*
X182590719Y-81857866D01*
X182609132Y-81846830D01*
X182628538Y-81837651D01*
X182648750Y-81830419D01*
X182669574Y-81825203D01*
X182690809Y-81822053D01*
X182712250Y-81821000D01*
X183149750Y-81821000D01*
X183171191Y-81822053D01*
G37*
G36*
X183171191Y-79282053D02*
G01*
X183192426Y-79285203D01*
X183213250Y-79290419D01*
X183233462Y-79297651D01*
X183252868Y-79306830D01*
X183271281Y-79317866D01*
X183288524Y-79330654D01*
X183304430Y-79345070D01*
X183318846Y-79360976D01*
X183331634Y-79378219D01*
X183342670Y-79396632D01*
X183351849Y-79416038D01*
X183359081Y-79436250D01*
X183364297Y-79457074D01*
X183367447Y-79478309D01*
X183368500Y-79499750D01*
X183368500Y-80012250D01*
X183367447Y-80033691D01*
X183364297Y-80054926D01*
X183359081Y-80075750D01*
X183351849Y-80095962D01*
X183342670Y-80115368D01*
X183331634Y-80133781D01*
X183318846Y-80151024D01*
X183304430Y-80166930D01*
X183288524Y-80181346D01*
X183271281Y-80194134D01*
X183252868Y-80205170D01*
X183233462Y-80214349D01*
X183213250Y-80221581D01*
X183192426Y-80226797D01*
X183171191Y-80229947D01*
X183149750Y-80231000D01*
X182712250Y-80231000D01*
X182690809Y-80229947D01*
X182669574Y-80226797D01*
X182648750Y-80221581D01*
X182628538Y-80214349D01*
X182609132Y-80205170D01*
X182590719Y-80194134D01*
X182573476Y-80181346D01*
X182557570Y-80166930D01*
X182543154Y-80151024D01*
X182530366Y-80133781D01*
X182519330Y-80115368D01*
X182510151Y-80095962D01*
X182502919Y-80075750D01*
X182497703Y-80054926D01*
X182494553Y-80033691D01*
X182493500Y-80012250D01*
X182493500Y-79499750D01*
X182494553Y-79478309D01*
X182497703Y-79457074D01*
X182502919Y-79436250D01*
X182510151Y-79416038D01*
X182519330Y-79396632D01*
X182530366Y-79378219D01*
X182543154Y-79360976D01*
X182557570Y-79345070D01*
X182573476Y-79330654D01*
X182590719Y-79317866D01*
X182609132Y-79306830D01*
X182628538Y-79297651D01*
X182648750Y-79290419D01*
X182669574Y-79285203D01*
X182690809Y-79282053D01*
X182712250Y-79281000D01*
X183149750Y-79281000D01*
X183171191Y-79282053D01*
G37*
G36*
X181596191Y-79282053D02*
G01*
X181617426Y-79285203D01*
X181638250Y-79290419D01*
X181658462Y-79297651D01*
X181677868Y-79306830D01*
X181696281Y-79317866D01*
X181713524Y-79330654D01*
X181729430Y-79345070D01*
X181743846Y-79360976D01*
X181756634Y-79378219D01*
X181767670Y-79396632D01*
X181776849Y-79416038D01*
X181784081Y-79436250D01*
X181789297Y-79457074D01*
X181792447Y-79478309D01*
X181793500Y-79499750D01*
X181793500Y-80012250D01*
X181792447Y-80033691D01*
X181789297Y-80054926D01*
X181784081Y-80075750D01*
X181776849Y-80095962D01*
X181767670Y-80115368D01*
X181756634Y-80133781D01*
X181743846Y-80151024D01*
X181729430Y-80166930D01*
X181713524Y-80181346D01*
X181696281Y-80194134D01*
X181677868Y-80205170D01*
X181658462Y-80214349D01*
X181638250Y-80221581D01*
X181617426Y-80226797D01*
X181596191Y-80229947D01*
X181574750Y-80231000D01*
X181137250Y-80231000D01*
X181115809Y-80229947D01*
X181094574Y-80226797D01*
X181073750Y-80221581D01*
X181053538Y-80214349D01*
X181034132Y-80205170D01*
X181015719Y-80194134D01*
X180998476Y-80181346D01*
X180982570Y-80166930D01*
X180968154Y-80151024D01*
X180955366Y-80133781D01*
X180944330Y-80115368D01*
X180935151Y-80095962D01*
X180927919Y-80075750D01*
X180922703Y-80054926D01*
X180919553Y-80033691D01*
X180918500Y-80012250D01*
X180918500Y-79499750D01*
X180919553Y-79478309D01*
X180922703Y-79457074D01*
X180927919Y-79436250D01*
X180935151Y-79416038D01*
X180944330Y-79396632D01*
X180955366Y-79378219D01*
X180968154Y-79360976D01*
X180982570Y-79345070D01*
X180998476Y-79330654D01*
X181015719Y-79317866D01*
X181034132Y-79306830D01*
X181053538Y-79297651D01*
X181073750Y-79290419D01*
X181094574Y-79285203D01*
X181115809Y-79282053D01*
X181137250Y-79281000D01*
X181574750Y-79281000D01*
X181596191Y-79282053D01*
G37*
G36*
X181672191Y-76742053D02*
G01*
X181693426Y-76745203D01*
X181714250Y-76750419D01*
X181734462Y-76757651D01*
X181753868Y-76766830D01*
X181772281Y-76777866D01*
X181789524Y-76790654D01*
X181805430Y-76805070D01*
X181819846Y-76820976D01*
X181832634Y-76838219D01*
X181843670Y-76856632D01*
X181852849Y-76876038D01*
X181860081Y-76896250D01*
X181865297Y-76917074D01*
X181868447Y-76938309D01*
X181869500Y-76959750D01*
X181869500Y-77472250D01*
X181868447Y-77493691D01*
X181865297Y-77514926D01*
X181860081Y-77535750D01*
X181852849Y-77555962D01*
X181843670Y-77575368D01*
X181832634Y-77593781D01*
X181819846Y-77611024D01*
X181805430Y-77626930D01*
X181789524Y-77641346D01*
X181772281Y-77654134D01*
X181753868Y-77665170D01*
X181734462Y-77674349D01*
X181714250Y-77681581D01*
X181693426Y-77686797D01*
X181672191Y-77689947D01*
X181650750Y-77691000D01*
X181213250Y-77691000D01*
X181191809Y-77689947D01*
X181170574Y-77686797D01*
X181149750Y-77681581D01*
X181129538Y-77674349D01*
X181110132Y-77665170D01*
X181091719Y-77654134D01*
X181074476Y-77641346D01*
X181058570Y-77626930D01*
X181044154Y-77611024D01*
X181031366Y-77593781D01*
X181020330Y-77575368D01*
X181011151Y-77555962D01*
X181003919Y-77535750D01*
X180998703Y-77514926D01*
X180995553Y-77493691D01*
X180994500Y-77472250D01*
X180994500Y-76959750D01*
X180995553Y-76938309D01*
X180998703Y-76917074D01*
X181003919Y-76896250D01*
X181011151Y-76876038D01*
X181020330Y-76856632D01*
X181031366Y-76838219D01*
X181044154Y-76820976D01*
X181058570Y-76805070D01*
X181074476Y-76790654D01*
X181091719Y-76777866D01*
X181110132Y-76766830D01*
X181129538Y-76757651D01*
X181149750Y-76750419D01*
X181170574Y-76745203D01*
X181191809Y-76742053D01*
X181213250Y-76741000D01*
X181650750Y-76741000D01*
X181672191Y-76742053D01*
G37*
G36*
X183247191Y-76742053D02*
G01*
X183268426Y-76745203D01*
X183289250Y-76750419D01*
X183309462Y-76757651D01*
X183328868Y-76766830D01*
X183347281Y-76777866D01*
X183364524Y-76790654D01*
X183380430Y-76805070D01*
X183394846Y-76820976D01*
X183407634Y-76838219D01*
X183418670Y-76856632D01*
X183427849Y-76876038D01*
X183435081Y-76896250D01*
X183440297Y-76917074D01*
X183443447Y-76938309D01*
X183444500Y-76959750D01*
X183444500Y-77472250D01*
X183443447Y-77493691D01*
X183440297Y-77514926D01*
X183435081Y-77535750D01*
X183427849Y-77555962D01*
X183418670Y-77575368D01*
X183407634Y-77593781D01*
X183394846Y-77611024D01*
X183380430Y-77626930D01*
X183364524Y-77641346D01*
X183347281Y-77654134D01*
X183328868Y-77665170D01*
X183309462Y-77674349D01*
X183289250Y-77681581D01*
X183268426Y-77686797D01*
X183247191Y-77689947D01*
X183225750Y-77691000D01*
X182788250Y-77691000D01*
X182766809Y-77689947D01*
X182745574Y-77686797D01*
X182724750Y-77681581D01*
X182704538Y-77674349D01*
X182685132Y-77665170D01*
X182666719Y-77654134D01*
X182649476Y-77641346D01*
X182633570Y-77626930D01*
X182619154Y-77611024D01*
X182606366Y-77593781D01*
X182595330Y-77575368D01*
X182586151Y-77555962D01*
X182578919Y-77535750D01*
X182573703Y-77514926D01*
X182570553Y-77493691D01*
X182569500Y-77472250D01*
X182569500Y-76959750D01*
X182570553Y-76938309D01*
X182573703Y-76917074D01*
X182578919Y-76896250D01*
X182586151Y-76876038D01*
X182595330Y-76856632D01*
X182606366Y-76838219D01*
X182619154Y-76820976D01*
X182633570Y-76805070D01*
X182649476Y-76790654D01*
X182666719Y-76777866D01*
X182685132Y-76766830D01*
X182704538Y-76757651D01*
X182724750Y-76750419D01*
X182745574Y-76745203D01*
X182766809Y-76742053D01*
X182788250Y-76741000D01*
X183225750Y-76741000D01*
X183247191Y-76742053D01*
G37*
G36*
X183298191Y-96935053D02*
G01*
X183319426Y-96938203D01*
X183340250Y-96943419D01*
X183360462Y-96950651D01*
X183379868Y-96959830D01*
X183398281Y-96970866D01*
X183415524Y-96983654D01*
X183431430Y-96998070D01*
X183445846Y-97013976D01*
X183458634Y-97031219D01*
X183469670Y-97049632D01*
X183478849Y-97069038D01*
X183486081Y-97089250D01*
X183491297Y-97110074D01*
X183494447Y-97131309D01*
X183495500Y-97152750D01*
X183495500Y-97665250D01*
X183494447Y-97686691D01*
X183491297Y-97707926D01*
X183486081Y-97728750D01*
X183478849Y-97748962D01*
X183469670Y-97768368D01*
X183458634Y-97786781D01*
X183445846Y-97804024D01*
X183431430Y-97819930D01*
X183415524Y-97834346D01*
X183398281Y-97847134D01*
X183379868Y-97858170D01*
X183360462Y-97867349D01*
X183340250Y-97874581D01*
X183319426Y-97879797D01*
X183298191Y-97882947D01*
X183276750Y-97884000D01*
X182839250Y-97884000D01*
X182817809Y-97882947D01*
X182796574Y-97879797D01*
X182775750Y-97874581D01*
X182755538Y-97867349D01*
X182736132Y-97858170D01*
X182717719Y-97847134D01*
X182700476Y-97834346D01*
X182684570Y-97819930D01*
X182670154Y-97804024D01*
X182657366Y-97786781D01*
X182646330Y-97768368D01*
X182637151Y-97748962D01*
X182629919Y-97728750D01*
X182624703Y-97707926D01*
X182621553Y-97686691D01*
X182620500Y-97665250D01*
X182620500Y-97152750D01*
X182621553Y-97131309D01*
X182624703Y-97110074D01*
X182629919Y-97089250D01*
X182637151Y-97069038D01*
X182646330Y-97049632D01*
X182657366Y-97031219D01*
X182670154Y-97013976D01*
X182684570Y-96998070D01*
X182700476Y-96983654D01*
X182717719Y-96970866D01*
X182736132Y-96959830D01*
X182755538Y-96950651D01*
X182775750Y-96943419D01*
X182796574Y-96938203D01*
X182817809Y-96935053D01*
X182839250Y-96934000D01*
X183276750Y-96934000D01*
X183298191Y-96935053D01*
G37*
G36*
X181723191Y-96935053D02*
G01*
X181744426Y-96938203D01*
X181765250Y-96943419D01*
X181785462Y-96950651D01*
X181804868Y-96959830D01*
X181823281Y-96970866D01*
X181840524Y-96983654D01*
X181856430Y-96998070D01*
X181870846Y-97013976D01*
X181883634Y-97031219D01*
X181894670Y-97049632D01*
X181903849Y-97069038D01*
X181911081Y-97089250D01*
X181916297Y-97110074D01*
X181919447Y-97131309D01*
X181920500Y-97152750D01*
X181920500Y-97665250D01*
X181919447Y-97686691D01*
X181916297Y-97707926D01*
X181911081Y-97728750D01*
X181903849Y-97748962D01*
X181894670Y-97768368D01*
X181883634Y-97786781D01*
X181870846Y-97804024D01*
X181856430Y-97819930D01*
X181840524Y-97834346D01*
X181823281Y-97847134D01*
X181804868Y-97858170D01*
X181785462Y-97867349D01*
X181765250Y-97874581D01*
X181744426Y-97879797D01*
X181723191Y-97882947D01*
X181701750Y-97884000D01*
X181264250Y-97884000D01*
X181242809Y-97882947D01*
X181221574Y-97879797D01*
X181200750Y-97874581D01*
X181180538Y-97867349D01*
X181161132Y-97858170D01*
X181142719Y-97847134D01*
X181125476Y-97834346D01*
X181109570Y-97819930D01*
X181095154Y-97804024D01*
X181082366Y-97786781D01*
X181071330Y-97768368D01*
X181062151Y-97748962D01*
X181054919Y-97728750D01*
X181049703Y-97707926D01*
X181046553Y-97686691D01*
X181045500Y-97665250D01*
X181045500Y-97152750D01*
X181046553Y-97131309D01*
X181049703Y-97110074D01*
X181054919Y-97089250D01*
X181062151Y-97069038D01*
X181071330Y-97049632D01*
X181082366Y-97031219D01*
X181095154Y-97013976D01*
X181109570Y-96998070D01*
X181125476Y-96983654D01*
X181142719Y-96970866D01*
X181161132Y-96959830D01*
X181180538Y-96950651D01*
X181200750Y-96943419D01*
X181221574Y-96938203D01*
X181242809Y-96935053D01*
X181264250Y-96934000D01*
X181701750Y-96934000D01*
X181723191Y-96935053D01*
G37*
G36*
X185062691Y-94508553D02*
G01*
X185083926Y-94511703D01*
X185104750Y-94516919D01*
X185124962Y-94524151D01*
X185144368Y-94533330D01*
X185162781Y-94544366D01*
X185180024Y-94557154D01*
X185195930Y-94571570D01*
X185210346Y-94587476D01*
X185223134Y-94604719D01*
X185234170Y-94623132D01*
X185243349Y-94642538D01*
X185250581Y-94662750D01*
X185255797Y-94683574D01*
X185258947Y-94704809D01*
X185260000Y-94726250D01*
X185260000Y-95163750D01*
X185258947Y-95185191D01*
X185255797Y-95206426D01*
X185250581Y-95227250D01*
X185243349Y-95247462D01*
X185234170Y-95266868D01*
X185223134Y-95285281D01*
X185210346Y-95302524D01*
X185195930Y-95318430D01*
X185180024Y-95332846D01*
X185162781Y-95345634D01*
X185144368Y-95356670D01*
X185124962Y-95365849D01*
X185104750Y-95373081D01*
X185083926Y-95378297D01*
X185062691Y-95381447D01*
X185041250Y-95382500D01*
X184528750Y-95382500D01*
X184507309Y-95381447D01*
X184486074Y-95378297D01*
X184465250Y-95373081D01*
X184445038Y-95365849D01*
X184425632Y-95356670D01*
X184407219Y-95345634D01*
X184389976Y-95332846D01*
X184374070Y-95318430D01*
X184359654Y-95302524D01*
X184346866Y-95285281D01*
X184335830Y-95266868D01*
X184326651Y-95247462D01*
X184319419Y-95227250D01*
X184314203Y-95206426D01*
X184311053Y-95185191D01*
X184310000Y-95163750D01*
X184310000Y-94726250D01*
X184311053Y-94704809D01*
X184314203Y-94683574D01*
X184319419Y-94662750D01*
X184326651Y-94642538D01*
X184335830Y-94623132D01*
X184346866Y-94604719D01*
X184359654Y-94587476D01*
X184374070Y-94571570D01*
X184389976Y-94557154D01*
X184407219Y-94544366D01*
X184425632Y-94533330D01*
X184445038Y-94524151D01*
X184465250Y-94516919D01*
X184486074Y-94511703D01*
X184507309Y-94508553D01*
X184528750Y-94507500D01*
X185041250Y-94507500D01*
X185062691Y-94508553D01*
G37*
G36*
X185062691Y-96083553D02*
G01*
X185083926Y-96086703D01*
X185104750Y-96091919D01*
X185124962Y-96099151D01*
X185144368Y-96108330D01*
X185162781Y-96119366D01*
X185180024Y-96132154D01*
X185195930Y-96146570D01*
X185210346Y-96162476D01*
X185223134Y-96179719D01*
X185234170Y-96198132D01*
X185243349Y-96217538D01*
X185250581Y-96237750D01*
X185255797Y-96258574D01*
X185258947Y-96279809D01*
X185260000Y-96301250D01*
X185260000Y-96738750D01*
X185258947Y-96760191D01*
X185255797Y-96781426D01*
X185250581Y-96802250D01*
X185243349Y-96822462D01*
X185234170Y-96841868D01*
X185223134Y-96860281D01*
X185210346Y-96877524D01*
X185195930Y-96893430D01*
X185180024Y-96907846D01*
X185162781Y-96920634D01*
X185144368Y-96931670D01*
X185124962Y-96940849D01*
X185104750Y-96948081D01*
X185083926Y-96953297D01*
X185062691Y-96956447D01*
X185041250Y-96957500D01*
X184528750Y-96957500D01*
X184507309Y-96956447D01*
X184486074Y-96953297D01*
X184465250Y-96948081D01*
X184445038Y-96940849D01*
X184425632Y-96931670D01*
X184407219Y-96920634D01*
X184389976Y-96907846D01*
X184374070Y-96893430D01*
X184359654Y-96877524D01*
X184346866Y-96860281D01*
X184335830Y-96841868D01*
X184326651Y-96822462D01*
X184319419Y-96802250D01*
X184314203Y-96781426D01*
X184311053Y-96760191D01*
X184310000Y-96738750D01*
X184310000Y-96301250D01*
X184311053Y-96279809D01*
X184314203Y-96258574D01*
X184319419Y-96237750D01*
X184326651Y-96217538D01*
X184335830Y-96198132D01*
X184346866Y-96179719D01*
X184359654Y-96162476D01*
X184374070Y-96146570D01*
X184389976Y-96132154D01*
X184407219Y-96119366D01*
X184425632Y-96108330D01*
X184445038Y-96099151D01*
X184465250Y-96091919D01*
X184486074Y-96086703D01*
X184507309Y-96083553D01*
X184528750Y-96082500D01*
X185041250Y-96082500D01*
X185062691Y-96083553D01*
G37*
G36*
X184935691Y-91003553D02*
G01*
X184956926Y-91006703D01*
X184977750Y-91011919D01*
X184997962Y-91019151D01*
X185017368Y-91028330D01*
X185035781Y-91039366D01*
X185053024Y-91052154D01*
X185068930Y-91066570D01*
X185083346Y-91082476D01*
X185096134Y-91099719D01*
X185107170Y-91118132D01*
X185116349Y-91137538D01*
X185123581Y-91157750D01*
X185128797Y-91178574D01*
X185131947Y-91199809D01*
X185133000Y-91221250D01*
X185133000Y-91658750D01*
X185131947Y-91680191D01*
X185128797Y-91701426D01*
X185123581Y-91722250D01*
X185116349Y-91742462D01*
X185107170Y-91761868D01*
X185096134Y-91780281D01*
X185083346Y-91797524D01*
X185068930Y-91813430D01*
X185053024Y-91827846D01*
X185035781Y-91840634D01*
X185017368Y-91851670D01*
X184997962Y-91860849D01*
X184977750Y-91868081D01*
X184956926Y-91873297D01*
X184935691Y-91876447D01*
X184914250Y-91877500D01*
X184401750Y-91877500D01*
X184380309Y-91876447D01*
X184359074Y-91873297D01*
X184338250Y-91868081D01*
X184318038Y-91860849D01*
X184298632Y-91851670D01*
X184280219Y-91840634D01*
X184262976Y-91827846D01*
X184247070Y-91813430D01*
X184232654Y-91797524D01*
X184219866Y-91780281D01*
X184208830Y-91761868D01*
X184199651Y-91742462D01*
X184192419Y-91722250D01*
X184187203Y-91701426D01*
X184184053Y-91680191D01*
X184183000Y-91658750D01*
X184183000Y-91221250D01*
X184184053Y-91199809D01*
X184187203Y-91178574D01*
X184192419Y-91157750D01*
X184199651Y-91137538D01*
X184208830Y-91118132D01*
X184219866Y-91099719D01*
X184232654Y-91082476D01*
X184247070Y-91066570D01*
X184262976Y-91052154D01*
X184280219Y-91039366D01*
X184298632Y-91028330D01*
X184318038Y-91019151D01*
X184338250Y-91011919D01*
X184359074Y-91006703D01*
X184380309Y-91003553D01*
X184401750Y-91002500D01*
X184914250Y-91002500D01*
X184935691Y-91003553D01*
G37*
G36*
X184935691Y-89428553D02*
G01*
X184956926Y-89431703D01*
X184977750Y-89436919D01*
X184997962Y-89444151D01*
X185017368Y-89453330D01*
X185035781Y-89464366D01*
X185053024Y-89477154D01*
X185068930Y-89491570D01*
X185083346Y-89507476D01*
X185096134Y-89524719D01*
X185107170Y-89543132D01*
X185116349Y-89562538D01*
X185123581Y-89582750D01*
X185128797Y-89603574D01*
X185131947Y-89624809D01*
X185133000Y-89646250D01*
X185133000Y-90083750D01*
X185131947Y-90105191D01*
X185128797Y-90126426D01*
X185123581Y-90147250D01*
X185116349Y-90167462D01*
X185107170Y-90186868D01*
X185096134Y-90205281D01*
X185083346Y-90222524D01*
X185068930Y-90238430D01*
X185053024Y-90252846D01*
X185035781Y-90265634D01*
X185017368Y-90276670D01*
X184997962Y-90285849D01*
X184977750Y-90293081D01*
X184956926Y-90298297D01*
X184935691Y-90301447D01*
X184914250Y-90302500D01*
X184401750Y-90302500D01*
X184380309Y-90301447D01*
X184359074Y-90298297D01*
X184338250Y-90293081D01*
X184318038Y-90285849D01*
X184298632Y-90276670D01*
X184280219Y-90265634D01*
X184262976Y-90252846D01*
X184247070Y-90238430D01*
X184232654Y-90222524D01*
X184219866Y-90205281D01*
X184208830Y-90186868D01*
X184199651Y-90167462D01*
X184192419Y-90147250D01*
X184187203Y-90126426D01*
X184184053Y-90105191D01*
X184183000Y-90083750D01*
X184183000Y-89646250D01*
X184184053Y-89624809D01*
X184187203Y-89603574D01*
X184192419Y-89582750D01*
X184199651Y-89562538D01*
X184208830Y-89543132D01*
X184219866Y-89524719D01*
X184232654Y-89507476D01*
X184247070Y-89491570D01*
X184262976Y-89477154D01*
X184280219Y-89464366D01*
X184298632Y-89453330D01*
X184318038Y-89444151D01*
X184338250Y-89436919D01*
X184359074Y-89431703D01*
X184380309Y-89428553D01*
X184401750Y-89427500D01*
X184914250Y-89427500D01*
X184935691Y-89428553D01*
G37*
G36*
X184935691Y-87219053D02*
G01*
X184956926Y-87222203D01*
X184977750Y-87227419D01*
X184997962Y-87234651D01*
X185017368Y-87243830D01*
X185035781Y-87254866D01*
X185053024Y-87267654D01*
X185068930Y-87282070D01*
X185083346Y-87297976D01*
X185096134Y-87315219D01*
X185107170Y-87333632D01*
X185116349Y-87353038D01*
X185123581Y-87373250D01*
X185128797Y-87394074D01*
X185131947Y-87415309D01*
X185133000Y-87436750D01*
X185133000Y-87874250D01*
X185131947Y-87895691D01*
X185128797Y-87916926D01*
X185123581Y-87937750D01*
X185116349Y-87957962D01*
X185107170Y-87977368D01*
X185096134Y-87995781D01*
X185083346Y-88013024D01*
X185068930Y-88028930D01*
X185053024Y-88043346D01*
X185035781Y-88056134D01*
X185017368Y-88067170D01*
X184997962Y-88076349D01*
X184977750Y-88083581D01*
X184956926Y-88088797D01*
X184935691Y-88091947D01*
X184914250Y-88093000D01*
X184401750Y-88093000D01*
X184380309Y-88091947D01*
X184359074Y-88088797D01*
X184338250Y-88083581D01*
X184318038Y-88076349D01*
X184298632Y-88067170D01*
X184280219Y-88056134D01*
X184262976Y-88043346D01*
X184247070Y-88028930D01*
X184232654Y-88013024D01*
X184219866Y-87995781D01*
X184208830Y-87977368D01*
X184199651Y-87957962D01*
X184192419Y-87937750D01*
X184187203Y-87916926D01*
X184184053Y-87895691D01*
X184183000Y-87874250D01*
X184183000Y-87436750D01*
X184184053Y-87415309D01*
X184187203Y-87394074D01*
X184192419Y-87373250D01*
X184199651Y-87353038D01*
X184208830Y-87333632D01*
X184219866Y-87315219D01*
X184232654Y-87297976D01*
X184247070Y-87282070D01*
X184262976Y-87267654D01*
X184280219Y-87254866D01*
X184298632Y-87243830D01*
X184318038Y-87234651D01*
X184338250Y-87227419D01*
X184359074Y-87222203D01*
X184380309Y-87219053D01*
X184401750Y-87218000D01*
X184914250Y-87218000D01*
X184935691Y-87219053D01*
G37*
G36*
X184935691Y-85644053D02*
G01*
X184956926Y-85647203D01*
X184977750Y-85652419D01*
X184997962Y-85659651D01*
X185017368Y-85668830D01*
X185035781Y-85679866D01*
X185053024Y-85692654D01*
X185068930Y-85707070D01*
X185083346Y-85722976D01*
X185096134Y-85740219D01*
X185107170Y-85758632D01*
X185116349Y-85778038D01*
X185123581Y-85798250D01*
X185128797Y-85819074D01*
X185131947Y-85840309D01*
X185133000Y-85861750D01*
X185133000Y-86299250D01*
X185131947Y-86320691D01*
X185128797Y-86341926D01*
X185123581Y-86362750D01*
X185116349Y-86382962D01*
X185107170Y-86402368D01*
X185096134Y-86420781D01*
X185083346Y-86438024D01*
X185068930Y-86453930D01*
X185053024Y-86468346D01*
X185035781Y-86481134D01*
X185017368Y-86492170D01*
X184997962Y-86501349D01*
X184977750Y-86508581D01*
X184956926Y-86513797D01*
X184935691Y-86516947D01*
X184914250Y-86518000D01*
X184401750Y-86518000D01*
X184380309Y-86516947D01*
X184359074Y-86513797D01*
X184338250Y-86508581D01*
X184318038Y-86501349D01*
X184298632Y-86492170D01*
X184280219Y-86481134D01*
X184262976Y-86468346D01*
X184247070Y-86453930D01*
X184232654Y-86438024D01*
X184219866Y-86420781D01*
X184208830Y-86402368D01*
X184199651Y-86382962D01*
X184192419Y-86362750D01*
X184187203Y-86341926D01*
X184184053Y-86320691D01*
X184183000Y-86299250D01*
X184183000Y-85861750D01*
X184184053Y-85840309D01*
X184187203Y-85819074D01*
X184192419Y-85798250D01*
X184199651Y-85778038D01*
X184208830Y-85758632D01*
X184219866Y-85740219D01*
X184232654Y-85722976D01*
X184247070Y-85707070D01*
X184262976Y-85692654D01*
X184280219Y-85679866D01*
X184298632Y-85668830D01*
X184318038Y-85659651D01*
X184338250Y-85652419D01*
X184359074Y-85647203D01*
X184380309Y-85644053D01*
X184401750Y-85643000D01*
X184914250Y-85643000D01*
X184935691Y-85644053D01*
G37*
G36*
X184935691Y-83637553D02*
G01*
X184956926Y-83640703D01*
X184977750Y-83645919D01*
X184997962Y-83653151D01*
X185017368Y-83662330D01*
X185035781Y-83673366D01*
X185053024Y-83686154D01*
X185068930Y-83700570D01*
X185083346Y-83716476D01*
X185096134Y-83733719D01*
X185107170Y-83752132D01*
X185116349Y-83771538D01*
X185123581Y-83791750D01*
X185128797Y-83812574D01*
X185131947Y-83833809D01*
X185133000Y-83855250D01*
X185133000Y-84292750D01*
X185131947Y-84314191D01*
X185128797Y-84335426D01*
X185123581Y-84356250D01*
X185116349Y-84376462D01*
X185107170Y-84395868D01*
X185096134Y-84414281D01*
X185083346Y-84431524D01*
X185068930Y-84447430D01*
X185053024Y-84461846D01*
X185035781Y-84474634D01*
X185017368Y-84485670D01*
X184997962Y-84494849D01*
X184977750Y-84502081D01*
X184956926Y-84507297D01*
X184935691Y-84510447D01*
X184914250Y-84511500D01*
X184401750Y-84511500D01*
X184380309Y-84510447D01*
X184359074Y-84507297D01*
X184338250Y-84502081D01*
X184318038Y-84494849D01*
X184298632Y-84485670D01*
X184280219Y-84474634D01*
X184262976Y-84461846D01*
X184247070Y-84447430D01*
X184232654Y-84431524D01*
X184219866Y-84414281D01*
X184208830Y-84395868D01*
X184199651Y-84376462D01*
X184192419Y-84356250D01*
X184187203Y-84335426D01*
X184184053Y-84314191D01*
X184183000Y-84292750D01*
X184183000Y-83855250D01*
X184184053Y-83833809D01*
X184187203Y-83812574D01*
X184192419Y-83791750D01*
X184199651Y-83771538D01*
X184208830Y-83752132D01*
X184219866Y-83733719D01*
X184232654Y-83716476D01*
X184247070Y-83700570D01*
X184262976Y-83686154D01*
X184280219Y-83673366D01*
X184298632Y-83662330D01*
X184318038Y-83653151D01*
X184338250Y-83645919D01*
X184359074Y-83640703D01*
X184380309Y-83637553D01*
X184401750Y-83636500D01*
X184914250Y-83636500D01*
X184935691Y-83637553D01*
G37*
G36*
X184935691Y-82062553D02*
G01*
X184956926Y-82065703D01*
X184977750Y-82070919D01*
X184997962Y-82078151D01*
X185017368Y-82087330D01*
X185035781Y-82098366D01*
X185053024Y-82111154D01*
X185068930Y-82125570D01*
X185083346Y-82141476D01*
X185096134Y-82158719D01*
X185107170Y-82177132D01*
X185116349Y-82196538D01*
X185123581Y-82216750D01*
X185128797Y-82237574D01*
X185131947Y-82258809D01*
X185133000Y-82280250D01*
X185133000Y-82717750D01*
X185131947Y-82739191D01*
X185128797Y-82760426D01*
X185123581Y-82781250D01*
X185116349Y-82801462D01*
X185107170Y-82820868D01*
X185096134Y-82839281D01*
X185083346Y-82856524D01*
X185068930Y-82872430D01*
X185053024Y-82886846D01*
X185035781Y-82899634D01*
X185017368Y-82910670D01*
X184997962Y-82919849D01*
X184977750Y-82927081D01*
X184956926Y-82932297D01*
X184935691Y-82935447D01*
X184914250Y-82936500D01*
X184401750Y-82936500D01*
X184380309Y-82935447D01*
X184359074Y-82932297D01*
X184338250Y-82927081D01*
X184318038Y-82919849D01*
X184298632Y-82910670D01*
X184280219Y-82899634D01*
X184262976Y-82886846D01*
X184247070Y-82872430D01*
X184232654Y-82856524D01*
X184219866Y-82839281D01*
X184208830Y-82820868D01*
X184199651Y-82801462D01*
X184192419Y-82781250D01*
X184187203Y-82760426D01*
X184184053Y-82739191D01*
X184183000Y-82717750D01*
X184183000Y-82280250D01*
X184184053Y-82258809D01*
X184187203Y-82237574D01*
X184192419Y-82216750D01*
X184199651Y-82196538D01*
X184208830Y-82177132D01*
X184219866Y-82158719D01*
X184232654Y-82141476D01*
X184247070Y-82125570D01*
X184262976Y-82111154D01*
X184280219Y-82098366D01*
X184298632Y-82087330D01*
X184318038Y-82078151D01*
X184338250Y-82070919D01*
X184359074Y-82065703D01*
X184380309Y-82062553D01*
X184401750Y-82061500D01*
X184914250Y-82061500D01*
X184935691Y-82062553D01*
G37*
G36*
X184935691Y-80005553D02*
G01*
X184956926Y-80008703D01*
X184977750Y-80013919D01*
X184997962Y-80021151D01*
X185017368Y-80030330D01*
X185035781Y-80041366D01*
X185053024Y-80054154D01*
X185068930Y-80068570D01*
X185083346Y-80084476D01*
X185096134Y-80101719D01*
X185107170Y-80120132D01*
X185116349Y-80139538D01*
X185123581Y-80159750D01*
X185128797Y-80180574D01*
X185131947Y-80201809D01*
X185133000Y-80223250D01*
X185133000Y-80660750D01*
X185131947Y-80682191D01*
X185128797Y-80703426D01*
X185123581Y-80724250D01*
X185116349Y-80744462D01*
X185107170Y-80763868D01*
X185096134Y-80782281D01*
X185083346Y-80799524D01*
X185068930Y-80815430D01*
X185053024Y-80829846D01*
X185035781Y-80842634D01*
X185017368Y-80853670D01*
X184997962Y-80862849D01*
X184977750Y-80870081D01*
X184956926Y-80875297D01*
X184935691Y-80878447D01*
X184914250Y-80879500D01*
X184401750Y-80879500D01*
X184380309Y-80878447D01*
X184359074Y-80875297D01*
X184338250Y-80870081D01*
X184318038Y-80862849D01*
X184298632Y-80853670D01*
X184280219Y-80842634D01*
X184262976Y-80829846D01*
X184247070Y-80815430D01*
X184232654Y-80799524D01*
X184219866Y-80782281D01*
X184208830Y-80763868D01*
X184199651Y-80744462D01*
X184192419Y-80724250D01*
X184187203Y-80703426D01*
X184184053Y-80682191D01*
X184183000Y-80660750D01*
X184183000Y-80223250D01*
X184184053Y-80201809D01*
X184187203Y-80180574D01*
X184192419Y-80159750D01*
X184199651Y-80139538D01*
X184208830Y-80120132D01*
X184219866Y-80101719D01*
X184232654Y-80084476D01*
X184247070Y-80068570D01*
X184262976Y-80054154D01*
X184280219Y-80041366D01*
X184298632Y-80030330D01*
X184318038Y-80021151D01*
X184338250Y-80013919D01*
X184359074Y-80008703D01*
X184380309Y-80005553D01*
X184401750Y-80004500D01*
X184914250Y-80004500D01*
X184935691Y-80005553D01*
G37*
G36*
X184935691Y-78430553D02*
G01*
X184956926Y-78433703D01*
X184977750Y-78438919D01*
X184997962Y-78446151D01*
X185017368Y-78455330D01*
X185035781Y-78466366D01*
X185053024Y-78479154D01*
X185068930Y-78493570D01*
X185083346Y-78509476D01*
X185096134Y-78526719D01*
X185107170Y-78545132D01*
X185116349Y-78564538D01*
X185123581Y-78584750D01*
X185128797Y-78605574D01*
X185131947Y-78626809D01*
X185133000Y-78648250D01*
X185133000Y-79085750D01*
X185131947Y-79107191D01*
X185128797Y-79128426D01*
X185123581Y-79149250D01*
X185116349Y-79169462D01*
X185107170Y-79188868D01*
X185096134Y-79207281D01*
X185083346Y-79224524D01*
X185068930Y-79240430D01*
X185053024Y-79254846D01*
X185035781Y-79267634D01*
X185017368Y-79278670D01*
X184997962Y-79287849D01*
X184977750Y-79295081D01*
X184956926Y-79300297D01*
X184935691Y-79303447D01*
X184914250Y-79304500D01*
X184401750Y-79304500D01*
X184380309Y-79303447D01*
X184359074Y-79300297D01*
X184338250Y-79295081D01*
X184318038Y-79287849D01*
X184298632Y-79278670D01*
X184280219Y-79267634D01*
X184262976Y-79254846D01*
X184247070Y-79240430D01*
X184232654Y-79224524D01*
X184219866Y-79207281D01*
X184208830Y-79188868D01*
X184199651Y-79169462D01*
X184192419Y-79149250D01*
X184187203Y-79128426D01*
X184184053Y-79107191D01*
X184183000Y-79085750D01*
X184183000Y-78648250D01*
X184184053Y-78626809D01*
X184187203Y-78605574D01*
X184192419Y-78584750D01*
X184199651Y-78564538D01*
X184208830Y-78545132D01*
X184219866Y-78526719D01*
X184232654Y-78509476D01*
X184247070Y-78493570D01*
X184262976Y-78479154D01*
X184280219Y-78466366D01*
X184298632Y-78455330D01*
X184318038Y-78446151D01*
X184338250Y-78438919D01*
X184359074Y-78433703D01*
X184380309Y-78430553D01*
X184401750Y-78429500D01*
X184914250Y-78429500D01*
X184935691Y-78430553D01*
G37*
G36*
X184935691Y-75941553D02*
G01*
X184956926Y-75944703D01*
X184977750Y-75949919D01*
X184997962Y-75957151D01*
X185017368Y-75966330D01*
X185035781Y-75977366D01*
X185053024Y-75990154D01*
X185068930Y-76004570D01*
X185083346Y-76020476D01*
X185096134Y-76037719D01*
X185107170Y-76056132D01*
X185116349Y-76075538D01*
X185123581Y-76095750D01*
X185128797Y-76116574D01*
X185131947Y-76137809D01*
X185133000Y-76159250D01*
X185133000Y-76596750D01*
X185131947Y-76618191D01*
X185128797Y-76639426D01*
X185123581Y-76660250D01*
X185116349Y-76680462D01*
X185107170Y-76699868D01*
X185096134Y-76718281D01*
X185083346Y-76735524D01*
X185068930Y-76751430D01*
X185053024Y-76765846D01*
X185035781Y-76778634D01*
X185017368Y-76789670D01*
X184997962Y-76798849D01*
X184977750Y-76806081D01*
X184956926Y-76811297D01*
X184935691Y-76814447D01*
X184914250Y-76815500D01*
X184401750Y-76815500D01*
X184380309Y-76814447D01*
X184359074Y-76811297D01*
X184338250Y-76806081D01*
X184318038Y-76798849D01*
X184298632Y-76789670D01*
X184280219Y-76778634D01*
X184262976Y-76765846D01*
X184247070Y-76751430D01*
X184232654Y-76735524D01*
X184219866Y-76718281D01*
X184208830Y-76699868D01*
X184199651Y-76680462D01*
X184192419Y-76660250D01*
X184187203Y-76639426D01*
X184184053Y-76618191D01*
X184183000Y-76596750D01*
X184183000Y-76159250D01*
X184184053Y-76137809D01*
X184187203Y-76116574D01*
X184192419Y-76095750D01*
X184199651Y-76075538D01*
X184208830Y-76056132D01*
X184219866Y-76037719D01*
X184232654Y-76020476D01*
X184247070Y-76004570D01*
X184262976Y-75990154D01*
X184280219Y-75977366D01*
X184298632Y-75966330D01*
X184318038Y-75957151D01*
X184338250Y-75949919D01*
X184359074Y-75944703D01*
X184380309Y-75941553D01*
X184401750Y-75940500D01*
X184914250Y-75940500D01*
X184935691Y-75941553D01*
G37*
G36*
X184935691Y-74366553D02*
G01*
X184956926Y-74369703D01*
X184977750Y-74374919D01*
X184997962Y-74382151D01*
X185017368Y-74391330D01*
X185035781Y-74402366D01*
X185053024Y-74415154D01*
X185068930Y-74429570D01*
X185083346Y-74445476D01*
X185096134Y-74462719D01*
X185107170Y-74481132D01*
X185116349Y-74500538D01*
X185123581Y-74520750D01*
X185128797Y-74541574D01*
X185131947Y-74562809D01*
X185133000Y-74584250D01*
X185133000Y-75021750D01*
X185131947Y-75043191D01*
X185128797Y-75064426D01*
X185123581Y-75085250D01*
X185116349Y-75105462D01*
X185107170Y-75124868D01*
X185096134Y-75143281D01*
X185083346Y-75160524D01*
X185068930Y-75176430D01*
X185053024Y-75190846D01*
X185035781Y-75203634D01*
X185017368Y-75214670D01*
X184997962Y-75223849D01*
X184977750Y-75231081D01*
X184956926Y-75236297D01*
X184935691Y-75239447D01*
X184914250Y-75240500D01*
X184401750Y-75240500D01*
X184380309Y-75239447D01*
X184359074Y-75236297D01*
X184338250Y-75231081D01*
X184318038Y-75223849D01*
X184298632Y-75214670D01*
X184280219Y-75203634D01*
X184262976Y-75190846D01*
X184247070Y-75176430D01*
X184232654Y-75160524D01*
X184219866Y-75143281D01*
X184208830Y-75124868D01*
X184199651Y-75105462D01*
X184192419Y-75085250D01*
X184187203Y-75064426D01*
X184184053Y-75043191D01*
X184183000Y-75021750D01*
X184183000Y-74584250D01*
X184184053Y-74562809D01*
X184187203Y-74541574D01*
X184192419Y-74520750D01*
X184199651Y-74500538D01*
X184208830Y-74481132D01*
X184219866Y-74462719D01*
X184232654Y-74445476D01*
X184247070Y-74429570D01*
X184262976Y-74415154D01*
X184280219Y-74402366D01*
X184298632Y-74391330D01*
X184318038Y-74382151D01*
X184338250Y-74374919D01*
X184359074Y-74369703D01*
X184380309Y-74366553D01*
X184401750Y-74365500D01*
X184914250Y-74365500D01*
X184935691Y-74366553D01*
G37*
G36*
X181596191Y-74329053D02*
G01*
X181617426Y-74332203D01*
X181638250Y-74337419D01*
X181658462Y-74344651D01*
X181677868Y-74353830D01*
X181696281Y-74364866D01*
X181713524Y-74377654D01*
X181729430Y-74392070D01*
X181743846Y-74407976D01*
X181756634Y-74425219D01*
X181767670Y-74443632D01*
X181776849Y-74463038D01*
X181784081Y-74483250D01*
X181789297Y-74504074D01*
X181792447Y-74525309D01*
X181793500Y-74546750D01*
X181793500Y-75059250D01*
X181792447Y-75080691D01*
X181789297Y-75101926D01*
X181784081Y-75122750D01*
X181776849Y-75142962D01*
X181767670Y-75162368D01*
X181756634Y-75180781D01*
X181743846Y-75198024D01*
X181729430Y-75213930D01*
X181713524Y-75228346D01*
X181696281Y-75241134D01*
X181677868Y-75252170D01*
X181658462Y-75261349D01*
X181638250Y-75268581D01*
X181617426Y-75273797D01*
X181596191Y-75276947D01*
X181574750Y-75278000D01*
X181137250Y-75278000D01*
X181115809Y-75276947D01*
X181094574Y-75273797D01*
X181073750Y-75268581D01*
X181053538Y-75261349D01*
X181034132Y-75252170D01*
X181015719Y-75241134D01*
X180998476Y-75228346D01*
X180982570Y-75213930D01*
X180968154Y-75198024D01*
X180955366Y-75180781D01*
X180944330Y-75162368D01*
X180935151Y-75142962D01*
X180927919Y-75122750D01*
X180922703Y-75101926D01*
X180919553Y-75080691D01*
X180918500Y-75059250D01*
X180918500Y-74546750D01*
X180919553Y-74525309D01*
X180922703Y-74504074D01*
X180927919Y-74483250D01*
X180935151Y-74463038D01*
X180944330Y-74443632D01*
X180955366Y-74425219D01*
X180968154Y-74407976D01*
X180982570Y-74392070D01*
X180998476Y-74377654D01*
X181015719Y-74364866D01*
X181034132Y-74353830D01*
X181053538Y-74344651D01*
X181073750Y-74337419D01*
X181094574Y-74332203D01*
X181115809Y-74329053D01*
X181137250Y-74328000D01*
X181574750Y-74328000D01*
X181596191Y-74329053D01*
G37*
G36*
X183171191Y-74329053D02*
G01*
X183192426Y-74332203D01*
X183213250Y-74337419D01*
X183233462Y-74344651D01*
X183252868Y-74353830D01*
X183271281Y-74364866D01*
X183288524Y-74377654D01*
X183304430Y-74392070D01*
X183318846Y-74407976D01*
X183331634Y-74425219D01*
X183342670Y-74443632D01*
X183351849Y-74463038D01*
X183359081Y-74483250D01*
X183364297Y-74504074D01*
X183367447Y-74525309D01*
X183368500Y-74546750D01*
X183368500Y-75059250D01*
X183367447Y-75080691D01*
X183364297Y-75101926D01*
X183359081Y-75122750D01*
X183351849Y-75142962D01*
X183342670Y-75162368D01*
X183331634Y-75180781D01*
X183318846Y-75198024D01*
X183304430Y-75213930D01*
X183288524Y-75228346D01*
X183271281Y-75241134D01*
X183252868Y-75252170D01*
X183233462Y-75261349D01*
X183213250Y-75268581D01*
X183192426Y-75273797D01*
X183171191Y-75276947D01*
X183149750Y-75278000D01*
X182712250Y-75278000D01*
X182690809Y-75276947D01*
X182669574Y-75273797D01*
X182648750Y-75268581D01*
X182628538Y-75261349D01*
X182609132Y-75252170D01*
X182590719Y-75241134D01*
X182573476Y-75228346D01*
X182557570Y-75213930D01*
X182543154Y-75198024D01*
X182530366Y-75180781D01*
X182519330Y-75162368D01*
X182510151Y-75142962D01*
X182502919Y-75122750D01*
X182497703Y-75101926D01*
X182494553Y-75080691D01*
X182493500Y-75059250D01*
X182493500Y-74546750D01*
X182494553Y-74525309D01*
X182497703Y-74504074D01*
X182502919Y-74483250D01*
X182510151Y-74463038D01*
X182519330Y-74443632D01*
X182530366Y-74425219D01*
X182543154Y-74407976D01*
X182557570Y-74392070D01*
X182573476Y-74377654D01*
X182590719Y-74364866D01*
X182609132Y-74353830D01*
X182628538Y-74344651D01*
X182648750Y-74337419D01*
X182669574Y-74332203D01*
X182690809Y-74329053D01*
X182712250Y-74328000D01*
X183149750Y-74328000D01*
X183171191Y-74329053D01*
G37*
M02*
