M48
; DRILL file {KiCad 5.1.5} date So 24 Mai 2020 16:06:22 CEST
; FORMAT={-:-/ absolute / inch / decimal}
; #@! TF.CreationDate,2020-05-24T16:06:22+02:00
; #@! TF.GenerationSoftware,Kicad,Pcbnew,5.1.5
; #@! TF.FileFunction,Plated,1,2,PTH
FMAT,2
INCH
T1C0.0157
T2C0.0394
%
G90
G05
T1
X6.085Y-3.495
X6.2902Y-2.9977
X6.3412Y-3.0236
X6.695Y-3.575
X6.775Y-3.6
X6.86Y-3.3685
T2
X6.635Y-2.77
X6.735Y-2.77
X6.835Y-2.77
X6.935Y-2.77
X7.035Y-2.77
X7.135Y-2.77
X5.805Y-2.615
X5.805Y-2.715
X5.805Y-2.815
X5.805Y-2.915
X5.805Y-3.015
X5.805Y-3.115
X6.605Y-2.415
X6.705Y-2.415
X5.98Y-2.775
X6.08Y-2.775
X6.18Y-2.775
X6.28Y-2.775
X6.38Y-2.775
X6.48Y-2.775
X6.405Y-2.585
X6.505Y-2.585
X6.605Y-2.585
X6.705Y-2.585
X5.735Y-2.415
X5.835Y-2.415
X5.935Y-2.415
X6.035Y-2.415
X6.135Y-2.415
X6.235Y-2.415
X6.335Y-2.415
X6.385Y-3.84
X6.485Y-3.84
X6.585Y-3.84
X6.685Y-3.84
X6.785Y-3.84
X6.885Y-3.84
X7.03Y-2.94
X7.03Y-3.04
X7.03Y-3.14
X7.03Y-3.24
X7.03Y-3.34
X7.03Y-3.44
X7.03Y-3.54
X7.03Y-3.64
X7.03Y-3.74
X7.03Y-3.84
X5.805Y-3.29
X5.805Y-3.39
X5.805Y-3.49
X5.805Y-3.59
X5.805Y-3.69
X5.925Y-3.84
X6.025Y-3.84
X6.125Y-3.84
X6.225Y-3.84
T0
M30
