G04 #@! TF.GenerationSoftware,KiCad,Pcbnew,5.1.5*
G04 #@! TF.CreationDate,2020-05-24T16:04:19+02:00*
G04 #@! TF.ProjectId,ATSAML22GA18A_DevBoard,41545341-4d4c-4323-9247-413138415f44,rev?*
G04 #@! TF.SameCoordinates,Original*
G04 #@! TF.FileFunction,Legend,Bot*
G04 #@! TF.FilePolarity,Positive*
%FSLAX46Y46*%
G04 Gerber Fmt 4.6, Leading zero omitted, Abs format (unit mm)*
G04 Created by KiCad (PCBNEW 5.1.5) date 2020-05-24 16:04:19*
%MOMM*%
%LPD*%
G04 APERTURE LIST*
%ADD10C,0.150000*%
%ADD11C,0.120000*%
G04 APERTURE END LIST*
D10*
X172686023Y-76561666D02*
X172209833Y-76561666D01*
X172781261Y-76847380D02*
X172447928Y-75847380D01*
X172114595Y-76847380D01*
X171924119Y-75847380D02*
X171352690Y-75847380D01*
X171638404Y-76847380D02*
X171638404Y-75847380D01*
X171066976Y-76799761D02*
X170924119Y-76847380D01*
X170686023Y-76847380D01*
X170590785Y-76799761D01*
X170543166Y-76752142D01*
X170495547Y-76656904D01*
X170495547Y-76561666D01*
X170543166Y-76466428D01*
X170590785Y-76418809D01*
X170686023Y-76371190D01*
X170876500Y-76323571D01*
X170971738Y-76275952D01*
X171019357Y-76228333D01*
X171066976Y-76133095D01*
X171066976Y-76037857D01*
X171019357Y-75942619D01*
X170971738Y-75895000D01*
X170876500Y-75847380D01*
X170638404Y-75847380D01*
X170495547Y-75895000D01*
X170114595Y-76561666D02*
X169638404Y-76561666D01*
X170209833Y-76847380D02*
X169876500Y-75847380D01*
X169543166Y-76847380D01*
X169209833Y-76847380D02*
X169209833Y-75847380D01*
X168876500Y-76561666D01*
X168543166Y-75847380D01*
X168543166Y-76847380D01*
X167590785Y-76847380D02*
X168066976Y-76847380D01*
X168066976Y-75847380D01*
X167305071Y-75942619D02*
X167257452Y-75895000D01*
X167162214Y-75847380D01*
X166924119Y-75847380D01*
X166828880Y-75895000D01*
X166781261Y-75942619D01*
X166733642Y-76037857D01*
X166733642Y-76133095D01*
X166781261Y-76275952D01*
X167352690Y-76847380D01*
X166733642Y-76847380D01*
X166352690Y-75942619D02*
X166305071Y-75895000D01*
X166209833Y-75847380D01*
X165971738Y-75847380D01*
X165876500Y-75895000D01*
X165828880Y-75942619D01*
X165781261Y-76037857D01*
X165781261Y-76133095D01*
X165828880Y-76275952D01*
X166400309Y-76847380D01*
X165781261Y-76847380D01*
X164828880Y-75895000D02*
X164924119Y-75847380D01*
X165066976Y-75847380D01*
X165209833Y-75895000D01*
X165305071Y-75990238D01*
X165352690Y-76085476D01*
X165400309Y-76275952D01*
X165400309Y-76418809D01*
X165352690Y-76609285D01*
X165305071Y-76704523D01*
X165209833Y-76799761D01*
X165066976Y-76847380D01*
X164971738Y-76847380D01*
X164828880Y-76799761D01*
X164781261Y-76752142D01*
X164781261Y-76418809D01*
X164971738Y-76418809D01*
X163828880Y-76847380D02*
X164400309Y-76847380D01*
X164114595Y-76847380D02*
X164114595Y-75847380D01*
X164209833Y-75990238D01*
X164305071Y-76085476D01*
X164400309Y-76133095D01*
X163257452Y-76275952D02*
X163352690Y-76228333D01*
X163400309Y-76180714D01*
X163447928Y-76085476D01*
X163447928Y-76037857D01*
X163400309Y-75942619D01*
X163352690Y-75895000D01*
X163257452Y-75847380D01*
X163066976Y-75847380D01*
X162971738Y-75895000D01*
X162924119Y-75942619D01*
X162876500Y-76037857D01*
X162876500Y-76085476D01*
X162924119Y-76180714D01*
X162971738Y-76228333D01*
X163066976Y-76275952D01*
X163257452Y-76275952D01*
X163352690Y-76323571D01*
X163400309Y-76371190D01*
X163447928Y-76466428D01*
X163447928Y-76656904D01*
X163400309Y-76752142D01*
X163352690Y-76799761D01*
X163257452Y-76847380D01*
X163066976Y-76847380D01*
X162971738Y-76799761D01*
X162924119Y-76752142D01*
X162876500Y-76656904D01*
X162876500Y-76466428D01*
X162924119Y-76371190D01*
X162971738Y-76323571D01*
X163066976Y-76275952D01*
X162495547Y-76561666D02*
X162019357Y-76561666D01*
X162590785Y-76847380D02*
X162257452Y-75847380D01*
X161924119Y-76847380D01*
X160971738Y-75847380D02*
X160400309Y-75847380D01*
X160686023Y-76847380D02*
X160686023Y-75847380D01*
X159686023Y-76799761D02*
X159781261Y-76847380D01*
X159971738Y-76847380D01*
X160066976Y-76799761D01*
X160114595Y-76704523D01*
X160114595Y-76323571D01*
X160066976Y-76228333D01*
X159971738Y-76180714D01*
X159781261Y-76180714D01*
X159686023Y-76228333D01*
X159638404Y-76323571D01*
X159638404Y-76418809D01*
X160114595Y-76514047D01*
X159257452Y-76799761D02*
X159162214Y-76847380D01*
X158971738Y-76847380D01*
X158876500Y-76799761D01*
X158828880Y-76704523D01*
X158828880Y-76656904D01*
X158876500Y-76561666D01*
X158971738Y-76514047D01*
X159114595Y-76514047D01*
X159209833Y-76466428D01*
X159257452Y-76371190D01*
X159257452Y-76323571D01*
X159209833Y-76228333D01*
X159114595Y-76180714D01*
X158971738Y-76180714D01*
X158876500Y-76228333D01*
X158543166Y-76180714D02*
X158162214Y-76180714D01*
X158400309Y-75847380D02*
X158400309Y-76704523D01*
X158352690Y-76799761D01*
X158257452Y-76847380D01*
X158162214Y-76847380D01*
X156733642Y-76323571D02*
X156590785Y-76371190D01*
X156543166Y-76418809D01*
X156495547Y-76514047D01*
X156495547Y-76656904D01*
X156543166Y-76752142D01*
X156590785Y-76799761D01*
X156686023Y-76847380D01*
X157066976Y-76847380D01*
X157066976Y-75847380D01*
X156733642Y-75847380D01*
X156638404Y-75895000D01*
X156590785Y-75942619D01*
X156543166Y-76037857D01*
X156543166Y-76133095D01*
X156590785Y-76228333D01*
X156638404Y-76275952D01*
X156733642Y-76323571D01*
X157066976Y-76323571D01*
X155924119Y-76847380D02*
X156019357Y-76799761D01*
X156066976Y-76752142D01*
X156114595Y-76656904D01*
X156114595Y-76371190D01*
X156066976Y-76275952D01*
X156019357Y-76228333D01*
X155924119Y-76180714D01*
X155781261Y-76180714D01*
X155686023Y-76228333D01*
X155638404Y-76275952D01*
X155590785Y-76371190D01*
X155590785Y-76656904D01*
X155638404Y-76752142D01*
X155686023Y-76799761D01*
X155781261Y-76847380D01*
X155924119Y-76847380D01*
X154733642Y-76847380D02*
X154733642Y-76323571D01*
X154781261Y-76228333D01*
X154876500Y-76180714D01*
X155066976Y-76180714D01*
X155162214Y-76228333D01*
X154733642Y-76799761D02*
X154828880Y-76847380D01*
X155066976Y-76847380D01*
X155162214Y-76799761D01*
X155209833Y-76704523D01*
X155209833Y-76609285D01*
X155162214Y-76514047D01*
X155066976Y-76466428D01*
X154828880Y-76466428D01*
X154733642Y-76418809D01*
X154257452Y-76847380D02*
X154257452Y-76180714D01*
X154257452Y-76371190D02*
X154209833Y-76275952D01*
X154162214Y-76228333D01*
X154066976Y-76180714D01*
X153971738Y-76180714D01*
X153209833Y-76847380D02*
X153209833Y-75847380D01*
X153209833Y-76799761D02*
X153305071Y-76847380D01*
X153495547Y-76847380D01*
X153590785Y-76799761D01*
X153638404Y-76752142D01*
X153686023Y-76656904D01*
X153686023Y-76371190D01*
X153638404Y-76275952D01*
X153590785Y-76228333D01*
X153495547Y-76180714D01*
X153305071Y-76180714D01*
X153209833Y-76228333D01*
X172352690Y-78830714D02*
X172590785Y-78830714D01*
X172590785Y-77402142D01*
X172352690Y-77402142D01*
X172209833Y-78592619D02*
X171447928Y-78592619D01*
X171305071Y-78830714D02*
X171066976Y-78830714D01*
X171066976Y-77402142D01*
X171305071Y-77402142D01*
X169781261Y-78497380D02*
X169781261Y-77497380D01*
X168590785Y-77449761D02*
X169447928Y-78735476D01*
X168066976Y-77497380D02*
X167876500Y-77497380D01*
X167781261Y-77545000D01*
X167686023Y-77640238D01*
X167638404Y-77830714D01*
X167638404Y-78164047D01*
X167686023Y-78354523D01*
X167781261Y-78449761D01*
X167876500Y-78497380D01*
X168066976Y-78497380D01*
X168162214Y-78449761D01*
X168257452Y-78354523D01*
X168305071Y-78164047D01*
X168305071Y-77830714D01*
X168257452Y-77640238D01*
X168162214Y-77545000D01*
X168066976Y-77497380D01*
X167257452Y-78449761D02*
X167162214Y-78497380D01*
X166971738Y-78497380D01*
X166876500Y-78449761D01*
X166828880Y-78354523D01*
X166828880Y-78306904D01*
X166876500Y-78211666D01*
X166971738Y-78164047D01*
X167114595Y-78164047D01*
X167209833Y-78116428D01*
X167257452Y-78021190D01*
X167257452Y-77973571D01*
X167209833Y-77878333D01*
X167114595Y-77830714D01*
X166971738Y-77830714D01*
X166876500Y-77878333D01*
X172352690Y-80480714D02*
X172590785Y-80480714D01*
X172590785Y-79052142D01*
X172352690Y-79052142D01*
X172209833Y-80242619D02*
X171447928Y-80242619D01*
X171305071Y-80480714D02*
X171066976Y-80480714D01*
X171066976Y-79052142D01*
X171305071Y-79052142D01*
X169924119Y-79147380D02*
X169352690Y-79147380D01*
X169638404Y-80147380D02*
X169638404Y-79147380D01*
X169019357Y-80147380D02*
X169019357Y-79480714D01*
X169019357Y-79147380D02*
X169066976Y-79195000D01*
X169019357Y-79242619D01*
X168971738Y-79195000D01*
X169019357Y-79147380D01*
X169019357Y-79242619D01*
X168543166Y-80147380D02*
X168543166Y-79480714D01*
X168543166Y-79575952D02*
X168495547Y-79528333D01*
X168400309Y-79480714D01*
X168257452Y-79480714D01*
X168162214Y-79528333D01*
X168114595Y-79623571D01*
X168114595Y-80147380D01*
X168114595Y-79623571D02*
X168066976Y-79528333D01*
X167971738Y-79480714D01*
X167828880Y-79480714D01*
X167733642Y-79528333D01*
X167686023Y-79623571D01*
X167686023Y-80147380D01*
X166828880Y-80099761D02*
X166924119Y-80147380D01*
X167114595Y-80147380D01*
X167209833Y-80099761D01*
X167257452Y-80004523D01*
X167257452Y-79623571D01*
X167209833Y-79528333D01*
X167114595Y-79480714D01*
X166924119Y-79480714D01*
X166828880Y-79528333D01*
X166781261Y-79623571D01*
X166781261Y-79718809D01*
X167257452Y-79814047D01*
X166352690Y-80147380D02*
X166352690Y-79480714D01*
X166352690Y-79671190D02*
X166305071Y-79575952D01*
X166257452Y-79528333D01*
X166162214Y-79480714D01*
X166066976Y-79480714D01*
X172352690Y-82130714D02*
X172590785Y-82130714D01*
X172590785Y-80702142D01*
X172352690Y-80702142D01*
X172209833Y-81892619D02*
X171447928Y-81892619D01*
X171305071Y-82130714D02*
X171066976Y-82130714D01*
X171066976Y-80702142D01*
X171305071Y-80702142D01*
X169209833Y-81797380D02*
X169543166Y-81321190D01*
X169781261Y-81797380D02*
X169781261Y-80797380D01*
X169400309Y-80797380D01*
X169305071Y-80845000D01*
X169257452Y-80892619D01*
X169209833Y-80987857D01*
X169209833Y-81130714D01*
X169257452Y-81225952D01*
X169305071Y-81273571D01*
X169400309Y-81321190D01*
X169781261Y-81321190D01*
X168924119Y-80797380D02*
X168352690Y-80797380D01*
X168638404Y-81797380D02*
X168638404Y-80797380D01*
X167447928Y-81702142D02*
X167495547Y-81749761D01*
X167638404Y-81797380D01*
X167733642Y-81797380D01*
X167876500Y-81749761D01*
X167971738Y-81654523D01*
X168019357Y-81559285D01*
X168066976Y-81368809D01*
X168066976Y-81225952D01*
X168019357Y-81035476D01*
X167971738Y-80940238D01*
X167876500Y-80845000D01*
X167733642Y-80797380D01*
X167638404Y-80797380D01*
X167495547Y-80845000D01*
X167447928Y-80892619D01*
X172352690Y-83780714D02*
X172590785Y-83780714D01*
X172590785Y-82352142D01*
X172352690Y-82352142D01*
X172209833Y-83542619D02*
X171447928Y-83542619D01*
X171305071Y-83780714D02*
X171066976Y-83780714D01*
X171066976Y-82352142D01*
X171305071Y-82352142D01*
X169781261Y-83447380D02*
X169781261Y-82447380D01*
X169352690Y-82542619D02*
X169305071Y-82495000D01*
X169209833Y-82447380D01*
X168971738Y-82447380D01*
X168876500Y-82495000D01*
X168828880Y-82542619D01*
X168781261Y-82637857D01*
X168781261Y-82733095D01*
X168828880Y-82875952D01*
X169400309Y-83447380D01*
X168781261Y-83447380D01*
X167781261Y-83352142D02*
X167828880Y-83399761D01*
X167971738Y-83447380D01*
X168066976Y-83447380D01*
X168209833Y-83399761D01*
X168305071Y-83304523D01*
X168352690Y-83209285D01*
X168400309Y-83018809D01*
X168400309Y-82875952D01*
X168352690Y-82685476D01*
X168305071Y-82590238D01*
X168209833Y-82495000D01*
X168066976Y-82447380D01*
X167971738Y-82447380D01*
X167828880Y-82495000D01*
X167781261Y-82542619D01*
X172352690Y-85430714D02*
X172590785Y-85430714D01*
X172590785Y-84002142D01*
X172352690Y-84002142D01*
X172209833Y-85192619D02*
X171447928Y-85192619D01*
X171305071Y-85430714D02*
X171066976Y-85430714D01*
X171066976Y-84002142D01*
X171305071Y-84002142D01*
X169828880Y-85049761D02*
X169686023Y-85097380D01*
X169447928Y-85097380D01*
X169352690Y-85049761D01*
X169305071Y-85002142D01*
X169257452Y-84906904D01*
X169257452Y-84811666D01*
X169305071Y-84716428D01*
X169352690Y-84668809D01*
X169447928Y-84621190D01*
X169638404Y-84573571D01*
X169733642Y-84525952D01*
X169781261Y-84478333D01*
X169828880Y-84383095D01*
X169828880Y-84287857D01*
X169781261Y-84192619D01*
X169733642Y-84145000D01*
X169638404Y-84097380D01*
X169400309Y-84097380D01*
X169257452Y-84145000D01*
X168828880Y-85097380D02*
X168828880Y-84097380D01*
X168447928Y-84097380D01*
X168352690Y-84145000D01*
X168305071Y-84192619D01*
X168257452Y-84287857D01*
X168257452Y-84430714D01*
X168305071Y-84525952D01*
X168352690Y-84573571D01*
X168447928Y-84621190D01*
X168828880Y-84621190D01*
X167828880Y-85097380D02*
X167828880Y-84097380D01*
X172352690Y-87080714D02*
X172590785Y-87080714D01*
X172590785Y-85652142D01*
X172352690Y-85652142D01*
X172209833Y-86842619D02*
X171447928Y-86842619D01*
X171305071Y-87080714D02*
X171066976Y-87080714D01*
X171066976Y-85652142D01*
X171305071Y-85652142D01*
X169828880Y-86699761D02*
X169686023Y-86747380D01*
X169447928Y-86747380D01*
X169352690Y-86699761D01*
X169305071Y-86652142D01*
X169257452Y-86556904D01*
X169257452Y-86461666D01*
X169305071Y-86366428D01*
X169352690Y-86318809D01*
X169447928Y-86271190D01*
X169638404Y-86223571D01*
X169733642Y-86175952D01*
X169781261Y-86128333D01*
X169828880Y-86033095D01*
X169828880Y-85937857D01*
X169781261Y-85842619D01*
X169733642Y-85795000D01*
X169638404Y-85747380D01*
X169400309Y-85747380D01*
X169257452Y-85795000D01*
X168447928Y-86699761D02*
X168543166Y-86747380D01*
X168733642Y-86747380D01*
X168828880Y-86699761D01*
X168876500Y-86604523D01*
X168876500Y-86223571D01*
X168828880Y-86128333D01*
X168733642Y-86080714D01*
X168543166Y-86080714D01*
X168447928Y-86128333D01*
X168400309Y-86223571D01*
X168400309Y-86318809D01*
X168876500Y-86414047D01*
X167971738Y-86747380D02*
X167971738Y-86080714D01*
X167971738Y-86271190D02*
X167924119Y-86175952D01*
X167876500Y-86128333D01*
X167781261Y-86080714D01*
X167686023Y-86080714D01*
X167352690Y-86747380D02*
X167352690Y-86080714D01*
X167352690Y-85747380D02*
X167400309Y-85795000D01*
X167352690Y-85842619D01*
X167305071Y-85795000D01*
X167352690Y-85747380D01*
X167352690Y-85842619D01*
X166447928Y-86747380D02*
X166447928Y-86223571D01*
X166495547Y-86128333D01*
X166590785Y-86080714D01*
X166781261Y-86080714D01*
X166876500Y-86128333D01*
X166447928Y-86699761D02*
X166543166Y-86747380D01*
X166781261Y-86747380D01*
X166876500Y-86699761D01*
X166924119Y-86604523D01*
X166924119Y-86509285D01*
X166876500Y-86414047D01*
X166781261Y-86366428D01*
X166543166Y-86366428D01*
X166447928Y-86318809D01*
X165828880Y-86747380D02*
X165924119Y-86699761D01*
X165971738Y-86604523D01*
X165971738Y-85747380D01*
X172352690Y-88730714D02*
X172590785Y-88730714D01*
X172590785Y-87302142D01*
X172352690Y-87302142D01*
X172209833Y-88492619D02*
X171447928Y-88492619D01*
X171305071Y-88730714D02*
X171066976Y-88730714D01*
X171066976Y-87302142D01*
X171305071Y-87302142D01*
X169828880Y-88111666D02*
X169352690Y-88111666D01*
X169924119Y-88397380D02*
X169590785Y-87397380D01*
X169257452Y-88397380D01*
X168924119Y-88397380D02*
X168924119Y-87397380D01*
X168686023Y-87397380D01*
X168543166Y-87445000D01*
X168447928Y-87540238D01*
X168400309Y-87635476D01*
X168352690Y-87825952D01*
X168352690Y-87968809D01*
X168400309Y-88159285D01*
X168447928Y-88254523D01*
X168543166Y-88349761D01*
X168686023Y-88397380D01*
X168924119Y-88397380D01*
X167352690Y-88302142D02*
X167400309Y-88349761D01*
X167543166Y-88397380D01*
X167638404Y-88397380D01*
X167781261Y-88349761D01*
X167876500Y-88254523D01*
X167924119Y-88159285D01*
X167971738Y-87968809D01*
X167971738Y-87825952D01*
X167924119Y-87635476D01*
X167876500Y-87540238D01*
X167781261Y-87445000D01*
X167638404Y-87397380D01*
X167543166Y-87397380D01*
X167400309Y-87445000D01*
X167352690Y-87492619D01*
X172352690Y-90380714D02*
X172590785Y-90380714D01*
X172590785Y-88952142D01*
X172352690Y-88952142D01*
X172209833Y-90142619D02*
X171447928Y-90142619D01*
X171305071Y-90380714D02*
X171066976Y-90380714D01*
X171066976Y-88952142D01*
X171305071Y-88952142D01*
X169781261Y-89047380D02*
X169781261Y-89856904D01*
X169733642Y-89952142D01*
X169686023Y-89999761D01*
X169590785Y-90047380D01*
X169400309Y-90047380D01*
X169305071Y-89999761D01*
X169257452Y-89952142D01*
X169209833Y-89856904D01*
X169209833Y-89047380D01*
X168781261Y-89999761D02*
X168638404Y-90047380D01*
X168400309Y-90047380D01*
X168305071Y-89999761D01*
X168257452Y-89952142D01*
X168209833Y-89856904D01*
X168209833Y-89761666D01*
X168257452Y-89666428D01*
X168305071Y-89618809D01*
X168400309Y-89571190D01*
X168590785Y-89523571D01*
X168686023Y-89475952D01*
X168733642Y-89428333D01*
X168781261Y-89333095D01*
X168781261Y-89237857D01*
X168733642Y-89142619D01*
X168686023Y-89095000D01*
X168590785Y-89047380D01*
X168352690Y-89047380D01*
X168209833Y-89095000D01*
X167447928Y-89523571D02*
X167305071Y-89571190D01*
X167257452Y-89618809D01*
X167209833Y-89714047D01*
X167209833Y-89856904D01*
X167257452Y-89952142D01*
X167305071Y-89999761D01*
X167400309Y-90047380D01*
X167781261Y-90047380D01*
X167781261Y-89047380D01*
X167447928Y-89047380D01*
X167352690Y-89095000D01*
X167305071Y-89142619D01*
X167257452Y-89237857D01*
X167257452Y-89333095D01*
X167305071Y-89428333D01*
X167352690Y-89475952D01*
X167447928Y-89523571D01*
X167781261Y-89523571D01*
X172352690Y-92030714D02*
X172590785Y-92030714D01*
X172590785Y-90602142D01*
X172352690Y-90602142D01*
X172209833Y-91792619D02*
X171447928Y-91792619D01*
X171305071Y-92030714D02*
X171066976Y-92030714D01*
X171066976Y-90602142D01*
X171305071Y-90602142D01*
X169447928Y-91173571D02*
X169305071Y-91221190D01*
X169257452Y-91268809D01*
X169209833Y-91364047D01*
X169209833Y-91506904D01*
X169257452Y-91602142D01*
X169305071Y-91649761D01*
X169400309Y-91697380D01*
X169781261Y-91697380D01*
X169781261Y-90697380D01*
X169447928Y-90697380D01*
X169352690Y-90745000D01*
X169305071Y-90792619D01*
X169257452Y-90887857D01*
X169257452Y-90983095D01*
X169305071Y-91078333D01*
X169352690Y-91125952D01*
X169447928Y-91173571D01*
X169781261Y-91173571D01*
X168352690Y-91697380D02*
X168352690Y-91173571D01*
X168400309Y-91078333D01*
X168495547Y-91030714D01*
X168686023Y-91030714D01*
X168781261Y-91078333D01*
X168352690Y-91649761D02*
X168447928Y-91697380D01*
X168686023Y-91697380D01*
X168781261Y-91649761D01*
X168828880Y-91554523D01*
X168828880Y-91459285D01*
X168781261Y-91364047D01*
X168686023Y-91316428D01*
X168447928Y-91316428D01*
X168352690Y-91268809D01*
X168019357Y-91030714D02*
X167638404Y-91030714D01*
X167876500Y-90697380D02*
X167876500Y-91554523D01*
X167828880Y-91649761D01*
X167733642Y-91697380D01*
X167638404Y-91697380D01*
X167447928Y-91030714D02*
X167066976Y-91030714D01*
X167305071Y-90697380D02*
X167305071Y-91554523D01*
X167257452Y-91649761D01*
X167162214Y-91697380D01*
X167066976Y-91697380D01*
X166352690Y-91649761D02*
X166447928Y-91697380D01*
X166638404Y-91697380D01*
X166733642Y-91649761D01*
X166781261Y-91554523D01*
X166781261Y-91173571D01*
X166733642Y-91078333D01*
X166638404Y-91030714D01*
X166447928Y-91030714D01*
X166352690Y-91078333D01*
X166305071Y-91173571D01*
X166305071Y-91268809D01*
X166781261Y-91364047D01*
X165876500Y-91697380D02*
X165876500Y-91030714D01*
X165876500Y-91221190D02*
X165828880Y-91125952D01*
X165781261Y-91078333D01*
X165686023Y-91030714D01*
X165590785Y-91030714D01*
X165352690Y-91030714D02*
X165114595Y-91697380D01*
X164876500Y-91030714D02*
X165114595Y-91697380D01*
X165209833Y-91935476D01*
X165257452Y-91983095D01*
X165352690Y-92030714D01*
X163733642Y-91697380D02*
X163733642Y-90697380D01*
X163400309Y-91411666D01*
X163066976Y-90697380D01*
X163066976Y-91697380D01*
X162162214Y-91697380D02*
X162162214Y-91173571D01*
X162209833Y-91078333D01*
X162305071Y-91030714D01*
X162495547Y-91030714D01*
X162590785Y-91078333D01*
X162162214Y-91649761D02*
X162257452Y-91697380D01*
X162495547Y-91697380D01*
X162590785Y-91649761D01*
X162638404Y-91554523D01*
X162638404Y-91459285D01*
X162590785Y-91364047D01*
X162495547Y-91316428D01*
X162257452Y-91316428D01*
X162162214Y-91268809D01*
X161686023Y-91030714D02*
X161686023Y-91697380D01*
X161686023Y-91125952D02*
X161638404Y-91078333D01*
X161543166Y-91030714D01*
X161400309Y-91030714D01*
X161305071Y-91078333D01*
X161257452Y-91173571D01*
X161257452Y-91697380D01*
X160352690Y-91697380D02*
X160352690Y-91173571D01*
X160400309Y-91078333D01*
X160495547Y-91030714D01*
X160686023Y-91030714D01*
X160781261Y-91078333D01*
X160352690Y-91649761D02*
X160447928Y-91697380D01*
X160686023Y-91697380D01*
X160781261Y-91649761D01*
X160828880Y-91554523D01*
X160828880Y-91459285D01*
X160781261Y-91364047D01*
X160686023Y-91316428D01*
X160447928Y-91316428D01*
X160352690Y-91268809D01*
X159447928Y-91030714D02*
X159447928Y-91840238D01*
X159495547Y-91935476D01*
X159543166Y-91983095D01*
X159638404Y-92030714D01*
X159781261Y-92030714D01*
X159876500Y-91983095D01*
X159447928Y-91649761D02*
X159543166Y-91697380D01*
X159733642Y-91697380D01*
X159828880Y-91649761D01*
X159876500Y-91602142D01*
X159924119Y-91506904D01*
X159924119Y-91221190D01*
X159876500Y-91125952D01*
X159828880Y-91078333D01*
X159733642Y-91030714D01*
X159543166Y-91030714D01*
X159447928Y-91078333D01*
X158590785Y-91649761D02*
X158686023Y-91697380D01*
X158876500Y-91697380D01*
X158971738Y-91649761D01*
X159019357Y-91554523D01*
X159019357Y-91173571D01*
X158971738Y-91078333D01*
X158876500Y-91030714D01*
X158686023Y-91030714D01*
X158590785Y-91078333D01*
X158543166Y-91173571D01*
X158543166Y-91268809D01*
X159019357Y-91364047D01*
X158114595Y-91697380D02*
X158114595Y-91030714D01*
X158114595Y-91125952D02*
X158066976Y-91078333D01*
X157971738Y-91030714D01*
X157828880Y-91030714D01*
X157733642Y-91078333D01*
X157686023Y-91173571D01*
X157686023Y-91697380D01*
X157686023Y-91173571D02*
X157638404Y-91078333D01*
X157543166Y-91030714D01*
X157400309Y-91030714D01*
X157305071Y-91078333D01*
X157257452Y-91173571D01*
X157257452Y-91697380D01*
X156400309Y-91649761D02*
X156495547Y-91697380D01*
X156686023Y-91697380D01*
X156781261Y-91649761D01*
X156828880Y-91554523D01*
X156828880Y-91173571D01*
X156781261Y-91078333D01*
X156686023Y-91030714D01*
X156495547Y-91030714D01*
X156400309Y-91078333D01*
X156352690Y-91173571D01*
X156352690Y-91268809D01*
X156828880Y-91364047D01*
X155924119Y-91030714D02*
X155924119Y-91697380D01*
X155924119Y-91125952D02*
X155876500Y-91078333D01*
X155781261Y-91030714D01*
X155638404Y-91030714D01*
X155543166Y-91078333D01*
X155495547Y-91173571D01*
X155495547Y-91697380D01*
X155162214Y-91030714D02*
X154781261Y-91030714D01*
X155019357Y-90697380D02*
X155019357Y-91554523D01*
X154971738Y-91649761D01*
X154876500Y-91697380D01*
X154781261Y-91697380D01*
D11*
X182407779Y-95506000D02*
X182082221Y-95506000D01*
X182407779Y-94486000D02*
X182082221Y-94486000D01*
X182433279Y-92966000D02*
X182107721Y-92966000D01*
X182433279Y-91946000D02*
X182107721Y-91946000D01*
X182433279Y-90426000D02*
X182107721Y-90426000D01*
X182433279Y-89406000D02*
X182107721Y-89406000D01*
X182382279Y-87886000D02*
X182056721Y-87886000D01*
X182382279Y-86866000D02*
X182056721Y-86866000D01*
X182306279Y-85346000D02*
X181980721Y-85346000D01*
X182306279Y-84326000D02*
X181980721Y-84326000D01*
X182306279Y-82806000D02*
X181980721Y-82806000D01*
X182306279Y-81786000D02*
X181980721Y-81786000D01*
X182306279Y-79246000D02*
X181980721Y-79246000D01*
X182306279Y-80266000D02*
X181980721Y-80266000D01*
X182382279Y-77726000D02*
X182056721Y-77726000D01*
X182382279Y-76706000D02*
X182056721Y-76706000D01*
X146117000Y-82236000D02*
X148777000Y-82236000D01*
X146117000Y-92456000D02*
X146117000Y-82236000D01*
X148777000Y-92456000D02*
X148777000Y-82236000D01*
X146117000Y-92456000D02*
X148777000Y-92456000D01*
X146117000Y-93726000D02*
X146117000Y-95056000D01*
X146117000Y-95056000D02*
X147447000Y-95056000D01*
X159445000Y-98866000D02*
X159445000Y-97536000D01*
X158115000Y-98866000D02*
X159445000Y-98866000D01*
X156845000Y-98866000D02*
X156845000Y-96206000D01*
X156845000Y-96206000D02*
X149165000Y-96206000D01*
X156845000Y-98866000D02*
X149165000Y-98866000D01*
X149165000Y-98866000D02*
X149165000Y-96206000D01*
X144339000Y-62671000D02*
X144339000Y-60011000D01*
X159639000Y-62671000D02*
X144339000Y-62671000D01*
X159639000Y-60011000D02*
X144339000Y-60011000D01*
X159639000Y-62671000D02*
X159639000Y-60011000D01*
X160909000Y-62671000D02*
X162239000Y-62671000D01*
X162239000Y-62671000D02*
X162239000Y-61341000D01*
X176209000Y-96206000D02*
X176209000Y-98866000D01*
X163449000Y-96206000D02*
X176209000Y-96206000D01*
X163449000Y-98866000D02*
X176209000Y-98866000D01*
X163449000Y-96206000D02*
X163449000Y-98866000D01*
X162179000Y-96206000D02*
X160849000Y-96206000D01*
X160849000Y-96206000D02*
X160849000Y-97536000D01*
X177232000Y-73346000D02*
X179892000Y-73346000D01*
X177232000Y-96266000D02*
X177232000Y-73346000D01*
X179892000Y-96266000D02*
X179892000Y-73346000D01*
X177232000Y-96266000D02*
X179892000Y-96266000D01*
X177232000Y-97536000D02*
X177232000Y-98866000D01*
X177232000Y-98866000D02*
X178562000Y-98866000D01*
X146117000Y-80451000D02*
X147447000Y-80451000D01*
X146117000Y-79121000D02*
X146117000Y-80451000D01*
X146117000Y-77851000D02*
X148777000Y-77851000D01*
X148777000Y-77851000D02*
X148777000Y-65091000D01*
X146117000Y-77851000D02*
X146117000Y-65091000D01*
X146117000Y-65091000D02*
X148777000Y-65091000D01*
X150562000Y-71815000D02*
X150562000Y-69155000D01*
X163322000Y-71815000D02*
X150562000Y-71815000D01*
X163322000Y-69155000D02*
X150562000Y-69155000D01*
X163322000Y-71815000D02*
X163322000Y-69155000D01*
X164592000Y-71815000D02*
X165922000Y-71815000D01*
X165922000Y-71815000D02*
X165922000Y-70485000D01*
X182559000Y-71688000D02*
X182559000Y-70358000D01*
X181229000Y-71688000D02*
X182559000Y-71688000D01*
X179959000Y-71688000D02*
X179959000Y-69028000D01*
X179959000Y-69028000D02*
X167199000Y-69028000D01*
X179959000Y-71688000D02*
X167199000Y-71688000D01*
X167199000Y-71688000D02*
X167199000Y-69028000D01*
X171637000Y-64329000D02*
X171637000Y-66989000D01*
X163957000Y-64329000D02*
X171637000Y-64329000D01*
X163957000Y-66989000D02*
X171637000Y-66989000D01*
X163957000Y-64329000D02*
X163957000Y-66989000D01*
X162687000Y-64329000D02*
X161357000Y-64329000D01*
X161357000Y-64329000D02*
X161357000Y-65659000D01*
X166437000Y-60011000D02*
X166437000Y-61341000D01*
X167767000Y-60011000D02*
X166437000Y-60011000D01*
X169037000Y-60011000D02*
X169037000Y-62671000D01*
X169037000Y-62671000D02*
X171637000Y-62671000D01*
X169037000Y-60011000D02*
X171637000Y-60011000D01*
X171637000Y-60011000D02*
X171637000Y-62671000D01*
X182433279Y-96899000D02*
X182107721Y-96899000D01*
X182433279Y-97919000D02*
X182107721Y-97919000D01*
X184275000Y-95569721D02*
X184275000Y-95895279D01*
X185295000Y-95569721D02*
X185295000Y-95895279D01*
X185168000Y-90815279D02*
X185168000Y-90489721D01*
X184148000Y-90815279D02*
X184148000Y-90489721D01*
X185168000Y-87030779D02*
X185168000Y-86705221D01*
X184148000Y-87030779D02*
X184148000Y-86705221D01*
X185168000Y-83449279D02*
X185168000Y-83123721D01*
X184148000Y-83449279D02*
X184148000Y-83123721D01*
X185168000Y-79817279D02*
X185168000Y-79491721D01*
X184148000Y-79817279D02*
X184148000Y-79491721D01*
X185168000Y-75753279D02*
X185168000Y-75427721D01*
X184148000Y-75753279D02*
X184148000Y-75427721D01*
X182306279Y-75313000D02*
X181980721Y-75313000D01*
X182306279Y-74293000D02*
X181980721Y-74293000D01*
D10*
X182983095Y-94178380D02*
X182983095Y-93178380D01*
X182745000Y-93178380D01*
X182602142Y-93226000D01*
X182506904Y-93321238D01*
X182459285Y-93416476D01*
X182411666Y-93606952D01*
X182411666Y-93749809D01*
X182459285Y-93940285D01*
X182506904Y-94035523D01*
X182602142Y-94130761D01*
X182745000Y-94178380D01*
X182983095Y-94178380D01*
X181459285Y-94178380D02*
X182030714Y-94178380D01*
X181745000Y-94178380D02*
X181745000Y-93178380D01*
X181840238Y-93321238D01*
X181935476Y-93416476D01*
X182030714Y-93464095D01*
X183008595Y-91638380D02*
X183008595Y-90638380D01*
X182770500Y-90638380D01*
X182627642Y-90686000D01*
X182532404Y-90781238D01*
X182484785Y-90876476D01*
X182437166Y-91066952D01*
X182437166Y-91209809D01*
X182484785Y-91400285D01*
X182532404Y-91495523D01*
X182627642Y-91590761D01*
X182770500Y-91638380D01*
X183008595Y-91638380D01*
X182056214Y-90733619D02*
X182008595Y-90686000D01*
X181913357Y-90638380D01*
X181675261Y-90638380D01*
X181580023Y-90686000D01*
X181532404Y-90733619D01*
X181484785Y-90828857D01*
X181484785Y-90924095D01*
X181532404Y-91066952D01*
X182103833Y-91638380D01*
X181484785Y-91638380D01*
X183008595Y-89098380D02*
X183008595Y-88098380D01*
X182770500Y-88098380D01*
X182627642Y-88146000D01*
X182532404Y-88241238D01*
X182484785Y-88336476D01*
X182437166Y-88526952D01*
X182437166Y-88669809D01*
X182484785Y-88860285D01*
X182532404Y-88955523D01*
X182627642Y-89050761D01*
X182770500Y-89098380D01*
X183008595Y-89098380D01*
X182103833Y-88098380D02*
X181484785Y-88098380D01*
X181818119Y-88479333D01*
X181675261Y-88479333D01*
X181580023Y-88526952D01*
X181532404Y-88574571D01*
X181484785Y-88669809D01*
X181484785Y-88907904D01*
X181532404Y-89003142D01*
X181580023Y-89050761D01*
X181675261Y-89098380D01*
X181960976Y-89098380D01*
X182056214Y-89050761D01*
X182103833Y-89003142D01*
X182957595Y-86558380D02*
X182957595Y-85558380D01*
X182719500Y-85558380D01*
X182576642Y-85606000D01*
X182481404Y-85701238D01*
X182433785Y-85796476D01*
X182386166Y-85986952D01*
X182386166Y-86129809D01*
X182433785Y-86320285D01*
X182481404Y-86415523D01*
X182576642Y-86510761D01*
X182719500Y-86558380D01*
X182957595Y-86558380D01*
X181529023Y-85891714D02*
X181529023Y-86558380D01*
X181767119Y-85510761D02*
X182005214Y-86225047D01*
X181386166Y-86225047D01*
X182881595Y-84018380D02*
X182881595Y-83018380D01*
X182643500Y-83018380D01*
X182500642Y-83066000D01*
X182405404Y-83161238D01*
X182357785Y-83256476D01*
X182310166Y-83446952D01*
X182310166Y-83589809D01*
X182357785Y-83780285D01*
X182405404Y-83875523D01*
X182500642Y-83970761D01*
X182643500Y-84018380D01*
X182881595Y-84018380D01*
X181405404Y-83018380D02*
X181881595Y-83018380D01*
X181929214Y-83494571D01*
X181881595Y-83446952D01*
X181786357Y-83399333D01*
X181548261Y-83399333D01*
X181453023Y-83446952D01*
X181405404Y-83494571D01*
X181357785Y-83589809D01*
X181357785Y-83827904D01*
X181405404Y-83923142D01*
X181453023Y-83970761D01*
X181548261Y-84018380D01*
X181786357Y-84018380D01*
X181881595Y-83970761D01*
X181929214Y-83923142D01*
X182881595Y-81478380D02*
X182881595Y-80478380D01*
X182643500Y-80478380D01*
X182500642Y-80526000D01*
X182405404Y-80621238D01*
X182357785Y-80716476D01*
X182310166Y-80906952D01*
X182310166Y-81049809D01*
X182357785Y-81240285D01*
X182405404Y-81335523D01*
X182500642Y-81430761D01*
X182643500Y-81478380D01*
X182881595Y-81478380D01*
X181453023Y-80478380D02*
X181643500Y-80478380D01*
X181738738Y-80526000D01*
X181786357Y-80573619D01*
X181881595Y-80716476D01*
X181929214Y-80906952D01*
X181929214Y-81287904D01*
X181881595Y-81383142D01*
X181833976Y-81430761D01*
X181738738Y-81478380D01*
X181548261Y-81478380D01*
X181453023Y-81430761D01*
X181405404Y-81383142D01*
X181357785Y-81287904D01*
X181357785Y-81049809D01*
X181405404Y-80954571D01*
X181453023Y-80906952D01*
X181548261Y-80859333D01*
X181738738Y-80859333D01*
X181833976Y-80906952D01*
X181881595Y-80954571D01*
X181929214Y-81049809D01*
X182881595Y-78938380D02*
X182881595Y-77938380D01*
X182643500Y-77938380D01*
X182500642Y-77986000D01*
X182405404Y-78081238D01*
X182357785Y-78176476D01*
X182310166Y-78366952D01*
X182310166Y-78509809D01*
X182357785Y-78700285D01*
X182405404Y-78795523D01*
X182500642Y-78890761D01*
X182643500Y-78938380D01*
X182881595Y-78938380D01*
X181976833Y-77938380D02*
X181310166Y-77938380D01*
X181738738Y-78938380D01*
X182957595Y-76398380D02*
X182957595Y-75398380D01*
X182719500Y-75398380D01*
X182576642Y-75446000D01*
X182481404Y-75541238D01*
X182433785Y-75636476D01*
X182386166Y-75826952D01*
X182386166Y-75969809D01*
X182433785Y-76160285D01*
X182481404Y-76255523D01*
X182576642Y-76350761D01*
X182719500Y-76398380D01*
X182957595Y-76398380D01*
X181814738Y-75826952D02*
X181909976Y-75779333D01*
X181957595Y-75731714D01*
X182005214Y-75636476D01*
X182005214Y-75588857D01*
X181957595Y-75493619D01*
X181909976Y-75446000D01*
X181814738Y-75398380D01*
X181624261Y-75398380D01*
X181529023Y-75446000D01*
X181481404Y-75493619D01*
X181433785Y-75588857D01*
X181433785Y-75636476D01*
X181481404Y-75731714D01*
X181529023Y-75779333D01*
X181624261Y-75826952D01*
X181814738Y-75826952D01*
X181909976Y-75874571D01*
X181957595Y-75922190D01*
X182005214Y-76017428D01*
X182005214Y-76207904D01*
X181957595Y-76303142D01*
X181909976Y-76350761D01*
X181814738Y-76398380D01*
X181624261Y-76398380D01*
X181529023Y-76350761D01*
X181481404Y-76303142D01*
X181433785Y-76207904D01*
X181433785Y-76017428D01*
X181481404Y-75922190D01*
X181529023Y-75874571D01*
X181624261Y-75826952D01*
X145311761Y-87034857D02*
X145359380Y-87177714D01*
X145359380Y-87415809D01*
X145311761Y-87511047D01*
X145264142Y-87558666D01*
X145168904Y-87606285D01*
X145073666Y-87606285D01*
X144978428Y-87558666D01*
X144930809Y-87511047D01*
X144883190Y-87415809D01*
X144835571Y-87225333D01*
X144787952Y-87130095D01*
X144740333Y-87082476D01*
X144645095Y-87034857D01*
X144549857Y-87034857D01*
X144454619Y-87082476D01*
X144407000Y-87130095D01*
X144359380Y-87225333D01*
X144359380Y-87463428D01*
X144407000Y-87606285D01*
X144359380Y-87939619D02*
X145359380Y-88177714D01*
X144645095Y-88368190D01*
X145359380Y-88558666D01*
X144359380Y-88796761D01*
X145359380Y-89177714D02*
X144359380Y-89177714D01*
X144359380Y-89415809D01*
X144407000Y-89558666D01*
X144502238Y-89653904D01*
X144597476Y-89701523D01*
X144787952Y-89749142D01*
X144930809Y-89749142D01*
X145121285Y-89701523D01*
X145216523Y-89653904D01*
X145311761Y-89558666D01*
X145359380Y-89415809D01*
X145359380Y-89177714D01*
X155416047Y-95289666D02*
X154939857Y-95289666D01*
X155511285Y-95575380D02*
X155177952Y-94575380D01*
X154844619Y-95575380D01*
X153939857Y-95575380D02*
X154273190Y-95099190D01*
X154511285Y-95575380D02*
X154511285Y-94575380D01*
X154130333Y-94575380D01*
X154035095Y-94623000D01*
X153987476Y-94670619D01*
X153939857Y-94765857D01*
X153939857Y-94908714D01*
X153987476Y-95003952D01*
X154035095Y-95051571D01*
X154130333Y-95099190D01*
X154511285Y-95099190D01*
X153511285Y-95051571D02*
X153177952Y-95051571D01*
X153035095Y-95575380D02*
X153511285Y-95575380D01*
X153511285Y-94575380D01*
X153035095Y-94575380D01*
X152273190Y-95051571D02*
X152606523Y-95051571D01*
X152606523Y-95575380D02*
X152606523Y-94575380D01*
X152130333Y-94575380D01*
X154146095Y-63666666D02*
X153669904Y-63666666D01*
X154241333Y-63952380D02*
X153908000Y-62952380D01*
X153574666Y-63952380D01*
X153241333Y-62952380D02*
X153241333Y-63761904D01*
X153193714Y-63857142D01*
X153146095Y-63904761D01*
X153050857Y-63952380D01*
X152860380Y-63952380D01*
X152765142Y-63904761D01*
X152717523Y-63857142D01*
X152669904Y-63761904D01*
X152669904Y-62952380D01*
X152288952Y-62952380D02*
X151622285Y-63952380D01*
X151622285Y-62952380D02*
X152288952Y-63952380D01*
X170402095Y-95289666D02*
X169925904Y-95289666D01*
X170497333Y-95575380D02*
X170164000Y-94575380D01*
X169830666Y-95575380D01*
X169497333Y-95575380D02*
X169497333Y-94575380D01*
X169259238Y-94575380D01*
X169116380Y-94623000D01*
X169021142Y-94718238D01*
X168973523Y-94813476D01*
X168925904Y-95003952D01*
X168925904Y-95146809D01*
X168973523Y-95337285D01*
X169021142Y-95432523D01*
X169116380Y-95527761D01*
X169259238Y-95575380D01*
X169497333Y-95575380D01*
X167925904Y-95480142D02*
X167973523Y-95527761D01*
X168116380Y-95575380D01*
X168211619Y-95575380D01*
X168354476Y-95527761D01*
X168449714Y-95432523D01*
X168497333Y-95337285D01*
X168544952Y-95146809D01*
X168544952Y-95003952D01*
X168497333Y-94813476D01*
X168449714Y-94718238D01*
X168354476Y-94623000D01*
X168211619Y-94575380D01*
X168116380Y-94575380D01*
X167973523Y-94623000D01*
X167925904Y-94670619D01*
X175649000Y-82820000D02*
X175601380Y-82724761D01*
X175601380Y-82581904D01*
X175649000Y-82439047D01*
X175744238Y-82343809D01*
X175839476Y-82296190D01*
X176029952Y-82248571D01*
X176172809Y-82248571D01*
X176363285Y-82296190D01*
X176458523Y-82343809D01*
X176553761Y-82439047D01*
X176601380Y-82581904D01*
X176601380Y-82677142D01*
X176553761Y-82820000D01*
X176506142Y-82867619D01*
X176172809Y-82867619D01*
X176172809Y-82677142D01*
X176601380Y-83296190D02*
X175601380Y-83296190D01*
X175601380Y-83677142D01*
X175649000Y-83772380D01*
X175696619Y-83820000D01*
X175791857Y-83867619D01*
X175934714Y-83867619D01*
X176029952Y-83820000D01*
X176077571Y-83772380D01*
X176125190Y-83677142D01*
X176125190Y-83296190D01*
X176601380Y-84296190D02*
X175601380Y-84296190D01*
X175601380Y-84962857D02*
X175601380Y-85153333D01*
X175649000Y-85248571D01*
X175744238Y-85343809D01*
X175934714Y-85391428D01*
X176268047Y-85391428D01*
X176458523Y-85343809D01*
X176553761Y-85248571D01*
X176601380Y-85153333D01*
X176601380Y-84962857D01*
X176553761Y-84867619D01*
X176458523Y-84772380D01*
X176268047Y-84724761D01*
X175934714Y-84724761D01*
X175744238Y-84772380D01*
X175649000Y-84867619D01*
X175601380Y-84962857D01*
X144835571Y-74699952D02*
X144883190Y-74842809D01*
X144930809Y-74890428D01*
X145026047Y-74938047D01*
X145168904Y-74938047D01*
X145264142Y-74890428D01*
X145311761Y-74842809D01*
X145359380Y-74747571D01*
X145359380Y-74366619D01*
X144359380Y-74366619D01*
X144359380Y-74699952D01*
X144407000Y-74795190D01*
X144454619Y-74842809D01*
X144549857Y-74890428D01*
X144645095Y-74890428D01*
X144740333Y-74842809D01*
X144787952Y-74795190D01*
X144835571Y-74699952D01*
X144835571Y-74366619D01*
X145073666Y-75319000D02*
X145073666Y-75795190D01*
X145359380Y-75223761D02*
X144359380Y-75557095D01*
X145359380Y-75890428D01*
X144359380Y-76080904D02*
X144359380Y-76652333D01*
X145359380Y-76366619D02*
X144359380Y-76366619D01*
X144359380Y-76842809D02*
X144359380Y-77414238D01*
X145359380Y-77128523D02*
X144359380Y-77128523D01*
X161424523Y-73429761D02*
X161281666Y-73477380D01*
X161043571Y-73477380D01*
X160948333Y-73429761D01*
X160900714Y-73382142D01*
X160853095Y-73286904D01*
X160853095Y-73191666D01*
X160900714Y-73096428D01*
X160948333Y-73048809D01*
X161043571Y-73001190D01*
X161234047Y-72953571D01*
X161329285Y-72905952D01*
X161376904Y-72858333D01*
X161424523Y-72763095D01*
X161424523Y-72667857D01*
X161376904Y-72572619D01*
X161329285Y-72525000D01*
X161234047Y-72477380D01*
X160995952Y-72477380D01*
X160853095Y-72525000D01*
X160424523Y-72953571D02*
X160091190Y-72953571D01*
X159948333Y-73477380D02*
X160424523Y-73477380D01*
X160424523Y-72477380D01*
X159948333Y-72477380D01*
X158948333Y-73477380D02*
X159281666Y-73001190D01*
X159519761Y-73477380D02*
X159519761Y-72477380D01*
X159138809Y-72477380D01*
X159043571Y-72525000D01*
X158995952Y-72572619D01*
X158948333Y-72667857D01*
X158948333Y-72810714D01*
X158995952Y-72905952D01*
X159043571Y-72953571D01*
X159138809Y-73001190D01*
X159519761Y-73001190D01*
X157948333Y-73382142D02*
X157995952Y-73429761D01*
X158138809Y-73477380D01*
X158234047Y-73477380D01*
X158376904Y-73429761D01*
X158472142Y-73334523D01*
X158519761Y-73239285D01*
X158567380Y-73048809D01*
X158567380Y-72905952D01*
X158519761Y-72715476D01*
X158472142Y-72620238D01*
X158376904Y-72525000D01*
X158234047Y-72477380D01*
X158138809Y-72477380D01*
X157995952Y-72525000D01*
X157948333Y-72572619D01*
X157329285Y-72477380D02*
X157138809Y-72477380D01*
X157043571Y-72525000D01*
X156948333Y-72620238D01*
X156900714Y-72810714D01*
X156900714Y-73144047D01*
X156948333Y-73334523D01*
X157043571Y-73429761D01*
X157138809Y-73477380D01*
X157329285Y-73477380D01*
X157424523Y-73429761D01*
X157519761Y-73334523D01*
X157567380Y-73144047D01*
X157567380Y-72810714D01*
X157519761Y-72620238D01*
X157424523Y-72525000D01*
X157329285Y-72477380D01*
X156472142Y-73477380D02*
X156472142Y-72477380D01*
X156138809Y-73191666D01*
X155805476Y-72477380D01*
X155805476Y-73477380D01*
X155138809Y-72477380D02*
X155043571Y-72477380D01*
X154948333Y-72525000D01*
X154900714Y-72572619D01*
X154853095Y-72667857D01*
X154805476Y-72858333D01*
X154805476Y-73096428D01*
X154853095Y-73286904D01*
X154900714Y-73382142D01*
X154948333Y-73429761D01*
X155043571Y-73477380D01*
X155138809Y-73477380D01*
X155234047Y-73429761D01*
X155281666Y-73382142D01*
X155329285Y-73286904D01*
X155376904Y-73096428D01*
X155376904Y-72858333D01*
X155329285Y-72667857D01*
X155281666Y-72572619D01*
X155234047Y-72525000D01*
X155138809Y-72477380D01*
X175902523Y-73429761D02*
X175759666Y-73477380D01*
X175521571Y-73477380D01*
X175426333Y-73429761D01*
X175378714Y-73382142D01*
X175331095Y-73286904D01*
X175331095Y-73191666D01*
X175378714Y-73096428D01*
X175426333Y-73048809D01*
X175521571Y-73001190D01*
X175712047Y-72953571D01*
X175807285Y-72905952D01*
X175854904Y-72858333D01*
X175902523Y-72763095D01*
X175902523Y-72667857D01*
X175854904Y-72572619D01*
X175807285Y-72525000D01*
X175712047Y-72477380D01*
X175473952Y-72477380D01*
X175331095Y-72525000D01*
X174902523Y-72953571D02*
X174569190Y-72953571D01*
X174426333Y-73477380D02*
X174902523Y-73477380D01*
X174902523Y-72477380D01*
X174426333Y-72477380D01*
X173426333Y-73477380D02*
X173759666Y-73001190D01*
X173997761Y-73477380D02*
X173997761Y-72477380D01*
X173616809Y-72477380D01*
X173521571Y-72525000D01*
X173473952Y-72572619D01*
X173426333Y-72667857D01*
X173426333Y-72810714D01*
X173473952Y-72905952D01*
X173521571Y-72953571D01*
X173616809Y-73001190D01*
X173997761Y-73001190D01*
X172426333Y-73382142D02*
X172473952Y-73429761D01*
X172616809Y-73477380D01*
X172712047Y-73477380D01*
X172854904Y-73429761D01*
X172950142Y-73334523D01*
X172997761Y-73239285D01*
X173045380Y-73048809D01*
X173045380Y-72905952D01*
X172997761Y-72715476D01*
X172950142Y-72620238D01*
X172854904Y-72525000D01*
X172712047Y-72477380D01*
X172616809Y-72477380D01*
X172473952Y-72525000D01*
X172426333Y-72572619D01*
X171807285Y-72477380D02*
X171616809Y-72477380D01*
X171521571Y-72525000D01*
X171426333Y-72620238D01*
X171378714Y-72810714D01*
X171378714Y-73144047D01*
X171426333Y-73334523D01*
X171521571Y-73429761D01*
X171616809Y-73477380D01*
X171807285Y-73477380D01*
X171902523Y-73429761D01*
X171997761Y-73334523D01*
X172045380Y-73144047D01*
X172045380Y-72810714D01*
X171997761Y-72620238D01*
X171902523Y-72525000D01*
X171807285Y-72477380D01*
X170950142Y-73477380D02*
X170950142Y-72477380D01*
X170616809Y-73191666D01*
X170283476Y-72477380D01*
X170283476Y-73477380D01*
X169283476Y-73477380D02*
X169854904Y-73477380D01*
X169569190Y-73477380D02*
X169569190Y-72477380D01*
X169664428Y-72620238D01*
X169759666Y-72715476D01*
X169854904Y-72763095D01*
X160519904Y-64984380D02*
X160519904Y-65793904D01*
X160472285Y-65889142D01*
X160424666Y-65936761D01*
X160329428Y-65984380D01*
X160138952Y-65984380D01*
X160043714Y-65936761D01*
X159996095Y-65889142D01*
X159948476Y-65793904D01*
X159948476Y-64984380D01*
X159519904Y-65936761D02*
X159377047Y-65984380D01*
X159138952Y-65984380D01*
X159043714Y-65936761D01*
X158996095Y-65889142D01*
X158948476Y-65793904D01*
X158948476Y-65698666D01*
X158996095Y-65603428D01*
X159043714Y-65555809D01*
X159138952Y-65508190D01*
X159329428Y-65460571D01*
X159424666Y-65412952D01*
X159472285Y-65365333D01*
X159519904Y-65270095D01*
X159519904Y-65174857D01*
X159472285Y-65079619D01*
X159424666Y-65032000D01*
X159329428Y-64984380D01*
X159091333Y-64984380D01*
X158948476Y-65032000D01*
X158186571Y-65460571D02*
X158043714Y-65508190D01*
X157996095Y-65555809D01*
X157948476Y-65651047D01*
X157948476Y-65793904D01*
X157996095Y-65889142D01*
X158043714Y-65936761D01*
X158138952Y-65984380D01*
X158519904Y-65984380D01*
X158519904Y-64984380D01*
X158186571Y-64984380D01*
X158091333Y-65032000D01*
X158043714Y-65079619D01*
X157996095Y-65174857D01*
X157996095Y-65270095D01*
X158043714Y-65365333D01*
X158091333Y-65412952D01*
X158186571Y-65460571D01*
X158519904Y-65460571D01*
X165798333Y-61793380D02*
X165798333Y-60793380D01*
X165417380Y-60793380D01*
X165322142Y-60841000D01*
X165274523Y-60888619D01*
X165226904Y-60983857D01*
X165226904Y-61126714D01*
X165274523Y-61221952D01*
X165322142Y-61269571D01*
X165417380Y-61317190D01*
X165798333Y-61317190D01*
X164893571Y-60793380D02*
X164655476Y-61793380D01*
X164465000Y-61079095D01*
X164274523Y-61793380D01*
X164036428Y-60793380D01*
X163084047Y-61793380D02*
X163417380Y-61317190D01*
X163655476Y-61793380D02*
X163655476Y-60793380D01*
X163274523Y-60793380D01*
X163179285Y-60841000D01*
X163131666Y-60888619D01*
X163084047Y-60983857D01*
X163084047Y-61126714D01*
X163131666Y-61221952D01*
X163179285Y-61269571D01*
X163274523Y-61317190D01*
X163655476Y-61317190D01*
X182538666Y-99385380D02*
X182872000Y-98909190D01*
X183110095Y-99385380D02*
X183110095Y-98385380D01*
X182729142Y-98385380D01*
X182633904Y-98433000D01*
X182586285Y-98480619D01*
X182538666Y-98575857D01*
X182538666Y-98718714D01*
X182586285Y-98813952D01*
X182633904Y-98861571D01*
X182729142Y-98909190D01*
X183110095Y-98909190D01*
X182157714Y-98480619D02*
X182110095Y-98433000D01*
X182014857Y-98385380D01*
X181776761Y-98385380D01*
X181681523Y-98433000D01*
X181633904Y-98480619D01*
X181586285Y-98575857D01*
X181586285Y-98671095D01*
X181633904Y-98813952D01*
X182205333Y-99385380D01*
X181586285Y-99385380D01*
X186634380Y-95591333D02*
X186158190Y-95258000D01*
X186634380Y-95019904D02*
X185634380Y-95019904D01*
X185634380Y-95400857D01*
X185682000Y-95496095D01*
X185729619Y-95543714D01*
X185824857Y-95591333D01*
X185967714Y-95591333D01*
X186062952Y-95543714D01*
X186110571Y-95496095D01*
X186158190Y-95400857D01*
X186158190Y-95019904D01*
X185634380Y-95924666D02*
X185634380Y-96543714D01*
X186015333Y-96210380D01*
X186015333Y-96353238D01*
X186062952Y-96448476D01*
X186110571Y-96496095D01*
X186205809Y-96543714D01*
X186443904Y-96543714D01*
X186539142Y-96496095D01*
X186586761Y-96448476D01*
X186634380Y-96353238D01*
X186634380Y-96067523D01*
X186586761Y-95972285D01*
X186539142Y-95924666D01*
X186540380Y-90485833D02*
X186064190Y-90152500D01*
X186540380Y-89914404D02*
X185540380Y-89914404D01*
X185540380Y-90295357D01*
X185588000Y-90390595D01*
X185635619Y-90438214D01*
X185730857Y-90485833D01*
X185873714Y-90485833D01*
X185968952Y-90438214D01*
X186016571Y-90390595D01*
X186064190Y-90295357D01*
X186064190Y-89914404D01*
X185873714Y-91342976D02*
X186540380Y-91342976D01*
X185492761Y-91104880D02*
X186207047Y-90866785D01*
X186207047Y-91485833D01*
X186540380Y-86701333D02*
X186064190Y-86368000D01*
X186540380Y-86129904D02*
X185540380Y-86129904D01*
X185540380Y-86510857D01*
X185588000Y-86606095D01*
X185635619Y-86653714D01*
X185730857Y-86701333D01*
X185873714Y-86701333D01*
X185968952Y-86653714D01*
X186016571Y-86606095D01*
X186064190Y-86510857D01*
X186064190Y-86129904D01*
X185540380Y-87606095D02*
X185540380Y-87129904D01*
X186016571Y-87082285D01*
X185968952Y-87129904D01*
X185921333Y-87225142D01*
X185921333Y-87463238D01*
X185968952Y-87558476D01*
X186016571Y-87606095D01*
X186111809Y-87653714D01*
X186349904Y-87653714D01*
X186445142Y-87606095D01*
X186492761Y-87558476D01*
X186540380Y-87463238D01*
X186540380Y-87225142D01*
X186492761Y-87129904D01*
X186445142Y-87082285D01*
X186540380Y-83119833D02*
X186064190Y-82786500D01*
X186540380Y-82548404D02*
X185540380Y-82548404D01*
X185540380Y-82929357D01*
X185588000Y-83024595D01*
X185635619Y-83072214D01*
X185730857Y-83119833D01*
X185873714Y-83119833D01*
X185968952Y-83072214D01*
X186016571Y-83024595D01*
X186064190Y-82929357D01*
X186064190Y-82548404D01*
X185540380Y-83976976D02*
X185540380Y-83786500D01*
X185588000Y-83691261D01*
X185635619Y-83643642D01*
X185778476Y-83548404D01*
X185968952Y-83500785D01*
X186349904Y-83500785D01*
X186445142Y-83548404D01*
X186492761Y-83596023D01*
X186540380Y-83691261D01*
X186540380Y-83881738D01*
X186492761Y-83976976D01*
X186445142Y-84024595D01*
X186349904Y-84072214D01*
X186111809Y-84072214D01*
X186016571Y-84024595D01*
X185968952Y-83976976D01*
X185921333Y-83881738D01*
X185921333Y-83691261D01*
X185968952Y-83596023D01*
X186016571Y-83548404D01*
X186111809Y-83500785D01*
X186540380Y-79487833D02*
X186064190Y-79154500D01*
X186540380Y-78916404D02*
X185540380Y-78916404D01*
X185540380Y-79297357D01*
X185588000Y-79392595D01*
X185635619Y-79440214D01*
X185730857Y-79487833D01*
X185873714Y-79487833D01*
X185968952Y-79440214D01*
X186016571Y-79392595D01*
X186064190Y-79297357D01*
X186064190Y-78916404D01*
X185540380Y-79821166D02*
X185540380Y-80487833D01*
X186540380Y-80059261D01*
X186540380Y-75423833D02*
X186064190Y-75090500D01*
X186540380Y-74852404D02*
X185540380Y-74852404D01*
X185540380Y-75233357D01*
X185588000Y-75328595D01*
X185635619Y-75376214D01*
X185730857Y-75423833D01*
X185873714Y-75423833D01*
X185968952Y-75376214D01*
X186016571Y-75328595D01*
X186064190Y-75233357D01*
X186064190Y-74852404D01*
X185968952Y-75995261D02*
X185921333Y-75900023D01*
X185873714Y-75852404D01*
X185778476Y-75804785D01*
X185730857Y-75804785D01*
X185635619Y-75852404D01*
X185588000Y-75900023D01*
X185540380Y-75995261D01*
X185540380Y-76185738D01*
X185588000Y-76280976D01*
X185635619Y-76328595D01*
X185730857Y-76376214D01*
X185778476Y-76376214D01*
X185873714Y-76328595D01*
X185921333Y-76280976D01*
X185968952Y-76185738D01*
X185968952Y-75995261D01*
X186016571Y-75900023D01*
X186064190Y-75852404D01*
X186159428Y-75804785D01*
X186349904Y-75804785D01*
X186445142Y-75852404D01*
X186492761Y-75900023D01*
X186540380Y-75995261D01*
X186540380Y-76185738D01*
X186492761Y-76280976D01*
X186445142Y-76328595D01*
X186349904Y-76376214D01*
X186159428Y-76376214D01*
X186064190Y-76328595D01*
X186016571Y-76280976D01*
X185968952Y-76185738D01*
X182310166Y-73825380D02*
X182643500Y-73349190D01*
X182881595Y-73825380D02*
X182881595Y-72825380D01*
X182500642Y-72825380D01*
X182405404Y-72873000D01*
X182357785Y-72920619D01*
X182310166Y-73015857D01*
X182310166Y-73158714D01*
X182357785Y-73253952D01*
X182405404Y-73301571D01*
X182500642Y-73349190D01*
X182881595Y-73349190D01*
X181833976Y-73825380D02*
X181643500Y-73825380D01*
X181548261Y-73777761D01*
X181500642Y-73730142D01*
X181405404Y-73587285D01*
X181357785Y-73396809D01*
X181357785Y-73015857D01*
X181405404Y-72920619D01*
X181453023Y-72873000D01*
X181548261Y-72825380D01*
X181738738Y-72825380D01*
X181833976Y-72873000D01*
X181881595Y-72920619D01*
X181929214Y-73015857D01*
X181929214Y-73253952D01*
X181881595Y-73349190D01*
X181833976Y-73396809D01*
X181738738Y-73444428D01*
X181548261Y-73444428D01*
X181453023Y-73396809D01*
X181405404Y-73349190D01*
X181357785Y-73253952D01*
M02*
